<svg xmlns="http://www.w3.org/2000/svg" xmlns:xlink="http://www.w3.org/1999/xlink" width="600" height="400" viewBox="0 0 2400 1600">
<defs>
  <clipPath id="clip960">
    <rect x="0" y="0" width="2400" height="1600"></rect>
  </clipPath>
</defs>
<path clip-path="url(#clip960)" d="M0 1600 L2400 1600 L2400 0 L0 0  Z" fill="#ffffff" fill-rule="evenodd" fill-opacity="1"></path>
<defs>
  <clipPath id="clip961">
    <rect x="480" y="0" width="1681" height="1600"></rect>
  </clipPath>
</defs>
<path clip-path="url(#clip960)" d="M156.598 1486.45 L2352.76 1486.45 L2352.76 47.2441 L156.598 47.2441  Z" fill="#ffffff" fill-rule="evenodd" fill-opacity="1"></path>
<defs>
  <clipPath id="clip962">
    <rect x="156" y="47" width="2197" height="1440"></rect>
  </clipPath>
</defs>
<polyline clip-path="url(#clip962)" style="stroke:#000000; stroke-linecap:round; stroke-linejoin:round; stroke-width:2; stroke-opacity:0.1; fill:none" points="218.754,1486.45 218.754,47.2441 "></polyline>
<polyline clip-path="url(#clip962)" style="stroke:#000000; stroke-linecap:round; stroke-linejoin:round; stroke-width:2; stroke-opacity:0.1; fill:none" points="736.715,1486.45 736.715,47.2441 "></polyline>
<polyline clip-path="url(#clip962)" style="stroke:#000000; stroke-linecap:round; stroke-linejoin:round; stroke-width:2; stroke-opacity:0.1; fill:none" points="1254.68,1486.45 1254.68,47.2441 "></polyline>
<polyline clip-path="url(#clip962)" style="stroke:#000000; stroke-linecap:round; stroke-linejoin:round; stroke-width:2; stroke-opacity:0.1; fill:none" points="1772.64,1486.45 1772.64,47.2441 "></polyline>
<polyline clip-path="url(#clip962)" style="stroke:#000000; stroke-linecap:round; stroke-linejoin:round; stroke-width:2; stroke-opacity:0.1; fill:none" points="2290.6,1486.45 2290.6,47.2441 "></polyline>
<polyline clip-path="url(#clip960)" style="stroke:#000000; stroke-linecap:round; stroke-linejoin:round; stroke-width:4; stroke-opacity:1; fill:none" points="156.598,1486.45 2352.76,1486.45 "></polyline>
<polyline clip-path="url(#clip960)" style="stroke:#000000; stroke-linecap:round; stroke-linejoin:round; stroke-width:4; stroke-opacity:1; fill:none" points="218.754,1486.45 218.754,1467.55 "></polyline>
<polyline clip-path="url(#clip960)" style="stroke:#000000; stroke-linecap:round; stroke-linejoin:round; stroke-width:4; stroke-opacity:1; fill:none" points="736.715,1486.45 736.715,1467.55 "></polyline>
<polyline clip-path="url(#clip960)" style="stroke:#000000; stroke-linecap:round; stroke-linejoin:round; stroke-width:4; stroke-opacity:1; fill:none" points="1254.68,1486.45 1254.68,1467.55 "></polyline>
<polyline clip-path="url(#clip960)" style="stroke:#000000; stroke-linecap:round; stroke-linejoin:round; stroke-width:4; stroke-opacity:1; fill:none" points="1772.64,1486.45 1772.64,1467.55 "></polyline>
<polyline clip-path="url(#clip960)" style="stroke:#000000; stroke-linecap:round; stroke-linejoin:round; stroke-width:4; stroke-opacity:1; fill:none" points="2290.6,1486.45 2290.6,1467.55 "></polyline>
<path clip-path="url(#clip960)" d="M181.057 1517.37 Q177.446 1517.37 175.617 1520.93 Q173.812 1524.47 173.812 1531.6 Q173.812 1538.71 175.617 1542.27 Q177.446 1545.82 181.057 1545.82 Q184.691 1545.82 186.497 1542.27 Q188.326 1538.71 188.326 1531.6 Q188.326 1524.47 186.497 1520.93 Q184.691 1517.37 181.057 1517.37 M181.057 1513.66 Q186.867 1513.66 189.923 1518.27 Q193.001 1522.85 193.001 1531.6 Q193.001 1540.33 189.923 1544.94 Q186.867 1549.52 181.057 1549.52 Q175.247 1549.52 172.168 1544.94 Q169.113 1540.33 169.113 1531.6 Q169.113 1522.85 172.168 1518.27 Q175.247 1513.66 181.057 1513.66 Z" fill="#000000" fill-rule="nonzero" fill-opacity="1"></path><path clip-path="url(#clip960)" d="M201.219 1542.97 L206.103 1542.97 L206.103 1548.85 L201.219 1548.85 L201.219 1542.97 Z" fill="#000000" fill-rule="nonzero" fill-opacity="1"></path><path clip-path="url(#clip960)" d="M226.288 1517.37 Q222.677 1517.37 220.849 1520.93 Q219.043 1524.47 219.043 1531.6 Q219.043 1538.71 220.849 1542.27 Q222.677 1545.82 226.288 1545.82 Q229.923 1545.82 231.728 1542.27 Q233.557 1538.71 233.557 1531.6 Q233.557 1524.47 231.728 1520.93 Q229.923 1517.37 226.288 1517.37 M226.288 1513.66 Q232.098 1513.66 235.154 1518.27 Q238.233 1522.85 238.233 1531.6 Q238.233 1540.33 235.154 1544.94 Q232.098 1549.52 226.288 1549.52 Q220.478 1549.52 217.399 1544.94 Q214.344 1540.33 214.344 1531.6 Q214.344 1522.85 217.399 1518.27 Q220.478 1513.66 226.288 1513.66 Z" fill="#000000" fill-rule="nonzero" fill-opacity="1"></path><path clip-path="url(#clip960)" d="M256.45 1517.37 Q252.839 1517.37 251.01 1520.93 Q249.205 1524.47 249.205 1531.6 Q249.205 1538.71 251.01 1542.27 Q252.839 1545.82 256.45 1545.82 Q260.084 1545.82 261.89 1542.27 Q263.719 1538.71 263.719 1531.6 Q263.719 1524.47 261.89 1520.93 Q260.084 1517.37 256.45 1517.37 M256.45 1513.66 Q262.26 1513.66 265.316 1518.27 Q268.395 1522.85 268.395 1531.6 Q268.395 1540.33 265.316 1544.94 Q262.26 1549.52 256.45 1549.52 Q250.64 1549.52 247.561 1544.94 Q244.506 1540.33 244.506 1531.6 Q244.506 1522.85 247.561 1518.27 Q250.64 1513.66 256.45 1513.66 Z" fill="#000000" fill-rule="nonzero" fill-opacity="1"></path><path clip-path="url(#clip960)" d="M699.516 1517.37 Q695.905 1517.37 694.077 1520.93 Q692.271 1524.47 692.271 1531.6 Q692.271 1538.71 694.077 1542.27 Q695.905 1545.82 699.516 1545.82 Q703.151 1545.82 704.956 1542.27 Q706.785 1538.71 706.785 1531.6 Q706.785 1524.47 704.956 1520.93 Q703.151 1517.37 699.516 1517.37 M699.516 1513.66 Q705.327 1513.66 708.382 1518.27 Q711.461 1522.85 711.461 1531.6 Q711.461 1540.33 708.382 1544.94 Q705.327 1549.52 699.516 1549.52 Q693.706 1549.52 690.628 1544.94 Q687.572 1540.33 687.572 1531.6 Q687.572 1522.85 690.628 1518.27 Q693.706 1513.66 699.516 1513.66 Z" fill="#000000" fill-rule="nonzero" fill-opacity="1"></path><path clip-path="url(#clip960)" d="M719.678 1542.97 L724.563 1542.97 L724.563 1548.85 L719.678 1548.85 L719.678 1542.97 Z" fill="#000000" fill-rule="nonzero" fill-opacity="1"></path><path clip-path="url(#clip960)" d="M738.776 1544.91 L755.095 1544.91 L755.095 1548.85 L733.151 1548.85 L733.151 1544.91 Q735.813 1542.16 740.396 1537.53 Q745.002 1532.88 746.183 1531.53 Q748.428 1529.01 749.308 1527.27 Q750.211 1525.51 750.211 1523.82 Q750.211 1521.07 748.266 1519.33 Q746.345 1517.6 743.243 1517.6 Q741.044 1517.6 738.59 1518.36 Q736.16 1519.13 733.382 1520.68 L733.382 1515.95 Q736.206 1514.82 738.66 1514.24 Q741.113 1513.66 743.151 1513.66 Q748.521 1513.66 751.715 1516.35 Q754.91 1519.03 754.91 1523.52 Q754.91 1525.65 754.1 1527.57 Q753.312 1529.47 751.206 1532.07 Q750.627 1532.74 747.525 1535.95 Q744.424 1539.15 738.776 1544.91 Z" fill="#000000" fill-rule="nonzero" fill-opacity="1"></path><path clip-path="url(#clip960)" d="M764.956 1514.29 L783.312 1514.29 L783.312 1518.22 L769.238 1518.22 L769.238 1526.7 Q770.257 1526.35 771.275 1526.19 Q772.294 1526 773.312 1526 Q779.099 1526 782.479 1529.17 Q785.859 1532.34 785.859 1537.76 Q785.859 1543.34 782.386 1546.44 Q778.914 1549.52 772.595 1549.52 Q770.419 1549.52 768.15 1549.15 Q765.905 1548.78 763.498 1548.04 L763.498 1543.34 Q765.581 1544.47 767.803 1545.03 Q770.025 1545.58 772.502 1545.58 Q776.507 1545.58 778.845 1543.48 Q781.183 1541.37 781.183 1537.76 Q781.183 1534.15 778.845 1532.04 Q776.507 1529.94 772.502 1529.94 Q770.627 1529.94 768.752 1530.35 Q766.9 1530.77 764.956 1531.65 L764.956 1514.29 Z" fill="#000000" fill-rule="nonzero" fill-opacity="1"></path><path clip-path="url(#clip960)" d="M1216.98 1517.37 Q1213.37 1517.37 1211.54 1520.93 Q1209.74 1524.47 1209.74 1531.6 Q1209.74 1538.71 1211.54 1542.27 Q1213.37 1545.82 1216.98 1545.82 Q1220.61 1545.82 1222.42 1542.27 Q1224.25 1538.71 1224.25 1531.6 Q1224.25 1524.47 1222.42 1520.93 Q1220.61 1517.37 1216.98 1517.37 M1216.98 1513.66 Q1222.79 1513.66 1225.85 1518.27 Q1228.92 1522.85 1228.92 1531.6 Q1228.92 1540.33 1225.85 1544.94 Q1222.79 1549.52 1216.98 1549.52 Q1211.17 1549.52 1208.09 1544.94 Q1205.04 1540.33 1205.04 1531.6 Q1205.04 1522.85 1208.09 1518.27 Q1211.17 1513.66 1216.98 1513.66 Z" fill="#000000" fill-rule="nonzero" fill-opacity="1"></path><path clip-path="url(#clip960)" d="M1237.14 1542.97 L1242.03 1542.97 L1242.03 1548.85 L1237.14 1548.85 L1237.14 1542.97 Z" fill="#000000" fill-rule="nonzero" fill-opacity="1"></path><path clip-path="url(#clip960)" d="M1252.26 1514.29 L1270.61 1514.29 L1270.61 1518.22 L1256.54 1518.22 L1256.54 1526.7 Q1257.56 1526.35 1258.58 1526.19 Q1259.6 1526 1260.61 1526 Q1266.4 1526 1269.78 1529.17 Q1273.16 1532.34 1273.16 1537.76 Q1273.16 1543.34 1269.69 1546.44 Q1266.22 1549.52 1259.9 1549.52 Q1257.72 1549.52 1255.45 1549.15 Q1253.21 1548.78 1250.8 1548.04 L1250.8 1543.34 Q1252.88 1544.47 1255.11 1545.03 Q1257.33 1545.58 1259.8 1545.58 Q1263.81 1545.58 1266.15 1543.48 Q1268.48 1541.37 1268.48 1537.76 Q1268.48 1534.15 1266.15 1532.04 Q1263.81 1529.94 1259.8 1529.94 Q1257.93 1529.94 1256.05 1530.35 Q1254.2 1530.77 1252.26 1531.65 L1252.26 1514.29 Z" fill="#000000" fill-rule="nonzero" fill-opacity="1"></path><path clip-path="url(#clip960)" d="M1292.37 1517.37 Q1288.76 1517.37 1286.93 1520.93 Q1285.13 1524.47 1285.13 1531.6 Q1285.13 1538.71 1286.93 1542.27 Q1288.76 1545.82 1292.37 1545.82 Q1296.01 1545.82 1297.81 1542.27 Q1299.64 1538.71 1299.64 1531.6 Q1299.64 1524.47 1297.81 1520.93 Q1296.01 1517.37 1292.37 1517.37 M1292.37 1513.66 Q1298.18 1513.66 1301.24 1518.27 Q1304.32 1522.85 1304.32 1531.6 Q1304.32 1540.33 1301.24 1544.94 Q1298.18 1549.52 1292.37 1549.52 Q1286.56 1549.52 1283.48 1544.94 Q1280.43 1540.33 1280.43 1531.6 Q1280.43 1522.85 1283.48 1518.27 Q1286.56 1513.66 1292.37 1513.66 Z" fill="#000000" fill-rule="nonzero" fill-opacity="1"></path><path clip-path="url(#clip960)" d="M1735.44 1517.37 Q1731.83 1517.37 1730 1520.93 Q1728.19 1524.47 1728.19 1531.6 Q1728.19 1538.71 1730 1542.27 Q1731.83 1545.82 1735.44 1545.82 Q1739.07 1545.82 1740.88 1542.27 Q1742.71 1538.71 1742.71 1531.6 Q1742.71 1524.47 1740.88 1520.93 Q1739.07 1517.37 1735.44 1517.37 M1735.44 1513.66 Q1741.25 1513.66 1744.31 1518.27 Q1747.38 1522.85 1747.38 1531.6 Q1747.38 1540.33 1744.31 1544.94 Q1741.25 1549.52 1735.44 1549.52 Q1729.63 1549.52 1726.55 1544.94 Q1723.5 1540.33 1723.5 1531.6 Q1723.5 1522.85 1726.55 1518.27 Q1729.63 1513.66 1735.44 1513.66 Z" fill="#000000" fill-rule="nonzero" fill-opacity="1"></path><path clip-path="url(#clip960)" d="M1755.6 1542.97 L1760.49 1542.97 L1760.49 1548.85 L1755.6 1548.85 L1755.6 1542.97 Z" fill="#000000" fill-rule="nonzero" fill-opacity="1"></path><path clip-path="url(#clip960)" d="M1769.49 1514.29 L1791.71 1514.29 L1791.71 1516.28 L1779.17 1548.85 L1774.28 1548.85 L1786.09 1518.22 L1769.49 1518.22 L1769.49 1514.29 Z" fill="#000000" fill-rule="nonzero" fill-opacity="1"></path><path clip-path="url(#clip960)" d="M1800.88 1514.29 L1819.24 1514.29 L1819.24 1518.22 L1805.16 1518.22 L1805.16 1526.7 Q1806.18 1526.35 1807.2 1526.19 Q1808.22 1526 1809.24 1526 Q1815.02 1526 1818.4 1529.17 Q1821.78 1532.34 1821.78 1537.76 Q1821.78 1543.34 1818.31 1546.44 Q1814.84 1549.52 1808.52 1549.52 Q1806.34 1549.52 1804.07 1549.15 Q1801.83 1548.78 1799.42 1548.04 L1799.42 1543.34 Q1801.5 1544.47 1803.73 1545.03 Q1805.95 1545.58 1808.43 1545.58 Q1812.43 1545.58 1814.77 1543.48 Q1817.11 1541.37 1817.11 1537.76 Q1817.11 1534.15 1814.77 1532.04 Q1812.43 1529.94 1808.43 1529.94 Q1806.55 1529.94 1804.68 1530.35 Q1802.82 1530.77 1800.88 1531.65 L1800.88 1514.29 Z" fill="#000000" fill-rule="nonzero" fill-opacity="1"></path><path clip-path="url(#clip960)" d="M2242.67 1544.91 L2250.31 1544.91 L2250.31 1518.55 L2242 1520.21 L2242 1515.95 L2250.27 1514.29 L2254.94 1514.29 L2254.94 1544.91 L2262.58 1544.91 L2262.58 1548.85 L2242.67 1548.85 L2242.67 1544.91 Z" fill="#000000" fill-rule="nonzero" fill-opacity="1"></path><path clip-path="url(#clip960)" d="M2272.02 1542.97 L2276.91 1542.97 L2276.91 1548.85 L2272.02 1548.85 L2272.02 1542.97 Z" fill="#000000" fill-rule="nonzero" fill-opacity="1"></path><path clip-path="url(#clip960)" d="M2297.09 1517.37 Q2293.48 1517.37 2291.65 1520.93 Q2289.85 1524.47 2289.85 1531.6 Q2289.85 1538.71 2291.65 1542.27 Q2293.48 1545.82 2297.09 1545.82 Q2300.73 1545.82 2302.53 1542.27 Q2304.36 1538.71 2304.36 1531.6 Q2304.36 1524.47 2302.53 1520.93 Q2300.73 1517.37 2297.09 1517.37 M2297.09 1513.66 Q2302.9 1513.66 2305.96 1518.27 Q2309.04 1522.85 2309.04 1531.6 Q2309.04 1540.33 2305.96 1544.94 Q2302.9 1549.52 2297.09 1549.52 Q2291.28 1549.52 2288.2 1544.94 Q2285.15 1540.33 2285.15 1531.6 Q2285.15 1522.85 2288.2 1518.27 Q2291.28 1513.66 2297.09 1513.66 Z" fill="#000000" fill-rule="nonzero" fill-opacity="1"></path><path clip-path="url(#clip960)" d="M2327.26 1517.37 Q2323.64 1517.37 2321.82 1520.93 Q2320.01 1524.47 2320.01 1531.6 Q2320.01 1538.71 2321.82 1542.27 Q2323.64 1545.82 2327.26 1545.82 Q2330.89 1545.82 2332.7 1542.27 Q2334.52 1538.71 2334.52 1531.6 Q2334.52 1524.47 2332.7 1520.93 Q2330.89 1517.37 2327.26 1517.37 M2327.26 1513.66 Q2333.07 1513.66 2336.12 1518.27 Q2339.2 1522.85 2339.2 1531.6 Q2339.2 1540.33 2336.12 1544.94 Q2333.07 1549.52 2327.26 1549.52 Q2321.45 1549.52 2318.37 1544.94 Q2315.31 1540.33 2315.31 1531.6 Q2315.31 1522.85 2318.37 1518.27 Q2321.45 1513.66 2327.26 1513.66 Z" fill="#000000" fill-rule="nonzero" fill-opacity="1"></path><polyline clip-path="url(#clip962)" style="stroke:#000000; stroke-linecap:round; stroke-linejoin:round; stroke-width:2; stroke-opacity:0.1; fill:none" points="156.598,1236.32 2352.76,1236.32 "></polyline>
<polyline clip-path="url(#clip962)" style="stroke:#000000; stroke-linecap:round; stroke-linejoin:round; stroke-width:2; stroke-opacity:0.1; fill:none" points="156.598,950.358 2352.76,950.358 "></polyline>
<polyline clip-path="url(#clip962)" style="stroke:#000000; stroke-linecap:round; stroke-linejoin:round; stroke-width:2; stroke-opacity:0.1; fill:none" points="156.598,664.391 2352.76,664.391 "></polyline>
<polyline clip-path="url(#clip962)" style="stroke:#000000; stroke-linecap:round; stroke-linejoin:round; stroke-width:2; stroke-opacity:0.1; fill:none" points="156.598,378.425 2352.76,378.425 "></polyline>
<polyline clip-path="url(#clip962)" style="stroke:#000000; stroke-linecap:round; stroke-linejoin:round; stroke-width:2; stroke-opacity:0.1; fill:none" points="156.598,92.4585 2352.76,92.4585 "></polyline>
<polyline clip-path="url(#clip960)" style="stroke:#000000; stroke-linecap:round; stroke-linejoin:round; stroke-width:4; stroke-opacity:1; fill:none" points="156.598,1486.45 156.598,47.2441 "></polyline>
<polyline clip-path="url(#clip960)" style="stroke:#000000; stroke-linecap:round; stroke-linejoin:round; stroke-width:4; stroke-opacity:1; fill:none" points="156.598,1236.32 175.496,1236.32 "></polyline>
<polyline clip-path="url(#clip960)" style="stroke:#000000; stroke-linecap:round; stroke-linejoin:round; stroke-width:4; stroke-opacity:1; fill:none" points="156.598,950.358 175.496,950.358 "></polyline>
<polyline clip-path="url(#clip960)" style="stroke:#000000; stroke-linecap:round; stroke-linejoin:round; stroke-width:4; stroke-opacity:1; fill:none" points="156.598,664.391 175.496,664.391 "></polyline>
<polyline clip-path="url(#clip960)" style="stroke:#000000; stroke-linecap:round; stroke-linejoin:round; stroke-width:4; stroke-opacity:1; fill:none" points="156.598,378.425 175.496,378.425 "></polyline>
<polyline clip-path="url(#clip960)" style="stroke:#000000; stroke-linecap:round; stroke-linejoin:round; stroke-width:4; stroke-opacity:1; fill:none" points="156.598,92.4585 175.496,92.4585 "></polyline>
<path clip-path="url(#clip960)" d="M65.0198 1222.12 Q61.4087 1222.12 59.58 1225.69 Q57.7745 1229.23 57.7745 1236.36 Q57.7745 1243.47 59.58 1247.03 Q61.4087 1250.57 65.0198 1250.57 Q68.6541 1250.57 70.4596 1247.03 Q72.2883 1243.47 72.2883 1236.36 Q72.2883 1229.23 70.4596 1225.69 Q68.6541 1222.12 65.0198 1222.12 M65.0198 1218.42 Q70.83 1218.42 73.8855 1223.03 Q76.9642 1227.61 76.9642 1236.36 Q76.9642 1245.09 73.8855 1249.69 Q70.83 1254.28 65.0198 1254.28 Q59.2097 1254.28 56.131 1249.69 Q53.0754 1245.09 53.0754 1236.36 Q53.0754 1227.61 56.131 1223.03 Q59.2097 1218.42 65.0198 1218.42 Z" fill="#000000" fill-rule="nonzero" fill-opacity="1"></path><path clip-path="url(#clip960)" d="M85.1818 1247.72 L90.066 1247.72 L90.066 1253.6 L85.1818 1253.6 L85.1818 1247.72 Z" fill="#000000" fill-rule="nonzero" fill-opacity="1"></path><path clip-path="url(#clip960)" d="M104.279 1249.67 L120.598 1249.67 L120.598 1253.6 L98.6539 1253.6 L98.6539 1249.67 Q101.316 1246.91 105.899 1242.28 Q110.506 1237.63 111.686 1236.29 Q113.932 1233.77 114.811 1232.03 Q115.714 1230.27 115.714 1228.58 Q115.714 1225.83 113.77 1224.09 Q111.848 1222.35 108.746 1222.35 Q106.547 1222.35 104.094 1223.12 Q101.663 1223.88 98.8854 1225.43 L98.8854 1220.71 Q101.709 1219.58 104.163 1219 Q106.617 1218.42 108.654 1218.42 Q114.024 1218.42 117.219 1221.1 Q120.413 1223.79 120.413 1228.28 Q120.413 1230.41 119.603 1232.33 Q118.816 1234.23 116.709 1236.82 Q116.131 1237.49 113.029 1240.71 Q109.927 1243.91 104.279 1249.67 Z" fill="#000000" fill-rule="nonzero" fill-opacity="1"></path><path clip-path="url(#clip960)" d="M62.9365 936.156 Q59.3254 936.156 57.4967 939.721 Q55.6912 943.263 55.6912 950.392 Q55.6912 957.499 57.4967 961.064 Q59.3254 964.605 62.9365 964.605 Q66.5707 964.605 68.3763 961.064 Q70.205 957.499 70.205 950.392 Q70.205 943.263 68.3763 939.721 Q66.5707 936.156 62.9365 936.156 M62.9365 932.453 Q68.7467 932.453 71.8022 937.059 Q74.8809 941.642 74.8809 950.392 Q74.8809 959.119 71.8022 963.726 Q68.7467 968.309 62.9365 968.309 Q57.1264 968.309 54.0477 963.726 Q50.9921 959.119 50.9921 950.392 Q50.9921 941.642 54.0477 937.059 Q57.1264 932.453 62.9365 932.453 Z" fill="#000000" fill-rule="nonzero" fill-opacity="1"></path><path clip-path="url(#clip960)" d="M83.0984 961.758 L87.9827 961.758 L87.9827 967.638 L83.0984 967.638 L83.0984 961.758 Z" fill="#000000" fill-rule="nonzero" fill-opacity="1"></path><path clip-path="url(#clip960)" d="M111.015 937.152 L99.2095 955.601 L111.015 955.601 L111.015 937.152 M109.788 933.078 L115.668 933.078 L115.668 955.601 L120.598 955.601 L120.598 959.49 L115.668 959.49 L115.668 967.638 L111.015 967.638 L111.015 959.49 L95.4132 959.49 L95.4132 954.976 L109.788 933.078 Z" fill="#000000" fill-rule="nonzero" fill-opacity="1"></path><path clip-path="url(#clip960)" d="M63.2606 650.19 Q59.6495 650.19 57.8208 653.755 Q56.0152 657.296 56.0152 664.426 Q56.0152 671.532 57.8208 675.097 Q59.6495 678.639 63.2606 678.639 Q66.8948 678.639 68.7004 675.097 Q70.5291 671.532 70.5291 664.426 Q70.5291 657.296 68.7004 653.755 Q66.8948 650.19 63.2606 650.19 M63.2606 646.486 Q69.0707 646.486 72.1263 651.093 Q75.205 655.676 75.205 664.426 Q75.205 673.153 72.1263 677.759 Q69.0707 682.343 63.2606 682.343 Q57.4504 682.343 54.3717 677.759 Q51.3162 673.153 51.3162 664.426 Q51.3162 655.676 54.3717 651.093 Q57.4504 646.486 63.2606 646.486 Z" fill="#000000" fill-rule="nonzero" fill-opacity="1"></path><path clip-path="url(#clip960)" d="M83.4225 675.792 L88.3067 675.792 L88.3067 681.671 L83.4225 681.671 L83.4225 675.792 Z" fill="#000000" fill-rule="nonzero" fill-opacity="1"></path><path clip-path="url(#clip960)" d="M109.071 662.528 Q105.922 662.528 104.071 664.681 Q102.242 666.833 102.242 670.583 Q102.242 674.31 104.071 676.486 Q105.922 678.639 109.071 678.639 Q112.219 678.639 114.047 676.486 Q115.899 674.31 115.899 670.583 Q115.899 666.833 114.047 664.681 Q112.219 662.528 109.071 662.528 M118.353 647.875 L118.353 652.134 Q116.594 651.301 114.788 650.861 Q113.006 650.421 111.246 650.421 Q106.617 650.421 104.163 653.546 Q101.733 656.671 101.385 662.991 Q102.751 660.977 104.811 659.912 Q106.871 658.824 109.348 658.824 Q114.557 658.824 117.566 661.995 Q120.598 665.144 120.598 670.583 Q120.598 675.907 117.45 679.125 Q114.302 682.343 109.071 682.343 Q103.075 682.343 99.9039 677.759 Q96.7326 673.153 96.7326 664.426 Q96.7326 656.232 100.621 651.371 Q104.51 646.486 111.061 646.486 Q112.82 646.486 114.603 646.834 Q116.408 647.181 118.353 647.875 Z" fill="#000000" fill-rule="nonzero" fill-opacity="1"></path><path clip-path="url(#clip960)" d="M63.5152 364.224 Q59.9041 364.224 58.0754 367.788 Q56.2699 371.33 56.2699 378.46 Q56.2699 385.566 58.0754 389.131 Q59.9041 392.673 63.5152 392.673 Q67.1494 392.673 68.955 389.131 Q70.7837 385.566 70.7837 378.46 Q70.7837 371.33 68.955 367.788 Q67.1494 364.224 63.5152 364.224 M63.5152 360.52 Q69.3254 360.52 72.3809 365.126 Q75.4596 369.71 75.4596 378.46 Q75.4596 387.186 72.3809 391.793 Q69.3254 396.376 63.5152 396.376 Q57.7051 396.376 54.6264 391.793 Q51.5708 387.186 51.5708 378.46 Q51.5708 369.71 54.6264 365.126 Q57.7051 360.52 63.5152 360.52 Z" fill="#000000" fill-rule="nonzero" fill-opacity="1"></path><path clip-path="url(#clip960)" d="M83.6771 389.825 L88.5614 389.825 L88.5614 395.705 L83.6771 395.705 L83.6771 389.825 Z" fill="#000000" fill-rule="nonzero" fill-opacity="1"></path><path clip-path="url(#clip960)" d="M108.746 379.293 Q105.413 379.293 103.492 381.075 Q101.594 382.858 101.594 385.983 Q101.594 389.108 103.492 390.89 Q105.413 392.673 108.746 392.673 Q112.08 392.673 114.001 390.89 Q115.922 389.085 115.922 385.983 Q115.922 382.858 114.001 381.075 Q112.103 379.293 108.746 379.293 M104.071 377.302 Q101.061 376.561 99.3715 374.501 Q97.7048 372.441 97.7048 369.478 Q97.7048 365.335 100.645 362.927 Q103.608 360.52 108.746 360.52 Q113.908 360.52 116.848 362.927 Q119.788 365.335 119.788 369.478 Q119.788 372.441 118.098 374.501 Q116.432 376.561 113.445 377.302 Q116.825 378.089 118.7 380.381 Q120.598 382.673 120.598 385.983 Q120.598 391.006 117.52 393.691 Q114.464 396.376 108.746 396.376 Q103.029 396.376 99.9502 393.691 Q96.8947 391.006 96.8947 385.983 Q96.8947 382.673 98.7928 380.381 Q100.691 378.089 104.071 377.302 M102.358 369.918 Q102.358 372.603 104.024 374.108 Q105.714 375.612 108.746 375.612 Q111.756 375.612 113.445 374.108 Q115.158 372.603 115.158 369.918 Q115.158 367.233 113.445 365.728 Q111.756 364.224 108.746 364.224 Q105.714 364.224 104.024 365.728 Q102.358 367.233 102.358 369.918 Z" fill="#000000" fill-rule="nonzero" fill-opacity="1"></path><path clip-path="url(#clip960)" d="M54.2328 105.803 L61.8717 105.803 L61.8717 79.4377 L53.5616 81.1044 L53.5616 76.8452 L61.8254 75.1785 L66.5013 75.1785 L66.5013 105.803 L74.1402 105.803 L74.1402 109.739 L54.2328 109.739 L54.2328 105.803 Z" fill="#000000" fill-rule="nonzero" fill-opacity="1"></path><path clip-path="url(#clip960)" d="M83.5845 103.859 L88.4688 103.859 L88.4688 109.739 L83.5845 109.739 L83.5845 103.859 Z" fill="#000000" fill-rule="nonzero" fill-opacity="1"></path><path clip-path="url(#clip960)" d="M108.654 78.2572 Q105.043 78.2572 103.214 81.822 Q101.409 85.3636 101.409 92.4932 Q101.409 99.5997 103.214 103.164 Q105.043 106.706 108.654 106.706 Q112.288 106.706 114.094 103.164 Q115.922 99.5997 115.922 92.4932 Q115.922 85.3636 114.094 81.822 Q112.288 78.2572 108.654 78.2572 M108.654 74.5535 Q114.464 74.5535 117.52 79.16 Q120.598 83.7433 120.598 92.4932 Q120.598 101.22 117.52 105.826 Q114.464 110.41 108.654 110.41 Q102.844 110.41 99.765 105.826 Q96.7095 101.22 96.7095 92.4932 Q96.7095 83.7433 99.765 79.16 Q102.844 74.5535 108.654 74.5535 Z" fill="#000000" fill-rule="nonzero" fill-opacity="1"></path><polyline clip-path="url(#clip962)" style="stroke:#009af9; stroke-linecap:round; stroke-linejoin:round; stroke-width:4; stroke-opacity:1; fill:none" points="218.754,92.4585 221.991,92.4585 225.228,92.4585 228.465,92.4585 231.703,92.4585 234.94,92.4585 238.177,92.4585 241.414,92.4585 244.652,92.4585 247.889,92.4585 251.126,92.4585 "></polyline>
<polyline clip-path="url(#clip962)" style="stroke:#e26f46; stroke-linecap:round; stroke-linejoin:round; stroke-width:4; stroke-opacity:1; fill:none" points="251.126,92.4586 254.364,92.4585 257.601,92.4585 260.838,92.4585 264.075,92.4585 267.313,92.4585 270.55,92.4585 273.787,92.4586 277.024,92.4585 280.262,92.4585 283.499,92.4585 "></polyline>
<polyline clip-path="url(#clip962)" style="stroke:#3da44d; stroke-linecap:round; stroke-linejoin:round; stroke-width:4; stroke-opacity:1; fill:none" points="283.499,92.4585 286.736,92.4585 289.973,92.4585 293.211,92.4585 296.448,92.4585 299.685,92.4585 302.922,92.4584 306.16,92.4585 309.397,92.4585 312.634,92.4586 315.871,92.4581 "></polyline>
<polyline clip-path="url(#clip962)" style="stroke:#c271d2; stroke-linecap:round; stroke-linejoin:round; stroke-width:4; stroke-opacity:1; fill:none" points="315.871,92.4577 319.109,92.4578 322.346,92.4593 325.583,92.4585 328.821,92.4576 332.058,92.4593 335.295,92.4593 338.532,92.4565 341.77,92.4588 345.007,92.4623 348.244,92.4537 "></polyline>
<polyline clip-path="url(#clip962)" style="stroke:#ac8d18; stroke-linecap:round; stroke-linejoin:round; stroke-width:4; stroke-opacity:1; fill:none" points="348.244,92.4534 351.481,92.4613 354.719,92.4641 357.956,92.4494 361.193,92.4587 364.43,92.471 367.668,92.4505 370.905,92.441 374.142,92.4898 377.379,92.4651 380.617,92.4184 "></polyline>
<polyline clip-path="url(#clip962)" style="stroke:#00a9ad; stroke-linecap:round; stroke-linejoin:round; stroke-width:4; stroke-opacity:1; fill:none" points="380.617,92.4111 383.854,92.5525 387.091,92.4619 390.328,92.338 393.566,92.5365 396.803,92.574 400.04,92.2874 403.278,92.3495 406.515,92.8363 409.752,92.3739 412.989,92.0788 "></polyline>
<polyline clip-path="url(#clip962)" style="stroke:#ed5d92; stroke-linecap:round; stroke-linejoin:round; stroke-width:4; stroke-opacity:1; fill:none" points="412.989,92.0085 416.227,93.1858 419.464,92.6791 422.701,91.4819 425.938,92.4255 429.176,93.4226 432.413,92.0303 435.65,90.8427 438.887,93.3826 442.125,94.281 445.362,90.1693 "></polyline>
<polyline clip-path="url(#clip962)" style="stroke:#c68125; stroke-linecap:round; stroke-linejoin:round; stroke-width:4; stroke-opacity:1; fill:none" points="445.362,89.8409 448.599,87.9763 451.836,91.2549 455.074,98.0833 458.311,106.13 461.548,113.788 464.785,121.22 468.023,128.324 471.26,135.469 474.497,143.413 477.734,150.087 "></polyline>
<polyline clip-path="url(#clip962)" style="stroke:#00a98d; stroke-linecap:round; stroke-linejoin:round; stroke-width:4; stroke-opacity:1; fill:none" points="477.734,150.112 480.972,157.081 484.209,164.725 487.446,171.308 490.684,178.433 493.921,185.322 497.158,191.402 500.395,199.264 503.633,209.175 506.87,216.21 510.107,222.256 "></polyline>
<polyline clip-path="url(#clip962)" style="stroke:#8e971d; stroke-linecap:round; stroke-linejoin:round; stroke-width:4; stroke-opacity:1; fill:none" points="510.107,222.184 513.344,229.884 516.582,236.458 519.819,243.63 523.056,250.771 526.293,257.466 529.531,264.26 532.768,270.701 536.005,277.202 539.242,285.42 542.48,293.024 "></polyline>
<polyline clip-path="url(#clip962)" style="stroke:#00a8cb; stroke-linecap:round; stroke-linejoin:round; stroke-width:4; stroke-opacity:1; fill:none" points="542.48,293.014 545.717,298.732 548.954,305.921 552.191,312.775 555.429,319.293 558.666,325.584 561.903,331.654 565.141,338.32 568.378,345.607 571.615,352.037 574.852,358.281 "></polyline>
<polyline clip-path="url(#clip962)" style="stroke:#9b7fe8; stroke-linecap:round; stroke-linejoin:round; stroke-width:4; stroke-opacity:1; fill:none" points="574.852,358.283 578.09,365.146 581.327,371.453 584.564,377.976 587.801,384.692 591.039,391.299 594.276,397.31 597.513,402.852 600.75,408.995 603.988,414.759 607.225,422.253 "></polyline>
<polyline clip-path="url(#clip962)" style="stroke:#608cf6; stroke-linecap:round; stroke-linejoin:round; stroke-width:4; stroke-opacity:1; fill:none" points="607.225,422.199 610.462,426.391 613.699,433.486 616.937,437.754 620.174,446.753 623.411,452.315 626.648,456.937 629.886,472.343 633.123,479.753 636.36,473.256 639.598,483.48 "></polyline>
<polyline clip-path="url(#clip962)" style="stroke:#f05f73; stroke-linecap:round; stroke-linejoin:round; stroke-width:4; stroke-opacity:1; fill:none" points="639.598,483.443 642.835,499.547 646.072,504.17 649.309,510.485 652.547,518.915 655.784,526.251 659.021,530.957 662.258,534.31 665.496,537.602 668.733,545.13 671.97,539.143 "></polyline>
<polyline clip-path="url(#clip962)" style="stroke:#dd64b5; stroke-linecap:round; stroke-linejoin:round; stroke-width:4; stroke-opacity:1; fill:none" points="671.97,538.655 675.207,558.573 678.445,560.829 681.682,568.389 684.919,573.126 688.156,576.876 691.394,581.645 694.631,587.553 697.868,595.103 701.105,600.723 704.343,601.698 "></polyline>
<polyline clip-path="url(#clip962)" style="stroke:#6b9e32; stroke-linecap:round; stroke-linejoin:round; stroke-width:4; stroke-opacity:1; fill:none" points="704.343,601.744 707.58,609.761 710.817,614.168 714.055,617.043 717.292,628.572 720.529,635.199 723.766,629.64 727.004,631.817 730.241,650.732 733.478,650.268 736.715,657.211 "></polyline>
<polyline clip-path="url(#clip962)" style="stroke:#009af9; stroke-linecap:round; stroke-linejoin:round; stroke-width:4; stroke-opacity:1; fill:none" points="736.715,658.948 739.953,669.248 743.19,667.135 746.427,668.369 749.664,675.214 752.902,680.265 756.139,688.783 759.376,692.491 762.613,691.37 765.851,705.916 769.088,711.745 "></polyline>
<polyline clip-path="url(#clip962)" style="stroke:#e26f46; stroke-linecap:round; stroke-linejoin:round; stroke-width:4; stroke-opacity:1; fill:none" points="769.088,711.479 772.325,699.243 775.562,687.667 778.8,674.76 782.037,686.319 785.274,699.609 788.512,692.505 791.749,694.522 794.986,711.455 798.223,701.978 801.461,678.378 "></polyline>
<polyline clip-path="url(#clip962)" style="stroke:#3da44d; stroke-linecap:round; stroke-linejoin:round; stroke-width:4; stroke-opacity:1; fill:none" points="801.461,676.887 804.698,675.523 807.935,687.96 811.172,695.48 814.41,689.403 817.647,699.147 820.884,713.165 824.121,697.001 827.359,673.944 830.596,681.045 833.833,703.833 "></polyline>
<polyline clip-path="url(#clip962)" style="stroke:#c271d2; stroke-linecap:round; stroke-linejoin:round; stroke-width:4; stroke-opacity:1; fill:none" points="833.833,706.988 837.07,702.271 840.308,688.922 843.545,700.014 846.782,716.938 850.019,696.076 853.257,671.037 856.494,679.804 859.731,694.53 862.969,693.11 866.206,682.685 "></polyline>
<polyline clip-path="url(#clip962)" style="stroke:#ac8d18; stroke-linecap:round; stroke-linejoin:round; stroke-width:4; stroke-opacity:1; fill:none" points="866.206,680.276 869.443,702.266 872.68,718.212 875.918,689.592 879.155,667.312 882.392,684.806 885.629,698.219 888.867,689.975 892.104,695.106 895.341,712.296 898.578,712.797 "></polyline>
<polyline clip-path="url(#clip962)" style="stroke:#00a9ad; stroke-linecap:round; stroke-linejoin:round; stroke-width:4; stroke-opacity:1; fill:none" points="898.578,713.238 901.816,685.254 905.053,664.133 908.29,689.061 911.527,697.249 914.765,688.683 918.002,700.282 921.239,716.376 924.476,705.621 927.714,681.019 930.951,671.028 "></polyline>
<polyline clip-path="url(#clip962)" style="stroke:#ed5d92; stroke-linecap:round; stroke-linejoin:round; stroke-width:4; stroke-opacity:1; fill:none" points="930.951,671.761 934.188,688.349 937.426,699.027 940.663,688.892 943.9,703.904 947.137,719.668 950.375,700.19 953.612,672.899 956.849,672.752 960.086,689.198 963.324,688.835 "></polyline>
<polyline clip-path="url(#clip962)" style="stroke:#c68125; stroke-linecap:round; stroke-linejoin:round; stroke-width:4; stroke-opacity:1; fill:none" points="963.324,686.412 966.561,688.33 969.798,711.094 973.035,720.522 976.273,690.47 979.51,667.998 982.747,676.989 985.984,693.338 989.222,694.522 992.459,695.79 995.696,718.781 "></polyline>
<polyline clip-path="url(#clip962)" style="stroke:#00a98d; stroke-linecap:round; stroke-linejoin:round; stroke-width:4; stroke-opacity:1; fill:none" points="995.696,719.513 998.933,719.605 1002.17,679.466 1005.41,666.049 1008.65,683.056 1011.88,692.284 1015.12,693.071 1018.36,703.944 1021.59,719.531 1024.83,711.179 1028.07,676.92 "></polyline>
<polyline clip-path="url(#clip962)" style="stroke:#8e971d; stroke-linecap:round; stroke-linejoin:round; stroke-width:4; stroke-opacity:1; fill:none" points="1028.07,677.405 1031.31,667.453 1034.54,686.429 1037.78,690.487 1041.02,696.046 1044.26,711.078 1047.49,719.169 1050.73,702.495 1053.97,671.771 1057.2,666.78 1060.44,689.889 "></polyline>
<polyline clip-path="url(#clip962)" style="stroke:#00a8cb; stroke-linecap:round; stroke-linejoin:round; stroke-width:4; stroke-opacity:1; fill:none" points="1060.44,689.985 1063.68,690.78 1066.92,701.202 1070.15,715.381 1073.39,716.42 1076.63,694.033 1079.86,669.934 1083.1,670.344 1086.34,685.602 1089.58,693.33 1092.81,701.836 "></polyline>
<polyline clip-path="url(#clip962)" style="stroke:#9b7fe8; stroke-linecap:round; stroke-linejoin:round; stroke-width:4; stroke-opacity:1; fill:none" points="1092.81,701.709 1096.05,723.579 1099.29,709.467 1102.53,686.789 1105.76,670.131 1109,670.482 1112.24,684.632 1115.47,697.944 1118.71,714.824 1121.95,724.1 1125.19,711.738 "></polyline>
<polyline clip-path="url(#clip962)" style="stroke:#608cf6; stroke-linecap:round; stroke-linejoin:round; stroke-width:4; stroke-opacity:1; fill:none" points="1125.19,713.196 1128.42,676.31 1131.66,676.043 1134.9,673.584 1138.14,683.367 1141.37,705.619 1144.61,721.267 1147.85,717.103 1151.08,691.712 1154.32,669.14 1157.56,692.39 "></polyline>
<polyline clip-path="url(#clip962)" style="stroke:#f05f73; stroke-linecap:round; stroke-linejoin:round; stroke-width:4; stroke-opacity:1; fill:none" points="1157.56,695.197 1160.8,673.989 1164.03,687.594 1167.27,708.857 1170.51,724.405 1173.75,707.327 1176.98,677.327 1180.22,680.263 1183.46,697.487 1186.69,675.087 1189.93,659.251 "></polyline>
<polyline clip-path="url(#clip962)" style="stroke:#dd64b5; stroke-linecap:round; stroke-linejoin:round; stroke-width:4; stroke-opacity:1; fill:none" points="1189.93,660.139 1193.17,710.76 1196.41,812.149 1199.64,948.81 1202.88,1041.43 1206.12,1042.72 1209.36,1016.61 1212.59,1016.53 1215.83,1026.06 1219.07,1035.95 1222.3,1029.12 "></polyline>
<polyline clip-path="url(#clip962)" style="stroke:#6b9e32; stroke-linecap:round; stroke-linejoin:round; stroke-width:4; stroke-opacity:1; fill:none" points="1222.3,1028.9 1225.54,1056.62 1228.78,1045.32 1232.02,1044.73 1235.25,1039.2 1238.49,1028.16 1241.73,1025.17 1244.97,1028.11 1248.2,1025.14 1251.44,1030.93 1254.68,1030.86 "></polyline>
<polyline clip-path="url(#clip962)" style="stroke:#009af9; stroke-linecap:round; stroke-linejoin:round; stroke-width:4; stroke-opacity:1; fill:none" points="1254.68,1031.39 1257.91,1056.57 1261.15,1040.41 1264.39,1042.62 1267.63,1043.05 1270.86,1031.81 1274.1,1024.53 1277.34,1026.56 1280.58,1025.37 1283.81,1029.79 1287.05,1030.88 "></polyline>
<polyline clip-path="url(#clip962)" style="stroke:#e26f46; stroke-linecap:round; stroke-linejoin:round; stroke-width:4; stroke-opacity:1; fill:none" points="1287.05,1030.52 1290.29,1055.67 1293.52,1041.6 1296.76,1042.26 1300,1041.99 1303.24,1033.52 1306.47,1026.73 1309.71,1025.97 1312.95,1023.48 1316.19,1028.24 1319.42,1032.68 "></polyline>
<polyline clip-path="url(#clip962)" style="stroke:#3da44d; stroke-linecap:round; stroke-linejoin:round; stroke-width:4; stroke-opacity:1; fill:none" points="1319.42,1032.62 1322.66,1055.05 1325.9,1039.89 1329.13,1044.45 1332.37,1044.36 1335.61,1032.69 1338.85,1026.3 1342.08,1028.72 1345.32,1024.26 1348.56,1023.19 1351.79,1032.61 "></polyline>
<polyline clip-path="url(#clip962)" style="stroke:#c271d2; stroke-linecap:round; stroke-linejoin:round; stroke-width:4; stroke-opacity:1; fill:none" points="1351.79,1033.75 1355.03,1057.05 1358.27,1038.98 1361.51,1040.81 1364.74,1046.13 1367.98,1037.44 1371.22,1025.36 1374.46,1026.26 1377.69,1028.17 1380.93,1023.51 1384.17,1029.44 "></polyline>
<polyline clip-path="url(#clip962)" style="stroke:#ac8d18; stroke-linecap:round; stroke-linejoin:round; stroke-width:4; stroke-opacity:1; fill:none" points="1384.17,1027.6 1387.4,1052.02 1390.64,1042.98 1393.88,1042.22 1397.12,1040.38 1400.35,1037.81 1403.59,1031.33 1406.83,1025.92 1410.07,1024.8 1413.3,1023.85 1416.54,1037.46 "></polyline>
<polyline clip-path="url(#clip962)" style="stroke:#00a9ad; stroke-linecap:round; stroke-linejoin:round; stroke-width:4; stroke-opacity:1; fill:none" points="1416.54,1040.64 1419.78,1052.53 1423.01,1035.79 1426.25,1044.33 1429.49,1047.13 1432.73,1035.66 1435.96,1026.77 1439.2,1028.86 1442.44,1030.6 1445.68,1020.3 1448.91,1030.99 "></polyline>
<polyline clip-path="url(#clip962)" style="stroke:#ed5d92; stroke-linecap:round; stroke-linejoin:round; stroke-width:4; stroke-opacity:1; fill:none" points="1448.91,1035.4 1452.15,1056.17 1455.39,1047.01 1458.62,1032.07 1461.86,1040.9 1465.1,1051.78 1468.34,1031.41 1471.57,1012.94 1474.81,1030.49 1478.05,1037.7 1481.29,1022.6 "></polyline>
<polyline clip-path="url(#clip962)" style="stroke:#c68125; stroke-linecap:round; stroke-linejoin:round; stroke-width:4; stroke-opacity:1; fill:none" points="1481.29,1011.99 1484.52,1023.61 1487.76,1060.84 1491,1055.25 1494.23,1019.51 1497.47,1036.88 1500.71,1056.43 1503.95,1024.35 1507.18,1003.91 1510.42,1037.94 1513.66,1051.04 "></polyline>
<polyline clip-path="url(#clip962)" style="stroke:#00a98d; stroke-linecap:round; stroke-linejoin:round; stroke-width:4; stroke-opacity:1; fill:none" points="1513.66,1121.33 1516.9,1051.47 1520.13,1008.44 1523.37,1065.83 1526.61,1222.92 1529.84,1288.83 1533.08,1288.71 1536.32,1344.19 1539.56,1368.04 1542.79,1301.52 1546.03,1445.72 "></polyline>
<polyline clip-path="url(#clip962)" style="stroke:#8e971d; stroke-linecap:round; stroke-linejoin:round; stroke-width:4; stroke-opacity:1; fill:none" points="1546.03,1428.75 1549.27,1335.09 1552.51,1349.33 1555.74,1337.43 1558.98,1346.72 1562.22,1344.6 1565.45,1340.61 1568.69,1345.43 1571.93,1343.52 1575.17,1342.82 1578.4,1342.48 "></polyline>
<polyline clip-path="url(#clip962)" style="stroke:#00a8cb; stroke-linecap:round; stroke-linejoin:round; stroke-width:4; stroke-opacity:1; fill:none" points="1578.4,1342.16 1581.64,1343.69 1584.88,1343.56 1588.11,1343.53 1591.35,1343.6 1594.59,1343.55 1597.83,1343.55 1601.06,1343.58 1604.3,1343.55 1607.54,1343.56 1610.78,1343.56 "></polyline>
<polyline clip-path="url(#clip962)" style="stroke:#9b7fe8; stroke-linecap:round; stroke-linejoin:round; stroke-width:4; stroke-opacity:1; fill:none" points="1610.78,1343.57 1614.01,1343.56 1617.25,1343.56 1620.49,1343.56 1623.72,1343.56 1626.96,1343.56 1630.2,1343.56 1633.44,1343.56 1636.67,1343.56 1639.91,1343.56 1643.15,1343.56 "></polyline>
<polyline clip-path="url(#clip962)" style="stroke:#608cf6; stroke-linecap:round; stroke-linejoin:round; stroke-width:4; stroke-opacity:1; fill:none" points="1643.15,1343.56 1646.39,1343.56 1649.62,1343.56 1652.86,1343.56 1656.1,1343.56 1659.33,1343.56 1662.57,1343.56 1665.81,1343.56 1669.05,1343.56 1672.28,1343.56 1675.52,1343.56 "></polyline>
<polyline clip-path="url(#clip962)" style="stroke:#f05f73; stroke-linecap:round; stroke-linejoin:round; stroke-width:4; stroke-opacity:1; fill:none" points="1675.52,1343.56 1678.76,1343.56 1682,1343.56 1685.23,1343.56 1688.47,1343.56 1691.71,1343.56 1694.94,1343.56 1698.18,1343.56 1701.42,1343.56 1704.66,1343.56 1707.89,1343.56 "></polyline>
<polyline clip-path="url(#clip962)" style="stroke:#dd64b5; stroke-linecap:round; stroke-linejoin:round; stroke-width:4; stroke-opacity:1; fill:none" points="1707.89,1343.56 1711.13,1343.56 1714.37,1343.56 1717.61,1343.56 1720.84,1343.56 1724.08,1343.56 1727.32,1343.56 1730.55,1343.56 1733.79,1343.56 1737.03,1343.56 1740.27,1343.56 "></polyline>
<polyline clip-path="url(#clip962)" style="stroke:#6b9e32; stroke-linecap:round; stroke-linejoin:round; stroke-width:4; stroke-opacity:1; fill:none" points="1740.27,1343.56 1743.5,1343.56 1746.74,1343.56 1749.98,1343.56 1753.22,1343.56 1756.45,1343.56 1759.69,1343.56 1762.93,1343.56 1766.16,1343.56 1769.4,1343.56 1772.64,1343.56 "></polyline>
<polyline clip-path="url(#clip962)" style="stroke:#009af9; stroke-linecap:round; stroke-linejoin:round; stroke-width:4; stroke-opacity:1; fill:none" points="1772.64,1343.56 1775.88,1343.56 1779.11,1343.56 1782.35,1343.56 1785.59,1343.56 1788.83,1343.56 1792.06,1343.56 1795.3,1343.56 1798.54,1343.56 1801.77,1343.56 1805.01,1343.56 "></polyline>
<polyline clip-path="url(#clip962)" style="stroke:#e26f46; stroke-linecap:round; stroke-linejoin:round; stroke-width:4; stroke-opacity:1; fill:none" points="1805.01,1343.56 1808.25,1343.56 1811.49,1343.56 1814.72,1343.56 1817.96,1343.56 1821.2,1343.56 1824.43,1343.56 1827.67,1343.56 1830.91,1343.56 1834.15,1343.56 1837.38,1343.56 "></polyline>
<polyline clip-path="url(#clip962)" style="stroke:#3da44d; stroke-linecap:round; stroke-linejoin:round; stroke-width:4; stroke-opacity:1; fill:none" points="1837.38,1343.56 1840.62,1343.56 1843.86,1343.56 1847.1,1343.56 1850.33,1343.56 1853.57,1343.56 1856.81,1343.56 1860.04,1343.56 1863.28,1343.56 1866.52,1343.56 1869.76,1343.56 "></polyline>
<polyline clip-path="url(#clip962)" style="stroke:#c271d2; stroke-linecap:round; stroke-linejoin:round; stroke-width:4; stroke-opacity:1; fill:none" points="1869.76,1343.56 1872.99,1343.56 1876.23,1343.56 1879.47,1343.56 1882.71,1343.56 1885.94,1343.56 1889.18,1343.56 1892.42,1343.56 1895.65,1343.56 1898.89,1343.56 1902.13,1343.56 "></polyline>
<polyline clip-path="url(#clip962)" style="stroke:#ac8d18; stroke-linecap:round; stroke-linejoin:round; stroke-width:4; stroke-opacity:1; fill:none" points="1902.13,1343.56 1905.37,1343.56 1908.6,1343.56 1911.84,1343.56 1915.08,1343.56 1918.32,1343.56 1921.55,1343.56 1924.79,1343.56 1928.03,1343.56 1931.26,1343.56 1934.5,1343.56 "></polyline>
<polyline clip-path="url(#clip962)" style="stroke:#00a9ad; stroke-linecap:round; stroke-linejoin:round; stroke-width:4; stroke-opacity:1; fill:none" points="1934.5,1343.56 1937.74,1343.56 1940.98,1343.56 1944.21,1343.56 1947.45,1343.56 1950.69,1343.56 1953.93,1343.56 1957.16,1343.56 1960.4,1343.56 1963.64,1343.56 1966.87,1343.56 "></polyline>
<polyline clip-path="url(#clip962)" style="stroke:#ed5d92; stroke-linecap:round; stroke-linejoin:round; stroke-width:4; stroke-opacity:1; fill:none" points="1966.87,1343.56 1970.11,1343.56 1973.35,1343.56 1976.59,1343.56 1979.82,1343.56 1983.06,1343.56 1986.3,1343.56 1989.54,1343.56 1992.77,1343.56 1996.01,1343.56 1999.25,1343.56 "></polyline>
<polyline clip-path="url(#clip962)" style="stroke:#c68125; stroke-linecap:round; stroke-linejoin:round; stroke-width:4; stroke-opacity:1; fill:none" points="1999.25,1343.56 2002.48,1343.56 2005.72,1343.56 2008.96,1343.56 2012.2,1343.56 2015.43,1343.56 2018.67,1343.56 2021.91,1343.56 2025.15,1343.56 2028.38,1343.56 2031.62,1343.56 "></polyline>
<polyline clip-path="url(#clip962)" style="stroke:#00a98d; stroke-linecap:round; stroke-linejoin:round; stroke-width:4; stroke-opacity:1; fill:none" points="2031.62,1343.56 2034.86,1343.56 2038.09,1343.56 2041.33,1343.56 2044.57,1343.56 2047.81,1343.56 2051.04,1343.56 2054.28,1343.56 2057.52,1343.56 2060.75,1343.56 2063.99,1343.56 "></polyline>
<polyline clip-path="url(#clip962)" style="stroke:#8e971d; stroke-linecap:round; stroke-linejoin:round; stroke-width:4; stroke-opacity:1; fill:none" points="2063.99,1343.56 2067.23,1343.56 2070.47,1343.56 2073.7,1343.56 2076.94,1343.56 2080.18,1343.56 2083.42,1343.56 2086.65,1343.56 2089.89,1343.56 2093.13,1343.56 2096.36,1343.56 "></polyline>
<polyline clip-path="url(#clip962)" style="stroke:#00a8cb; stroke-linecap:round; stroke-linejoin:round; stroke-width:4; stroke-opacity:1; fill:none" points="2096.36,1343.56 2099.6,1343.56 2102.84,1343.56 2106.08,1343.56 2109.31,1343.56 2112.55,1343.56 2115.79,1343.56 2119.03,1343.56 2122.26,1343.56 2125.5,1343.56 2128.74,1343.56 "></polyline>
<polyline clip-path="url(#clip962)" style="stroke:#9b7fe8; stroke-linecap:round; stroke-linejoin:round; stroke-width:4; stroke-opacity:1; fill:none" points="2128.74,1343.56 2131.97,1343.56 2135.21,1343.56 2138.45,1343.56 2141.69,1343.56 2144.92,1343.56 2148.16,1343.56 2151.4,1343.56 2154.64,1343.56 2157.87,1343.56 2161.11,1343.56 "></polyline>
<polyline clip-path="url(#clip962)" style="stroke:#608cf6; stroke-linecap:round; stroke-linejoin:round; stroke-width:4; stroke-opacity:1; fill:none" points="2161.11,1343.56 2164.35,1343.56 2167.58,1343.56 2170.82,1343.56 2174.06,1343.56 2177.3,1343.56 2180.53,1343.56 2183.77,1343.56 2187.01,1343.56 2190.25,1343.56 2193.48,1343.56 "></polyline>
<polyline clip-path="url(#clip962)" style="stroke:#f05f73; stroke-linecap:round; stroke-linejoin:round; stroke-width:4; stroke-opacity:1; fill:none" points="2193.48,1343.56 2196.72,1343.56 2199.96,1343.56 2203.19,1343.56 2206.43,1343.56 2209.67,1343.56 2212.91,1343.56 2216.14,1343.56 2219.38,1343.56 2222.62,1343.56 2225.86,1343.56 "></polyline>
<polyline clip-path="url(#clip962)" style="stroke:#dd64b5; stroke-linecap:round; stroke-linejoin:round; stroke-width:4; stroke-opacity:1; fill:none" points="2225.86,1343.56 2229.09,1343.56 2232.33,1343.56 2235.57,1343.56 2238.8,1343.56 2242.04,1343.56 2245.28,1343.56 2248.52,1343.56 2251.75,1343.56 2254.99,1343.56 2258.23,1343.56 "></polyline>
<polyline clip-path="url(#clip962)" style="stroke:#6b9e32; stroke-linecap:round; stroke-linejoin:round; stroke-width:4; stroke-opacity:1; fill:none" points="2258.23,1343.56 2261.47,1343.56 2264.7,1343.56 2267.94,1343.56 2271.18,1343.56 2274.41,1343.56 2277.65,1343.56 2280.89,1343.56 2284.13,1343.56 2287.36,1343.56 2290.6,1343.56 "></polyline>
</svg>