<svg xmlns="http://www.w3.org/2000/svg" xmlns:xlink="http://www.w3.org/1999/xlink" width="600" height="400" viewBox="0 0 2400 1600">
<defs>
  <clipPath id="clip000">
    <rect x="0" y="0" width="2400" height="1600"></rect>
  </clipPath>
</defs>
<path clip-path="url(#clip000)" d="M0 1600 L2400 1600 L2400 0 L0 0  Z" fill="#ffffff" fill-rule="evenodd" fill-opacity="1"></path>
<defs>
  <clipPath id="clip001">
    <rect x="480" y="0" width="1681" height="1600"></rect>
  </clipPath>
</defs>
<path clip-path="url(#clip000)" d="M156.598 1486.45 L2352.76 1486.45 L2352.76 47.2441 L156.598 47.2441  Z" fill="#ffffff" fill-rule="evenodd" fill-opacity="1"></path>
<defs>
  <clipPath id="clip002">
    <rect x="156" y="47" width="2197" height="1440"></rect>
  </clipPath>
</defs>
<polyline clip-path="url(#clip002)" style="stroke:#000000; stroke-linecap:round; stroke-linejoin:round; stroke-width:2; stroke-opacity:0.1; fill:none" points="218.754,1486.45 218.754,47.2441 "></polyline>
<polyline clip-path="url(#clip002)" style="stroke:#000000; stroke-linecap:round; stroke-linejoin:round; stroke-width:2; stroke-opacity:0.1; fill:none" points="736.715,1486.45 736.715,47.2441 "></polyline>
<polyline clip-path="url(#clip002)" style="stroke:#000000; stroke-linecap:round; stroke-linejoin:round; stroke-width:2; stroke-opacity:0.1; fill:none" points="1254.68,1486.45 1254.68,47.2441 "></polyline>
<polyline clip-path="url(#clip002)" style="stroke:#000000; stroke-linecap:round; stroke-linejoin:round; stroke-width:2; stroke-opacity:0.1; fill:none" points="1772.64,1486.45 1772.64,47.2441 "></polyline>
<polyline clip-path="url(#clip002)" style="stroke:#000000; stroke-linecap:round; stroke-linejoin:round; stroke-width:2; stroke-opacity:0.1; fill:none" points="2290.6,1486.45 2290.6,47.2441 "></polyline>
<polyline clip-path="url(#clip000)" style="stroke:#000000; stroke-linecap:round; stroke-linejoin:round; stroke-width:4; stroke-opacity:1; fill:none" points="156.598,1486.45 2352.76,1486.45 "></polyline>
<polyline clip-path="url(#clip000)" style="stroke:#000000; stroke-linecap:round; stroke-linejoin:round; stroke-width:4; stroke-opacity:1; fill:none" points="218.754,1486.45 218.754,1467.55 "></polyline>
<polyline clip-path="url(#clip000)" style="stroke:#000000; stroke-linecap:round; stroke-linejoin:round; stroke-width:4; stroke-opacity:1; fill:none" points="736.715,1486.45 736.715,1467.55 "></polyline>
<polyline clip-path="url(#clip000)" style="stroke:#000000; stroke-linecap:round; stroke-linejoin:round; stroke-width:4; stroke-opacity:1; fill:none" points="1254.68,1486.45 1254.68,1467.55 "></polyline>
<polyline clip-path="url(#clip000)" style="stroke:#000000; stroke-linecap:round; stroke-linejoin:round; stroke-width:4; stroke-opacity:1; fill:none" points="1772.64,1486.45 1772.64,1467.55 "></polyline>
<polyline clip-path="url(#clip000)" style="stroke:#000000; stroke-linecap:round; stroke-linejoin:round; stroke-width:4; stroke-opacity:1; fill:none" points="2290.6,1486.45 2290.6,1467.55 "></polyline>
<path clip-path="url(#clip000)" d="M181.057 1517.37 Q177.446 1517.37 175.617 1520.93 Q173.812 1524.47 173.812 1531.6 Q173.812 1538.71 175.617 1542.27 Q177.446 1545.82 181.057 1545.82 Q184.691 1545.82 186.497 1542.27 Q188.326 1538.71 188.326 1531.6 Q188.326 1524.47 186.497 1520.93 Q184.691 1517.37 181.057 1517.37 M181.057 1513.66 Q186.867 1513.66 189.923 1518.27 Q193.001 1522.85 193.001 1531.6 Q193.001 1540.33 189.923 1544.94 Q186.867 1549.52 181.057 1549.52 Q175.247 1549.52 172.168 1544.94 Q169.113 1540.33 169.113 1531.6 Q169.113 1522.85 172.168 1518.27 Q175.247 1513.66 181.057 1513.66 Z" fill="#000000" fill-rule="nonzero" fill-opacity="1"></path><path clip-path="url(#clip000)" d="M201.219 1542.97 L206.103 1542.97 L206.103 1548.85 L201.219 1548.85 L201.219 1542.97 Z" fill="#000000" fill-rule="nonzero" fill-opacity="1"></path><path clip-path="url(#clip000)" d="M226.288 1517.37 Q222.677 1517.37 220.849 1520.93 Q219.043 1524.47 219.043 1531.6 Q219.043 1538.71 220.849 1542.27 Q222.677 1545.82 226.288 1545.82 Q229.923 1545.82 231.728 1542.27 Q233.557 1538.71 233.557 1531.6 Q233.557 1524.47 231.728 1520.93 Q229.923 1517.37 226.288 1517.37 M226.288 1513.66 Q232.098 1513.66 235.154 1518.27 Q238.233 1522.85 238.233 1531.6 Q238.233 1540.33 235.154 1544.94 Q232.098 1549.52 226.288 1549.52 Q220.478 1549.52 217.399 1544.94 Q214.344 1540.33 214.344 1531.6 Q214.344 1522.85 217.399 1518.27 Q220.478 1513.66 226.288 1513.66 Z" fill="#000000" fill-rule="nonzero" fill-opacity="1"></path><path clip-path="url(#clip000)" d="M256.45 1517.37 Q252.839 1517.37 251.01 1520.93 Q249.205 1524.47 249.205 1531.6 Q249.205 1538.71 251.01 1542.27 Q252.839 1545.82 256.45 1545.82 Q260.084 1545.82 261.89 1542.27 Q263.719 1538.71 263.719 1531.6 Q263.719 1524.47 261.89 1520.93 Q260.084 1517.37 256.45 1517.37 M256.45 1513.66 Q262.26 1513.66 265.316 1518.27 Q268.395 1522.85 268.395 1531.6 Q268.395 1540.33 265.316 1544.94 Q262.26 1549.52 256.45 1549.52 Q250.64 1549.52 247.561 1544.94 Q244.506 1540.33 244.506 1531.6 Q244.506 1522.85 247.561 1518.27 Q250.64 1513.66 256.45 1513.66 Z" fill="#000000" fill-rule="nonzero" fill-opacity="1"></path><path clip-path="url(#clip000)" d="M699.516 1517.37 Q695.905 1517.37 694.077 1520.93 Q692.271 1524.47 692.271 1531.6 Q692.271 1538.71 694.077 1542.27 Q695.905 1545.82 699.516 1545.82 Q703.151 1545.82 704.956 1542.27 Q706.785 1538.71 706.785 1531.6 Q706.785 1524.47 704.956 1520.93 Q703.151 1517.37 699.516 1517.37 M699.516 1513.66 Q705.327 1513.66 708.382 1518.27 Q711.461 1522.85 711.461 1531.6 Q711.461 1540.33 708.382 1544.94 Q705.327 1549.52 699.516 1549.52 Q693.706 1549.52 690.628 1544.94 Q687.572 1540.33 687.572 1531.6 Q687.572 1522.85 690.628 1518.27 Q693.706 1513.66 699.516 1513.66 Z" fill="#000000" fill-rule="nonzero" fill-opacity="1"></path><path clip-path="url(#clip000)" d="M719.678 1542.97 L724.563 1542.97 L724.563 1548.85 L719.678 1548.85 L719.678 1542.97 Z" fill="#000000" fill-rule="nonzero" fill-opacity="1"></path><path clip-path="url(#clip000)" d="M738.776 1544.91 L755.095 1544.91 L755.095 1548.85 L733.151 1548.85 L733.151 1544.91 Q735.813 1542.16 740.396 1537.53 Q745.002 1532.88 746.183 1531.53 Q748.428 1529.01 749.308 1527.27 Q750.211 1525.51 750.211 1523.82 Q750.211 1521.07 748.266 1519.33 Q746.345 1517.6 743.243 1517.6 Q741.044 1517.6 738.59 1518.36 Q736.16 1519.13 733.382 1520.68 L733.382 1515.95 Q736.206 1514.82 738.66 1514.24 Q741.113 1513.66 743.151 1513.66 Q748.521 1513.66 751.715 1516.35 Q754.91 1519.03 754.91 1523.52 Q754.91 1525.65 754.1 1527.57 Q753.312 1529.47 751.206 1532.07 Q750.627 1532.74 747.525 1535.95 Q744.424 1539.15 738.776 1544.91 Z" fill="#000000" fill-rule="nonzero" fill-opacity="1"></path><path clip-path="url(#clip000)" d="M764.956 1514.29 L783.312 1514.29 L783.312 1518.22 L769.238 1518.22 L769.238 1526.7 Q770.257 1526.35 771.275 1526.19 Q772.294 1526 773.312 1526 Q779.099 1526 782.479 1529.17 Q785.859 1532.34 785.859 1537.76 Q785.859 1543.34 782.386 1546.44 Q778.914 1549.52 772.595 1549.52 Q770.419 1549.52 768.15 1549.15 Q765.905 1548.78 763.498 1548.04 L763.498 1543.34 Q765.581 1544.47 767.803 1545.03 Q770.025 1545.58 772.502 1545.58 Q776.507 1545.58 778.845 1543.48 Q781.183 1541.37 781.183 1537.76 Q781.183 1534.15 778.845 1532.04 Q776.507 1529.94 772.502 1529.94 Q770.627 1529.94 768.752 1530.35 Q766.9 1530.77 764.956 1531.65 L764.956 1514.29 Z" fill="#000000" fill-rule="nonzero" fill-opacity="1"></path><path clip-path="url(#clip000)" d="M1216.98 1517.37 Q1213.37 1517.37 1211.54 1520.93 Q1209.74 1524.47 1209.74 1531.6 Q1209.74 1538.71 1211.54 1542.27 Q1213.37 1545.82 1216.98 1545.82 Q1220.61 1545.82 1222.42 1542.27 Q1224.25 1538.71 1224.25 1531.6 Q1224.25 1524.47 1222.42 1520.93 Q1220.61 1517.37 1216.98 1517.37 M1216.98 1513.66 Q1222.79 1513.66 1225.85 1518.27 Q1228.92 1522.85 1228.92 1531.6 Q1228.92 1540.33 1225.85 1544.94 Q1222.79 1549.52 1216.98 1549.52 Q1211.17 1549.52 1208.09 1544.94 Q1205.04 1540.33 1205.04 1531.6 Q1205.04 1522.85 1208.09 1518.27 Q1211.17 1513.66 1216.98 1513.66 Z" fill="#000000" fill-rule="nonzero" fill-opacity="1"></path><path clip-path="url(#clip000)" d="M1237.14 1542.97 L1242.03 1542.97 L1242.03 1548.85 L1237.14 1548.85 L1237.14 1542.97 Z" fill="#000000" fill-rule="nonzero" fill-opacity="1"></path><path clip-path="url(#clip000)" d="M1252.26 1514.29 L1270.61 1514.29 L1270.61 1518.22 L1256.54 1518.22 L1256.54 1526.7 Q1257.56 1526.35 1258.58 1526.19 Q1259.6 1526 1260.61 1526 Q1266.4 1526 1269.78 1529.17 Q1273.16 1532.34 1273.16 1537.76 Q1273.16 1543.34 1269.69 1546.44 Q1266.22 1549.52 1259.9 1549.52 Q1257.72 1549.52 1255.45 1549.15 Q1253.21 1548.78 1250.8 1548.04 L1250.8 1543.34 Q1252.88 1544.47 1255.11 1545.03 Q1257.33 1545.58 1259.8 1545.58 Q1263.81 1545.58 1266.15 1543.48 Q1268.48 1541.37 1268.48 1537.76 Q1268.48 1534.15 1266.15 1532.04 Q1263.81 1529.94 1259.8 1529.94 Q1257.93 1529.94 1256.05 1530.35 Q1254.2 1530.77 1252.26 1531.65 L1252.26 1514.29 Z" fill="#000000" fill-rule="nonzero" fill-opacity="1"></path><path clip-path="url(#clip000)" d="M1292.37 1517.37 Q1288.76 1517.37 1286.93 1520.93 Q1285.13 1524.47 1285.13 1531.6 Q1285.13 1538.71 1286.93 1542.27 Q1288.76 1545.82 1292.37 1545.82 Q1296.01 1545.82 1297.81 1542.27 Q1299.64 1538.71 1299.64 1531.6 Q1299.64 1524.47 1297.81 1520.93 Q1296.01 1517.37 1292.37 1517.37 M1292.37 1513.66 Q1298.18 1513.66 1301.24 1518.27 Q1304.32 1522.85 1304.32 1531.6 Q1304.32 1540.33 1301.24 1544.94 Q1298.18 1549.52 1292.37 1549.52 Q1286.56 1549.52 1283.48 1544.94 Q1280.43 1540.33 1280.43 1531.6 Q1280.43 1522.85 1283.48 1518.27 Q1286.56 1513.66 1292.37 1513.66 Z" fill="#000000" fill-rule="nonzero" fill-opacity="1"></path><path clip-path="url(#clip000)" d="M1735.44 1517.37 Q1731.83 1517.37 1730 1520.93 Q1728.19 1524.47 1728.19 1531.6 Q1728.19 1538.71 1730 1542.27 Q1731.83 1545.82 1735.44 1545.82 Q1739.07 1545.82 1740.88 1542.27 Q1742.71 1538.71 1742.71 1531.6 Q1742.71 1524.47 1740.88 1520.93 Q1739.07 1517.37 1735.44 1517.37 M1735.44 1513.66 Q1741.25 1513.66 1744.31 1518.27 Q1747.38 1522.85 1747.38 1531.6 Q1747.38 1540.33 1744.31 1544.94 Q1741.25 1549.52 1735.44 1549.52 Q1729.63 1549.52 1726.55 1544.94 Q1723.5 1540.33 1723.5 1531.6 Q1723.5 1522.85 1726.55 1518.27 Q1729.63 1513.66 1735.44 1513.66 Z" fill="#000000" fill-rule="nonzero" fill-opacity="1"></path><path clip-path="url(#clip000)" d="M1755.6 1542.97 L1760.49 1542.97 L1760.49 1548.85 L1755.6 1548.85 L1755.6 1542.97 Z" fill="#000000" fill-rule="nonzero" fill-opacity="1"></path><path clip-path="url(#clip000)" d="M1769.49 1514.29 L1791.71 1514.29 L1791.71 1516.28 L1779.17 1548.85 L1774.28 1548.85 L1786.09 1518.22 L1769.49 1518.22 L1769.49 1514.29 Z" fill="#000000" fill-rule="nonzero" fill-opacity="1"></path><path clip-path="url(#clip000)" d="M1800.88 1514.29 L1819.24 1514.29 L1819.24 1518.22 L1805.16 1518.22 L1805.16 1526.7 Q1806.18 1526.35 1807.2 1526.19 Q1808.22 1526 1809.24 1526 Q1815.02 1526 1818.4 1529.17 Q1821.78 1532.34 1821.78 1537.76 Q1821.78 1543.34 1818.31 1546.44 Q1814.84 1549.52 1808.52 1549.52 Q1806.34 1549.52 1804.07 1549.15 Q1801.83 1548.78 1799.42 1548.04 L1799.42 1543.34 Q1801.5 1544.47 1803.73 1545.03 Q1805.95 1545.58 1808.43 1545.58 Q1812.43 1545.58 1814.77 1543.48 Q1817.11 1541.37 1817.11 1537.76 Q1817.11 1534.15 1814.77 1532.04 Q1812.43 1529.94 1808.43 1529.94 Q1806.55 1529.94 1804.68 1530.35 Q1802.82 1530.77 1800.88 1531.65 L1800.88 1514.29 Z" fill="#000000" fill-rule="nonzero" fill-opacity="1"></path><path clip-path="url(#clip000)" d="M2242.67 1544.91 L2250.31 1544.91 L2250.31 1518.55 L2242 1520.21 L2242 1515.95 L2250.27 1514.29 L2254.94 1514.29 L2254.94 1544.91 L2262.58 1544.91 L2262.58 1548.85 L2242.67 1548.85 L2242.67 1544.91 Z" fill="#000000" fill-rule="nonzero" fill-opacity="1"></path><path clip-path="url(#clip000)" d="M2272.02 1542.97 L2276.91 1542.97 L2276.91 1548.85 L2272.02 1548.85 L2272.02 1542.97 Z" fill="#000000" fill-rule="nonzero" fill-opacity="1"></path><path clip-path="url(#clip000)" d="M2297.09 1517.37 Q2293.48 1517.37 2291.65 1520.93 Q2289.85 1524.47 2289.85 1531.6 Q2289.85 1538.71 2291.65 1542.27 Q2293.48 1545.82 2297.09 1545.82 Q2300.73 1545.82 2302.53 1542.27 Q2304.36 1538.71 2304.36 1531.6 Q2304.36 1524.47 2302.53 1520.93 Q2300.73 1517.37 2297.09 1517.37 M2297.09 1513.66 Q2302.9 1513.66 2305.96 1518.27 Q2309.04 1522.85 2309.04 1531.6 Q2309.04 1540.33 2305.96 1544.94 Q2302.9 1549.52 2297.09 1549.52 Q2291.28 1549.52 2288.2 1544.94 Q2285.15 1540.33 2285.15 1531.6 Q2285.15 1522.85 2288.2 1518.27 Q2291.28 1513.66 2297.09 1513.66 Z" fill="#000000" fill-rule="nonzero" fill-opacity="1"></path><path clip-path="url(#clip000)" d="M2327.26 1517.37 Q2323.64 1517.37 2321.82 1520.93 Q2320.01 1524.47 2320.01 1531.6 Q2320.01 1538.71 2321.82 1542.27 Q2323.64 1545.82 2327.26 1545.82 Q2330.89 1545.82 2332.7 1542.27 Q2334.52 1538.71 2334.52 1531.6 Q2334.52 1524.47 2332.7 1520.93 Q2330.89 1517.37 2327.26 1517.37 M2327.26 1513.66 Q2333.07 1513.66 2336.12 1518.27 Q2339.2 1522.85 2339.2 1531.6 Q2339.2 1540.33 2336.12 1544.94 Q2333.07 1549.52 2327.26 1549.52 Q2321.45 1549.52 2318.37 1544.94 Q2315.31 1540.33 2315.31 1531.6 Q2315.31 1522.85 2318.37 1518.27 Q2321.45 1513.66 2327.26 1513.66 Z" fill="#000000" fill-rule="nonzero" fill-opacity="1"></path><polyline clip-path="url(#clip002)" style="stroke:#000000; stroke-linecap:round; stroke-linejoin:round; stroke-width:2; stroke-opacity:0.1; fill:none" points="156.598,1243.93 2352.76,1243.93 "></polyline>
<polyline clip-path="url(#clip002)" style="stroke:#000000; stroke-linecap:round; stroke-linejoin:round; stroke-width:2; stroke-opacity:0.1; fill:none" points="156.598,955.81 2352.76,955.81 "></polyline>
<polyline clip-path="url(#clip002)" style="stroke:#000000; stroke-linecap:round; stroke-linejoin:round; stroke-width:2; stroke-opacity:0.1; fill:none" points="156.598,667.689 2352.76,667.689 "></polyline>
<polyline clip-path="url(#clip002)" style="stroke:#000000; stroke-linecap:round; stroke-linejoin:round; stroke-width:2; stroke-opacity:0.1; fill:none" points="156.598,379.568 2352.76,379.568 "></polyline>
<polyline clip-path="url(#clip002)" style="stroke:#000000; stroke-linecap:round; stroke-linejoin:round; stroke-width:2; stroke-opacity:0.1; fill:none" points="156.598,91.4473 2352.76,91.4473 "></polyline>
<polyline clip-path="url(#clip000)" style="stroke:#000000; stroke-linecap:round; stroke-linejoin:round; stroke-width:4; stroke-opacity:1; fill:none" points="156.598,1486.45 156.598,47.2441 "></polyline>
<polyline clip-path="url(#clip000)" style="stroke:#000000; stroke-linecap:round; stroke-linejoin:round; stroke-width:4; stroke-opacity:1; fill:none" points="156.598,1243.93 175.496,1243.93 "></polyline>
<polyline clip-path="url(#clip000)" style="stroke:#000000; stroke-linecap:round; stroke-linejoin:round; stroke-width:4; stroke-opacity:1; fill:none" points="156.598,955.81 175.496,955.81 "></polyline>
<polyline clip-path="url(#clip000)" style="stroke:#000000; stroke-linecap:round; stroke-linejoin:round; stroke-width:4; stroke-opacity:1; fill:none" points="156.598,667.689 175.496,667.689 "></polyline>
<polyline clip-path="url(#clip000)" style="stroke:#000000; stroke-linecap:round; stroke-linejoin:round; stroke-width:4; stroke-opacity:1; fill:none" points="156.598,379.568 175.496,379.568 "></polyline>
<polyline clip-path="url(#clip000)" style="stroke:#000000; stroke-linecap:round; stroke-linejoin:round; stroke-width:4; stroke-opacity:1; fill:none" points="156.598,91.4473 175.496,91.4473 "></polyline>
<path clip-path="url(#clip000)" d="M65.0198 1229.73 Q61.4087 1229.73 59.58 1233.29 Q57.7745 1236.84 57.7745 1243.97 Q57.7745 1251.07 59.58 1254.64 Q61.4087 1258.18 65.0198 1258.18 Q68.6541 1258.18 70.4596 1254.64 Q72.2883 1251.07 72.2883 1243.97 Q72.2883 1236.84 70.4596 1233.29 Q68.6541 1229.73 65.0198 1229.73 M65.0198 1226.03 Q70.83 1226.03 73.8855 1230.63 Q76.9642 1235.22 76.9642 1243.97 Q76.9642 1252.69 73.8855 1257.3 Q70.83 1261.88 65.0198 1261.88 Q59.2097 1261.88 56.131 1257.3 Q53.0754 1252.69 53.0754 1243.97 Q53.0754 1235.22 56.131 1230.63 Q59.2097 1226.03 65.0198 1226.03 Z" fill="#000000" fill-rule="nonzero" fill-opacity="1"></path><path clip-path="url(#clip000)" d="M85.1818 1255.33 L90.066 1255.33 L90.066 1261.21 L85.1818 1261.21 L85.1818 1255.33 Z" fill="#000000" fill-rule="nonzero" fill-opacity="1"></path><path clip-path="url(#clip000)" d="M104.279 1257.28 L120.598 1257.28 L120.598 1261.21 L98.6539 1261.21 L98.6539 1257.28 Q101.316 1254.52 105.899 1249.89 Q110.506 1245.24 111.686 1243.9 Q113.932 1241.37 114.811 1239.64 Q115.714 1237.88 115.714 1236.19 Q115.714 1233.43 113.77 1231.7 Q111.848 1229.96 108.746 1229.96 Q106.547 1229.96 104.094 1230.72 Q101.663 1231.49 98.8854 1233.04 L98.8854 1228.32 Q101.709 1227.18 104.163 1226.6 Q106.617 1226.03 108.654 1226.03 Q114.024 1226.03 117.219 1228.71 Q120.413 1231.4 120.413 1235.89 Q120.413 1238.02 119.603 1239.94 Q118.816 1241.84 116.709 1244.43 Q116.131 1245.1 113.029 1248.32 Q109.927 1251.51 104.279 1257.28 Z" fill="#000000" fill-rule="nonzero" fill-opacity="1"></path><path clip-path="url(#clip000)" d="M62.9365 941.609 Q59.3254 941.609 57.4967 945.173 Q55.6912 948.715 55.6912 955.845 Q55.6912 962.951 57.4967 966.516 Q59.3254 970.058 62.9365 970.058 Q66.5707 970.058 68.3763 966.516 Q70.205 962.951 70.205 955.845 Q70.205 948.715 68.3763 945.173 Q66.5707 941.609 62.9365 941.609 M62.9365 937.905 Q68.7467 937.905 71.8022 942.511 Q74.8809 947.095 74.8809 955.845 Q74.8809 964.571 71.8022 969.178 Q68.7467 973.761 62.9365 973.761 Q57.1264 973.761 54.0477 969.178 Q50.9921 964.571 50.9921 955.845 Q50.9921 947.095 54.0477 942.511 Q57.1264 937.905 62.9365 937.905 Z" fill="#000000" fill-rule="nonzero" fill-opacity="1"></path><path clip-path="url(#clip000)" d="M83.0984 967.21 L87.9827 967.21 L87.9827 973.09 L83.0984 973.09 L83.0984 967.21 Z" fill="#000000" fill-rule="nonzero" fill-opacity="1"></path><path clip-path="url(#clip000)" d="M111.015 942.604 L99.2095 961.053 L111.015 961.053 L111.015 942.604 M109.788 938.53 L115.668 938.53 L115.668 961.053 L120.598 961.053 L120.598 964.942 L115.668 964.942 L115.668 973.09 L111.015 973.09 L111.015 964.942 L95.4132 964.942 L95.4132 960.428 L109.788 938.53 Z" fill="#000000" fill-rule="nonzero" fill-opacity="1"></path><path clip-path="url(#clip000)" d="M63.2606 653.488 Q59.6495 653.488 57.8208 657.053 Q56.0152 660.594 56.0152 667.724 Q56.0152 674.83 57.8208 678.395 Q59.6495 681.937 63.2606 681.937 Q66.8948 681.937 68.7004 678.395 Q70.5291 674.83 70.5291 667.724 Q70.5291 660.594 68.7004 657.053 Q66.8948 653.488 63.2606 653.488 M63.2606 649.784 Q69.0707 649.784 72.1263 654.391 Q75.205 658.974 75.205 667.724 Q75.205 676.451 72.1263 681.057 Q69.0707 685.64 63.2606 685.64 Q57.4504 685.64 54.3717 681.057 Q51.3162 676.451 51.3162 667.724 Q51.3162 658.974 54.3717 654.391 Q57.4504 649.784 63.2606 649.784 Z" fill="#000000" fill-rule="nonzero" fill-opacity="1"></path><path clip-path="url(#clip000)" d="M83.4225 679.089 L88.3067 679.089 L88.3067 684.969 L83.4225 684.969 L83.4225 679.089 Z" fill="#000000" fill-rule="nonzero" fill-opacity="1"></path><path clip-path="url(#clip000)" d="M109.071 665.826 Q105.922 665.826 104.071 667.978 Q102.242 670.131 102.242 673.881 Q102.242 677.608 104.071 679.784 Q105.922 681.937 109.071 681.937 Q112.219 681.937 114.047 679.784 Q115.899 677.608 115.899 673.881 Q115.899 670.131 114.047 667.978 Q112.219 665.826 109.071 665.826 M118.353 651.173 L118.353 655.432 Q116.594 654.599 114.788 654.159 Q113.006 653.719 111.246 653.719 Q106.617 653.719 104.163 656.844 Q101.733 659.969 101.385 666.289 Q102.751 664.275 104.811 663.21 Q106.871 662.122 109.348 662.122 Q114.557 662.122 117.566 665.293 Q120.598 668.441 120.598 673.881 Q120.598 679.205 117.45 682.423 Q114.302 685.64 109.071 685.64 Q103.075 685.64 99.9039 681.057 Q96.7326 676.451 96.7326 667.724 Q96.7326 659.529 100.621 654.668 Q104.51 649.784 111.061 649.784 Q112.82 649.784 114.603 650.131 Q116.408 650.479 118.353 651.173 Z" fill="#000000" fill-rule="nonzero" fill-opacity="1"></path><path clip-path="url(#clip000)" d="M63.5152 365.367 Q59.9041 365.367 58.0754 368.932 Q56.2699 372.473 56.2699 379.603 Q56.2699 386.709 58.0754 390.274 Q59.9041 393.816 63.5152 393.816 Q67.1494 393.816 68.955 390.274 Q70.7837 386.709 70.7837 379.603 Q70.7837 372.473 68.955 368.932 Q67.1494 365.367 63.5152 365.367 M63.5152 361.663 Q69.3254 361.663 72.3809 366.27 Q75.4596 370.853 75.4596 379.603 Q75.4596 388.33 72.3809 392.936 Q69.3254 397.519 63.5152 397.519 Q57.7051 397.519 54.6264 392.936 Q51.5708 388.33 51.5708 379.603 Q51.5708 370.853 54.6264 366.27 Q57.7051 361.663 63.5152 361.663 Z" fill="#000000" fill-rule="nonzero" fill-opacity="1"></path><path clip-path="url(#clip000)" d="M83.6771 390.969 L88.5614 390.969 L88.5614 396.848 L83.6771 396.848 L83.6771 390.969 Z" fill="#000000" fill-rule="nonzero" fill-opacity="1"></path><path clip-path="url(#clip000)" d="M108.746 380.436 Q105.413 380.436 103.492 382.219 Q101.594 384.001 101.594 387.126 Q101.594 390.251 103.492 392.033 Q105.413 393.816 108.746 393.816 Q112.08 393.816 114.001 392.033 Q115.922 390.228 115.922 387.126 Q115.922 384.001 114.001 382.219 Q112.103 380.436 108.746 380.436 M104.071 378.446 Q101.061 377.705 99.3715 375.645 Q97.7048 373.584 97.7048 370.621 Q97.7048 366.478 100.645 364.071 Q103.608 361.663 108.746 361.663 Q113.908 361.663 116.848 364.071 Q119.788 366.478 119.788 370.621 Q119.788 373.584 118.098 375.645 Q116.432 377.705 113.445 378.446 Q116.825 379.233 118.7 381.524 Q120.598 383.816 120.598 387.126 Q120.598 392.149 117.52 394.834 Q114.464 397.519 108.746 397.519 Q103.029 397.519 99.9502 394.834 Q96.8947 392.149 96.8947 387.126 Q96.8947 383.816 98.7928 381.524 Q100.691 379.233 104.071 378.446 M102.358 371.061 Q102.358 373.746 104.024 375.251 Q105.714 376.756 108.746 376.756 Q111.756 376.756 113.445 375.251 Q115.158 373.746 115.158 371.061 Q115.158 368.376 113.445 366.871 Q111.756 365.367 108.746 365.367 Q105.714 365.367 104.024 366.871 Q102.358 368.376 102.358 371.061 Z" fill="#000000" fill-rule="nonzero" fill-opacity="1"></path><path clip-path="url(#clip000)" d="M54.2328 104.792 L61.8717 104.792 L61.8717 78.4265 L53.5616 80.0932 L53.5616 75.834 L61.8254 74.1673 L66.5013 74.1673 L66.5013 104.792 L74.1402 104.792 L74.1402 108.727 L54.2328 108.727 L54.2328 104.792 Z" fill="#000000" fill-rule="nonzero" fill-opacity="1"></path><path clip-path="url(#clip000)" d="M83.5845 102.848 L88.4688 102.848 L88.4688 108.727 L83.5845 108.727 L83.5845 102.848 Z" fill="#000000" fill-rule="nonzero" fill-opacity="1"></path><path clip-path="url(#clip000)" d="M108.654 77.246 Q105.043 77.246 103.214 80.8108 Q101.409 84.3524 101.409 91.482 Q101.409 98.5885 103.214 102.153 Q105.043 105.695 108.654 105.695 Q112.288 105.695 114.094 102.153 Q115.922 98.5885 115.922 91.482 Q115.922 84.3524 114.094 80.8108 Q112.288 77.246 108.654 77.246 M108.654 73.5423 Q114.464 73.5423 117.52 78.1488 Q120.598 82.7321 120.598 91.482 Q120.598 100.209 117.52 104.815 Q114.464 109.399 108.654 109.399 Q102.844 109.399 99.765 104.815 Q96.7095 100.209 96.7095 91.482 Q96.7095 82.7321 99.765 78.1488 Q102.844 73.5423 108.654 73.5423 Z" fill="#000000" fill-rule="nonzero" fill-opacity="1"></path><polyline clip-path="url(#clip002)" style="stroke:#009af9; stroke-linecap:round; stroke-linejoin:round; stroke-width:4; stroke-opacity:1; fill:none" points="218.754,91.4473 221.991,91.4473 225.228,91.4473 228.465,91.4473 231.703,91.4473 234.94,91.4473 238.177,91.4473 241.414,91.4473 244.652,91.4473 247.889,91.4473 251.126,91.4473 "></polyline>
<polyline clip-path="url(#clip002)" style="stroke:#e26f46; stroke-linecap:round; stroke-linejoin:round; stroke-width:4; stroke-opacity:1; fill:none" points="251.126,91.4473 254.364,91.4473 257.601,91.4473 260.838,91.4473 264.075,91.4473 267.313,91.4473 270.55,91.4473 273.787,91.4473 277.024,91.4473 280.262,91.4473 283.499,91.4473 "></polyline>
<polyline clip-path="url(#clip002)" style="stroke:#3da44d; stroke-linecap:round; stroke-linejoin:round; stroke-width:4; stroke-opacity:1; fill:none" points="283.499,91.4473 286.736,91.4473 289.973,91.4473 293.211,91.4473 296.448,91.4473 299.685,91.4473 302.922,91.4473 306.16,91.4473 309.397,91.4473 312.634,91.4474 315.871,91.4469 "></polyline>
<polyline clip-path="url(#clip002)" style="stroke:#c271d2; stroke-linecap:round; stroke-linejoin:round; stroke-width:4; stroke-opacity:1; fill:none" points="315.871,91.4467 319.109,91.4467 322.346,91.448 325.583,91.4472 328.821,91.4465 332.058,91.448 335.295,91.4479 338.532,91.4455 341.77,91.4477 345.007,91.4506 348.244,91.443 "></polyline>
<polyline clip-path="url(#clip002)" style="stroke:#ac8d18; stroke-linecap:round; stroke-linejoin:round; stroke-width:4; stroke-opacity:1; fill:none" points="348.244,91.4427 351.481,91.4502 354.719,91.4519 357.956,91.4389 361.193,91.4481 364.43,91.4583 367.668,91.4393 370.905,91.4326 374.142,91.4759 377.379,91.4504 380.617,91.4133 "></polyline>
<polyline clip-path="url(#clip002)" style="stroke:#00a9ad; stroke-linecap:round; stroke-linejoin:round; stroke-width:4; stroke-opacity:1; fill:none" points="380.617,91.4066 383.854,91.5327 387.091,91.4457 390.328,91.342 393.566,91.5212 396.803,91.5449 400.04,91.2911 403.278,91.3614 406.515,91.7828 409.752,91.3512 412.989,91.1255 "></polyline>
<polyline clip-path="url(#clip002)" style="stroke:#ed5d92; stroke-linecap:round; stroke-linejoin:round; stroke-width:4; stroke-opacity:1; fill:none" points="412.989,91.0658 416.227,92.0986 419.464,91.6149 422.701,90.5933 425.938,91.4483 429.176,92.2885 432.413,91.0474 435.65,90.0532 438.887,92.2917 442.125,93.0717 445.362,89.6594 "></polyline>
<polyline clip-path="url(#clip002)" style="stroke:#c68125; stroke-linecap:round; stroke-linejoin:round; stroke-width:4; stroke-opacity:1; fill:none" points="445.362,89.3763 448.599,87.9763 451.836,91.2378 455.074,97.9114 458.311,105.828 461.548,113.441 464.785,120.871 468.023,128.046 471.26,135.26 474.497,143.153 477.734,149.96 "></polyline>
<polyline clip-path="url(#clip002)" style="stroke:#00a98d; stroke-linecap:round; stroke-linejoin:round; stroke-width:4; stroke-opacity:1; fill:none" points="477.734,149.981 480.972,157.036 484.209,164.667 487.446,171.368 490.684,178.521 493.921,185.447 497.158,191.665 500.395,199.463 503.633,209.101 506.87,216.238 510.107,222.453 "></polyline>
<polyline clip-path="url(#clip002)" style="stroke:#8e971d; stroke-linecap:round; stroke-linejoin:round; stroke-width:4; stroke-opacity:1; fill:none" points="510.107,222.387 513.344,230.011 516.582,236.664 519.819,243.842 523.056,250.999 526.293,257.755 529.531,264.592 532.768,271.122 536.005,277.721 539.242,285.862 542.48,293.453 "></polyline>
<polyline clip-path="url(#clip002)" style="stroke:#00a8cb; stroke-linecap:round; stroke-linejoin:round; stroke-width:4; stroke-opacity:1; fill:none" points="542.48,293.446 545.717,299.353 548.954,306.566 552.191,313.484 555.429,320.077 558.666,326.464 561.903,332.659 565.141,339.384 568.378,346.64 571.615,353.098 574.852,359.361 "></polyline>
<polyline clip-path="url(#clip002)" style="stroke:#9b7fe8; stroke-linecap:round; stroke-linejoin:round; stroke-width:4; stroke-opacity:1; fill:none" points="574.852,359.364 578.09,366.161 581.327,372.389 584.564,378.83 587.801,385.486 591.039,391.99 594.276,397.969 597.513,403.681 600.75,409.96 603.988,415.859 607.225,423.408 "></polyline>
<polyline clip-path="url(#clip002)" style="stroke:#608cf6; stroke-linecap:round; stroke-linejoin:round; stroke-width:4; stroke-opacity:1; fill:none" points="607.225,423.359 610.462,427.985 613.699,433.645 616.937,439.958 620.174,444.702 623.411,451.637 626.648,458.558 629.886,460.899 633.123,470.929 636.36,493.33 639.598,502.835 "></polyline>
<polyline clip-path="url(#clip002)" style="stroke:#f05f73; stroke-linecap:round; stroke-linejoin:round; stroke-width:4; stroke-opacity:1; fill:none" points="639.598,502.89 642.835,503.426 646.072,511.278 649.309,514.567 652.547,520.505 655.784,527.733 659.021,533.332 662.258,537.582 665.496,542.064 668.733,547.392 671.97,551.916 "></polyline>
<polyline clip-path="url(#clip002)" style="stroke:#dd64b5; stroke-linecap:round; stroke-linejoin:round; stroke-width:4; stroke-opacity:1; fill:none" points="671.97,551.847 675.207,560.246 678.445,563.572 681.682,569.034 684.919,574.476 688.156,579.117 691.394,583.625 694.631,588.828 697.868,596.059 701.105,604.034 704.343,606.176 "></polyline>
<polyline clip-path="url(#clip002)" style="stroke:#6b9e32; stroke-linecap:round; stroke-linejoin:round; stroke-width:4; stroke-opacity:1; fill:none" points="704.343,606.135 707.58,611.016 710.817,617.123 714.055,620.953 717.292,629.306 720.529,637.162 723.766,637.681 727.004,638.491 730.241,646.789 733.478,649.612 736.715,659.16 "></polyline>
<polyline clip-path="url(#clip002)" style="stroke:#009af9; stroke-linecap:round; stroke-linejoin:round; stroke-width:4; stroke-opacity:1; fill:none" points="736.715,660.015 739.953,669.25 743.19,670.347 746.427,673.712 749.664,678.597 752.902,683.024 756.139,690.774 759.376,695.195 762.613,696.886 765.851,706.568 769.088,706.397 "></polyline>
<polyline clip-path="url(#clip002)" style="stroke:#e26f46; stroke-linecap:round; stroke-linejoin:round; stroke-width:4; stroke-opacity:1; fill:none" points="769.088,706.365 772.325,704.184 775.562,699.783 778.8,683.431 782.037,684.131 785.274,696.831 788.512,700.328 791.749,702.733 794.986,711.407 798.223,705.358 801.461,685.545 "></polyline>
<polyline clip-path="url(#clip002)" style="stroke:#3da44d; stroke-linecap:round; stroke-linejoin:round; stroke-width:4; stroke-opacity:1; fill:none" points="801.461,684.952 804.698,679.348 807.935,689.365 811.172,698.482 814.41,698.753 817.647,703.97 820.884,711.386 824.121,703.969 827.359,686.908 830.596,681.109 833.833,694.769 "></polyline>
<polyline clip-path="url(#clip002)" style="stroke:#c271d2; stroke-linecap:round; stroke-linejoin:round; stroke-width:4; stroke-opacity:1; fill:none" points="833.833,696.106 837.07,701.863 840.308,699.945 843.545,706.019 846.782,712.038 850.019,698.339 853.257,681.247 856.494,681.979 859.731,692.994 862.969,699.991 866.206,698.63 "></polyline>
<polyline clip-path="url(#clip002)" style="stroke:#ac8d18; stroke-linecap:round; stroke-linejoin:round; stroke-width:4; stroke-opacity:1; fill:none" points="866.206,697.835 869.443,706.687 872.68,712.193 875.918,695.205 879.155,678.91 882.392,683.978 885.629,695.658 888.867,700.14 892.104,704.178 895.341,710.154 898.578,708.227 "></polyline>
<polyline clip-path="url(#clip002)" style="stroke:#00a9ad; stroke-linecap:round; stroke-linejoin:round; stroke-width:4; stroke-opacity:1; fill:none" points="898.578,708.286 901.816,689.748 905.053,677.282 908.29,686.939 911.527,697.068 914.765,700.886 918.002,706.403 921.239,711.245 924.476,704.278 927.714,686.79 930.951,679.242 "></polyline>
<polyline clip-path="url(#clip002)" style="stroke:#ed5d92; stroke-linecap:round; stroke-linejoin:round; stroke-width:4; stroke-opacity:1; fill:none" points="930.951,679.509 934.188,688.585 937.426,699.088 940.663,702.08 943.9,708.624 947.137,711.196 950.375,699.98 953.612,683.552 956.849,678.722 960.086,690.479 963.324,697.118 "></polyline>
<polyline clip-path="url(#clip002)" style="stroke:#c68125; stroke-linecap:round; stroke-linejoin:round; stroke-width:4; stroke-opacity:1; fill:none" points="963.324,696.401 966.561,703.975 969.798,709.97 973.035,709.875 976.273,695.285 979.51,680.645 982.747,680.801 985.984,692.664 989.222,702.457 992.459,705.859 995.696,709.636 "></polyline>
<polyline clip-path="url(#clip002)" style="stroke:#00a98d; stroke-linecap:round; stroke-linejoin:round; stroke-width:4; stroke-opacity:1; fill:none" points="995.696,709.367 998.933,707.188 1002.17,690.527 1005.41,679.578 1008.65,682.901 1011.88,694.869 1015.12,703.902 1018.36,708.087 1021.59,710.966 1024.83,703.643 1028.07,693.819 "></polyline>
<polyline clip-path="url(#clip002)" style="stroke:#8e971d; stroke-linecap:round; stroke-linejoin:round; stroke-width:4; stroke-opacity:1; fill:none" points="1028.07,694.992 1031.31,679.419 1034.54,685.635 1037.78,696.341 1041.02,706.676 1044.26,709.75 1047.49,708.319 1050.73,700.994 1053.97,684.729 1057.2,678.139 1060.44,686.593 "></polyline>
<polyline clip-path="url(#clip002)" style="stroke:#00a8cb; stroke-linecap:round; stroke-linejoin:round; stroke-width:4; stroke-opacity:1; fill:none" points="1060.44,686.259 1063.68,699.506 1066.92,708.659 1070.15,709.49 1073.39,706.886 1076.63,697.229 1079.86,683.358 1083.1,678.954 1086.34,689.337 1089.58,703.116 1092.81,701.765 "></polyline>
<polyline clip-path="url(#clip002)" style="stroke:#9b7fe8; stroke-linecap:round; stroke-linejoin:round; stroke-width:4; stroke-opacity:1; fill:none" points="1092.81,700.715 1096.05,711.188 1099.29,703.376 1102.53,695.617 1105.76,681.343 1109,678.338 1112.24,691.871 1115.47,705.847 1118.71,712.839 1121.95,709.658 1125.19,711.865 "></polyline>
<polyline clip-path="url(#clip002)" style="stroke:#608cf6; stroke-linecap:round; stroke-linejoin:round; stroke-width:4; stroke-opacity:1; fill:none" points="1125.19,713.306 1128.42,688.616 1131.66,683.135 1134.9,680.211 1138.14,694.785 1141.37,709.949 1144.61,711.748 1147.85,707.288 1151.08,696.791 1154.32,684.968 1157.56,686.943 "></polyline>
<polyline clip-path="url(#clip002)" style="stroke:#f05f73; stroke-linecap:round; stroke-linejoin:round; stroke-width:4; stroke-opacity:1; fill:none" points="1157.56,688.321 1160.8,682.85 1164.03,696.954 1167.27,712.815 1170.51,715.957 1173.75,698.379 1176.98,685.197 1180.22,693.018 1183.46,698.349 1186.69,686.355 1189.93,660.544 "></polyline>
<polyline clip-path="url(#clip002)" style="stroke:#dd64b5; stroke-linecap:round; stroke-linejoin:round; stroke-width:4; stroke-opacity:1; fill:none" points="1189.93,658.669 1193.17,717.645 1196.41,810.181 1199.64,943.905 1202.88,1033.03 1206.12,1046.51 1209.36,1032.11 1212.59,1030.19 1215.83,1039.05 1219.07,1044.16 1222.3,1046.95 "></polyline>
<polyline clip-path="url(#clip002)" style="stroke:#6b9e32; stroke-linecap:round; stroke-linejoin:round; stroke-width:4; stroke-opacity:1; fill:none" points="1222.3,1046.74 1225.54,1050.53 1228.78,1047.48 1232.02,1048.42 1235.25,1044.47 1238.49,1039.53 1241.73,1035.7 1244.97,1032.84 1248.2,1035.65 1251.44,1042.35 1254.68,1050.46 "></polyline>
<polyline clip-path="url(#clip002)" style="stroke:#009af9; stroke-linecap:round; stroke-linejoin:round; stroke-width:4; stroke-opacity:1; fill:none" points="1254.68,1050.57 1257.91,1051.94 1261.15,1044.65 1264.39,1045.92 1267.63,1045.01 1270.86,1041.28 1274.1,1036.57 1277.34,1032.8 1280.58,1035.26 1283.81,1041.45 1287.05,1049.84 "></polyline>
<polyline clip-path="url(#clip002)" style="stroke:#e26f46; stroke-linecap:round; stroke-linejoin:round; stroke-width:4; stroke-opacity:1; fill:none" points="1287.05,1049.63 1290.29,1051.25 1293.52,1045.84 1296.76,1046.3 1300,1044.55 1303.24,1042.24 1306.47,1038.16 1309.71,1032.61 1312.95,1033.55 1316.19,1040.51 1319.42,1050.84 "></polyline>
<polyline clip-path="url(#clip002)" style="stroke:#3da44d; stroke-linecap:round; stroke-linejoin:round; stroke-width:4; stroke-opacity:1; fill:none" points="1319.42,1050.66 1322.66,1050.58 1325.9,1045.29 1329.13,1047.43 1332.37,1045.2 1335.61,1041.94 1338.85,1039.06 1342.08,1034.23 1345.32,1032.82 1348.56,1038.1 1351.79,1051.71 "></polyline>
<polyline clip-path="url(#clip002)" style="stroke:#c271d2; stroke-linecap:round; stroke-linejoin:round; stroke-width:4; stroke-opacity:1; fill:none" points="1351.79,1052.07 1355.03,1051.55 1358.27,1044.83 1361.51,1046.09 1364.74,1045.99 1367.98,1043.47 1371.22,1039.07 1374.46,1034.22 1377.69,1033.84 1380.93,1037.25 1384.17,1050.88 "></polyline>
<polyline clip-path="url(#clip002)" style="stroke:#ac8d18; stroke-linecap:round; stroke-linejoin:round; stroke-width:4; stroke-opacity:1; fill:none" points="1384.17,1050.13 1387.4,1050.05 1390.64,1046.6 1393.88,1046.52 1397.12,1043.92 1400.35,1043.58 1403.59,1041.53 1406.83,1034.68 1410.07,1032.22 1413.3,1036.3 1416.54,1054.43 "></polyline>
<polyline clip-path="url(#clip002)" style="stroke:#00a9ad; stroke-linecap:round; stroke-linejoin:round; stroke-width:4; stroke-opacity:1; fill:none" points="1416.54,1055.6 1419.78,1050.85 1423.01,1044 1426.25,1047.51 1429.49,1046.64 1432.73,1042.33 1435.96,1040.18 1439.2,1036.98 1442.44,1034.11 1445.68,1033.91 1448.91,1052.41 "></polyline>
<polyline clip-path="url(#clip002)" style="stroke:#ed5d92; stroke-linecap:round; stroke-linejoin:round; stroke-width:4; stroke-opacity:1; fill:none" points="1448.91,1054.32 1452.15,1052.7 1455.39,1048.72 1458.62,1042.27 1461.86,1044.4 1465.1,1048.65 1468.34,1042.01 1471.57,1031.73 1474.81,1034.24 1478.05,1039.64 1481.29,1049.34 "></polyline>
<polyline clip-path="url(#clip002)" style="stroke:#c68125; stroke-linecap:round; stroke-linejoin:round; stroke-width:4; stroke-opacity:1; fill:none" points="1481.29,1044.23 1484.52,1037.75 1487.76,1055.83 1491,1052.67 1494.23,1033.7 1497.47,1042.45 1500.71,1054.58 1503.95,1035.66 1507.18,1021.54 1510.42,1043.86 1513.66,1053.05 "></polyline>
<polyline clip-path="url(#clip002)" style="stroke:#00a98d; stroke-linecap:round; stroke-linejoin:round; stroke-width:4; stroke-opacity:1; fill:none" points="1513.66,1105.45 1516.9,1052.92 1520.13,1034.85 1523.37,1048.86 1526.61,1200.55 1529.84,1320.91 1533.08,1327.58 1536.32,1340.15 1539.56,1373.53 1542.79,1322.56 1546.03,1445.72 "></polyline>
<polyline clip-path="url(#clip002)" style="stroke:#8e971d; stroke-linecap:round; stroke-linejoin:round; stroke-width:4; stroke-opacity:1; fill:none" points="1546.03,1440.33 1549.27,1342.99 1552.51,1357.41 1555.74,1347.09 1558.98,1354.11 1562.22,1353.11 1565.45,1349.63 1568.69,1353.24 1571.93,1352.2 1575.17,1351.15 1578.4,1351.31 "></polyline>
<polyline clip-path="url(#clip002)" style="stroke:#00a8cb; stroke-linecap:round; stroke-linejoin:round; stroke-width:4; stroke-opacity:1; fill:none" points="1578.4,1351.1 1581.64,1352.04 1584.88,1351.99 1588.11,1351.94 1591.35,1352 1594.59,1351.97 1597.83,1351.96 1601.06,1351.99 1604.3,1351.97 1607.54,1351.98 1610.78,1351.98 "></polyline>
<polyline clip-path="url(#clip002)" style="stroke:#9b7fe8; stroke-linecap:round; stroke-linejoin:round; stroke-width:4; stroke-opacity:1; fill:none" points="1610.78,1351.99 1614.01,1351.98 1617.25,1351.98 1620.49,1351.97 1623.72,1351.98 1626.96,1351.98 1630.2,1351.98 1633.44,1351.98 1636.67,1351.98 1639.91,1351.98 1643.15,1351.98 "></polyline>
<polyline clip-path="url(#clip002)" style="stroke:#608cf6; stroke-linecap:round; stroke-linejoin:round; stroke-width:4; stroke-opacity:1; fill:none" points="1643.15,1351.98 1646.39,1351.98 1649.62,1351.98 1652.86,1351.98 1656.1,1351.98 1659.33,1351.98 1662.57,1351.98 1665.81,1351.98 1669.05,1351.98 1672.28,1351.98 1675.52,1351.98 "></polyline>
<polyline clip-path="url(#clip002)" style="stroke:#f05f73; stroke-linecap:round; stroke-linejoin:round; stroke-width:4; stroke-opacity:1; fill:none" points="1675.52,1351.98 1678.76,1351.98 1682,1351.98 1685.23,1351.98 1688.47,1351.98 1691.71,1351.98 1694.94,1351.98 1698.18,1351.98 1701.42,1351.98 1704.66,1351.98 1707.89,1351.98 "></polyline>
<polyline clip-path="url(#clip002)" style="stroke:#dd64b5; stroke-linecap:round; stroke-linejoin:round; stroke-width:4; stroke-opacity:1; fill:none" points="1707.89,1351.98 1711.13,1351.98 1714.37,1351.98 1717.61,1351.98 1720.84,1351.98 1724.08,1351.98 1727.32,1351.98 1730.55,1351.98 1733.79,1351.98 1737.03,1351.98 1740.27,1351.98 "></polyline>
<polyline clip-path="url(#clip002)" style="stroke:#6b9e32; stroke-linecap:round; stroke-linejoin:round; stroke-width:4; stroke-opacity:1; fill:none" points="1740.27,1351.98 1743.5,1351.98 1746.74,1351.98 1749.98,1351.98 1753.22,1351.98 1756.45,1351.98 1759.69,1351.98 1762.93,1351.98 1766.16,1351.98 1769.4,1351.98 1772.64,1351.98 "></polyline>
<polyline clip-path="url(#clip002)" style="stroke:#009af9; stroke-linecap:round; stroke-linejoin:round; stroke-width:4; stroke-opacity:1; fill:none" points="1772.64,1351.98 1775.88,1351.98 1779.11,1351.98 1782.35,1351.98 1785.59,1351.98 1788.83,1351.98 1792.06,1351.98 1795.3,1351.98 1798.54,1351.98 1801.77,1351.98 1805.01,1351.98 "></polyline>
<polyline clip-path="url(#clip002)" style="stroke:#e26f46; stroke-linecap:round; stroke-linejoin:round; stroke-width:4; stroke-opacity:1; fill:none" points="1805.01,1351.98 1808.25,1351.98 1811.49,1351.98 1814.72,1351.98 1817.96,1351.98 1821.2,1351.98 1824.43,1351.98 1827.67,1351.98 1830.91,1351.98 1834.15,1351.98 1837.38,1351.98 "></polyline>
<polyline clip-path="url(#clip002)" style="stroke:#3da44d; stroke-linecap:round; stroke-linejoin:round; stroke-width:4; stroke-opacity:1; fill:none" points="1837.38,1351.98 1840.62,1351.98 1843.86,1351.98 1847.1,1351.98 1850.33,1351.98 1853.57,1351.98 1856.81,1351.98 1860.04,1351.98 1863.28,1351.98 1866.52,1351.98 1869.76,1351.98 "></polyline>
<polyline clip-path="url(#clip002)" style="stroke:#c271d2; stroke-linecap:round; stroke-linejoin:round; stroke-width:4; stroke-opacity:1; fill:none" points="1869.76,1351.98 1872.99,1351.98 1876.23,1351.98 1879.47,1351.98 1882.71,1351.98 1885.94,1351.98 1889.18,1351.98 1892.42,1351.98 1895.65,1351.98 1898.89,1351.98 1902.13,1351.98 "></polyline>
<polyline clip-path="url(#clip002)" style="stroke:#ac8d18; stroke-linecap:round; stroke-linejoin:round; stroke-width:4; stroke-opacity:1; fill:none" points="1902.13,1351.98 1905.37,1351.98 1908.6,1351.98 1911.84,1351.98 1915.08,1351.98 1918.32,1351.98 1921.55,1351.98 1924.79,1351.98 1928.03,1351.98 1931.26,1351.98 1934.5,1351.98 "></polyline>
<polyline clip-path="url(#clip002)" style="stroke:#00a9ad; stroke-linecap:round; stroke-linejoin:round; stroke-width:4; stroke-opacity:1; fill:none" points="1934.5,1351.98 1937.74,1351.98 1940.98,1351.98 1944.21,1351.98 1947.45,1351.98 1950.69,1351.98 1953.93,1351.98 1957.16,1351.98 1960.4,1351.98 1963.64,1351.98 1966.87,1351.98 "></polyline>
<polyline clip-path="url(#clip002)" style="stroke:#ed5d92; stroke-linecap:round; stroke-linejoin:round; stroke-width:4; stroke-opacity:1; fill:none" points="1966.87,1351.98 1970.11,1351.98 1973.35,1351.98 1976.59,1351.98 1979.82,1351.98 1983.06,1351.98 1986.3,1351.98 1989.54,1351.98 1992.77,1351.98 1996.01,1351.98 1999.25,1351.98 "></polyline>
<polyline clip-path="url(#clip002)" style="stroke:#c68125; stroke-linecap:round; stroke-linejoin:round; stroke-width:4; stroke-opacity:1; fill:none" points="1999.25,1351.98 2002.48,1351.98 2005.72,1351.98 2008.96,1351.98 2012.2,1351.98 2015.43,1351.98 2018.67,1351.98 2021.91,1351.98 2025.15,1351.98 2028.38,1351.98 2031.62,1351.98 "></polyline>
<polyline clip-path="url(#clip002)" style="stroke:#00a98d; stroke-linecap:round; stroke-linejoin:round; stroke-width:4; stroke-opacity:1; fill:none" points="2031.62,1351.98 2034.86,1351.98 2038.09,1351.98 2041.33,1351.98 2044.57,1351.98 2047.81,1351.98 2051.04,1351.98 2054.28,1351.98 2057.52,1351.98 2060.75,1351.98 2063.99,1351.98 "></polyline>
<polyline clip-path="url(#clip002)" style="stroke:#8e971d; stroke-linecap:round; stroke-linejoin:round; stroke-width:4; stroke-opacity:1; fill:none" points="2063.99,1351.98 2067.23,1351.98 2070.47,1351.98 2073.7,1351.98 2076.94,1351.98 2080.18,1351.98 2083.42,1351.98 2086.65,1351.98 2089.89,1351.98 2093.13,1351.98 2096.36,1351.98 "></polyline>
<polyline clip-path="url(#clip002)" style="stroke:#00a8cb; stroke-linecap:round; stroke-linejoin:round; stroke-width:4; stroke-opacity:1; fill:none" points="2096.36,1351.98 2099.6,1351.98 2102.84,1351.98 2106.08,1351.98 2109.31,1351.98 2112.55,1351.98 2115.79,1351.98 2119.03,1351.98 2122.26,1351.98 2125.5,1351.98 2128.74,1351.98 "></polyline>
<polyline clip-path="url(#clip002)" style="stroke:#9b7fe8; stroke-linecap:round; stroke-linejoin:round; stroke-width:4; stroke-opacity:1; fill:none" points="2128.74,1351.98 2131.97,1351.98 2135.21,1351.98 2138.45,1351.98 2141.69,1351.98 2144.92,1351.98 2148.16,1351.98 2151.4,1351.98 2154.64,1351.98 2157.87,1351.98 2161.11,1351.98 "></polyline>
<polyline clip-path="url(#clip002)" style="stroke:#608cf6; stroke-linecap:round; stroke-linejoin:round; stroke-width:4; stroke-opacity:1; fill:none" points="2161.11,1351.98 2164.35,1351.98 2167.58,1351.98 2170.82,1351.98 2174.06,1351.98 2177.3,1351.98 2180.53,1351.98 2183.77,1351.98 2187.01,1351.98 2190.25,1351.98 2193.48,1351.98 "></polyline>
<polyline clip-path="url(#clip002)" style="stroke:#f05f73; stroke-linecap:round; stroke-linejoin:round; stroke-width:4; stroke-opacity:1; fill:none" points="2193.48,1351.98 2196.72,1351.98 2199.96,1351.98 2203.19,1351.98 2206.43,1351.98 2209.67,1351.98 2212.91,1351.98 2216.14,1351.98 2219.38,1351.98 2222.62,1351.98 2225.86,1351.98 "></polyline>
<polyline clip-path="url(#clip002)" style="stroke:#dd64b5; stroke-linecap:round; stroke-linejoin:round; stroke-width:4; stroke-opacity:1; fill:none" points="2225.86,1351.98 2229.09,1351.98 2232.33,1351.98 2235.57,1351.98 2238.8,1351.98 2242.04,1351.98 2245.28,1351.98 2248.52,1351.98 2251.75,1351.98 2254.99,1351.98 2258.23,1351.98 "></polyline>
<polyline clip-path="url(#clip002)" style="stroke:#6b9e32; stroke-linecap:round; stroke-linejoin:round; stroke-width:4; stroke-opacity:1; fill:none" points="2258.23,1351.98 2261.47,1351.98 2264.7,1351.98 2267.94,1351.98 2271.18,1351.98 2274.41,1351.98 2277.65,1351.98 2280.89,1351.98 2284.13,1351.98 2287.36,1351.98 2290.6,1351.98 "></polyline>
</svg>