<svg xmlns="http://www.w3.org/2000/svg" xmlns:xlink="http://www.w3.org/1999/xlink" width="600" height="400" viewBox="0 0 2400 1600">
<defs>
  <clipPath id="clip160">
    <rect x="0" y="0" width="2400" height="1600"></rect>
  </clipPath>
</defs>
<path clip-path="url(#clip160)" d="M0 1600 L2400 1600 L2400 0 L0 0  Z" fill="#ffffff" fill-rule="evenodd" fill-opacity="1"></path>
<defs>
  <clipPath id="clip161">
    <rect x="480" y="0" width="1681" height="1600"></rect>
  </clipPath>
</defs>
<path clip-path="url(#clip160)" d="M156.598 1486.45 L2352.76 1486.45 L2352.76 47.2441 L156.598 47.2441  Z" fill="#ffffff" fill-rule="evenodd" fill-opacity="1"></path>
<defs>
  <clipPath id="clip162">
    <rect x="156" y="47" width="2197" height="1440"></rect>
  </clipPath>
</defs>
<polyline clip-path="url(#clip162)" style="stroke:#000000; stroke-linecap:round; stroke-linejoin:round; stroke-width:2; stroke-opacity:0.1; fill:none" points="218.754,1486.45 218.754,47.2441 "></polyline>
<polyline clip-path="url(#clip162)" style="stroke:#000000; stroke-linecap:round; stroke-linejoin:round; stroke-width:2; stroke-opacity:0.1; fill:none" points="736.715,1486.45 736.715,47.2441 "></polyline>
<polyline clip-path="url(#clip162)" style="stroke:#000000; stroke-linecap:round; stroke-linejoin:round; stroke-width:2; stroke-opacity:0.1; fill:none" points="1254.68,1486.45 1254.68,47.2441 "></polyline>
<polyline clip-path="url(#clip162)" style="stroke:#000000; stroke-linecap:round; stroke-linejoin:round; stroke-width:2; stroke-opacity:0.1; fill:none" points="1772.64,1486.45 1772.64,47.2441 "></polyline>
<polyline clip-path="url(#clip162)" style="stroke:#000000; stroke-linecap:round; stroke-linejoin:round; stroke-width:2; stroke-opacity:0.1; fill:none" points="2290.6,1486.45 2290.6,47.2441 "></polyline>
<polyline clip-path="url(#clip160)" style="stroke:#000000; stroke-linecap:round; stroke-linejoin:round; stroke-width:4; stroke-opacity:1; fill:none" points="156.598,1486.45 2352.76,1486.45 "></polyline>
<polyline clip-path="url(#clip160)" style="stroke:#000000; stroke-linecap:round; stroke-linejoin:round; stroke-width:4; stroke-opacity:1; fill:none" points="218.754,1486.45 218.754,1467.55 "></polyline>
<polyline clip-path="url(#clip160)" style="stroke:#000000; stroke-linecap:round; stroke-linejoin:round; stroke-width:4; stroke-opacity:1; fill:none" points="736.715,1486.45 736.715,1467.55 "></polyline>
<polyline clip-path="url(#clip160)" style="stroke:#000000; stroke-linecap:round; stroke-linejoin:round; stroke-width:4; stroke-opacity:1; fill:none" points="1254.68,1486.45 1254.68,1467.55 "></polyline>
<polyline clip-path="url(#clip160)" style="stroke:#000000; stroke-linecap:round; stroke-linejoin:round; stroke-width:4; stroke-opacity:1; fill:none" points="1772.64,1486.45 1772.64,1467.55 "></polyline>
<polyline clip-path="url(#clip160)" style="stroke:#000000; stroke-linecap:round; stroke-linejoin:round; stroke-width:4; stroke-opacity:1; fill:none" points="2290.6,1486.45 2290.6,1467.55 "></polyline>
<path clip-path="url(#clip160)" d="M181.057 1517.37 Q177.446 1517.37 175.617 1520.93 Q173.812 1524.47 173.812 1531.6 Q173.812 1538.71 175.617 1542.27 Q177.446 1545.82 181.057 1545.82 Q184.691 1545.82 186.497 1542.27 Q188.326 1538.71 188.326 1531.6 Q188.326 1524.47 186.497 1520.93 Q184.691 1517.37 181.057 1517.37 M181.057 1513.66 Q186.867 1513.66 189.923 1518.27 Q193.001 1522.85 193.001 1531.6 Q193.001 1540.33 189.923 1544.94 Q186.867 1549.52 181.057 1549.52 Q175.247 1549.52 172.168 1544.94 Q169.113 1540.33 169.113 1531.6 Q169.113 1522.85 172.168 1518.27 Q175.247 1513.66 181.057 1513.66 Z" fill="#000000" fill-rule="nonzero" fill-opacity="1"></path><path clip-path="url(#clip160)" d="M201.219 1542.97 L206.103 1542.97 L206.103 1548.85 L201.219 1548.85 L201.219 1542.97 Z" fill="#000000" fill-rule="nonzero" fill-opacity="1"></path><path clip-path="url(#clip160)" d="M226.288 1517.37 Q222.677 1517.37 220.849 1520.93 Q219.043 1524.47 219.043 1531.6 Q219.043 1538.71 220.849 1542.27 Q222.677 1545.82 226.288 1545.82 Q229.923 1545.82 231.728 1542.27 Q233.557 1538.71 233.557 1531.6 Q233.557 1524.47 231.728 1520.93 Q229.923 1517.37 226.288 1517.37 M226.288 1513.66 Q232.098 1513.66 235.154 1518.27 Q238.233 1522.85 238.233 1531.6 Q238.233 1540.33 235.154 1544.94 Q232.098 1549.52 226.288 1549.52 Q220.478 1549.52 217.399 1544.94 Q214.344 1540.33 214.344 1531.6 Q214.344 1522.85 217.399 1518.27 Q220.478 1513.66 226.288 1513.66 Z" fill="#000000" fill-rule="nonzero" fill-opacity="1"></path><path clip-path="url(#clip160)" d="M256.45 1517.37 Q252.839 1517.37 251.01 1520.93 Q249.205 1524.47 249.205 1531.6 Q249.205 1538.71 251.01 1542.27 Q252.839 1545.82 256.45 1545.82 Q260.084 1545.82 261.89 1542.27 Q263.719 1538.71 263.719 1531.6 Q263.719 1524.47 261.89 1520.93 Q260.084 1517.37 256.45 1517.37 M256.45 1513.66 Q262.26 1513.66 265.316 1518.27 Q268.395 1522.85 268.395 1531.6 Q268.395 1540.33 265.316 1544.94 Q262.26 1549.52 256.45 1549.52 Q250.64 1549.52 247.561 1544.94 Q244.506 1540.33 244.506 1531.6 Q244.506 1522.85 247.561 1518.27 Q250.64 1513.66 256.45 1513.66 Z" fill="#000000" fill-rule="nonzero" fill-opacity="1"></path><path clip-path="url(#clip160)" d="M699.516 1517.37 Q695.905 1517.37 694.077 1520.93 Q692.271 1524.47 692.271 1531.6 Q692.271 1538.71 694.077 1542.27 Q695.905 1545.82 699.516 1545.82 Q703.151 1545.82 704.956 1542.27 Q706.785 1538.71 706.785 1531.6 Q706.785 1524.47 704.956 1520.93 Q703.151 1517.37 699.516 1517.37 M699.516 1513.66 Q705.327 1513.66 708.382 1518.27 Q711.461 1522.85 711.461 1531.6 Q711.461 1540.33 708.382 1544.94 Q705.327 1549.52 699.516 1549.52 Q693.706 1549.52 690.628 1544.94 Q687.572 1540.33 687.572 1531.6 Q687.572 1522.85 690.628 1518.27 Q693.706 1513.66 699.516 1513.66 Z" fill="#000000" fill-rule="nonzero" fill-opacity="1"></path><path clip-path="url(#clip160)" d="M719.678 1542.97 L724.563 1542.97 L724.563 1548.85 L719.678 1548.85 L719.678 1542.97 Z" fill="#000000" fill-rule="nonzero" fill-opacity="1"></path><path clip-path="url(#clip160)" d="M738.776 1544.91 L755.095 1544.91 L755.095 1548.85 L733.151 1548.85 L733.151 1544.91 Q735.813 1542.16 740.396 1537.53 Q745.002 1532.88 746.183 1531.53 Q748.428 1529.01 749.308 1527.27 Q750.211 1525.51 750.211 1523.82 Q750.211 1521.07 748.266 1519.33 Q746.345 1517.6 743.243 1517.6 Q741.044 1517.6 738.59 1518.36 Q736.16 1519.13 733.382 1520.68 L733.382 1515.95 Q736.206 1514.82 738.66 1514.24 Q741.113 1513.66 743.151 1513.66 Q748.521 1513.66 751.715 1516.35 Q754.91 1519.03 754.91 1523.52 Q754.91 1525.65 754.1 1527.57 Q753.312 1529.47 751.206 1532.07 Q750.627 1532.74 747.525 1535.95 Q744.424 1539.15 738.776 1544.91 Z" fill="#000000" fill-rule="nonzero" fill-opacity="1"></path><path clip-path="url(#clip160)" d="M764.956 1514.29 L783.312 1514.29 L783.312 1518.22 L769.238 1518.22 L769.238 1526.7 Q770.257 1526.35 771.275 1526.19 Q772.294 1526 773.312 1526 Q779.099 1526 782.479 1529.17 Q785.859 1532.34 785.859 1537.76 Q785.859 1543.34 782.386 1546.44 Q778.914 1549.52 772.595 1549.52 Q770.419 1549.52 768.15 1549.15 Q765.905 1548.78 763.498 1548.04 L763.498 1543.34 Q765.581 1544.47 767.803 1545.03 Q770.025 1545.58 772.502 1545.58 Q776.507 1545.58 778.845 1543.48 Q781.183 1541.37 781.183 1537.76 Q781.183 1534.15 778.845 1532.04 Q776.507 1529.94 772.502 1529.94 Q770.627 1529.94 768.752 1530.35 Q766.9 1530.77 764.956 1531.65 L764.956 1514.29 Z" fill="#000000" fill-rule="nonzero" fill-opacity="1"></path><path clip-path="url(#clip160)" d="M1216.98 1517.37 Q1213.37 1517.37 1211.54 1520.93 Q1209.74 1524.47 1209.74 1531.6 Q1209.74 1538.71 1211.54 1542.27 Q1213.37 1545.82 1216.98 1545.82 Q1220.61 1545.82 1222.42 1542.27 Q1224.25 1538.71 1224.25 1531.6 Q1224.25 1524.47 1222.42 1520.93 Q1220.61 1517.37 1216.98 1517.37 M1216.98 1513.66 Q1222.79 1513.66 1225.85 1518.27 Q1228.92 1522.85 1228.92 1531.6 Q1228.92 1540.33 1225.85 1544.94 Q1222.79 1549.52 1216.98 1549.52 Q1211.17 1549.52 1208.09 1544.94 Q1205.04 1540.33 1205.04 1531.6 Q1205.04 1522.85 1208.09 1518.27 Q1211.17 1513.66 1216.98 1513.66 Z" fill="#000000" fill-rule="nonzero" fill-opacity="1"></path><path clip-path="url(#clip160)" d="M1237.14 1542.97 L1242.03 1542.97 L1242.03 1548.85 L1237.14 1548.85 L1237.14 1542.97 Z" fill="#000000" fill-rule="nonzero" fill-opacity="1"></path><path clip-path="url(#clip160)" d="M1252.26 1514.29 L1270.61 1514.29 L1270.61 1518.22 L1256.54 1518.22 L1256.54 1526.7 Q1257.56 1526.35 1258.58 1526.19 Q1259.6 1526 1260.61 1526 Q1266.4 1526 1269.78 1529.17 Q1273.16 1532.34 1273.16 1537.76 Q1273.16 1543.34 1269.69 1546.44 Q1266.22 1549.52 1259.9 1549.52 Q1257.72 1549.52 1255.45 1549.15 Q1253.21 1548.78 1250.8 1548.04 L1250.8 1543.34 Q1252.88 1544.47 1255.11 1545.03 Q1257.33 1545.58 1259.8 1545.58 Q1263.81 1545.58 1266.15 1543.48 Q1268.48 1541.37 1268.48 1537.76 Q1268.48 1534.15 1266.15 1532.04 Q1263.81 1529.94 1259.8 1529.94 Q1257.93 1529.94 1256.05 1530.35 Q1254.2 1530.77 1252.26 1531.65 L1252.26 1514.29 Z" fill="#000000" fill-rule="nonzero" fill-opacity="1"></path><path clip-path="url(#clip160)" d="M1292.37 1517.37 Q1288.76 1517.37 1286.93 1520.93 Q1285.13 1524.47 1285.13 1531.6 Q1285.13 1538.71 1286.93 1542.27 Q1288.76 1545.82 1292.37 1545.82 Q1296.01 1545.82 1297.81 1542.27 Q1299.64 1538.71 1299.64 1531.6 Q1299.64 1524.47 1297.81 1520.93 Q1296.01 1517.37 1292.37 1517.37 M1292.37 1513.66 Q1298.18 1513.66 1301.24 1518.27 Q1304.32 1522.85 1304.32 1531.6 Q1304.32 1540.33 1301.24 1544.94 Q1298.18 1549.52 1292.37 1549.52 Q1286.56 1549.52 1283.48 1544.94 Q1280.43 1540.33 1280.43 1531.6 Q1280.43 1522.85 1283.48 1518.27 Q1286.56 1513.66 1292.37 1513.66 Z" fill="#000000" fill-rule="nonzero" fill-opacity="1"></path><path clip-path="url(#clip160)" d="M1735.44 1517.37 Q1731.83 1517.37 1730 1520.93 Q1728.19 1524.47 1728.19 1531.6 Q1728.19 1538.71 1730 1542.27 Q1731.83 1545.82 1735.44 1545.82 Q1739.07 1545.82 1740.88 1542.27 Q1742.71 1538.71 1742.71 1531.6 Q1742.71 1524.47 1740.88 1520.93 Q1739.07 1517.37 1735.44 1517.37 M1735.44 1513.66 Q1741.25 1513.66 1744.31 1518.27 Q1747.38 1522.85 1747.38 1531.6 Q1747.38 1540.33 1744.31 1544.94 Q1741.25 1549.52 1735.44 1549.52 Q1729.63 1549.52 1726.55 1544.94 Q1723.5 1540.33 1723.5 1531.6 Q1723.5 1522.85 1726.55 1518.27 Q1729.63 1513.66 1735.44 1513.66 Z" fill="#000000" fill-rule="nonzero" fill-opacity="1"></path><path clip-path="url(#clip160)" d="M1755.6 1542.97 L1760.49 1542.97 L1760.49 1548.85 L1755.6 1548.85 L1755.6 1542.97 Z" fill="#000000" fill-rule="nonzero" fill-opacity="1"></path><path clip-path="url(#clip160)" d="M1769.49 1514.29 L1791.71 1514.29 L1791.71 1516.28 L1779.17 1548.85 L1774.28 1548.85 L1786.09 1518.22 L1769.49 1518.22 L1769.49 1514.29 Z" fill="#000000" fill-rule="nonzero" fill-opacity="1"></path><path clip-path="url(#clip160)" d="M1800.88 1514.29 L1819.24 1514.29 L1819.24 1518.22 L1805.16 1518.22 L1805.16 1526.7 Q1806.18 1526.35 1807.2 1526.19 Q1808.22 1526 1809.24 1526 Q1815.02 1526 1818.4 1529.17 Q1821.78 1532.34 1821.78 1537.76 Q1821.78 1543.34 1818.31 1546.44 Q1814.84 1549.52 1808.52 1549.52 Q1806.34 1549.52 1804.07 1549.15 Q1801.83 1548.78 1799.42 1548.04 L1799.42 1543.34 Q1801.5 1544.47 1803.73 1545.03 Q1805.95 1545.58 1808.43 1545.58 Q1812.43 1545.58 1814.77 1543.48 Q1817.11 1541.37 1817.11 1537.76 Q1817.11 1534.15 1814.77 1532.04 Q1812.43 1529.94 1808.43 1529.94 Q1806.55 1529.94 1804.68 1530.35 Q1802.82 1530.77 1800.88 1531.65 L1800.88 1514.29 Z" fill="#000000" fill-rule="nonzero" fill-opacity="1"></path><path clip-path="url(#clip160)" d="M2242.67 1544.91 L2250.31 1544.91 L2250.31 1518.55 L2242 1520.21 L2242 1515.95 L2250.27 1514.29 L2254.94 1514.29 L2254.94 1544.91 L2262.58 1544.91 L2262.58 1548.85 L2242.67 1548.85 L2242.67 1544.91 Z" fill="#000000" fill-rule="nonzero" fill-opacity="1"></path><path clip-path="url(#clip160)" d="M2272.02 1542.97 L2276.91 1542.97 L2276.91 1548.85 L2272.02 1548.85 L2272.02 1542.97 Z" fill="#000000" fill-rule="nonzero" fill-opacity="1"></path><path clip-path="url(#clip160)" d="M2297.09 1517.37 Q2293.48 1517.37 2291.65 1520.93 Q2289.85 1524.47 2289.85 1531.6 Q2289.85 1538.71 2291.65 1542.27 Q2293.48 1545.82 2297.09 1545.82 Q2300.73 1545.82 2302.53 1542.27 Q2304.36 1538.71 2304.36 1531.6 Q2304.36 1524.47 2302.53 1520.93 Q2300.73 1517.37 2297.09 1517.37 M2297.09 1513.66 Q2302.9 1513.66 2305.96 1518.27 Q2309.04 1522.85 2309.04 1531.6 Q2309.04 1540.33 2305.96 1544.94 Q2302.9 1549.52 2297.09 1549.52 Q2291.28 1549.52 2288.2 1544.94 Q2285.15 1540.33 2285.15 1531.6 Q2285.15 1522.85 2288.2 1518.27 Q2291.28 1513.66 2297.09 1513.66 Z" fill="#000000" fill-rule="nonzero" fill-opacity="1"></path><path clip-path="url(#clip160)" d="M2327.26 1517.37 Q2323.64 1517.37 2321.82 1520.93 Q2320.01 1524.47 2320.01 1531.6 Q2320.01 1538.71 2321.82 1542.27 Q2323.64 1545.82 2327.26 1545.82 Q2330.89 1545.82 2332.7 1542.27 Q2334.52 1538.71 2334.52 1531.6 Q2334.52 1524.47 2332.7 1520.93 Q2330.89 1517.37 2327.26 1517.37 M2327.26 1513.66 Q2333.07 1513.66 2336.12 1518.27 Q2339.2 1522.85 2339.2 1531.6 Q2339.2 1540.33 2336.12 1544.94 Q2333.07 1549.52 2327.26 1549.52 Q2321.45 1549.52 2318.37 1544.94 Q2315.31 1540.33 2315.31 1531.6 Q2315.31 1522.85 2318.37 1518.27 Q2321.45 1513.66 2327.26 1513.66 Z" fill="#000000" fill-rule="nonzero" fill-opacity="1"></path><polyline clip-path="url(#clip162)" style="stroke:#000000; stroke-linecap:round; stroke-linejoin:round; stroke-width:2; stroke-opacity:0.1; fill:none" points="156.598,1250.29 2352.76,1250.29 "></polyline>
<polyline clip-path="url(#clip162)" style="stroke:#000000; stroke-linecap:round; stroke-linejoin:round; stroke-width:2; stroke-opacity:0.1; fill:none" points="156.598,961.012 2352.76,961.012 "></polyline>
<polyline clip-path="url(#clip162)" style="stroke:#000000; stroke-linecap:round; stroke-linejoin:round; stroke-width:2; stroke-opacity:0.1; fill:none" points="156.598,671.731 2352.76,671.731 "></polyline>
<polyline clip-path="url(#clip162)" style="stroke:#000000; stroke-linecap:round; stroke-linejoin:round; stroke-width:2; stroke-opacity:0.1; fill:none" points="156.598,382.451 2352.76,382.451 "></polyline>
<polyline clip-path="url(#clip162)" style="stroke:#000000; stroke-linecap:round; stroke-linejoin:round; stroke-width:2; stroke-opacity:0.1; fill:none" points="156.598,93.1699 2352.76,93.1699 "></polyline>
<polyline clip-path="url(#clip160)" style="stroke:#000000; stroke-linecap:round; stroke-linejoin:round; stroke-width:4; stroke-opacity:1; fill:none" points="156.598,1486.45 156.598,47.2441 "></polyline>
<polyline clip-path="url(#clip160)" style="stroke:#000000; stroke-linecap:round; stroke-linejoin:round; stroke-width:4; stroke-opacity:1; fill:none" points="156.598,1250.29 175.496,1250.29 "></polyline>
<polyline clip-path="url(#clip160)" style="stroke:#000000; stroke-linecap:round; stroke-linejoin:round; stroke-width:4; stroke-opacity:1; fill:none" points="156.598,961.012 175.496,961.012 "></polyline>
<polyline clip-path="url(#clip160)" style="stroke:#000000; stroke-linecap:round; stroke-linejoin:round; stroke-width:4; stroke-opacity:1; fill:none" points="156.598,671.731 175.496,671.731 "></polyline>
<polyline clip-path="url(#clip160)" style="stroke:#000000; stroke-linecap:round; stroke-linejoin:round; stroke-width:4; stroke-opacity:1; fill:none" points="156.598,382.451 175.496,382.451 "></polyline>
<polyline clip-path="url(#clip160)" style="stroke:#000000; stroke-linecap:round; stroke-linejoin:round; stroke-width:4; stroke-opacity:1; fill:none" points="156.598,93.1699 175.496,93.1699 "></polyline>
<path clip-path="url(#clip160)" d="M65.0198 1236.09 Q61.4087 1236.09 59.58 1239.66 Q57.7745 1243.2 57.7745 1250.33 Q57.7745 1257.43 59.58 1261 Q61.4087 1264.54 65.0198 1264.54 Q68.6541 1264.54 70.4596 1261 Q72.2883 1257.43 72.2883 1250.33 Q72.2883 1243.2 70.4596 1239.66 Q68.6541 1236.09 65.0198 1236.09 M65.0198 1232.39 Q70.83 1232.39 73.8855 1236.99 Q76.9642 1241.58 76.9642 1250.33 Q76.9642 1259.05 73.8855 1263.66 Q70.83 1268.24 65.0198 1268.24 Q59.2097 1268.24 56.131 1263.66 Q53.0754 1259.05 53.0754 1250.33 Q53.0754 1241.58 56.131 1236.99 Q59.2097 1232.39 65.0198 1232.39 Z" fill="#000000" fill-rule="nonzero" fill-opacity="1"></path><path clip-path="url(#clip160)" d="M85.1818 1261.69 L90.066 1261.69 L90.066 1267.57 L85.1818 1267.57 L85.1818 1261.69 Z" fill="#000000" fill-rule="nonzero" fill-opacity="1"></path><path clip-path="url(#clip160)" d="M104.279 1263.64 L120.598 1263.64 L120.598 1267.57 L98.6539 1267.57 L98.6539 1263.64 Q101.316 1260.88 105.899 1256.25 Q110.506 1251.6 111.686 1250.26 Q113.932 1247.74 114.811 1246 Q115.714 1244.24 115.714 1242.55 Q115.714 1239.8 113.77 1238.06 Q111.848 1236.32 108.746 1236.32 Q106.547 1236.32 104.094 1237.09 Q101.663 1237.85 98.8854 1239.4 L98.8854 1234.68 Q101.709 1233.55 104.163 1232.97 Q106.617 1232.39 108.654 1232.39 Q114.024 1232.39 117.219 1235.07 Q120.413 1237.76 120.413 1242.25 Q120.413 1244.38 119.603 1246.3 Q118.816 1248.2 116.709 1250.79 Q116.131 1251.46 113.029 1254.68 Q109.927 1257.87 104.279 1263.64 Z" fill="#000000" fill-rule="nonzero" fill-opacity="1"></path><path clip-path="url(#clip160)" d="M62.9365 946.811 Q59.3254 946.811 57.4967 950.376 Q55.6912 953.917 55.6912 961.047 Q55.6912 968.153 57.4967 971.718 Q59.3254 975.26 62.9365 975.26 Q66.5707 975.26 68.3763 971.718 Q70.205 968.153 70.205 961.047 Q70.205 953.917 68.3763 950.376 Q66.5707 946.811 62.9365 946.811 M62.9365 943.107 Q68.7467 943.107 71.8022 947.714 Q74.8809 952.297 74.8809 961.047 Q74.8809 969.774 71.8022 974.38 Q68.7467 978.964 62.9365 978.964 Q57.1264 978.964 54.0477 974.38 Q50.9921 969.774 50.9921 961.047 Q50.9921 952.297 54.0477 947.714 Q57.1264 943.107 62.9365 943.107 Z" fill="#000000" fill-rule="nonzero" fill-opacity="1"></path><path clip-path="url(#clip160)" d="M83.0984 972.413 L87.9827 972.413 L87.9827 978.292 L83.0984 978.292 L83.0984 972.413 Z" fill="#000000" fill-rule="nonzero" fill-opacity="1"></path><path clip-path="url(#clip160)" d="M111.015 947.806 L99.2095 966.255 L111.015 966.255 L111.015 947.806 M109.788 943.732 L115.668 943.732 L115.668 966.255 L120.598 966.255 L120.598 970.144 L115.668 970.144 L115.668 978.292 L111.015 978.292 L111.015 970.144 L95.4132 970.144 L95.4132 965.63 L109.788 943.732 Z" fill="#000000" fill-rule="nonzero" fill-opacity="1"></path><path clip-path="url(#clip160)" d="M63.2606 657.53 Q59.6495 657.53 57.8208 661.095 Q56.0152 664.637 56.0152 671.766 Q56.0152 678.873 57.8208 682.437 Q59.6495 685.979 63.2606 685.979 Q66.8948 685.979 68.7004 682.437 Q70.5291 678.873 70.5291 671.766 Q70.5291 664.637 68.7004 661.095 Q66.8948 657.53 63.2606 657.53 M63.2606 653.826 Q69.0707 653.826 72.1263 658.433 Q75.205 663.016 75.205 671.766 Q75.205 680.493 72.1263 685.099 Q69.0707 689.683 63.2606 689.683 Q57.4504 689.683 54.3717 685.099 Q51.3162 680.493 51.3162 671.766 Q51.3162 663.016 54.3717 658.433 Q57.4504 653.826 63.2606 653.826 Z" fill="#000000" fill-rule="nonzero" fill-opacity="1"></path><path clip-path="url(#clip160)" d="M83.4225 683.132 L88.3067 683.132 L88.3067 689.011 L83.4225 689.011 L83.4225 683.132 Z" fill="#000000" fill-rule="nonzero" fill-opacity="1"></path><path clip-path="url(#clip160)" d="M109.071 669.868 Q105.922 669.868 104.071 672.021 Q102.242 674.174 102.242 677.924 Q102.242 681.65 104.071 683.826 Q105.922 685.979 109.071 685.979 Q112.219 685.979 114.047 683.826 Q115.899 681.65 115.899 677.924 Q115.899 674.174 114.047 672.021 Q112.219 669.868 109.071 669.868 M118.353 655.215 L118.353 659.475 Q116.594 658.641 114.788 658.201 Q113.006 657.762 111.246 657.762 Q106.617 657.762 104.163 660.887 Q101.733 664.012 101.385 670.331 Q102.751 668.317 104.811 667.252 Q106.871 666.164 109.348 666.164 Q114.557 666.164 117.566 669.336 Q120.598 672.484 120.598 677.924 Q120.598 683.248 117.45 686.465 Q114.302 689.683 109.071 689.683 Q103.075 689.683 99.9039 685.099 Q96.7326 680.493 96.7326 671.766 Q96.7326 663.572 100.621 658.711 Q104.51 653.826 111.061 653.826 Q112.82 653.826 114.603 654.174 Q116.408 654.521 118.353 655.215 Z" fill="#000000" fill-rule="nonzero" fill-opacity="1"></path><path clip-path="url(#clip160)" d="M63.5152 368.249 Q59.9041 368.249 58.0754 371.814 Q56.2699 375.356 56.2699 382.485 Q56.2699 389.592 58.0754 393.157 Q59.9041 396.698 63.5152 396.698 Q67.1494 396.698 68.955 393.157 Q70.7837 389.592 70.7837 382.485 Q70.7837 375.356 68.955 371.814 Q67.1494 368.249 63.5152 368.249 M63.5152 364.546 Q69.3254 364.546 72.3809 369.152 Q75.4596 373.735 75.4596 382.485 Q75.4596 391.212 72.3809 395.819 Q69.3254 400.402 63.5152 400.402 Q57.7051 400.402 54.6264 395.819 Q51.5708 391.212 51.5708 382.485 Q51.5708 373.735 54.6264 369.152 Q57.7051 364.546 63.5152 364.546 Z" fill="#000000" fill-rule="nonzero" fill-opacity="1"></path><path clip-path="url(#clip160)" d="M83.6771 393.851 L88.5614 393.851 L88.5614 399.731 L83.6771 399.731 L83.6771 393.851 Z" fill="#000000" fill-rule="nonzero" fill-opacity="1"></path><path clip-path="url(#clip160)" d="M108.746 383.319 Q105.413 383.319 103.492 385.101 Q101.594 386.883 101.594 390.008 Q101.594 393.133 103.492 394.916 Q105.413 396.698 108.746 396.698 Q112.08 396.698 114.001 394.916 Q115.922 393.11 115.922 390.008 Q115.922 386.883 114.001 385.101 Q112.103 383.319 108.746 383.319 M104.071 381.328 Q101.061 380.587 99.3715 378.527 Q97.7048 376.467 97.7048 373.504 Q97.7048 369.36 100.645 366.953 Q103.608 364.546 108.746 364.546 Q113.908 364.546 116.848 366.953 Q119.788 369.36 119.788 373.504 Q119.788 376.467 118.098 378.527 Q116.432 380.587 113.445 381.328 Q116.825 382.115 118.7 384.407 Q120.598 386.698 120.598 390.008 Q120.598 395.032 117.52 397.717 Q114.464 400.402 108.746 400.402 Q103.029 400.402 99.9502 397.717 Q96.8947 395.032 96.8947 390.008 Q96.8947 386.698 98.7928 384.407 Q100.691 382.115 104.071 381.328 M102.358 373.944 Q102.358 376.629 104.024 378.134 Q105.714 379.638 108.746 379.638 Q111.756 379.638 113.445 378.134 Q115.158 376.629 115.158 373.944 Q115.158 371.259 113.445 369.754 Q111.756 368.249 108.746 368.249 Q105.714 368.249 104.024 369.754 Q102.358 371.259 102.358 373.944 Z" fill="#000000" fill-rule="nonzero" fill-opacity="1"></path><path clip-path="url(#clip160)" d="M54.2328 106.515 L61.8717 106.515 L61.8717 80.1491 L53.5616 81.8157 L53.5616 77.5565 L61.8254 75.8899 L66.5013 75.8899 L66.5013 106.515 L74.1402 106.515 L74.1402 110.45 L54.2328 110.45 L54.2328 106.515 Z" fill="#000000" fill-rule="nonzero" fill-opacity="1"></path><path clip-path="url(#clip160)" d="M83.5845 104.57 L88.4688 104.57 L88.4688 110.45 L83.5845 110.45 L83.5845 104.57 Z" fill="#000000" fill-rule="nonzero" fill-opacity="1"></path><path clip-path="url(#clip160)" d="M108.654 78.9685 Q105.043 78.9685 103.214 82.5333 Q101.409 86.075 101.409 93.2046 Q101.409 100.311 103.214 103.876 Q105.043 107.417 108.654 107.417 Q112.288 107.417 114.094 103.876 Q115.922 100.311 115.922 93.2046 Q115.922 86.075 114.094 82.5333 Q112.288 78.9685 108.654 78.9685 M108.654 75.2649 Q114.464 75.2649 117.52 79.8713 Q120.598 84.4546 120.598 93.2046 Q120.598 101.931 117.52 106.538 Q114.464 111.121 108.654 111.121 Q102.844 111.121 99.765 106.538 Q96.7095 101.931 96.7095 93.2046 Q96.7095 84.4546 99.765 79.8713 Q102.844 75.2649 108.654 75.2649 Z" fill="#000000" fill-rule="nonzero" fill-opacity="1"></path><polyline clip-path="url(#clip162)" style="stroke:#009af9; stroke-linecap:round; stroke-linejoin:round; stroke-width:4; stroke-opacity:1; fill:none" points="218.754,93.1699 221.991,93.1699 225.228,93.1698 228.465,93.1698 231.703,93.1699 234.94,93.1699 238.177,93.1698 241.414,93.1698 244.652,93.1698 247.889,93.1699 251.126,93.1699 "></polyline>
<polyline clip-path="url(#clip162)" style="stroke:#e26f46; stroke-linecap:round; stroke-linejoin:round; stroke-width:4; stroke-opacity:1; fill:none" points="251.126,93.1699 254.364,93.1698 257.601,93.1699 260.838,93.1699 264.075,93.1698 267.313,93.1699 270.55,93.1698 273.787,93.1699 277.024,93.1698 280.262,93.1699 283.499,93.1699 "></polyline>
<polyline clip-path="url(#clip162)" style="stroke:#3da44d; stroke-linecap:round; stroke-linejoin:round; stroke-width:4; stroke-opacity:1; fill:none" points="283.499,93.17 286.736,93.1701 289.973,93.1696 293.211,93.1701 296.448,93.1697 299.685,93.1697 302.922,93.1702 306.16,93.1694 309.397,93.1701 312.634,93.1703 315.871,93.1692 "></polyline>
<polyline clip-path="url(#clip162)" style="stroke:#c271d2; stroke-linecap:round; stroke-linejoin:round; stroke-width:4; stroke-opacity:1; fill:none" points="315.871,93.1688 319.109,93.1719 322.346,93.1672 325.583,93.1725 328.821,93.1686 332.058,93.1684 335.295,93.1742 338.532,93.1645 341.77,93.1727 345.007,93.1742 348.244,93.163 "></polyline>
<polyline clip-path="url(#clip162)" style="stroke:#ac8d18; stroke-linecap:round; stroke-linejoin:round; stroke-width:4; stroke-opacity:1; fill:none" points="348.244,93.1605 351.481,93.1913 354.719,93.1451 357.956,93.1895 361.193,93.167 364.43,93.1499 367.668,93.2042 370.905,93.1454 374.142,93.1531 377.379,93.2513 380.617,93.1105 "></polyline>
<polyline clip-path="url(#clip162)" style="stroke:#00a9ad; stroke-linecap:round; stroke-linejoin:round; stroke-width:4; stroke-opacity:1; fill:none" points="380.617,93.0929 383.854,93.2888 387.091,93.1117 390.328,93.1415 393.566,93.258 396.803,93.1016 400.04,93.1335 403.278,93.312 406.515,93.019 409.752,93.2056 412.989,93.4593 "></polyline>
<polyline clip-path="url(#clip162)" style="stroke:#ed5d92; stroke-linecap:round; stroke-linejoin:round; stroke-width:4; stroke-opacity:1; fill:none" points="412.989,93.4091 416.227,93.0491 419.464,93.0081 422.701,93.6584 425.938,92.6333 429.176,92.7235 432.413,94.0417 435.65,92.6002 438.887,92.2071 442.125,94.8494 445.362,91.3056 "></polyline>
<polyline clip-path="url(#clip162)" style="stroke:#c68125; stroke-linecap:round; stroke-linejoin:round; stroke-width:4; stroke-opacity:1; fill:none" points="445.362,91.22 448.599,87.9763 451.836,93.0017 455.074,102.117 458.311,109.913 461.548,117.124 464.785,124.707 468.023,132.252 471.26,139.148 474.497,146.49 477.734,153.209 "></polyline>
<polyline clip-path="url(#clip162)" style="stroke:#00a98d; stroke-linecap:round; stroke-linejoin:round; stroke-width:4; stroke-opacity:1; fill:none" points="477.734,153.165 480.972,160.272 484.209,168.264 487.446,176.755 490.684,185.034 493.921,191.897 497.158,198.57 500.395,205.788 503.633,213.025 506.87,220.715 510.107,226.829 "></polyline>
<polyline clip-path="url(#clip162)" style="stroke:#8e971d; stroke-linecap:round; stroke-linejoin:round; stroke-width:4; stroke-opacity:1; fill:none" points="510.107,226.755 513.344,233.651 516.582,240.945 519.819,249.364 523.056,256.541 526.293,263.529 529.531,271.423 532.768,278.215 536.005,284.555 539.242,290.824 542.48,297.76 "></polyline>
<polyline clip-path="url(#clip162)" style="stroke:#00a8cb; stroke-linecap:round; stroke-linejoin:round; stroke-width:4; stroke-opacity:1; fill:none" points="542.48,297.747 545.717,305.7 548.954,312.511 552.191,319.946 555.429,326.852 558.666,333.09 561.903,339.304 565.141,346.463 568.378,353.529 571.615,360.806 574.852,367.458 "></polyline>
<polyline clip-path="url(#clip162)" style="stroke:#9b7fe8; stroke-linecap:round; stroke-linejoin:round; stroke-width:4; stroke-opacity:1; fill:none" points="574.852,367.444 578.09,373.313 581.327,380.15 584.564,387.026 587.801,393.825 591.039,399.577 594.276,406.199 597.513,413.285 600.75,419.161 603.988,426.271 607.225,434.35 "></polyline>
<polyline clip-path="url(#clip162)" style="stroke:#608cf6; stroke-linecap:round; stroke-linejoin:round; stroke-width:4; stroke-opacity:1; fill:none" points="607.225,434.299 610.462,439.242 613.699,444.294 616.937,452.647 620.174,457.094 623.411,464.113 626.648,470.04 629.886,462.93 633.123,485.697 636.36,503.904 639.598,502.423 "></polyline>
<polyline clip-path="url(#clip162)" style="stroke:#f05f73; stroke-linecap:round; stroke-linejoin:round; stroke-width:4; stroke-opacity:1; fill:none" points="639.598,502.462 642.835,502.916 646.072,508.911 649.309,513.727 652.547,520.748 655.784,527.601 659.021,532.841 662.258,537.957 665.496,544.88 668.733,549.124 671.97,553.747 "></polyline>
<polyline clip-path="url(#clip162)" style="stroke:#dd64b5; stroke-linecap:round; stroke-linejoin:round; stroke-width:4; stroke-opacity:1; fill:none" points="671.97,553.622 675.207,560.795 678.445,566.755 681.682,573.029 684.919,577.239 688.156,584.419 691.394,591.238 694.631,595.621 697.868,601.199 701.105,610.702 704.343,614.416 "></polyline>
<polyline clip-path="url(#clip162)" style="stroke:#6b9e32; stroke-linecap:round; stroke-linejoin:round; stroke-width:4; stroke-opacity:1; fill:none" points="704.343,614.678 707.58,621.119 710.817,622.782 714.055,631.418 717.292,637.868 720.529,640.393 723.766,643.645 727.004,648.919 730.241,657.13 733.478,663.726 736.715,666.57 "></polyline>
<polyline clip-path="url(#clip162)" style="stroke:#009af9; stroke-linecap:round; stroke-linejoin:round; stroke-width:4; stroke-opacity:1; fill:none" points="736.715,666.416 739.953,670.096 743.19,674.583 746.427,679.92 749.664,687.09 752.902,691.673 756.139,696.321 759.376,703.265 762.613,710.207 765.851,715.881 769.088,709.626 "></polyline>
<polyline clip-path="url(#clip162)" style="stroke:#e26f46; stroke-linecap:round; stroke-linejoin:round; stroke-width:4; stroke-opacity:1; fill:none" points="769.088,710.039 772.325,708.884 775.562,692.907 778.8,688.228 782.037,702.208 785.274,700.848 788.512,694.034 791.749,707.918 794.986,715.156 798.223,705.884 801.461,681.032 "></polyline>
<polyline clip-path="url(#clip162)" style="stroke:#3da44d; stroke-linecap:round; stroke-linejoin:round; stroke-width:4; stroke-opacity:1; fill:none" points="801.461,681.39 804.698,693.988 807.935,701.758 811.172,696.315 814.41,698.814 817.647,708.365 820.884,719.079 824.121,706.675 827.359,679.684 830.596,697.521 833.833,702.12 "></polyline>
<polyline clip-path="url(#clip162)" style="stroke:#c271d2; stroke-linecap:round; stroke-linejoin:round; stroke-width:4; stroke-opacity:1; fill:none" points="833.833,702.01 837.07,692.292 840.308,705.816 843.545,712.074 846.782,717.232 850.019,694.141 853.257,679.706 856.494,703.021 859.731,701.35 862.969,688.902 866.206,708.185 "></polyline>
<polyline clip-path="url(#clip162)" style="stroke:#ac8d18; stroke-linecap:round; stroke-linejoin:round; stroke-width:4; stroke-opacity:1; fill:none" points="866.206,707.692 869.443,713.492 872.68,719.798 875.918,684.183 879.155,688.358 882.392,703.119 885.629,693.261 888.867,694.003 892.104,711.802 895.341,715.334 898.578,714.877 "></polyline>
<polyline clip-path="url(#clip162)" style="stroke:#00a9ad; stroke-linecap:round; stroke-linejoin:round; stroke-width:4; stroke-opacity:1; fill:none" points="898.578,713.052 901.816,671.75 905.053,697.635 908.29,696.96 911.527,692.377 914.765,695.493 918.002,712.653 921.239,723.749 924.476,712.151 927.714,673.366 930.951,691.147 "></polyline>
<polyline clip-path="url(#clip162)" style="stroke:#ed5d92; stroke-linecap:round; stroke-linejoin:round; stroke-width:4; stroke-opacity:1; fill:none" points="930.951,688.89 934.188,686.883 937.426,692.082 940.663,700.404 943.9,713.356 947.137,731.138 950.375,702.616 953.612,677.759 956.849,701.324 960.086,687.318 963.324,694.327 "></polyline>
<polyline clip-path="url(#clip162)" style="stroke:#c68125; stroke-linecap:round; stroke-linejoin:round; stroke-width:4; stroke-opacity:1; fill:none" points="963.324,695.34 966.561,705.636 969.798,718.758 973.035,734.08 976.273,686.491 979.51,684.438 982.747,700.872 985.984,681.595 989.222,694.017 992.459,708.465 995.696,736.527 "></polyline>
<polyline clip-path="url(#clip162)" style="stroke:#00a98d; stroke-linecap:round; stroke-linejoin:round; stroke-width:4; stroke-opacity:1; fill:none" points="995.696,737.843 998.933,727.278 1002.17,676.713 1005.41,693.022 1008.65,691.358 1011.88,683.656 1015.12,696.357 1018.36,715.891 1021.59,737.331 1024.83,715.247 1028.07,674.964 "></polyline>
<polyline clip-path="url(#clip162)" style="stroke:#8e971d; stroke-linecap:round; stroke-linejoin:round; stroke-width:4; stroke-opacity:1; fill:none" points="1028.07,675.522 1031.31,694.464 1034.54,686.883 1037.78,686.919 1041.02,698.435 1044.26,728.999 1047.49,734.967 1050.73,698.836 1053.97,676.828 1057.2,697.374 1060.44,692.762 "></polyline>
<polyline clip-path="url(#clip162)" style="stroke:#00a8cb; stroke-linecap:round; stroke-linejoin:round; stroke-width:4; stroke-opacity:1; fill:none" points="1060.44,695.406 1063.68,694.184 1066.92,704.564 1070.15,738.624 1073.39,723.036 1076.63,689.058 1079.86,682.992 1083.1,691.824 1086.34,682.312 1089.58,694.441 1092.81,726.502 "></polyline>
<polyline clip-path="url(#clip162)" style="stroke:#9b7fe8; stroke-linecap:round; stroke-linejoin:round; stroke-width:4; stroke-opacity:1; fill:none" points="1092.81,727.993 1096.05,739.628 1099.29,710.746 1102.53,684.003 1105.76,691.053 1109,685.1 1112.24,683.778 1115.47,698.208 1118.71,728.167 1121.95,740.049 1125.19,696.471 "></polyline>
<polyline clip-path="url(#clip162)" style="stroke:#608cf6; stroke-linecap:round; stroke-linejoin:round; stroke-width:4; stroke-opacity:1; fill:none" points="1125.19,694.996 1128.42,680.257 1131.66,692.887 1134.9,680.612 1138.14,687.15 1141.37,707.504 1144.61,735.761 1147.85,728.644 1151.08,688.8 1154.32,688.909 1157.56,677.886 "></polyline>
<polyline clip-path="url(#clip162)" style="stroke:#f05f73; stroke-linecap:round; stroke-linejoin:round; stroke-width:4; stroke-opacity:1; fill:none" points="1157.56,677.52 1160.8,681.002 1164.03,686.175 1167.27,720.969 1170.51,737.35 1173.75,720.075 1176.98,676.173 1180.22,684.028 1183.46,707.064 1186.69,691.581 1189.93,686.394 "></polyline>
<polyline clip-path="url(#clip162)" style="stroke:#dd64b5; stroke-linecap:round; stroke-linejoin:round; stroke-width:4; stroke-opacity:1; fill:none" points="1189.93,693.833 1193.17,743.85 1196.41,886.242 1199.64,1038.28 1202.88,1072.36 1206.12,1019.24 1209.36,1027.8 1212.59,1058.5 1215.83,1036.17 1219.07,1018.03 1222.3,1050.86 "></polyline>
<polyline clip-path="url(#clip162)" style="stroke:#6b9e32; stroke-linecap:round; stroke-linejoin:round; stroke-width:4; stroke-opacity:1; fill:none" points="1222.3,1048.65 1225.54,1095.94 1228.78,1052.56 1232.02,1040.88 1235.25,1053.98 1238.49,1049.49 1241.73,1029.59 1244.97,1034.83 1248.2,1053.47 1251.44,1037.38 1254.68,1022.57 "></polyline>
<polyline clip-path="url(#clip162)" style="stroke:#009af9; stroke-linecap:round; stroke-linejoin:round; stroke-width:4; stroke-opacity:1; fill:none" points="1254.68,1023.65 1257.91,1073.43 1261.15,1071.83 1264.39,1055.8 1267.63,1029.27 1270.86,1046.5 1274.1,1053.41 1277.34,1030.98 1280.58,1032.2 1283.81,1046.69 1287.05,1040.71 "></polyline>
<polyline clip-path="url(#clip162)" style="stroke:#e26f46; stroke-linecap:round; stroke-linejoin:round; stroke-width:4; stroke-opacity:1; fill:none" points="1287.05,1043.06 1290.29,1054.7 1293.52,1049.62 1296.76,1079.46 1300,1044.64 1303.24,1022.28 1306.47,1045.56 1309.71,1056.26 1312.95,1033.11 1316.19,1017 1319.42,1051.48 "></polyline>
<polyline clip-path="url(#clip162)" style="stroke:#3da44d; stroke-linecap:round; stroke-linejoin:round; stroke-width:4; stroke-opacity:1; fill:none" points="1319.42,1049.92 1322.66,1076.49 1325.9,1034.24 1329.13,1056.11 1332.37,1067.9 1335.61,1040.52 1338.85,1020.87 1342.08,1044.96 1345.32,1064.16 1348.56,1019.37 1351.79,1026.02 "></polyline>
<polyline clip-path="url(#clip162)" style="stroke:#c271d2; stroke-linecap:round; stroke-linejoin:round; stroke-width:4; stroke-opacity:1; fill:none" points="1351.79,1024.68 1355.03,1078.26 1358.27,1063.75 1361.51,1042.15 1364.74,1041.55 1367.98,1063.14 1371.22,1040.7 1374.46,1017.83 1377.69,1052 1380.93,1058.85 1384.17,1027.91 "></polyline>
<polyline clip-path="url(#clip162)" style="stroke:#ac8d18; stroke-linecap:round; stroke-linejoin:round; stroke-width:4; stroke-opacity:1; fill:none" points="1384.17,1030.43 1387.4,1041.33 1390.64,1067.48 1393.88,1075.16 1397.12,1028.61 1400.35,1035.34 1403.59,1061.23 1406.83,1040.76 1410.07,1020.75 1413.3,1049.62 1416.54,1060.17 "></polyline>
<polyline clip-path="url(#clip162)" style="stroke:#00a9ad; stroke-linecap:round; stroke-linejoin:round; stroke-width:4; stroke-opacity:1; fill:none" points="1416.54,1059.17 1419.78,1042.61 1423.01,1032.44 1426.25,1074.62 1429.49,1069.11 1432.73,1023.35 1435.96,1027.96 1439.2,1063.1 1442.44,1045.9 1445.68,1019.14 1448.91,1036.82 "></polyline>
<polyline clip-path="url(#clip162)" style="stroke:#ed5d92; stroke-linecap:round; stroke-linejoin:round; stroke-width:4; stroke-opacity:1; fill:none" points="1448.91,1033.02 1452.15,1074.27 1455.39,1047.04 1458.62,1030.9 1461.86,1070.42 1465.1,1065.64 1468.34,1018.78 1471.57,1024.33 1474.81,1067.4 1478.05,1055.36 1481.29,997.211 "></polyline>
<polyline clip-path="url(#clip162)" style="stroke:#c68125; stroke-linecap:round; stroke-linejoin:round; stroke-width:4; stroke-opacity:1; fill:none" points="1481.29,1000.7 1484.52,1050.48 1487.76,1085.63 1491,1049.3 1494.23,1024.14 1497.47,1061.13 1500.71,1067.74 1503.95,1016.74 1507.18,1020.82 1510.42,1072.18 1513.66,1034.37 "></polyline>
<polyline clip-path="url(#clip162)" style="stroke:#00a98d; stroke-linecap:round; stroke-linejoin:round; stroke-width:4; stroke-opacity:1; fill:none" points="1513.66,990.632 1516.9,997.061 1520.13,1059.89 1523.37,1119.23 1526.61,1291.22 1529.84,1304.81 1533.08,1347.83 1536.32,1387.58 1539.56,1322.1 1542.79,1403.62 1546.03,1414.18 "></polyline>
<polyline clip-path="url(#clip162)" style="stroke:#8e971d; stroke-linecap:round; stroke-linejoin:round; stroke-width:4; stroke-opacity:1; fill:none" points="1546.03,1445.72 1549.27,1350.95 1552.51,1361.47 1555.74,1356.53 1558.98,1360.51 1562.22,1357.86 1565.45,1358.81 1568.69,1359.29 1571.93,1358.09 1575.17,1359.17 1578.4,1358.52 "></polyline>
<polyline clip-path="url(#clip162)" style="stroke:#00a8cb; stroke-linecap:round; stroke-linejoin:round; stroke-width:4; stroke-opacity:1; fill:none" points="1578.4,1360.2 1581.64,1358.7 1584.88,1358.8 1588.11,1358.76 1591.35,1358.79 1594.59,1358.76 1597.83,1358.78 1601.06,1358.78 1604.3,1358.77 1607.54,1358.78 1610.78,1358.77 "></polyline>
<polyline clip-path="url(#clip162)" style="stroke:#9b7fe8; stroke-linecap:round; stroke-linejoin:round; stroke-width:4; stroke-opacity:1; fill:none" points="1610.78,1358.77 1614.01,1358.77 1617.25,1358.77 1620.49,1358.77 1623.72,1358.77 1626.96,1358.77 1630.2,1358.77 1633.44,1358.77 1636.67,1358.77 1639.91,1358.77 1643.15,1358.77 "></polyline>
<polyline clip-path="url(#clip162)" style="stroke:#608cf6; stroke-linecap:round; stroke-linejoin:round; stroke-width:4; stroke-opacity:1; fill:none" points="1643.15,1358.77 1646.39,1358.77 1649.62,1358.77 1652.86,1358.77 1656.1,1358.77 1659.33,1358.77 1662.57,1358.77 1665.81,1358.77 1669.05,1358.77 1672.28,1358.77 1675.52,1358.77 "></polyline>
<polyline clip-path="url(#clip162)" style="stroke:#f05f73; stroke-linecap:round; stroke-linejoin:round; stroke-width:4; stroke-opacity:1; fill:none" points="1675.52,1358.77 1678.76,1358.77 1682,1358.77 1685.23,1358.77 1688.47,1358.77 1691.71,1358.77 1694.94,1358.77 1698.18,1358.77 1701.42,1358.77 1704.66,1358.77 1707.89,1358.77 "></polyline>
<polyline clip-path="url(#clip162)" style="stroke:#dd64b5; stroke-linecap:round; stroke-linejoin:round; stroke-width:4; stroke-opacity:1; fill:none" points="1707.89,1358.77 1711.13,1358.77 1714.37,1358.77 1717.61,1358.77 1720.84,1358.77 1724.08,1358.77 1727.32,1358.77 1730.55,1358.77 1733.79,1358.77 1737.03,1358.77 1740.27,1358.77 "></polyline>
<polyline clip-path="url(#clip162)" style="stroke:#6b9e32; stroke-linecap:round; stroke-linejoin:round; stroke-width:4; stroke-opacity:1; fill:none" points="1740.27,1358.77 1743.5,1358.77 1746.74,1358.77 1749.98,1358.77 1753.22,1358.77 1756.45,1358.77 1759.69,1358.77 1762.93,1358.77 1766.16,1358.77 1769.4,1358.77 1772.64,1358.77 "></polyline>
<polyline clip-path="url(#clip162)" style="stroke:#009af9; stroke-linecap:round; stroke-linejoin:round; stroke-width:4; stroke-opacity:1; fill:none" points="1772.64,1358.77 1775.88,1358.77 1779.11,1358.77 1782.35,1358.77 1785.59,1358.77 1788.83,1358.77 1792.06,1358.77 1795.3,1358.77 1798.54,1358.77 1801.77,1358.77 1805.01,1358.77 "></polyline>
<polyline clip-path="url(#clip162)" style="stroke:#e26f46; stroke-linecap:round; stroke-linejoin:round; stroke-width:4; stroke-opacity:1; fill:none" points="1805.01,1358.77 1808.25,1358.77 1811.49,1358.77 1814.72,1358.77 1817.96,1358.77 1821.2,1358.77 1824.43,1358.77 1827.67,1358.77 1830.91,1358.77 1834.15,1358.77 1837.38,1358.77 "></polyline>
<polyline clip-path="url(#clip162)" style="stroke:#3da44d; stroke-linecap:round; stroke-linejoin:round; stroke-width:4; stroke-opacity:1; fill:none" points="1837.38,1358.77 1840.62,1358.77 1843.86,1358.77 1847.1,1358.77 1850.33,1358.77 1853.57,1358.77 1856.81,1358.77 1860.04,1358.77 1863.28,1358.77 1866.52,1358.77 1869.76,1358.77 "></polyline>
<polyline clip-path="url(#clip162)" style="stroke:#c271d2; stroke-linecap:round; stroke-linejoin:round; stroke-width:4; stroke-opacity:1; fill:none" points="1869.76,1358.77 1872.99,1358.77 1876.23,1358.77 1879.47,1358.77 1882.71,1358.77 1885.94,1358.77 1889.18,1358.77 1892.42,1358.77 1895.65,1358.77 1898.89,1358.77 1902.13,1358.77 "></polyline>
<polyline clip-path="url(#clip162)" style="stroke:#ac8d18; stroke-linecap:round; stroke-linejoin:round; stroke-width:4; stroke-opacity:1; fill:none" points="1902.13,1358.77 1905.37,1358.77 1908.6,1358.77 1911.84,1358.77 1915.08,1358.77 1918.32,1358.77 1921.55,1358.77 1924.79,1358.77 1928.03,1358.77 1931.26,1358.77 1934.5,1358.77 "></polyline>
<polyline clip-path="url(#clip162)" style="stroke:#00a9ad; stroke-linecap:round; stroke-linejoin:round; stroke-width:4; stroke-opacity:1; fill:none" points="1934.5,1358.77 1937.74,1358.77 1940.98,1358.77 1944.21,1358.77 1947.45,1358.77 1950.69,1358.77 1953.93,1358.77 1957.16,1358.77 1960.4,1358.77 1963.64,1358.77 1966.87,1358.77 "></polyline>
<polyline clip-path="url(#clip162)" style="stroke:#ed5d92; stroke-linecap:round; stroke-linejoin:round; stroke-width:4; stroke-opacity:1; fill:none" points="1966.87,1358.77 1970.11,1358.77 1973.35,1358.77 1976.59,1358.77 1979.82,1358.77 1983.06,1358.77 1986.3,1358.77 1989.54,1358.77 1992.77,1358.77 1996.01,1358.77 1999.25,1358.77 "></polyline>
<polyline clip-path="url(#clip162)" style="stroke:#c68125; stroke-linecap:round; stroke-linejoin:round; stroke-width:4; stroke-opacity:1; fill:none" points="1999.25,1358.77 2002.48,1358.77 2005.72,1358.77 2008.96,1358.77 2012.2,1358.77 2015.43,1358.77 2018.67,1358.77 2021.91,1358.77 2025.15,1358.77 2028.38,1358.77 2031.62,1358.77 "></polyline>
<polyline clip-path="url(#clip162)" style="stroke:#00a98d; stroke-linecap:round; stroke-linejoin:round; stroke-width:4; stroke-opacity:1; fill:none" points="2031.62,1358.77 2034.86,1358.77 2038.09,1358.77 2041.33,1358.77 2044.57,1358.77 2047.81,1358.77 2051.04,1358.77 2054.28,1358.77 2057.52,1358.77 2060.75,1358.77 2063.99,1358.77 "></polyline>
<polyline clip-path="url(#clip162)" style="stroke:#8e971d; stroke-linecap:round; stroke-linejoin:round; stroke-width:4; stroke-opacity:1; fill:none" points="2063.99,1358.77 2067.23,1358.77 2070.47,1358.77 2073.7,1358.77 2076.94,1358.77 2080.18,1358.77 2083.42,1358.77 2086.65,1358.77 2089.89,1358.77 2093.13,1358.77 2096.36,1358.77 "></polyline>
<polyline clip-path="url(#clip162)" style="stroke:#00a8cb; stroke-linecap:round; stroke-linejoin:round; stroke-width:4; stroke-opacity:1; fill:none" points="2096.36,1358.77 2099.6,1358.77 2102.84,1358.77 2106.08,1358.77 2109.31,1358.77 2112.55,1358.77 2115.79,1358.77 2119.03,1358.77 2122.26,1358.77 2125.5,1358.77 2128.74,1358.77 "></polyline>
<polyline clip-path="url(#clip162)" style="stroke:#9b7fe8; stroke-linecap:round; stroke-linejoin:round; stroke-width:4; stroke-opacity:1; fill:none" points="2128.74,1358.77 2131.97,1358.77 2135.21,1358.77 2138.45,1358.77 2141.69,1358.77 2144.92,1358.77 2148.16,1358.77 2151.4,1358.77 2154.64,1358.77 2157.87,1358.77 2161.11,1358.77 "></polyline>
<polyline clip-path="url(#clip162)" style="stroke:#608cf6; stroke-linecap:round; stroke-linejoin:round; stroke-width:4; stroke-opacity:1; fill:none" points="2161.11,1358.77 2164.35,1358.77 2167.58,1358.77 2170.82,1358.77 2174.06,1358.77 2177.3,1358.77 2180.53,1358.77 2183.77,1358.77 2187.01,1358.77 2190.25,1358.77 2193.48,1358.77 "></polyline>
<polyline clip-path="url(#clip162)" style="stroke:#f05f73; stroke-linecap:round; stroke-linejoin:round; stroke-width:4; stroke-opacity:1; fill:none" points="2193.48,1358.77 2196.72,1358.77 2199.96,1358.77 2203.19,1358.77 2206.43,1358.77 2209.67,1358.77 2212.91,1358.77 2216.14,1358.77 2219.38,1358.77 2222.62,1358.77 2225.86,1358.77 "></polyline>
<polyline clip-path="url(#clip162)" style="stroke:#dd64b5; stroke-linecap:round; stroke-linejoin:round; stroke-width:4; stroke-opacity:1; fill:none" points="2225.86,1358.77 2229.09,1358.77 2232.33,1358.77 2235.57,1358.77 2238.8,1358.77 2242.04,1358.77 2245.28,1358.77 2248.52,1358.77 2251.75,1358.77 2254.99,1358.77 2258.23,1358.77 "></polyline>
<polyline clip-path="url(#clip162)" style="stroke:#6b9e32; stroke-linecap:round; stroke-linejoin:round; stroke-width:4; stroke-opacity:1; fill:none" points="2258.23,1358.77 2261.47,1358.77 2264.7,1358.77 2267.94,1358.77 2271.18,1358.77 2274.41,1358.77 2277.65,1358.77 2280.89,1358.77 2284.13,1358.77 2287.36,1358.77 2290.6,1358.77 "></polyline>
</svg>