<svg xmlns="http://www.w3.org/2000/svg" xmlns:xlink="http://www.w3.org/1999/xlink" width="600" height="400" viewBox="0 0 2400 1600">
<defs>
  <clipPath id="clip200">
    <rect x="0" y="0" width="2400" height="1600"></rect>
  </clipPath>
</defs>
<path clip-path="url(#clip200)" d="M0 1600 L2400 1600 L2400 0 L0 0  Z" fill="#ffffff" fill-rule="evenodd" fill-opacity="1"></path>
<defs>
  <clipPath id="clip201">
    <rect x="480" y="0" width="1681" height="1600"></rect>
  </clipPath>
</defs>
<path clip-path="url(#clip200)" d="M156.598 1486.45 L2352.76 1486.45 L2352.76 47.2441 L156.598 47.2441  Z" fill="#ffffff" fill-rule="evenodd" fill-opacity="1"></path>
<defs>
  <clipPath id="clip202">
    <rect x="156" y="47" width="2197" height="1440"></rect>
  </clipPath>
</defs>
<polyline clip-path="url(#clip202)" style="stroke:#000000; stroke-linecap:round; stroke-linejoin:round; stroke-width:2; stroke-opacity:0.1; fill:none" points="218.754,1486.45 218.754,47.2441 "></polyline>
<polyline clip-path="url(#clip202)" style="stroke:#000000; stroke-linecap:round; stroke-linejoin:round; stroke-width:2; stroke-opacity:0.1; fill:none" points="736.715,1486.45 736.715,47.2441 "></polyline>
<polyline clip-path="url(#clip202)" style="stroke:#000000; stroke-linecap:round; stroke-linejoin:round; stroke-width:2; stroke-opacity:0.1; fill:none" points="1254.68,1486.45 1254.68,47.2441 "></polyline>
<polyline clip-path="url(#clip202)" style="stroke:#000000; stroke-linecap:round; stroke-linejoin:round; stroke-width:2; stroke-opacity:0.1; fill:none" points="1772.64,1486.45 1772.64,47.2441 "></polyline>
<polyline clip-path="url(#clip202)" style="stroke:#000000; stroke-linecap:round; stroke-linejoin:round; stroke-width:2; stroke-opacity:0.1; fill:none" points="2290.6,1486.45 2290.6,47.2441 "></polyline>
<polyline clip-path="url(#clip200)" style="stroke:#000000; stroke-linecap:round; stroke-linejoin:round; stroke-width:4; stroke-opacity:1; fill:none" points="156.598,1486.45 2352.76,1486.45 "></polyline>
<polyline clip-path="url(#clip200)" style="stroke:#000000; stroke-linecap:round; stroke-linejoin:round; stroke-width:4; stroke-opacity:1; fill:none" points="218.754,1486.45 218.754,1467.55 "></polyline>
<polyline clip-path="url(#clip200)" style="stroke:#000000; stroke-linecap:round; stroke-linejoin:round; stroke-width:4; stroke-opacity:1; fill:none" points="736.715,1486.45 736.715,1467.55 "></polyline>
<polyline clip-path="url(#clip200)" style="stroke:#000000; stroke-linecap:round; stroke-linejoin:round; stroke-width:4; stroke-opacity:1; fill:none" points="1254.68,1486.45 1254.68,1467.55 "></polyline>
<polyline clip-path="url(#clip200)" style="stroke:#000000; stroke-linecap:round; stroke-linejoin:round; stroke-width:4; stroke-opacity:1; fill:none" points="1772.64,1486.45 1772.64,1467.55 "></polyline>
<polyline clip-path="url(#clip200)" style="stroke:#000000; stroke-linecap:round; stroke-linejoin:round; stroke-width:4; stroke-opacity:1; fill:none" points="2290.6,1486.45 2290.6,1467.55 "></polyline>
<path clip-path="url(#clip200)" d="M181.057 1517.37 Q177.446 1517.37 175.617 1520.93 Q173.812 1524.47 173.812 1531.6 Q173.812 1538.71 175.617 1542.27 Q177.446 1545.82 181.057 1545.82 Q184.691 1545.82 186.497 1542.27 Q188.326 1538.71 188.326 1531.6 Q188.326 1524.47 186.497 1520.93 Q184.691 1517.37 181.057 1517.37 M181.057 1513.66 Q186.867 1513.66 189.923 1518.27 Q193.001 1522.85 193.001 1531.6 Q193.001 1540.33 189.923 1544.94 Q186.867 1549.52 181.057 1549.52 Q175.247 1549.52 172.168 1544.94 Q169.113 1540.33 169.113 1531.6 Q169.113 1522.85 172.168 1518.27 Q175.247 1513.66 181.057 1513.66 Z" fill="#000000" fill-rule="nonzero" fill-opacity="1"></path><path clip-path="url(#clip200)" d="M201.219 1542.97 L206.103 1542.97 L206.103 1548.85 L201.219 1548.85 L201.219 1542.97 Z" fill="#000000" fill-rule="nonzero" fill-opacity="1"></path><path clip-path="url(#clip200)" d="M226.288 1517.37 Q222.677 1517.37 220.849 1520.93 Q219.043 1524.47 219.043 1531.6 Q219.043 1538.71 220.849 1542.27 Q222.677 1545.82 226.288 1545.82 Q229.923 1545.82 231.728 1542.27 Q233.557 1538.71 233.557 1531.6 Q233.557 1524.47 231.728 1520.93 Q229.923 1517.37 226.288 1517.37 M226.288 1513.66 Q232.098 1513.66 235.154 1518.27 Q238.233 1522.85 238.233 1531.6 Q238.233 1540.33 235.154 1544.94 Q232.098 1549.52 226.288 1549.52 Q220.478 1549.52 217.399 1544.94 Q214.344 1540.33 214.344 1531.6 Q214.344 1522.85 217.399 1518.27 Q220.478 1513.66 226.288 1513.66 Z" fill="#000000" fill-rule="nonzero" fill-opacity="1"></path><path clip-path="url(#clip200)" d="M256.45 1517.37 Q252.839 1517.37 251.01 1520.93 Q249.205 1524.47 249.205 1531.6 Q249.205 1538.71 251.01 1542.27 Q252.839 1545.82 256.45 1545.82 Q260.084 1545.82 261.89 1542.27 Q263.719 1538.71 263.719 1531.6 Q263.719 1524.47 261.89 1520.93 Q260.084 1517.37 256.45 1517.37 M256.45 1513.66 Q262.26 1513.66 265.316 1518.27 Q268.395 1522.85 268.395 1531.6 Q268.395 1540.33 265.316 1544.94 Q262.26 1549.52 256.45 1549.52 Q250.64 1549.52 247.561 1544.94 Q244.506 1540.33 244.506 1531.6 Q244.506 1522.85 247.561 1518.27 Q250.64 1513.66 256.45 1513.66 Z" fill="#000000" fill-rule="nonzero" fill-opacity="1"></path><path clip-path="url(#clip200)" d="M699.516 1517.37 Q695.905 1517.37 694.077 1520.93 Q692.271 1524.47 692.271 1531.6 Q692.271 1538.71 694.077 1542.27 Q695.905 1545.82 699.516 1545.82 Q703.151 1545.82 704.956 1542.27 Q706.785 1538.71 706.785 1531.6 Q706.785 1524.47 704.956 1520.93 Q703.151 1517.37 699.516 1517.37 M699.516 1513.66 Q705.327 1513.66 708.382 1518.27 Q711.461 1522.85 711.461 1531.6 Q711.461 1540.33 708.382 1544.94 Q705.327 1549.52 699.516 1549.52 Q693.706 1549.52 690.628 1544.94 Q687.572 1540.33 687.572 1531.6 Q687.572 1522.85 690.628 1518.27 Q693.706 1513.66 699.516 1513.66 Z" fill="#000000" fill-rule="nonzero" fill-opacity="1"></path><path clip-path="url(#clip200)" d="M719.678 1542.97 L724.563 1542.97 L724.563 1548.85 L719.678 1548.85 L719.678 1542.97 Z" fill="#000000" fill-rule="nonzero" fill-opacity="1"></path><path clip-path="url(#clip200)" d="M738.776 1544.91 L755.095 1544.91 L755.095 1548.85 L733.151 1548.85 L733.151 1544.91 Q735.813 1542.16 740.396 1537.53 Q745.002 1532.88 746.183 1531.53 Q748.428 1529.01 749.308 1527.27 Q750.211 1525.51 750.211 1523.82 Q750.211 1521.07 748.266 1519.33 Q746.345 1517.6 743.243 1517.6 Q741.044 1517.6 738.59 1518.36 Q736.16 1519.13 733.382 1520.68 L733.382 1515.95 Q736.206 1514.82 738.66 1514.24 Q741.113 1513.66 743.151 1513.66 Q748.521 1513.66 751.715 1516.35 Q754.91 1519.03 754.91 1523.52 Q754.91 1525.65 754.1 1527.57 Q753.312 1529.47 751.206 1532.07 Q750.627 1532.74 747.525 1535.95 Q744.424 1539.15 738.776 1544.91 Z" fill="#000000" fill-rule="nonzero" fill-opacity="1"></path><path clip-path="url(#clip200)" d="M764.956 1514.29 L783.312 1514.29 L783.312 1518.22 L769.238 1518.22 L769.238 1526.7 Q770.257 1526.35 771.275 1526.19 Q772.294 1526 773.312 1526 Q779.099 1526 782.479 1529.17 Q785.859 1532.34 785.859 1537.76 Q785.859 1543.34 782.386 1546.44 Q778.914 1549.52 772.595 1549.52 Q770.419 1549.52 768.15 1549.15 Q765.905 1548.78 763.498 1548.04 L763.498 1543.34 Q765.581 1544.47 767.803 1545.03 Q770.025 1545.58 772.502 1545.58 Q776.507 1545.58 778.845 1543.48 Q781.183 1541.37 781.183 1537.76 Q781.183 1534.15 778.845 1532.04 Q776.507 1529.94 772.502 1529.94 Q770.627 1529.94 768.752 1530.35 Q766.9 1530.77 764.956 1531.65 L764.956 1514.29 Z" fill="#000000" fill-rule="nonzero" fill-opacity="1"></path><path clip-path="url(#clip200)" d="M1216.98 1517.37 Q1213.37 1517.37 1211.54 1520.93 Q1209.74 1524.47 1209.74 1531.6 Q1209.74 1538.71 1211.54 1542.27 Q1213.37 1545.82 1216.98 1545.82 Q1220.61 1545.82 1222.42 1542.27 Q1224.25 1538.71 1224.25 1531.6 Q1224.25 1524.47 1222.42 1520.93 Q1220.61 1517.37 1216.98 1517.37 M1216.98 1513.66 Q1222.79 1513.66 1225.85 1518.27 Q1228.92 1522.85 1228.92 1531.6 Q1228.92 1540.33 1225.85 1544.94 Q1222.79 1549.52 1216.98 1549.52 Q1211.17 1549.52 1208.09 1544.94 Q1205.04 1540.33 1205.04 1531.6 Q1205.04 1522.85 1208.09 1518.27 Q1211.17 1513.66 1216.98 1513.66 Z" fill="#000000" fill-rule="nonzero" fill-opacity="1"></path><path clip-path="url(#clip200)" d="M1237.14 1542.97 L1242.03 1542.97 L1242.03 1548.85 L1237.14 1548.85 L1237.14 1542.97 Z" fill="#000000" fill-rule="nonzero" fill-opacity="1"></path><path clip-path="url(#clip200)" d="M1252.26 1514.29 L1270.61 1514.29 L1270.61 1518.22 L1256.54 1518.22 L1256.54 1526.7 Q1257.56 1526.35 1258.58 1526.19 Q1259.6 1526 1260.61 1526 Q1266.4 1526 1269.78 1529.17 Q1273.16 1532.34 1273.16 1537.76 Q1273.16 1543.34 1269.69 1546.44 Q1266.22 1549.52 1259.9 1549.52 Q1257.72 1549.52 1255.45 1549.15 Q1253.21 1548.78 1250.8 1548.04 L1250.8 1543.34 Q1252.88 1544.47 1255.11 1545.03 Q1257.33 1545.58 1259.8 1545.58 Q1263.81 1545.58 1266.15 1543.48 Q1268.48 1541.37 1268.48 1537.76 Q1268.48 1534.15 1266.15 1532.04 Q1263.81 1529.94 1259.8 1529.94 Q1257.93 1529.94 1256.05 1530.35 Q1254.2 1530.77 1252.26 1531.65 L1252.26 1514.29 Z" fill="#000000" fill-rule="nonzero" fill-opacity="1"></path><path clip-path="url(#clip200)" d="M1292.37 1517.37 Q1288.76 1517.37 1286.93 1520.93 Q1285.13 1524.47 1285.13 1531.6 Q1285.13 1538.71 1286.93 1542.27 Q1288.76 1545.82 1292.37 1545.82 Q1296.01 1545.82 1297.81 1542.27 Q1299.64 1538.71 1299.64 1531.6 Q1299.64 1524.47 1297.81 1520.93 Q1296.01 1517.37 1292.37 1517.37 M1292.37 1513.66 Q1298.18 1513.66 1301.24 1518.27 Q1304.32 1522.85 1304.32 1531.6 Q1304.32 1540.33 1301.24 1544.94 Q1298.18 1549.52 1292.37 1549.52 Q1286.56 1549.52 1283.48 1544.94 Q1280.43 1540.33 1280.43 1531.6 Q1280.43 1522.85 1283.48 1518.27 Q1286.56 1513.66 1292.37 1513.66 Z" fill="#000000" fill-rule="nonzero" fill-opacity="1"></path><path clip-path="url(#clip200)" d="M1735.44 1517.37 Q1731.83 1517.37 1730 1520.93 Q1728.19 1524.47 1728.19 1531.6 Q1728.19 1538.71 1730 1542.27 Q1731.83 1545.82 1735.44 1545.82 Q1739.07 1545.82 1740.88 1542.27 Q1742.71 1538.71 1742.71 1531.6 Q1742.71 1524.47 1740.88 1520.93 Q1739.07 1517.37 1735.44 1517.37 M1735.44 1513.66 Q1741.25 1513.66 1744.31 1518.27 Q1747.38 1522.85 1747.38 1531.6 Q1747.38 1540.33 1744.31 1544.94 Q1741.25 1549.52 1735.44 1549.52 Q1729.63 1549.52 1726.55 1544.94 Q1723.5 1540.33 1723.5 1531.6 Q1723.5 1522.85 1726.55 1518.27 Q1729.63 1513.66 1735.44 1513.66 Z" fill="#000000" fill-rule="nonzero" fill-opacity="1"></path><path clip-path="url(#clip200)" d="M1755.6 1542.97 L1760.49 1542.97 L1760.49 1548.85 L1755.6 1548.85 L1755.6 1542.97 Z" fill="#000000" fill-rule="nonzero" fill-opacity="1"></path><path clip-path="url(#clip200)" d="M1769.49 1514.29 L1791.71 1514.29 L1791.71 1516.28 L1779.17 1548.85 L1774.28 1548.85 L1786.09 1518.22 L1769.49 1518.22 L1769.49 1514.29 Z" fill="#000000" fill-rule="nonzero" fill-opacity="1"></path><path clip-path="url(#clip200)" d="M1800.88 1514.29 L1819.24 1514.29 L1819.24 1518.22 L1805.16 1518.22 L1805.16 1526.7 Q1806.18 1526.35 1807.2 1526.19 Q1808.22 1526 1809.24 1526 Q1815.02 1526 1818.4 1529.17 Q1821.78 1532.34 1821.78 1537.76 Q1821.78 1543.34 1818.31 1546.44 Q1814.84 1549.52 1808.52 1549.52 Q1806.34 1549.52 1804.07 1549.15 Q1801.83 1548.78 1799.42 1548.04 L1799.42 1543.34 Q1801.5 1544.47 1803.73 1545.03 Q1805.95 1545.58 1808.43 1545.58 Q1812.43 1545.58 1814.77 1543.48 Q1817.11 1541.37 1817.11 1537.76 Q1817.11 1534.15 1814.77 1532.04 Q1812.43 1529.94 1808.43 1529.94 Q1806.55 1529.94 1804.68 1530.35 Q1802.82 1530.77 1800.88 1531.65 L1800.88 1514.29 Z" fill="#000000" fill-rule="nonzero" fill-opacity="1"></path><path clip-path="url(#clip200)" d="M2242.67 1544.91 L2250.31 1544.91 L2250.31 1518.55 L2242 1520.21 L2242 1515.95 L2250.27 1514.29 L2254.94 1514.29 L2254.94 1544.91 L2262.58 1544.91 L2262.58 1548.85 L2242.67 1548.85 L2242.67 1544.91 Z" fill="#000000" fill-rule="nonzero" fill-opacity="1"></path><path clip-path="url(#clip200)" d="M2272.02 1542.97 L2276.91 1542.97 L2276.91 1548.85 L2272.02 1548.85 L2272.02 1542.97 Z" fill="#000000" fill-rule="nonzero" fill-opacity="1"></path><path clip-path="url(#clip200)" d="M2297.09 1517.37 Q2293.48 1517.37 2291.65 1520.93 Q2289.85 1524.47 2289.85 1531.6 Q2289.85 1538.71 2291.65 1542.27 Q2293.48 1545.82 2297.09 1545.82 Q2300.73 1545.82 2302.53 1542.27 Q2304.36 1538.71 2304.36 1531.6 Q2304.36 1524.47 2302.53 1520.93 Q2300.73 1517.37 2297.09 1517.37 M2297.09 1513.66 Q2302.9 1513.66 2305.96 1518.27 Q2309.04 1522.85 2309.04 1531.6 Q2309.04 1540.33 2305.96 1544.94 Q2302.9 1549.52 2297.09 1549.52 Q2291.28 1549.52 2288.2 1544.94 Q2285.15 1540.33 2285.15 1531.6 Q2285.15 1522.85 2288.2 1518.27 Q2291.28 1513.66 2297.09 1513.66 Z" fill="#000000" fill-rule="nonzero" fill-opacity="1"></path><path clip-path="url(#clip200)" d="M2327.26 1517.37 Q2323.64 1517.37 2321.82 1520.93 Q2320.01 1524.47 2320.01 1531.6 Q2320.01 1538.71 2321.82 1542.27 Q2323.64 1545.82 2327.26 1545.82 Q2330.89 1545.82 2332.7 1542.27 Q2334.52 1538.71 2334.52 1531.6 Q2334.52 1524.47 2332.7 1520.93 Q2330.89 1517.37 2327.26 1517.37 M2327.26 1513.66 Q2333.07 1513.66 2336.12 1518.27 Q2339.2 1522.85 2339.2 1531.6 Q2339.2 1540.33 2336.12 1544.94 Q2333.07 1549.52 2327.26 1549.52 Q2321.45 1549.52 2318.37 1544.94 Q2315.31 1540.33 2315.31 1531.6 Q2315.31 1522.85 2318.37 1518.27 Q2321.45 1513.66 2327.26 1513.66 Z" fill="#000000" fill-rule="nonzero" fill-opacity="1"></path><polyline clip-path="url(#clip202)" style="stroke:#000000; stroke-linecap:round; stroke-linejoin:round; stroke-width:2; stroke-opacity:0.1; fill:none" points="156.598,1267.33 2352.76,1267.33 "></polyline>
<polyline clip-path="url(#clip202)" style="stroke:#000000; stroke-linecap:round; stroke-linejoin:round; stroke-width:2; stroke-opacity:0.1; fill:none" points="156.598,973.525 2352.76,973.525 "></polyline>
<polyline clip-path="url(#clip202)" style="stroke:#000000; stroke-linecap:round; stroke-linejoin:round; stroke-width:2; stroke-opacity:0.1; fill:none" points="156.598,679.718 2352.76,679.718 "></polyline>
<polyline clip-path="url(#clip202)" style="stroke:#000000; stroke-linecap:round; stroke-linejoin:round; stroke-width:2; stroke-opacity:0.1; fill:none" points="156.598,385.91 2352.76,385.91 "></polyline>
<polyline clip-path="url(#clip202)" style="stroke:#000000; stroke-linecap:round; stroke-linejoin:round; stroke-width:2; stroke-opacity:0.1; fill:none" points="156.598,92.1023 2352.76,92.1023 "></polyline>
<polyline clip-path="url(#clip200)" style="stroke:#000000; stroke-linecap:round; stroke-linejoin:round; stroke-width:4; stroke-opacity:1; fill:none" points="156.598,1486.45 156.598,47.2441 "></polyline>
<polyline clip-path="url(#clip200)" style="stroke:#000000; stroke-linecap:round; stroke-linejoin:round; stroke-width:4; stroke-opacity:1; fill:none" points="156.598,1267.33 175.496,1267.33 "></polyline>
<polyline clip-path="url(#clip200)" style="stroke:#000000; stroke-linecap:round; stroke-linejoin:round; stroke-width:4; stroke-opacity:1; fill:none" points="156.598,973.525 175.496,973.525 "></polyline>
<polyline clip-path="url(#clip200)" style="stroke:#000000; stroke-linecap:round; stroke-linejoin:round; stroke-width:4; stroke-opacity:1; fill:none" points="156.598,679.718 175.496,679.718 "></polyline>
<polyline clip-path="url(#clip200)" style="stroke:#000000; stroke-linecap:round; stroke-linejoin:round; stroke-width:4; stroke-opacity:1; fill:none" points="156.598,385.91 175.496,385.91 "></polyline>
<polyline clip-path="url(#clip200)" style="stroke:#000000; stroke-linecap:round; stroke-linejoin:round; stroke-width:4; stroke-opacity:1; fill:none" points="156.598,92.1023 175.496,92.1023 "></polyline>
<path clip-path="url(#clip200)" d="M65.0198 1253.13 Q61.4087 1253.13 59.58 1256.7 Q57.7745 1260.24 57.7745 1267.37 Q57.7745 1274.47 59.58 1278.04 Q61.4087 1281.58 65.0198 1281.58 Q68.6541 1281.58 70.4596 1278.04 Q72.2883 1274.47 72.2883 1267.37 Q72.2883 1260.24 70.4596 1256.7 Q68.6541 1253.13 65.0198 1253.13 M65.0198 1249.43 Q70.83 1249.43 73.8855 1254.03 Q76.9642 1258.62 76.9642 1267.37 Q76.9642 1276.09 73.8855 1280.7 Q70.83 1285.28 65.0198 1285.28 Q59.2097 1285.28 56.131 1280.7 Q53.0754 1276.09 53.0754 1267.37 Q53.0754 1258.62 56.131 1254.03 Q59.2097 1249.43 65.0198 1249.43 Z" fill="#000000" fill-rule="nonzero" fill-opacity="1"></path><path clip-path="url(#clip200)" d="M85.1818 1278.73 L90.066 1278.73 L90.066 1284.61 L85.1818 1284.61 L85.1818 1278.73 Z" fill="#000000" fill-rule="nonzero" fill-opacity="1"></path><path clip-path="url(#clip200)" d="M104.279 1280.68 L120.598 1280.68 L120.598 1284.61 L98.6539 1284.61 L98.6539 1280.68 Q101.316 1277.92 105.899 1273.29 Q110.506 1268.64 111.686 1267.3 Q113.932 1264.78 114.811 1263.04 Q115.714 1261.28 115.714 1259.59 Q115.714 1256.84 113.77 1255.1 Q111.848 1253.36 108.746 1253.36 Q106.547 1253.36 104.094 1254.13 Q101.663 1254.89 98.8854 1256.44 L98.8854 1251.72 Q101.709 1250.59 104.163 1250.01 Q106.617 1249.43 108.654 1249.43 Q114.024 1249.43 117.219 1252.11 Q120.413 1254.8 120.413 1259.29 Q120.413 1261.42 119.603 1263.34 Q118.816 1265.24 116.709 1267.83 Q116.131 1268.5 113.029 1271.72 Q109.927 1274.91 104.279 1280.68 Z" fill="#000000" fill-rule="nonzero" fill-opacity="1"></path><path clip-path="url(#clip200)" d="M62.9365 959.324 Q59.3254 959.324 57.4967 962.889 Q55.6912 966.431 55.6912 973.56 Q55.6912 980.667 57.4967 984.231 Q59.3254 987.773 62.9365 987.773 Q66.5707 987.773 68.3763 984.231 Q70.205 980.667 70.205 973.56 Q70.205 966.431 68.3763 962.889 Q66.5707 959.324 62.9365 959.324 M62.9365 955.62 Q68.7467 955.62 71.8022 960.227 Q74.8809 964.81 74.8809 973.56 Q74.8809 982.287 71.8022 986.893 Q68.7467 991.477 62.9365 991.477 Q57.1264 991.477 54.0477 986.893 Q50.9921 982.287 50.9921 973.56 Q50.9921 964.81 54.0477 960.227 Q57.1264 955.62 62.9365 955.62 Z" fill="#000000" fill-rule="nonzero" fill-opacity="1"></path><path clip-path="url(#clip200)" d="M83.0984 984.926 L87.9827 984.926 L87.9827 990.805 L83.0984 990.805 L83.0984 984.926 Z" fill="#000000" fill-rule="nonzero" fill-opacity="1"></path><path clip-path="url(#clip200)" d="M111.015 960.319 L99.2095 978.768 L111.015 978.768 L111.015 960.319 M109.788 956.245 L115.668 956.245 L115.668 978.768 L120.598 978.768 L120.598 982.657 L115.668 982.657 L115.668 990.805 L111.015 990.805 L111.015 982.657 L95.4132 982.657 L95.4132 978.143 L109.788 956.245 Z" fill="#000000" fill-rule="nonzero" fill-opacity="1"></path><path clip-path="url(#clip200)" d="M63.2606 665.516 Q59.6495 665.516 57.8208 669.081 Q56.0152 672.623 56.0152 679.752 Q56.0152 686.859 57.8208 690.424 Q59.6495 693.965 63.2606 693.965 Q66.8948 693.965 68.7004 690.424 Q70.5291 686.859 70.5291 679.752 Q70.5291 672.623 68.7004 669.081 Q66.8948 665.516 63.2606 665.516 M63.2606 661.813 Q69.0707 661.813 72.1263 666.419 Q75.205 671.002 75.205 679.752 Q75.205 688.479 72.1263 693.086 Q69.0707 697.669 63.2606 697.669 Q57.4504 697.669 54.3717 693.086 Q51.3162 688.479 51.3162 679.752 Q51.3162 671.002 54.3717 666.419 Q57.4504 661.813 63.2606 661.813 Z" fill="#000000" fill-rule="nonzero" fill-opacity="1"></path><path clip-path="url(#clip200)" d="M83.4225 691.118 L88.3067 691.118 L88.3067 696.998 L83.4225 696.998 L83.4225 691.118 Z" fill="#000000" fill-rule="nonzero" fill-opacity="1"></path><path clip-path="url(#clip200)" d="M109.071 677.854 Q105.922 677.854 104.071 680.007 Q102.242 682.16 102.242 685.91 Q102.242 689.637 104.071 691.813 Q105.922 693.965 109.071 693.965 Q112.219 693.965 114.047 691.813 Q115.899 689.637 115.899 685.91 Q115.899 682.16 114.047 680.007 Q112.219 677.854 109.071 677.854 M118.353 663.202 L118.353 667.461 Q116.594 666.627 114.788 666.188 Q113.006 665.748 111.246 665.748 Q106.617 665.748 104.163 668.873 Q101.733 671.998 101.385 678.317 Q102.751 676.303 104.811 675.239 Q106.871 674.151 109.348 674.151 Q114.557 674.151 117.566 677.322 Q120.598 680.47 120.598 685.91 Q120.598 691.234 117.45 694.451 Q114.302 697.669 109.071 697.669 Q103.075 697.669 99.9039 693.086 Q96.7326 688.479 96.7326 679.752 Q96.7326 671.558 100.621 666.697 Q104.51 661.813 111.061 661.813 Q112.82 661.813 114.603 662.16 Q116.408 662.507 118.353 663.202 Z" fill="#000000" fill-rule="nonzero" fill-opacity="1"></path><path clip-path="url(#clip200)" d="M63.5152 371.709 Q59.9041 371.709 58.0754 375.273 Q56.2699 378.815 56.2699 385.945 Q56.2699 393.051 58.0754 396.616 Q59.9041 400.158 63.5152 400.158 Q67.1494 400.158 68.955 396.616 Q70.7837 393.051 70.7837 385.945 Q70.7837 378.815 68.955 375.273 Q67.1494 371.709 63.5152 371.709 M63.5152 368.005 Q69.3254 368.005 72.3809 372.611 Q75.4596 377.195 75.4596 385.945 Q75.4596 394.672 72.3809 399.278 Q69.3254 403.861 63.5152 403.861 Q57.7051 403.861 54.6264 399.278 Q51.5708 394.672 51.5708 385.945 Q51.5708 377.195 54.6264 372.611 Q57.7051 368.005 63.5152 368.005 Z" fill="#000000" fill-rule="nonzero" fill-opacity="1"></path><path clip-path="url(#clip200)" d="M83.6771 397.31 L88.5614 397.31 L88.5614 403.19 L83.6771 403.19 L83.6771 397.31 Z" fill="#000000" fill-rule="nonzero" fill-opacity="1"></path><path clip-path="url(#clip200)" d="M108.746 386.778 Q105.413 386.778 103.492 388.56 Q101.594 390.343 101.594 393.468 Q101.594 396.593 103.492 398.375 Q105.413 400.158 108.746 400.158 Q112.08 400.158 114.001 398.375 Q115.922 396.57 115.922 393.468 Q115.922 390.343 114.001 388.56 Q112.103 386.778 108.746 386.778 M104.071 384.787 Q101.061 384.047 99.3715 381.986 Q97.7048 379.926 97.7048 376.963 Q97.7048 372.82 100.645 370.412 Q103.608 368.005 108.746 368.005 Q113.908 368.005 116.848 370.412 Q119.788 372.82 119.788 376.963 Q119.788 379.926 118.098 381.986 Q116.432 384.047 113.445 384.787 Q116.825 385.574 118.7 387.866 Q120.598 390.158 120.598 393.468 Q120.598 398.491 117.52 401.176 Q114.464 403.861 108.746 403.861 Q103.029 403.861 99.9502 401.176 Q96.8947 398.491 96.8947 393.468 Q96.8947 390.158 98.7928 387.866 Q100.691 385.574 104.071 384.787 M102.358 377.403 Q102.358 380.088 104.024 381.593 Q105.714 383.098 108.746 383.098 Q111.756 383.098 113.445 381.593 Q115.158 380.088 115.158 377.403 Q115.158 374.718 113.445 373.213 Q111.756 371.709 108.746 371.709 Q105.714 371.709 104.024 373.213 Q102.358 374.718 102.358 377.403 Z" fill="#000000" fill-rule="nonzero" fill-opacity="1"></path><path clip-path="url(#clip200)" d="M54.2328 105.447 L61.8717 105.447 L61.8717 79.0816 L53.5616 80.7482 L53.5616 76.489 L61.8254 74.8223 L66.5013 74.8223 L66.5013 105.447 L74.1402 105.447 L74.1402 109.382 L54.2328 109.382 L54.2328 105.447 Z" fill="#000000" fill-rule="nonzero" fill-opacity="1"></path><path clip-path="url(#clip200)" d="M83.5845 103.503 L88.4688 103.503 L88.4688 109.382 L83.5845 109.382 L83.5845 103.503 Z" fill="#000000" fill-rule="nonzero" fill-opacity="1"></path><path clip-path="url(#clip200)" d="M108.654 77.901 Q105.043 77.901 103.214 81.4658 Q101.409 85.0075 101.409 92.1371 Q101.409 99.2435 103.214 102.808 Q105.043 106.35 108.654 106.35 Q112.288 106.35 114.094 102.808 Q115.922 99.2435 115.922 92.1371 Q115.922 85.0075 114.094 81.4658 Q112.288 77.901 108.654 77.901 M108.654 74.1973 Q114.464 74.1973 117.52 78.8038 Q120.598 83.3871 120.598 92.1371 Q120.598 100.864 117.52 105.47 Q114.464 110.054 108.654 110.054 Q102.844 110.054 99.765 105.47 Q96.7095 100.864 96.7095 92.1371 Q96.7095 83.3871 99.765 78.8038 Q102.844 74.1973 108.654 74.1973 Z" fill="#000000" fill-rule="nonzero" fill-opacity="1"></path><polyline clip-path="url(#clip202)" style="stroke:#009af9; stroke-linecap:round; stroke-linejoin:round; stroke-width:4; stroke-opacity:1; fill:none" points="218.754,92.1023 221.991,92.1024 225.228,92.1023 228.465,92.1023 231.703,92.1023 234.94,92.1024 238.177,92.1023 241.414,92.1023 244.652,92.1023 247.889,92.1024 251.126,92.1024 "></polyline>
<polyline clip-path="url(#clip202)" style="stroke:#e26f46; stroke-linecap:round; stroke-linejoin:round; stroke-width:4; stroke-opacity:1; fill:none" points="251.126,92.1024 254.364,92.1023 257.601,92.1023 260.838,92.1024 264.075,92.1023 267.313,92.1023 270.55,92.1023 273.787,92.1023 277.024,92.1023 280.262,92.1024 283.499,92.1023 "></polyline>
<polyline clip-path="url(#clip202)" style="stroke:#3da44d; stroke-linecap:round; stroke-linejoin:round; stroke-width:4; stroke-opacity:1; fill:none" points="283.499,92.1024 286.736,92.1026 289.973,92.1021 293.211,92.1025 296.448,92.1022 299.685,92.1022 302.922,92.1027 306.16,92.1019 309.397,92.1026 312.634,92.1027 315.871,92.1018 "></polyline>
<polyline clip-path="url(#clip202)" style="stroke:#c271d2; stroke-linecap:round; stroke-linejoin:round; stroke-width:4; stroke-opacity:1; fill:none" points="315.871,92.1015 319.109,92.1042 322.346,92.0998 325.583,92.1049 328.821,92.101 332.058,92.1012 335.295,92.1063 338.532,92.097 341.77,92.1057 345.007,92.1053 348.244,92.0966 "></polyline>
<polyline clip-path="url(#clip202)" style="stroke:#ac8d18; stroke-linecap:round; stroke-linejoin:round; stroke-width:4; stroke-opacity:1; fill:none" points="348.244,92.0946 351.481,92.1215 354.719,92.0792 357.956,92.1218 361.193,92.098 364.43,92.0849 367.668,92.135 370.905,92.0765 374.142,92.0916 377.379,92.1731 380.617,92.0467 "></polyline>
<polyline clip-path="url(#clip202)" style="stroke:#00a9ad; stroke-linecap:round; stroke-linejoin:round; stroke-width:4; stroke-opacity:1; fill:none" points="380.617,92.0312 383.854,92.2145 387.091,92.0424 390.328,92.0827 393.566,92.1816 396.803,92.0348 400.04,92.0771 403.278,92.2286 406.515,91.9588 409.752,92.1479 412.989,92.3658 "></polyline>
<polyline clip-path="url(#clip202)" style="stroke:#ed5d92; stroke-linecap:round; stroke-linejoin:round; stroke-width:4; stroke-opacity:1; fill:none" points="412.989,92.3175 416.227,91.9888 419.464,91.9657 422.701,92.5422 425.938,91.6078 429.176,91.7194 432.413,92.8968 435.65,91.5706 438.887,91.2331 442.125,93.6314 445.362,90.6628 "></polyline>
<polyline clip-path="url(#clip202)" style="stroke:#c68125; stroke-linecap:round; stroke-linejoin:round; stroke-width:4; stroke-opacity:1; fill:none" points="445.362,90.5901 448.599,87.9763 451.836,92.9114 455.074,101.786 458.311,109.652 461.548,117.006 464.785,124.663 468.023,132.295 471.26,139.363 474.497,146.78 477.734,153.625 "></polyline>
<polyline clip-path="url(#clip202)" style="stroke:#00a98d; stroke-linecap:round; stroke-linejoin:round; stroke-width:4; stroke-opacity:1; fill:none" points="477.734,153.586 480.972,160.76 484.209,168.825 487.446,177.368 490.684,185.73 493.921,192.843 497.158,199.704 500.395,207.003 503.633,214.347 506.87,222.066 510.107,228.341 "></polyline>
<polyline clip-path="url(#clip202)" style="stroke:#8e971d; stroke-linecap:round; stroke-linejoin:round; stroke-width:4; stroke-opacity:1; fill:none" points="510.107,228.279 513.344,235.183 516.582,242.555 519.819,250.938 523.056,258.244 526.293,265.373 529.531,273.295 532.768,280.229 536.005,286.692 539.242,293.058 542.48,300.091 "></polyline>
<polyline clip-path="url(#clip202)" style="stroke:#00a8cb; stroke-linecap:round; stroke-linejoin:round; stroke-width:4; stroke-opacity:1; fill:none" points="542.48,300.08 545.717,308.064 548.954,315.014 552.191,322.496 555.429,329.477 558.666,335.773 561.903,342.028 565.141,349.229 568.378,356.352 571.615,363.598 574.852,370.274 "></polyline>
<polyline clip-path="url(#clip202)" style="stroke:#9b7fe8; stroke-linecap:round; stroke-linejoin:round; stroke-width:4; stroke-opacity:1; fill:none" points="574.852,370.261 578.09,376.268 581.327,383.218 584.564,390.241 587.801,396.972 591.039,402.799 594.276,409.582 597.513,416.662 600.75,422.714 603.988,429.726 607.225,437.831 "></polyline>
<polyline clip-path="url(#clip202)" style="stroke:#608cf6; stroke-linecap:round; stroke-linejoin:round; stroke-width:4; stroke-opacity:1; fill:none" points="607.225,437.776 610.462,442.048 613.699,449.389 616.937,454.986 620.174,462.129 623.411,468.325 626.648,474.288 629.886,484.187 633.123,487.132 636.36,495.234 639.598,502.632 "></polyline>
<polyline clip-path="url(#clip202)" style="stroke:#f05f73; stroke-linecap:round; stroke-linejoin:round; stroke-width:4; stroke-opacity:1; fill:none" points="639.598,502.615 642.835,507.269 646.072,516.441 649.309,520.536 652.547,526.947 655.784,534.303 659.021,539.962 662.258,544.451 665.496,551.494 668.733,556.636 671.97,563.208 "></polyline>
<polyline clip-path="url(#clip202)" style="stroke:#dd64b5; stroke-linecap:round; stroke-linejoin:round; stroke-width:4; stroke-opacity:1; fill:none" points="671.97,563.229 675.207,569.505 678.445,572.385 681.682,579.85 684.919,583.897 688.156,590.035 691.394,598.071 694.631,603.667 697.868,607.027 701.105,617.306 704.343,621.584 "></polyline>
<polyline clip-path="url(#clip202)" style="stroke:#6b9e32; stroke-linecap:round; stroke-linejoin:round; stroke-width:4; stroke-opacity:1; fill:none" points="704.343,621.813 707.58,628.659 710.817,628.75 714.055,635.636 717.292,644.562 720.529,648.154 723.766,651.262 727.004,655.67 730.241,663.289 733.478,668.349 736.715,671.559 "></polyline>
<polyline clip-path="url(#clip202)" style="stroke:#009af9; stroke-linecap:round; stroke-linejoin:round; stroke-width:4; stroke-opacity:1; fill:none" points="736.715,671.302 739.953,676.792 743.19,684.537 746.427,687.706 749.664,696.27 752.902,700.642 756.139,702.469 759.376,710.579 762.613,713.564 765.851,720.937 769.088,716.42 "></polyline>
<polyline clip-path="url(#clip202)" style="stroke:#e26f46; stroke-linecap:round; stroke-linejoin:round; stroke-width:4; stroke-opacity:1; fill:none" points="769.088,716.863 772.325,716.431 775.562,707.074 778.8,692.558 782.037,701.974 785.274,708.914 788.512,708.459 791.749,718.245 794.986,723.148 798.223,721.118 801.461,695.331 "></polyline>
<polyline clip-path="url(#clip202)" style="stroke:#3da44d; stroke-linecap:round; stroke-linejoin:round; stroke-width:4; stroke-opacity:1; fill:none" points="801.461,695.372 804.698,696.827 807.935,703.57 811.172,704.896 814.41,714.962 817.647,717.87 820.884,723.088 824.121,718.245 827.359,693.817 830.596,694.822 833.833,702.876 "></polyline>
<polyline clip-path="url(#clip202)" style="stroke:#c271d2; stroke-linecap:round; stroke-linejoin:round; stroke-width:4; stroke-opacity:1; fill:none" points="833.833,702.083 837.07,704.592 840.308,718.65 843.545,717.72 846.782,724.923 850.019,711.783 853.257,691.614 856.494,698.473 859.731,704.887 862.969,707.222 866.206,718.943 "></polyline>
<polyline clip-path="url(#clip202)" style="stroke:#ac8d18; stroke-linecap:round; stroke-linejoin:round; stroke-width:4; stroke-opacity:1; fill:none" points="866.206,718.452 869.443,718.213 872.68,727.054 875.918,702.092 879.155,693.043 882.392,699.669 885.629,703.625 888.867,713.174 892.104,719.108 895.341,721.609 898.578,721.487 "></polyline>
<polyline clip-path="url(#clip202)" style="stroke:#00a9ad; stroke-linecap:round; stroke-linejoin:round; stroke-width:4; stroke-opacity:1; fill:none" points="898.578,720.64 901.816,694.542 905.053,696.96 908.29,696.734 911.527,708.041 914.765,714.407 918.002,719.612 921.239,726.576 924.476,716.078 927.714,692.389 930.951,695.321 "></polyline>
<polyline clip-path="url(#clip202)" style="stroke:#ed5d92; stroke-linecap:round; stroke-linejoin:round; stroke-width:4; stroke-opacity:1; fill:none" points="930.951,694.364 934.188,694.883 937.426,712.273 940.663,714.335 943.9,723.115 947.137,727.132 950.375,708.014 953.612,694.146 956.849,697.575 960.086,697.429 963.324,715.059 "></polyline>
<polyline clip-path="url(#clip202)" style="stroke:#c68125; stroke-linecap:round; stroke-linejoin:round; stroke-width:4; stroke-opacity:1; fill:none" points="963.324,714.837 966.561,714.014 969.798,727.895 973.035,722.507 976.273,701.997 979.51,695.945 982.747,695.606 985.984,701.811 989.222,715.716 992.459,716.718 995.696,729.39 "></polyline>
<polyline clip-path="url(#clip202)" style="stroke:#00a98d; stroke-linecap:round; stroke-linejoin:round; stroke-width:4; stroke-opacity:1; fill:none" points="995.696,728.64 998.933,712.449 1002.17,702.034 1005.41,694.68 1008.65,695.489 1011.88,706.063 1015.12,714.865 1018.36,723.519 1021.59,728.869 1024.83,708.188 1028.07,698.686 "></polyline>
<polyline clip-path="url(#clip202)" style="stroke:#8e971d; stroke-linecap:round; stroke-linejoin:round; stroke-width:4; stroke-opacity:1; fill:none" points="1028.07,697.828 1031.31,690.39 1034.54,698.551 1037.78,707.769 1041.02,717.12 1044.26,728.738 1047.49,722.873 1050.73,704.995 1053.97,700.188 1057.2,692.449 1060.44,698.393 "></polyline>
<polyline clip-path="url(#clip202)" style="stroke:#00a8cb; stroke-linecap:round; stroke-linejoin:round; stroke-width:4; stroke-opacity:1; fill:none" points="1060.44,698.281 1063.68,710.381 1066.92,720.425 1070.15,730.857 1073.39,714.947 1076.63,704.77 1079.86,698.808 1083.1,691.815 1086.34,702.556 1089.58,712.013 1092.81,733.399 "></polyline>
<polyline clip-path="url(#clip202)" style="stroke:#9b7fe8; stroke-linecap:round; stroke-linejoin:round; stroke-width:4; stroke-opacity:1; fill:none" points="1092.81,734.751 1096.05,729.209 1099.29,708.515 1102.53,706.744 1105.76,695.64 1109,693.958 1112.24,703.702 1115.47,714.851 1118.71,730.984 1121.95,723.351 1125.19,716.354 "></polyline>
<polyline clip-path="url(#clip202)" style="stroke:#608cf6; stroke-linecap:round; stroke-linejoin:round; stroke-width:4; stroke-opacity:1; fill:none" points="1125.19,717.331 1128.42,703.13 1131.66,692.34 1134.9,697.253 1138.14,706.247 1141.37,721.838 1144.61,729.592 1147.85,716.264 1151.08,706.889 1154.32,705.45 1157.56,681.211 "></polyline>
<polyline clip-path="url(#clip202)" style="stroke:#f05f73; stroke-linecap:round; stroke-linejoin:round; stroke-width:4; stroke-opacity:1; fill:none" points="1157.56,680.761 1160.8,696.802 1164.03,708.539 1167.27,728.793 1170.51,726.805 1173.75,714.325 1176.98,700.548 1180.22,695.587 1183.46,707.953 1186.69,702.354 1189.93,687.961 "></polyline>
<polyline clip-path="url(#clip202)" style="stroke:#dd64b5; stroke-linecap:round; stroke-linejoin:round; stroke-width:4; stroke-opacity:1; fill:none" points="1189.93,689.094 1193.17,757.54 1196.41,884.705 1199.64,1035.91 1202.88,1072.9 1206.12,1047.06 1209.36,1048.62 1212.59,1064.81 1215.83,1057.29 1219.07,1047.53 1222.3,1067.08 "></polyline>
<polyline clip-path="url(#clip202)" style="stroke:#6b9e32; stroke-linecap:round; stroke-linejoin:round; stroke-width:4; stroke-opacity:1; fill:none" points="1222.3,1065.83 1225.54,1085.69 1228.78,1064.22 1232.02,1054.26 1235.25,1066.35 1238.49,1068.16 1241.73,1049.11 1244.97,1047.17 1248.2,1063.8 1251.44,1063.82 1254.68,1054.97 "></polyline>
<polyline clip-path="url(#clip202)" style="stroke:#009af9; stroke-linecap:round; stroke-linejoin:round; stroke-width:4; stroke-opacity:1; fill:none" points="1254.68,1055.75 1257.91,1071.4 1261.15,1077.92 1264.39,1064.77 1267.63,1050.01 1270.86,1064.41 1274.1,1066.5 1277.34,1046.46 1280.58,1045.48 1283.81,1069.7 1287.05,1071.83 "></polyline>
<polyline clip-path="url(#clip202)" style="stroke:#e26f46; stroke-linecap:round; stroke-linejoin:round; stroke-width:4; stroke-opacity:1; fill:none" points="1287.05,1072.81 1290.29,1061.39 1293.52,1063.15 1296.76,1079.03 1300,1061.26 1303.24,1047.87 1306.47,1061.18 1309.71,1065.38 1312.95,1045.13 1316.19,1048.71 1319.42,1078.68 "></polyline>
<polyline clip-path="url(#clip202)" style="stroke:#3da44d; stroke-linecap:round; stroke-linejoin:round; stroke-width:4; stroke-opacity:1; fill:none" points="1319.42,1077.27 1322.66,1078.12 1325.9,1054.68 1329.13,1062.34 1332.37,1076.02 1335.61,1060.67 1338.85,1044.8 1342.08,1058.56 1345.32,1064.82 1348.56,1048.85 1351.79,1060.41 "></polyline>
<polyline clip-path="url(#clip202)" style="stroke:#c271d2; stroke-linecap:round; stroke-linejoin:round; stroke-width:4; stroke-opacity:1; fill:none" points="1351.79,1059.81 1355.03,1080.14 1358.27,1075.28 1361.51,1054.03 1364.74,1057.66 1367.98,1074.59 1371.22,1059.4 1374.46,1042.12 1377.69,1055.6 1380.93,1069.11 1384.17,1065.71 "></polyline>
<polyline clip-path="url(#clip202)" style="stroke:#ac8d18; stroke-linecap:round; stroke-linejoin:round; stroke-width:4; stroke-opacity:1; fill:none" points="1384.17,1067.38 1387.4,1058.53 1390.64,1075.82 1393.88,1076.84 1397.12,1050.3 1400.35,1054.65 1403.59,1072.15 1406.83,1059.31 1410.07,1038.2 1413.3,1056.29 1416.54,1089.31 "></polyline>
<polyline clip-path="url(#clip202)" style="stroke:#00a9ad; stroke-linecap:round; stroke-linejoin:round; stroke-width:4; stroke-opacity:1; fill:none" points="1416.54,1088.74 1419.78,1064.18 1423.01,1052.35 1426.25,1075.91 1429.49,1075.4 1432.73,1048.74 1435.96,1050.44 1439.2,1071.54 1442.44,1057.84 1445.68,1036.86 1448.91,1078.01 "></polyline>
<polyline clip-path="url(#clip202)" style="stroke:#ed5d92; stroke-linecap:round; stroke-linejoin:round; stroke-width:4; stroke-opacity:1; fill:none" points="1448.91,1076.36 1452.15,1085.73 1455.39,1062.32 1458.62,1050.35 1461.86,1073.38 1465.1,1075.07 1468.34,1046.59 1471.57,1047.6 1474.81,1069.54 1478.05,1059.45 1481.29,1059.43 "></polyline>
<polyline clip-path="url(#clip202)" style="stroke:#c68125; stroke-linecap:round; stroke-linejoin:round; stroke-width:4; stroke-opacity:1; fill:none" points="1481.29,1059.4 1484.52,1067.16 1487.76,1085.61 1491,1062.72 1494.23,1046.58 1497.47,1070.12 1500.71,1075.39 1503.95,1045.33 1507.18,1042.96 1510.42,1068.54 1513.66,1078.3 "></polyline>
<polyline clip-path="url(#clip202)" style="stroke:#00a98d; stroke-linecap:round; stroke-linejoin:round; stroke-width:4; stroke-opacity:1; fill:none" points="1513.66,1025.58 1516.9,1031.23 1520.13,1072.43 1523.37,1102.3 1526.61,1307.33 1529.84,1360.51 1533.08,1361.4 1536.32,1397.18 1539.56,1354.94 1542.79,1406.85 1546.03,1404.76 "></polyline>
<polyline clip-path="url(#clip202)" style="stroke:#8e971d; stroke-linecap:round; stroke-linejoin:round; stroke-width:4; stroke-opacity:1; fill:none" points="1546.03,1445.72 1549.27,1366.51 1552.51,1382 1555.74,1374.29 1558.98,1379.61 1562.22,1376.73 1565.45,1377.15 1568.69,1378.47 1571.93,1376.45 1575.17,1378.22 1578.4,1377.11 "></polyline>
<polyline clip-path="url(#clip202)" style="stroke:#00a8cb; stroke-linecap:round; stroke-linejoin:round; stroke-width:4; stroke-opacity:1; fill:none" points="1578.4,1378.73 1581.64,1377.4 1584.88,1377.56 1588.11,1377.48 1591.35,1377.53 1594.59,1377.5 1597.83,1377.51 1601.06,1377.52 1604.3,1377.5 1607.54,1377.52 1610.78,1377.51 "></polyline>
<polyline clip-path="url(#clip202)" style="stroke:#9b7fe8; stroke-linecap:round; stroke-linejoin:round; stroke-width:4; stroke-opacity:1; fill:none" points="1610.78,1377.5 1614.01,1377.51 1617.25,1377.51 1620.49,1377.51 1623.72,1377.51 1626.96,1377.51 1630.2,1377.51 1633.44,1377.51 1636.67,1377.51 1639.91,1377.51 1643.15,1377.51 "></polyline>
<polyline clip-path="url(#clip202)" style="stroke:#608cf6; stroke-linecap:round; stroke-linejoin:round; stroke-width:4; stroke-opacity:1; fill:none" points="1643.15,1377.51 1646.39,1377.51 1649.62,1377.51 1652.86,1377.51 1656.1,1377.51 1659.33,1377.51 1662.57,1377.51 1665.81,1377.51 1669.05,1377.51 1672.28,1377.51 1675.52,1377.51 "></polyline>
<polyline clip-path="url(#clip202)" style="stroke:#f05f73; stroke-linecap:round; stroke-linejoin:round; stroke-width:4; stroke-opacity:1; fill:none" points="1675.52,1377.51 1678.76,1377.51 1682,1377.51 1685.23,1377.51 1688.47,1377.51 1691.71,1377.51 1694.94,1377.51 1698.18,1377.51 1701.42,1377.51 1704.66,1377.51 1707.89,1377.51 "></polyline>
<polyline clip-path="url(#clip202)" style="stroke:#dd64b5; stroke-linecap:round; stroke-linejoin:round; stroke-width:4; stroke-opacity:1; fill:none" points="1707.89,1377.51 1711.13,1377.51 1714.37,1377.51 1717.61,1377.51 1720.84,1377.51 1724.08,1377.51 1727.32,1377.51 1730.55,1377.51 1733.79,1377.51 1737.03,1377.51 1740.27,1377.51 "></polyline>
<polyline clip-path="url(#clip202)" style="stroke:#6b9e32; stroke-linecap:round; stroke-linejoin:round; stroke-width:4; stroke-opacity:1; fill:none" points="1740.27,1377.51 1743.5,1377.51 1746.74,1377.51 1749.98,1377.51 1753.22,1377.51 1756.45,1377.51 1759.69,1377.51 1762.93,1377.51 1766.16,1377.51 1769.4,1377.51 1772.64,1377.51 "></polyline>
<polyline clip-path="url(#clip202)" style="stroke:#009af9; stroke-linecap:round; stroke-linejoin:round; stroke-width:4; stroke-opacity:1; fill:none" points="1772.64,1377.51 1775.88,1377.51 1779.11,1377.51 1782.35,1377.51 1785.59,1377.51 1788.83,1377.51 1792.06,1377.51 1795.3,1377.51 1798.54,1377.51 1801.77,1377.51 1805.01,1377.51 "></polyline>
<polyline clip-path="url(#clip202)" style="stroke:#e26f46; stroke-linecap:round; stroke-linejoin:round; stroke-width:4; stroke-opacity:1; fill:none" points="1805.01,1377.51 1808.25,1377.51 1811.49,1377.51 1814.72,1377.51 1817.96,1377.51 1821.2,1377.51 1824.43,1377.51 1827.67,1377.51 1830.91,1377.51 1834.15,1377.51 1837.38,1377.51 "></polyline>
<polyline clip-path="url(#clip202)" style="stroke:#3da44d; stroke-linecap:round; stroke-linejoin:round; stroke-width:4; stroke-opacity:1; fill:none" points="1837.38,1377.51 1840.62,1377.51 1843.86,1377.51 1847.1,1377.51 1850.33,1377.51 1853.57,1377.51 1856.81,1377.51 1860.04,1377.51 1863.28,1377.51 1866.52,1377.51 1869.76,1377.51 "></polyline>
<polyline clip-path="url(#clip202)" style="stroke:#c271d2; stroke-linecap:round; stroke-linejoin:round; stroke-width:4; stroke-opacity:1; fill:none" points="1869.76,1377.51 1872.99,1377.51 1876.23,1377.51 1879.47,1377.51 1882.71,1377.51 1885.94,1377.51 1889.18,1377.51 1892.42,1377.51 1895.65,1377.51 1898.89,1377.51 1902.13,1377.51 "></polyline>
<polyline clip-path="url(#clip202)" style="stroke:#ac8d18; stroke-linecap:round; stroke-linejoin:round; stroke-width:4; stroke-opacity:1; fill:none" points="1902.13,1377.51 1905.37,1377.51 1908.6,1377.51 1911.84,1377.51 1915.08,1377.51 1918.32,1377.51 1921.55,1377.51 1924.79,1377.51 1928.03,1377.51 1931.26,1377.51 1934.5,1377.51 "></polyline>
<polyline clip-path="url(#clip202)" style="stroke:#00a9ad; stroke-linecap:round; stroke-linejoin:round; stroke-width:4; stroke-opacity:1; fill:none" points="1934.5,1377.51 1937.74,1377.51 1940.98,1377.51 1944.21,1377.51 1947.45,1377.51 1950.69,1377.51 1953.93,1377.51 1957.16,1377.51 1960.4,1377.51 1963.64,1377.51 1966.87,1377.51 "></polyline>
<polyline clip-path="url(#clip202)" style="stroke:#ed5d92; stroke-linecap:round; stroke-linejoin:round; stroke-width:4; stroke-opacity:1; fill:none" points="1966.87,1377.51 1970.11,1377.51 1973.35,1377.51 1976.59,1377.51 1979.82,1377.51 1983.06,1377.51 1986.3,1377.51 1989.54,1377.51 1992.77,1377.51 1996.01,1377.51 1999.25,1377.51 "></polyline>
<polyline clip-path="url(#clip202)" style="stroke:#c68125; stroke-linecap:round; stroke-linejoin:round; stroke-width:4; stroke-opacity:1; fill:none" points="1999.25,1377.51 2002.48,1377.51 2005.72,1377.51 2008.96,1377.51 2012.2,1377.51 2015.43,1377.51 2018.67,1377.51 2021.91,1377.51 2025.15,1377.51 2028.38,1377.51 2031.62,1377.51 "></polyline>
<polyline clip-path="url(#clip202)" style="stroke:#00a98d; stroke-linecap:round; stroke-linejoin:round; stroke-width:4; stroke-opacity:1; fill:none" points="2031.62,1377.51 2034.86,1377.51 2038.09,1377.51 2041.33,1377.51 2044.57,1377.51 2047.81,1377.51 2051.04,1377.51 2054.28,1377.51 2057.52,1377.51 2060.75,1377.51 2063.99,1377.51 "></polyline>
<polyline clip-path="url(#clip202)" style="stroke:#8e971d; stroke-linecap:round; stroke-linejoin:round; stroke-width:4; stroke-opacity:1; fill:none" points="2063.99,1377.51 2067.23,1377.51 2070.47,1377.51 2073.7,1377.51 2076.94,1377.51 2080.18,1377.51 2083.42,1377.51 2086.65,1377.51 2089.89,1377.51 2093.13,1377.51 2096.36,1377.51 "></polyline>
<polyline clip-path="url(#clip202)" style="stroke:#00a8cb; stroke-linecap:round; stroke-linejoin:round; stroke-width:4; stroke-opacity:1; fill:none" points="2096.36,1377.51 2099.6,1377.51 2102.84,1377.51 2106.08,1377.51 2109.31,1377.51 2112.55,1377.51 2115.79,1377.51 2119.03,1377.51 2122.26,1377.51 2125.5,1377.51 2128.74,1377.51 "></polyline>
<polyline clip-path="url(#clip202)" style="stroke:#9b7fe8; stroke-linecap:round; stroke-linejoin:round; stroke-width:4; stroke-opacity:1; fill:none" points="2128.74,1377.51 2131.97,1377.51 2135.21,1377.51 2138.45,1377.51 2141.69,1377.51 2144.92,1377.51 2148.16,1377.51 2151.4,1377.51 2154.64,1377.51 2157.87,1377.51 2161.11,1377.51 "></polyline>
<polyline clip-path="url(#clip202)" style="stroke:#608cf6; stroke-linecap:round; stroke-linejoin:round; stroke-width:4; stroke-opacity:1; fill:none" points="2161.11,1377.51 2164.35,1377.51 2167.58,1377.51 2170.82,1377.51 2174.06,1377.51 2177.3,1377.51 2180.53,1377.51 2183.77,1377.51 2187.01,1377.51 2190.25,1377.51 2193.48,1377.51 "></polyline>
<polyline clip-path="url(#clip202)" style="stroke:#f05f73; stroke-linecap:round; stroke-linejoin:round; stroke-width:4; stroke-opacity:1; fill:none" points="2193.48,1377.51 2196.72,1377.51 2199.96,1377.51 2203.19,1377.51 2206.43,1377.51 2209.67,1377.51 2212.91,1377.51 2216.14,1377.51 2219.38,1377.51 2222.62,1377.51 2225.86,1377.51 "></polyline>
<polyline clip-path="url(#clip202)" style="stroke:#dd64b5; stroke-linecap:round; stroke-linejoin:round; stroke-width:4; stroke-opacity:1; fill:none" points="2225.86,1377.51 2229.09,1377.51 2232.33,1377.51 2235.57,1377.51 2238.8,1377.51 2242.04,1377.51 2245.28,1377.51 2248.52,1377.51 2251.75,1377.51 2254.99,1377.51 2258.23,1377.51 "></polyline>
<polyline clip-path="url(#clip202)" style="stroke:#6b9e32; stroke-linecap:round; stroke-linejoin:round; stroke-width:4; stroke-opacity:1; fill:none" points="2258.23,1377.51 2261.47,1377.51 2264.7,1377.51 2267.94,1377.51 2271.18,1377.51 2274.41,1377.51 2277.65,1377.51 2280.89,1377.51 2284.13,1377.51 2287.36,1377.51 2290.6,1377.51 "></polyline>
</svg>