<svg xmlns="http://www.w3.org/2000/svg" xmlns:xlink="http://www.w3.org/1999/xlink" width="600" height="400" viewBox="0 0 2400 1600">
<defs>
  <clipPath id="clip520">
    <rect x="0" y="0" width="2400" height="1600"></rect>
  </clipPath>
</defs>
<path clip-path="url(#clip520)" d="M0 1600 L2400 1600 L2400 0 L0 0  Z" fill="#ffffff" fill-rule="evenodd" fill-opacity="1"></path>
<defs>
  <clipPath id="clip521">
    <rect x="480" y="0" width="1681" height="1600"></rect>
  </clipPath>
</defs>
<path clip-path="url(#clip520)" d="M156.598 1486.45 L2352.76 1486.45 L2352.76 47.2441 L156.598 47.2441  Z" fill="#ffffff" fill-rule="evenodd" fill-opacity="1"></path>
<defs>
  <clipPath id="clip522">
    <rect x="156" y="47" width="2197" height="1440"></rect>
  </clipPath>
</defs>
<polyline clip-path="url(#clip522)" style="stroke:#000000; stroke-linecap:round; stroke-linejoin:round; stroke-width:2; stroke-opacity:0.1; fill:none" points="218.754,1486.45 218.754,47.2441 "></polyline>
<polyline clip-path="url(#clip522)" style="stroke:#000000; stroke-linecap:round; stroke-linejoin:round; stroke-width:2; stroke-opacity:0.1; fill:none" points="736.715,1486.45 736.715,47.2441 "></polyline>
<polyline clip-path="url(#clip522)" style="stroke:#000000; stroke-linecap:round; stroke-linejoin:round; stroke-width:2; stroke-opacity:0.1; fill:none" points="1254.68,1486.45 1254.68,47.2441 "></polyline>
<polyline clip-path="url(#clip522)" style="stroke:#000000; stroke-linecap:round; stroke-linejoin:round; stroke-width:2; stroke-opacity:0.1; fill:none" points="1772.64,1486.45 1772.64,47.2441 "></polyline>
<polyline clip-path="url(#clip522)" style="stroke:#000000; stroke-linecap:round; stroke-linejoin:round; stroke-width:2; stroke-opacity:0.1; fill:none" points="2290.6,1486.45 2290.6,47.2441 "></polyline>
<polyline clip-path="url(#clip520)" style="stroke:#000000; stroke-linecap:round; stroke-linejoin:round; stroke-width:4; stroke-opacity:1; fill:none" points="156.598,1486.45 2352.76,1486.45 "></polyline>
<polyline clip-path="url(#clip520)" style="stroke:#000000; stroke-linecap:round; stroke-linejoin:round; stroke-width:4; stroke-opacity:1; fill:none" points="218.754,1486.45 218.754,1467.55 "></polyline>
<polyline clip-path="url(#clip520)" style="stroke:#000000; stroke-linecap:round; stroke-linejoin:round; stroke-width:4; stroke-opacity:1; fill:none" points="736.715,1486.45 736.715,1467.55 "></polyline>
<polyline clip-path="url(#clip520)" style="stroke:#000000; stroke-linecap:round; stroke-linejoin:round; stroke-width:4; stroke-opacity:1; fill:none" points="1254.68,1486.45 1254.68,1467.55 "></polyline>
<polyline clip-path="url(#clip520)" style="stroke:#000000; stroke-linecap:round; stroke-linejoin:round; stroke-width:4; stroke-opacity:1; fill:none" points="1772.64,1486.45 1772.64,1467.55 "></polyline>
<polyline clip-path="url(#clip520)" style="stroke:#000000; stroke-linecap:round; stroke-linejoin:round; stroke-width:4; stroke-opacity:1; fill:none" points="2290.6,1486.45 2290.6,1467.55 "></polyline>
<path clip-path="url(#clip520)" d="M181.057 1517.37 Q177.446 1517.37 175.617 1520.93 Q173.812 1524.47 173.812 1531.6 Q173.812 1538.71 175.617 1542.27 Q177.446 1545.82 181.057 1545.82 Q184.691 1545.82 186.497 1542.27 Q188.326 1538.71 188.326 1531.6 Q188.326 1524.47 186.497 1520.93 Q184.691 1517.37 181.057 1517.37 M181.057 1513.66 Q186.867 1513.66 189.923 1518.27 Q193.001 1522.85 193.001 1531.6 Q193.001 1540.33 189.923 1544.94 Q186.867 1549.52 181.057 1549.52 Q175.247 1549.52 172.168 1544.94 Q169.113 1540.33 169.113 1531.6 Q169.113 1522.85 172.168 1518.27 Q175.247 1513.66 181.057 1513.66 Z" fill="#000000" fill-rule="nonzero" fill-opacity="1"></path><path clip-path="url(#clip520)" d="M201.219 1542.97 L206.103 1542.97 L206.103 1548.85 L201.219 1548.85 L201.219 1542.97 Z" fill="#000000" fill-rule="nonzero" fill-opacity="1"></path><path clip-path="url(#clip520)" d="M226.288 1517.37 Q222.677 1517.37 220.849 1520.93 Q219.043 1524.47 219.043 1531.6 Q219.043 1538.71 220.849 1542.27 Q222.677 1545.82 226.288 1545.82 Q229.923 1545.82 231.728 1542.27 Q233.557 1538.71 233.557 1531.6 Q233.557 1524.47 231.728 1520.93 Q229.923 1517.37 226.288 1517.37 M226.288 1513.66 Q232.098 1513.66 235.154 1518.27 Q238.233 1522.85 238.233 1531.6 Q238.233 1540.33 235.154 1544.94 Q232.098 1549.52 226.288 1549.52 Q220.478 1549.52 217.399 1544.94 Q214.344 1540.33 214.344 1531.6 Q214.344 1522.85 217.399 1518.27 Q220.478 1513.66 226.288 1513.66 Z" fill="#000000" fill-rule="nonzero" fill-opacity="1"></path><path clip-path="url(#clip520)" d="M256.45 1517.37 Q252.839 1517.37 251.01 1520.93 Q249.205 1524.47 249.205 1531.6 Q249.205 1538.71 251.01 1542.27 Q252.839 1545.82 256.45 1545.82 Q260.084 1545.82 261.89 1542.27 Q263.719 1538.71 263.719 1531.6 Q263.719 1524.47 261.89 1520.93 Q260.084 1517.37 256.45 1517.37 M256.45 1513.66 Q262.26 1513.66 265.316 1518.27 Q268.395 1522.85 268.395 1531.6 Q268.395 1540.33 265.316 1544.94 Q262.26 1549.52 256.45 1549.52 Q250.64 1549.52 247.561 1544.94 Q244.506 1540.33 244.506 1531.6 Q244.506 1522.85 247.561 1518.27 Q250.64 1513.66 256.45 1513.66 Z" fill="#000000" fill-rule="nonzero" fill-opacity="1"></path><path clip-path="url(#clip520)" d="M699.516 1517.37 Q695.905 1517.37 694.077 1520.93 Q692.271 1524.47 692.271 1531.6 Q692.271 1538.71 694.077 1542.27 Q695.905 1545.82 699.516 1545.82 Q703.151 1545.82 704.956 1542.27 Q706.785 1538.71 706.785 1531.6 Q706.785 1524.47 704.956 1520.93 Q703.151 1517.37 699.516 1517.37 M699.516 1513.66 Q705.327 1513.66 708.382 1518.27 Q711.461 1522.85 711.461 1531.6 Q711.461 1540.33 708.382 1544.94 Q705.327 1549.52 699.516 1549.52 Q693.706 1549.52 690.628 1544.94 Q687.572 1540.33 687.572 1531.6 Q687.572 1522.85 690.628 1518.27 Q693.706 1513.66 699.516 1513.66 Z" fill="#000000" fill-rule="nonzero" fill-opacity="1"></path><path clip-path="url(#clip520)" d="M719.678 1542.97 L724.563 1542.97 L724.563 1548.85 L719.678 1548.85 L719.678 1542.97 Z" fill="#000000" fill-rule="nonzero" fill-opacity="1"></path><path clip-path="url(#clip520)" d="M738.776 1544.91 L755.095 1544.91 L755.095 1548.85 L733.151 1548.85 L733.151 1544.91 Q735.813 1542.16 740.396 1537.53 Q745.002 1532.88 746.183 1531.53 Q748.428 1529.01 749.308 1527.27 Q750.211 1525.51 750.211 1523.82 Q750.211 1521.07 748.266 1519.33 Q746.345 1517.6 743.243 1517.6 Q741.044 1517.6 738.59 1518.36 Q736.16 1519.13 733.382 1520.68 L733.382 1515.95 Q736.206 1514.82 738.66 1514.24 Q741.113 1513.66 743.151 1513.66 Q748.521 1513.66 751.715 1516.35 Q754.91 1519.03 754.91 1523.52 Q754.91 1525.65 754.1 1527.57 Q753.312 1529.47 751.206 1532.07 Q750.627 1532.74 747.525 1535.95 Q744.424 1539.15 738.776 1544.91 Z" fill="#000000" fill-rule="nonzero" fill-opacity="1"></path><path clip-path="url(#clip520)" d="M764.956 1514.29 L783.312 1514.29 L783.312 1518.22 L769.238 1518.22 L769.238 1526.7 Q770.257 1526.35 771.275 1526.19 Q772.294 1526 773.312 1526 Q779.099 1526 782.479 1529.17 Q785.859 1532.34 785.859 1537.76 Q785.859 1543.34 782.386 1546.44 Q778.914 1549.52 772.595 1549.52 Q770.419 1549.52 768.15 1549.15 Q765.905 1548.78 763.498 1548.04 L763.498 1543.34 Q765.581 1544.47 767.803 1545.03 Q770.025 1545.58 772.502 1545.58 Q776.507 1545.58 778.845 1543.48 Q781.183 1541.37 781.183 1537.76 Q781.183 1534.15 778.845 1532.04 Q776.507 1529.94 772.502 1529.94 Q770.627 1529.94 768.752 1530.35 Q766.9 1530.77 764.956 1531.65 L764.956 1514.29 Z" fill="#000000" fill-rule="nonzero" fill-opacity="1"></path><path clip-path="url(#clip520)" d="M1216.98 1517.37 Q1213.37 1517.37 1211.54 1520.93 Q1209.74 1524.47 1209.74 1531.6 Q1209.74 1538.71 1211.54 1542.27 Q1213.37 1545.82 1216.98 1545.82 Q1220.61 1545.82 1222.42 1542.27 Q1224.25 1538.71 1224.25 1531.6 Q1224.25 1524.47 1222.42 1520.93 Q1220.61 1517.37 1216.98 1517.37 M1216.98 1513.66 Q1222.79 1513.66 1225.85 1518.27 Q1228.92 1522.85 1228.92 1531.6 Q1228.92 1540.33 1225.85 1544.94 Q1222.79 1549.52 1216.98 1549.52 Q1211.17 1549.52 1208.09 1544.94 Q1205.04 1540.33 1205.04 1531.6 Q1205.04 1522.85 1208.09 1518.27 Q1211.17 1513.66 1216.98 1513.66 Z" fill="#000000" fill-rule="nonzero" fill-opacity="1"></path><path clip-path="url(#clip520)" d="M1237.14 1542.97 L1242.03 1542.97 L1242.03 1548.85 L1237.14 1548.85 L1237.14 1542.97 Z" fill="#000000" fill-rule="nonzero" fill-opacity="1"></path><path clip-path="url(#clip520)" d="M1252.26 1514.29 L1270.61 1514.29 L1270.61 1518.22 L1256.54 1518.22 L1256.54 1526.7 Q1257.56 1526.35 1258.58 1526.19 Q1259.6 1526 1260.61 1526 Q1266.4 1526 1269.78 1529.17 Q1273.16 1532.34 1273.16 1537.76 Q1273.16 1543.34 1269.69 1546.44 Q1266.22 1549.52 1259.9 1549.52 Q1257.72 1549.52 1255.45 1549.15 Q1253.21 1548.78 1250.8 1548.04 L1250.8 1543.34 Q1252.88 1544.47 1255.11 1545.03 Q1257.33 1545.58 1259.8 1545.58 Q1263.81 1545.58 1266.15 1543.48 Q1268.48 1541.37 1268.48 1537.76 Q1268.48 1534.15 1266.15 1532.04 Q1263.81 1529.94 1259.8 1529.94 Q1257.93 1529.94 1256.05 1530.35 Q1254.2 1530.77 1252.26 1531.65 L1252.26 1514.29 Z" fill="#000000" fill-rule="nonzero" fill-opacity="1"></path><path clip-path="url(#clip520)" d="M1292.37 1517.37 Q1288.76 1517.37 1286.93 1520.93 Q1285.13 1524.47 1285.13 1531.6 Q1285.13 1538.71 1286.93 1542.27 Q1288.76 1545.82 1292.37 1545.82 Q1296.01 1545.82 1297.81 1542.27 Q1299.64 1538.71 1299.64 1531.6 Q1299.64 1524.47 1297.81 1520.93 Q1296.01 1517.37 1292.37 1517.37 M1292.37 1513.66 Q1298.18 1513.66 1301.24 1518.27 Q1304.32 1522.85 1304.32 1531.6 Q1304.32 1540.33 1301.24 1544.94 Q1298.18 1549.52 1292.37 1549.52 Q1286.56 1549.52 1283.48 1544.94 Q1280.43 1540.33 1280.43 1531.6 Q1280.43 1522.85 1283.48 1518.27 Q1286.56 1513.66 1292.37 1513.66 Z" fill="#000000" fill-rule="nonzero" fill-opacity="1"></path><path clip-path="url(#clip520)" d="M1735.44 1517.37 Q1731.83 1517.37 1730 1520.93 Q1728.19 1524.47 1728.19 1531.6 Q1728.19 1538.71 1730 1542.27 Q1731.83 1545.82 1735.44 1545.82 Q1739.07 1545.82 1740.88 1542.27 Q1742.71 1538.71 1742.71 1531.6 Q1742.71 1524.47 1740.88 1520.93 Q1739.07 1517.37 1735.44 1517.37 M1735.44 1513.66 Q1741.25 1513.66 1744.31 1518.27 Q1747.38 1522.85 1747.38 1531.6 Q1747.38 1540.33 1744.31 1544.94 Q1741.25 1549.52 1735.44 1549.52 Q1729.63 1549.52 1726.55 1544.94 Q1723.5 1540.33 1723.5 1531.6 Q1723.5 1522.85 1726.55 1518.27 Q1729.63 1513.66 1735.44 1513.66 Z" fill="#000000" fill-rule="nonzero" fill-opacity="1"></path><path clip-path="url(#clip520)" d="M1755.6 1542.97 L1760.49 1542.97 L1760.49 1548.85 L1755.6 1548.85 L1755.6 1542.97 Z" fill="#000000" fill-rule="nonzero" fill-opacity="1"></path><path clip-path="url(#clip520)" d="M1769.49 1514.29 L1791.71 1514.29 L1791.71 1516.28 L1779.17 1548.85 L1774.28 1548.85 L1786.09 1518.22 L1769.49 1518.22 L1769.49 1514.29 Z" fill="#000000" fill-rule="nonzero" fill-opacity="1"></path><path clip-path="url(#clip520)" d="M1800.88 1514.29 L1819.24 1514.29 L1819.24 1518.22 L1805.16 1518.22 L1805.16 1526.7 Q1806.18 1526.35 1807.2 1526.19 Q1808.22 1526 1809.24 1526 Q1815.02 1526 1818.4 1529.17 Q1821.78 1532.34 1821.78 1537.76 Q1821.78 1543.34 1818.31 1546.44 Q1814.84 1549.52 1808.52 1549.52 Q1806.34 1549.52 1804.07 1549.15 Q1801.83 1548.78 1799.42 1548.04 L1799.42 1543.34 Q1801.5 1544.47 1803.73 1545.03 Q1805.95 1545.58 1808.43 1545.58 Q1812.43 1545.58 1814.77 1543.48 Q1817.11 1541.37 1817.11 1537.76 Q1817.11 1534.15 1814.77 1532.04 Q1812.43 1529.94 1808.43 1529.94 Q1806.55 1529.94 1804.68 1530.35 Q1802.82 1530.77 1800.88 1531.65 L1800.88 1514.29 Z" fill="#000000" fill-rule="nonzero" fill-opacity="1"></path><path clip-path="url(#clip520)" d="M2242.67 1544.91 L2250.31 1544.91 L2250.31 1518.55 L2242 1520.21 L2242 1515.95 L2250.27 1514.29 L2254.94 1514.29 L2254.94 1544.91 L2262.58 1544.91 L2262.58 1548.85 L2242.67 1548.85 L2242.67 1544.91 Z" fill="#000000" fill-rule="nonzero" fill-opacity="1"></path><path clip-path="url(#clip520)" d="M2272.02 1542.97 L2276.91 1542.97 L2276.91 1548.85 L2272.02 1548.85 L2272.02 1542.97 Z" fill="#000000" fill-rule="nonzero" fill-opacity="1"></path><path clip-path="url(#clip520)" d="M2297.09 1517.37 Q2293.48 1517.37 2291.65 1520.93 Q2289.85 1524.47 2289.85 1531.6 Q2289.85 1538.71 2291.65 1542.27 Q2293.48 1545.82 2297.09 1545.82 Q2300.73 1545.82 2302.53 1542.27 Q2304.36 1538.71 2304.36 1531.6 Q2304.36 1524.47 2302.53 1520.93 Q2300.73 1517.37 2297.09 1517.37 M2297.09 1513.66 Q2302.9 1513.66 2305.96 1518.27 Q2309.04 1522.85 2309.04 1531.6 Q2309.04 1540.33 2305.96 1544.94 Q2302.9 1549.52 2297.09 1549.52 Q2291.28 1549.52 2288.2 1544.94 Q2285.15 1540.33 2285.15 1531.6 Q2285.15 1522.85 2288.2 1518.27 Q2291.28 1513.66 2297.09 1513.66 Z" fill="#000000" fill-rule="nonzero" fill-opacity="1"></path><path clip-path="url(#clip520)" d="M2327.26 1517.37 Q2323.64 1517.37 2321.82 1520.93 Q2320.01 1524.47 2320.01 1531.6 Q2320.01 1538.71 2321.82 1542.27 Q2323.64 1545.82 2327.26 1545.82 Q2330.89 1545.82 2332.7 1542.27 Q2334.52 1538.71 2334.52 1531.6 Q2334.52 1524.47 2332.7 1520.93 Q2330.89 1517.37 2327.26 1517.37 M2327.26 1513.66 Q2333.07 1513.66 2336.12 1518.27 Q2339.2 1522.85 2339.2 1531.6 Q2339.2 1540.33 2336.12 1544.94 Q2333.07 1549.52 2327.26 1549.52 Q2321.45 1549.52 2318.37 1544.94 Q2315.31 1540.33 2315.31 1531.6 Q2315.31 1522.85 2318.37 1518.27 Q2321.45 1513.66 2327.26 1513.66 Z" fill="#000000" fill-rule="nonzero" fill-opacity="1"></path><polyline clip-path="url(#clip522)" style="stroke:#000000; stroke-linecap:round; stroke-linejoin:round; stroke-width:2; stroke-opacity:0.1; fill:none" points="156.598,1267.01 2352.76,1267.01 "></polyline>
<polyline clip-path="url(#clip522)" style="stroke:#000000; stroke-linecap:round; stroke-linejoin:round; stroke-width:2; stroke-opacity:0.1; fill:none" points="156.598,973.337 2352.76,973.337 "></polyline>
<polyline clip-path="url(#clip522)" style="stroke:#000000; stroke-linecap:round; stroke-linejoin:round; stroke-width:2; stroke-opacity:0.1; fill:none" points="156.598,679.662 2352.76,679.662 "></polyline>
<polyline clip-path="url(#clip522)" style="stroke:#000000; stroke-linecap:round; stroke-linejoin:round; stroke-width:2; stroke-opacity:0.1; fill:none" points="156.598,385.987 2352.76,385.987 "></polyline>
<polyline clip-path="url(#clip522)" style="stroke:#000000; stroke-linecap:round; stroke-linejoin:round; stroke-width:2; stroke-opacity:0.1; fill:none" points="156.598,92.3115 2352.76,92.3115 "></polyline>
<polyline clip-path="url(#clip520)" style="stroke:#000000; stroke-linecap:round; stroke-linejoin:round; stroke-width:4; stroke-opacity:1; fill:none" points="156.598,1486.45 156.598,47.2441 "></polyline>
<polyline clip-path="url(#clip520)" style="stroke:#000000; stroke-linecap:round; stroke-linejoin:round; stroke-width:4; stroke-opacity:1; fill:none" points="156.598,1267.01 175.496,1267.01 "></polyline>
<polyline clip-path="url(#clip520)" style="stroke:#000000; stroke-linecap:round; stroke-linejoin:round; stroke-width:4; stroke-opacity:1; fill:none" points="156.598,973.337 175.496,973.337 "></polyline>
<polyline clip-path="url(#clip520)" style="stroke:#000000; stroke-linecap:round; stroke-linejoin:round; stroke-width:4; stroke-opacity:1; fill:none" points="156.598,679.662 175.496,679.662 "></polyline>
<polyline clip-path="url(#clip520)" style="stroke:#000000; stroke-linecap:round; stroke-linejoin:round; stroke-width:4; stroke-opacity:1; fill:none" points="156.598,385.987 175.496,385.987 "></polyline>
<polyline clip-path="url(#clip520)" style="stroke:#000000; stroke-linecap:round; stroke-linejoin:round; stroke-width:4; stroke-opacity:1; fill:none" points="156.598,92.3115 175.496,92.3115 "></polyline>
<path clip-path="url(#clip520)" d="M65.0198 1252.81 Q61.4087 1252.81 59.58 1256.38 Q57.7745 1259.92 57.7745 1267.05 Q57.7745 1274.15 59.58 1277.72 Q61.4087 1281.26 65.0198 1281.26 Q68.6541 1281.26 70.4596 1277.72 Q72.2883 1274.15 72.2883 1267.05 Q72.2883 1259.92 70.4596 1256.38 Q68.6541 1252.81 65.0198 1252.81 M65.0198 1249.11 Q70.83 1249.11 73.8855 1253.71 Q76.9642 1258.3 76.9642 1267.05 Q76.9642 1275.77 73.8855 1280.38 Q70.83 1284.96 65.0198 1284.96 Q59.2097 1284.96 56.131 1280.38 Q53.0754 1275.77 53.0754 1267.05 Q53.0754 1258.3 56.131 1253.71 Q59.2097 1249.11 65.0198 1249.11 Z" fill="#000000" fill-rule="nonzero" fill-opacity="1"></path><path clip-path="url(#clip520)" d="M85.1818 1278.41 L90.066 1278.41 L90.066 1284.29 L85.1818 1284.29 L85.1818 1278.41 Z" fill="#000000" fill-rule="nonzero" fill-opacity="1"></path><path clip-path="url(#clip520)" d="M104.279 1280.36 L120.598 1280.36 L120.598 1284.29 L98.6539 1284.29 L98.6539 1280.36 Q101.316 1277.6 105.899 1272.97 Q110.506 1268.32 111.686 1266.98 Q113.932 1264.45 114.811 1262.72 Q115.714 1260.96 115.714 1259.27 Q115.714 1256.52 113.77 1254.78 Q111.848 1253.04 108.746 1253.04 Q106.547 1253.04 104.094 1253.81 Q101.663 1254.57 98.8854 1256.12 L98.8854 1251.4 Q101.709 1250.27 104.163 1249.69 Q106.617 1249.11 108.654 1249.11 Q114.024 1249.11 117.219 1251.79 Q120.413 1254.48 120.413 1258.97 Q120.413 1261.1 119.603 1263.02 Q118.816 1264.92 116.709 1267.51 Q116.131 1268.18 113.029 1271.4 Q109.927 1274.59 104.279 1280.36 Z" fill="#000000" fill-rule="nonzero" fill-opacity="1"></path><path clip-path="url(#clip520)" d="M62.9365 959.136 Q59.3254 959.136 57.4967 962.701 Q55.6912 966.242 55.6912 973.372 Q55.6912 980.479 57.4967 984.043 Q59.3254 987.585 62.9365 987.585 Q66.5707 987.585 68.3763 984.043 Q70.205 980.479 70.205 973.372 Q70.205 966.242 68.3763 962.701 Q66.5707 959.136 62.9365 959.136 M62.9365 955.432 Q68.7467 955.432 71.8022 960.039 Q74.8809 964.622 74.8809 973.372 Q74.8809 982.099 71.8022 986.705 Q68.7467 991.289 62.9365 991.289 Q57.1264 991.289 54.0477 986.705 Q50.9921 982.099 50.9921 973.372 Q50.9921 964.622 54.0477 960.039 Q57.1264 955.432 62.9365 955.432 Z" fill="#000000" fill-rule="nonzero" fill-opacity="1"></path><path clip-path="url(#clip520)" d="M83.0984 984.738 L87.9827 984.738 L87.9827 990.617 L83.0984 990.617 L83.0984 984.738 Z" fill="#000000" fill-rule="nonzero" fill-opacity="1"></path><path clip-path="url(#clip520)" d="M111.015 960.131 L99.2095 978.58 L111.015 978.58 L111.015 960.131 M109.788 956.057 L115.668 956.057 L115.668 978.58 L120.598 978.58 L120.598 982.469 L115.668 982.469 L115.668 990.617 L111.015 990.617 L111.015 982.469 L95.4132 982.469 L95.4132 977.955 L109.788 956.057 Z" fill="#000000" fill-rule="nonzero" fill-opacity="1"></path><path clip-path="url(#clip520)" d="M63.2606 665.461 Q59.6495 665.461 57.8208 669.026 Q56.0152 672.567 56.0152 679.697 Q56.0152 686.803 57.8208 690.368 Q59.6495 693.91 63.2606 693.91 Q66.8948 693.91 68.7004 690.368 Q70.5291 686.803 70.5291 679.697 Q70.5291 672.567 68.7004 669.026 Q66.8948 665.461 63.2606 665.461 M63.2606 661.757 Q69.0707 661.757 72.1263 666.364 Q75.205 670.947 75.205 679.697 Q75.205 688.424 72.1263 693.03 Q69.0707 697.613 63.2606 697.613 Q57.4504 697.613 54.3717 693.03 Q51.3162 688.424 51.3162 679.697 Q51.3162 670.947 54.3717 666.364 Q57.4504 661.757 63.2606 661.757 Z" fill="#000000" fill-rule="nonzero" fill-opacity="1"></path><path clip-path="url(#clip520)" d="M83.4225 691.062 L88.3067 691.062 L88.3067 696.942 L83.4225 696.942 L83.4225 691.062 Z" fill="#000000" fill-rule="nonzero" fill-opacity="1"></path><path clip-path="url(#clip520)" d="M109.071 677.799 Q105.922 677.799 104.071 679.951 Q102.242 682.104 102.242 685.854 Q102.242 689.581 104.071 691.757 Q105.922 693.91 109.071 693.91 Q112.219 693.91 114.047 691.757 Q115.899 689.581 115.899 685.854 Q115.899 682.104 114.047 679.951 Q112.219 677.799 109.071 677.799 M118.353 663.146 L118.353 667.405 Q116.594 666.572 114.788 666.132 Q113.006 665.692 111.246 665.692 Q106.617 665.692 104.163 668.817 Q101.733 671.942 101.385 678.262 Q102.751 676.248 104.811 675.183 Q106.871 674.095 109.348 674.095 Q114.557 674.095 117.566 677.266 Q120.598 680.414 120.598 685.854 Q120.598 691.178 117.45 694.396 Q114.302 697.613 109.071 697.613 Q103.075 697.613 99.9039 693.03 Q96.7326 688.424 96.7326 679.697 Q96.7326 671.502 100.621 666.641 Q104.51 661.757 111.061 661.757 Q112.82 661.757 114.603 662.104 Q116.408 662.452 118.353 663.146 Z" fill="#000000" fill-rule="nonzero" fill-opacity="1"></path><path clip-path="url(#clip520)" d="M63.5152 371.785 Q59.9041 371.785 58.0754 375.35 Q56.2699 378.892 56.2699 386.022 Q56.2699 393.128 58.0754 396.693 Q59.9041 400.234 63.5152 400.234 Q67.1494 400.234 68.955 396.693 Q70.7837 393.128 70.7837 386.022 Q70.7837 378.892 68.955 375.35 Q67.1494 371.785 63.5152 371.785 M63.5152 368.082 Q69.3254 368.082 72.3809 372.688 Q75.4596 377.272 75.4596 386.022 Q75.4596 394.748 72.3809 399.355 Q69.3254 403.938 63.5152 403.938 Q57.7051 403.938 54.6264 399.355 Q51.5708 394.748 51.5708 386.022 Q51.5708 377.272 54.6264 372.688 Q57.7051 368.082 63.5152 368.082 Z" fill="#000000" fill-rule="nonzero" fill-opacity="1"></path><path clip-path="url(#clip520)" d="M83.6771 397.387 L88.5614 397.387 L88.5614 403.267 L83.6771 403.267 L83.6771 397.387 Z" fill="#000000" fill-rule="nonzero" fill-opacity="1"></path><path clip-path="url(#clip520)" d="M108.746 386.855 Q105.413 386.855 103.492 388.637 Q101.594 390.42 101.594 393.545 Q101.594 396.67 103.492 398.452 Q105.413 400.234 108.746 400.234 Q112.08 400.234 114.001 398.452 Q115.922 396.646 115.922 393.545 Q115.922 390.42 114.001 388.637 Q112.103 386.855 108.746 386.855 M104.071 384.864 Q101.061 384.123 99.3715 382.063 Q97.7048 380.003 97.7048 377.04 Q97.7048 372.897 100.645 370.489 Q103.608 368.082 108.746 368.082 Q113.908 368.082 116.848 370.489 Q119.788 372.897 119.788 377.04 Q119.788 380.003 118.098 382.063 Q116.432 384.123 113.445 384.864 Q116.825 385.651 118.7 387.943 Q120.598 390.234 120.598 393.545 Q120.598 398.568 117.52 401.253 Q114.464 403.938 108.746 403.938 Q103.029 403.938 99.9502 401.253 Q96.8947 398.568 96.8947 393.545 Q96.8947 390.234 98.7928 387.943 Q100.691 385.651 104.071 384.864 M102.358 377.48 Q102.358 380.165 104.024 381.67 Q105.714 383.174 108.746 383.174 Q111.756 383.174 113.445 381.67 Q115.158 380.165 115.158 377.48 Q115.158 374.795 113.445 373.29 Q111.756 371.785 108.746 371.785 Q105.714 371.785 104.024 373.29 Q102.358 374.795 102.358 377.48 Z" fill="#000000" fill-rule="nonzero" fill-opacity="1"></path><path clip-path="url(#clip520)" d="M54.2328 105.656 L61.8717 105.656 L61.8717 79.2908 L53.5616 80.9574 L53.5616 76.6982 L61.8254 75.0315 L66.5013 75.0315 L66.5013 105.656 L74.1402 105.656 L74.1402 109.592 L54.2328 109.592 L54.2328 105.656 Z" fill="#000000" fill-rule="nonzero" fill-opacity="1"></path><path clip-path="url(#clip520)" d="M83.5845 103.712 L88.4688 103.712 L88.4688 109.592 L83.5845 109.592 L83.5845 103.712 Z" fill="#000000" fill-rule="nonzero" fill-opacity="1"></path><path clip-path="url(#clip520)" d="M108.654 78.1102 Q105.043 78.1102 103.214 81.675 Q101.409 85.2166 101.409 92.3462 Q101.409 99.4527 103.214 103.017 Q105.043 106.559 108.654 106.559 Q112.288 106.559 114.094 103.017 Q115.922 99.4527 115.922 92.3462 Q115.922 85.2166 114.094 81.675 Q112.288 78.1102 108.654 78.1102 M108.654 74.4065 Q114.464 74.4065 117.52 79.013 Q120.598 83.5963 120.598 92.3462 Q120.598 101.073 117.52 105.679 Q114.464 110.263 108.654 110.263 Q102.844 110.263 99.765 105.679 Q96.7095 101.073 96.7095 92.3462 Q96.7095 83.5963 99.765 79.013 Q102.844 74.4065 108.654 74.4065 Z" fill="#000000" fill-rule="nonzero" fill-opacity="1"></path><polyline clip-path="url(#clip522)" style="stroke:#009af9; stroke-linecap:round; stroke-linejoin:round; stroke-width:4; stroke-opacity:1; fill:none" points="218.754,92.3115 221.991,92.3115 225.228,92.3115 228.465,92.3115 231.703,92.3115 234.94,92.3116 238.177,92.3116 241.414,92.3115 244.652,92.3115 247.889,92.3115 251.126,92.3116 "></polyline>
<polyline clip-path="url(#clip522)" style="stroke:#e26f46; stroke-linecap:round; stroke-linejoin:round; stroke-width:4; stroke-opacity:1; fill:none" points="251.126,92.3115 254.364,92.3115 257.601,92.3115 260.838,92.3115 264.075,92.3115 267.313,92.3116 270.55,92.3116 273.787,92.3115 277.024,92.3113 280.262,92.3113 283.499,92.3125 "></polyline>
<polyline clip-path="url(#clip522)" style="stroke:#3da44d; stroke-linecap:round; stroke-linejoin:round; stroke-width:4; stroke-opacity:1; fill:none" points="283.499,92.3125 286.736,92.3117 289.973,92.311 293.211,92.3109 296.448,92.3116 299.685,92.3124 302.922,92.3125 306.16,92.3111 309.397,92.3089 312.634,92.3092 315.871,92.3202 "></polyline>
<polyline clip-path="url(#clip522)" style="stroke:#c271d2; stroke-linecap:round; stroke-linejoin:round; stroke-width:4; stroke-opacity:1; fill:none" points="315.871,92.3193 319.109,92.3147 322.346,92.307 325.583,92.3045 328.821,92.31 332.058,92.3194 335.295,92.3231 338.532,92.3127 341.77,92.2905 345.007,92.283 348.244,92.3589 "></polyline>
<polyline clip-path="url(#clip522)" style="stroke:#ac8d18; stroke-linecap:round; stroke-linejoin:round; stroke-width:4; stroke-opacity:1; fill:none" points="348.244,92.3517 351.481,92.3544 354.719,92.307 357.956,92.2609 361.193,92.2652 364.43,92.3247 367.668,92.3914 370.905,92.3898 374.142,92.2752 377.379,92.1259 380.617,92.2687 "></polyline>
<polyline clip-path="url(#clip522)" style="stroke:#00a9ad; stroke-linecap:round; stroke-linejoin:round; stroke-width:4; stroke-opacity:1; fill:none" points="380.617,92.259 383.854,92.468 387.091,92.4868 390.328,92.3495 393.566,92.1724 396.803,92.0837 400.04,92.166 403.278,92.4101 406.515,92.681 409.752,92.6969 412.989,92.0186 "></polyline>
<polyline clip-path="url(#clip522)" style="stroke:#ed5d92; stroke-linecap:round; stroke-linejoin:round; stroke-width:4; stroke-opacity:1; fill:none" points="412.989,92.1067 416.227,91.8724 419.464,91.5476 422.701,91.8209 425.938,92.5864 429.176,93.2763 432.413,93.2128 435.65,91.9781 438.887,89.8034 442.125,87.9763 445.362,89.2663 "></polyline>
<polyline clip-path="url(#clip522)" style="stroke:#c68125; stroke-linecap:round; stroke-linejoin:round; stroke-width:4; stroke-opacity:1; fill:none" points="445.362,89.0795 448.599,91.5925 451.836,96.8798 455.074,103.681 458.311,111.111 461.548,118.621 464.785,125.946 468.023,133.039 471.26,139.993 474.497,146.943 477.734,153.958 "></polyline>
<polyline clip-path="url(#clip522)" style="stroke:#00a98d; stroke-linecap:round; stroke-linejoin:round; stroke-width:4; stroke-opacity:1; fill:none" points="477.734,153.989 480.972,161.365 484.209,168.365 487.446,175.237 490.684,182.099 493.921,189.006 497.158,195.992 500.395,203.101 503.633,210.404 506.87,217.996 510.107,225.983 "></polyline>
<polyline clip-path="url(#clip522)" style="stroke:#8e971d; stroke-linecap:round; stroke-linejoin:round; stroke-width:4; stroke-opacity:1; fill:none" points="510.107,225.939 513.344,233.518 516.582,241.29 519.819,248.594 523.056,255.373 526.293,261.869 529.531,268.375 532.768,275.058 536.005,281.839 539.242,288.348 542.48,293.932 "></polyline>
<polyline clip-path="url(#clip522)" style="stroke:#00a8cb; stroke-linecap:round; stroke-linejoin:round; stroke-width:4; stroke-opacity:1; fill:none" points="542.48,294.03 545.717,301.336 548.954,307.899 552.191,315.014 555.429,322.8 558.666,330.706 561.903,337.991 565.141,344.171 568.378,349.436 571.615,355.037 574.852,363.641 "></polyline>
<polyline clip-path="url(#clip522)" style="stroke:#9b7fe8; stroke-linecap:round; stroke-linejoin:round; stroke-width:4; stroke-opacity:1; fill:none" points="574.852,363.486 578.09,367.797 581.327,374.879 584.564,382.786 587.801,390.009 591.039,395.963 594.276,401.077 597.513,406.487 600.75,413.349 603.988,421.737 607.225,429.171 "></polyline>
<polyline clip-path="url(#clip522)" style="stroke:#608cf6; stroke-linecap:round; stroke-linejoin:round; stroke-width:4; stroke-opacity:1; fill:none" points="607.225,429.125 610.462,431.78 613.699,437.332 616.937,446.465 620.174,454.019 623.411,456.934 626.648,457.735 629.886,463.586 633.123,480.889 636.36,505.45 639.598,508.194 "></polyline>
<polyline clip-path="url(#clip522)" style="stroke:#f05f73; stroke-linecap:round; stroke-linejoin:round; stroke-width:4; stroke-opacity:1; fill:none" points="639.598,508.13 642.835,517.579 646.072,521.672 649.309,525.702 652.547,530.717 655.784,536.323 659.021,542.298 662.258,549.009 665.496,556.648 668.733,563.267 671.97,561.626 "></polyline>
<polyline clip-path="url(#clip522)" style="stroke:#dd64b5; stroke-linecap:round; stroke-linejoin:round; stroke-width:4; stroke-opacity:1; fill:none" points="671.97,561.342 675.207,574.713 678.445,581.172 681.682,584.888 684.919,588.41 688.156,592.845 691.394,598.214 694.631,603.954 697.868,609.59 701.105,615.566 704.343,624.233 "></polyline>
<polyline clip-path="url(#clip522)" style="stroke:#6b9e32; stroke-linecap:round; stroke-linejoin:round; stroke-width:4; stroke-opacity:1; fill:none" points="704.343,624.643 707.58,621.175 710.817,626.57 714.055,634.187 717.292,641.444 720.529,647.792 723.766,653.321 727.004,658.011 730.241,661.627 733.478,664.25 736.715,667.456 "></polyline>
<polyline clip-path="url(#clip522)" style="stroke:#009af9; stroke-linecap:round; stroke-linejoin:round; stroke-width:4; stroke-opacity:1; fill:none" points="736.715,666.981 739.953,678.782 743.19,679.892 746.427,681.747 749.664,687.15 752.902,694.633 756.139,701.672 759.376,706.752 762.613,710.279 765.851,714.342 769.088,721.333 "></polyline>
<polyline clip-path="url(#clip522)" style="stroke:#e26f46; stroke-linecap:round; stroke-linejoin:round; stroke-width:4; stroke-opacity:1; fill:none" points="769.088,721.724 772.325,717.84 775.562,712.745 778.8,708.172 782.037,705.951 785.274,706.922 788.512,710.436 791.749,714.462 794.986,716.285 798.223,713.808 801.461,707.442 "></polyline>
<polyline clip-path="url(#clip522)" style="stroke:#3da44d; stroke-linecap:round; stroke-linejoin:round; stroke-width:4; stroke-opacity:1; fill:none" points="801.461,706.947 804.698,709.134 807.935,706.711 811.172,707.494 814.41,711.027 817.647,713.874 820.884,713.267 824.121,709.115 827.359,704.359 830.596,703.689 833.833,710.614 "></polyline>
<polyline clip-path="url(#clip522)" style="stroke:#c271d2; stroke-linecap:round; stroke-linejoin:round; stroke-width:4; stroke-opacity:1; fill:none" points="833.833,711.343 837.07,707.186 840.308,711.284 843.545,713.447 846.782,711.49 850.019,707.396 853.257,704.307 856.494,704.365 859.731,707.39 862.969,710.398 866.206,707.968 "></polyline>
<polyline clip-path="url(#clip522)" style="stroke:#ac8d18; stroke-linecap:round; stroke-linejoin:round; stroke-width:4; stroke-opacity:1; fill:none" points="866.206,707.041 869.443,716.881 872.68,712.582 875.918,707.124 879.155,704.888 882.392,705.778 885.629,708.176 888.867,710.732 892.104,712.983 895.341,714.807 898.578,714.707 "></polyline>
<polyline clip-path="url(#clip522)" style="stroke:#00a9ad; stroke-linecap:round; stroke-linejoin:round; stroke-width:4; stroke-opacity:1; fill:none" points="898.578,715.206 901.816,704.307 905.053,703.742 908.29,706.073 911.527,708.858 914.765,711.544 918.002,713.583 921.239,713.744 924.476,710.643 927.714,704.486 930.951,700.01 "></polyline>
<polyline clip-path="url(#clip522)" style="stroke:#ed5d92; stroke-linecap:round; stroke-linejoin:round; stroke-width:4; stroke-opacity:1; fill:none" points="930.951,699.462 934.188,708.425 937.426,709.601 940.663,711.619 943.9,713.837 947.137,713.369 950.375,709.33 953.612,704.297 956.849,702.975 960.086,708.095 963.324,713.509 "></polyline>
<polyline clip-path="url(#clip522)" style="stroke:#c68125; stroke-linecap:round; stroke-linejoin:round; stroke-width:4; stroke-opacity:1; fill:none" points="963.324,713.935 966.561,710.542 969.798,714.184 973.035,713.18 976.273,708.165 979.51,703.896 982.747,703.891 985.984,707.89 989.222,712.149 992.459,712.552 995.696,710.555 "></polyline>
<polyline clip-path="url(#clip522)" style="stroke:#00a98d; stroke-linecap:round; stroke-linejoin:round; stroke-width:4; stroke-opacity:1; fill:none" points="995.696,709.829 998.933,715.344 1002.17,706.3 1005.41,701.733 1008.65,704.045 1011.88,709.009 1015.12,712.378 1018.36,713.066 1021.59,712.937 1024.83,713.161 1028.07,707.181 "></polyline>
<polyline clip-path="url(#clip522)" style="stroke:#8e971d; stroke-linecap:round; stroke-linejoin:round; stroke-width:4; stroke-opacity:1; fill:none" points="1028.07,707.43 1031.31,699.847 1034.54,705.71 1037.78,711.198 1041.02,713.365 1044.26,713.414 1047.49,712.54 1050.73,710.321 1053.97,705.682 1057.2,700.413 1060.44,705.245 "></polyline>
<polyline clip-path="url(#clip522)" style="stroke:#00a8cb; stroke-linecap:round; stroke-linejoin:round; stroke-width:4; stroke-opacity:1; fill:none" points="1060.44,704.902 1063.68,714.698 1066.92,713.061 1070.15,712.351 1073.39,712.276 1076.63,709.824 1079.86,704.88 1083.1,701.518 1086.34,704.981 1089.58,714.342 1092.81,710.845 "></polyline>
<polyline clip-path="url(#clip522)" style="stroke:#9b7fe8; stroke-linecap:round; stroke-linejoin:round; stroke-width:4; stroke-opacity:1; fill:none" points="1092.81,711.053 1096.05,710.827 1099.29,714.886 1102.53,712.208 1105.76,706.026 1109,702.667 1112.24,704.94 1115.47,710.085 1118.71,712.286 1121.95,709.735 1125.19,716.26 "></polyline>
<polyline clip-path="url(#clip522)" style="stroke:#608cf6; stroke-linecap:round; stroke-linejoin:round; stroke-width:4; stroke-opacity:1; fill:none" points="1125.19,715.852 1128.42,714.046 1131.66,702.084 1134.9,699.696 1138.14,706.2 1141.37,714.116 1144.61,717.709 1147.85,716.447 1151.08,713.377 1154.32,708.424 1157.56,686.604 "></polyline>
<polyline clip-path="url(#clip522)" style="stroke:#f05f73; stroke-linecap:round; stroke-linejoin:round; stroke-width:4; stroke-opacity:1; fill:none" points="1157.56,686.668 1160.8,689.625 1164.03,708.32 1167.27,726.542 1170.51,735.569 1173.75,731.552 1176.98,714.444 1180.22,688.495 1183.46,664.315 1186.69,662.474 1189.93,718.688 "></polyline>
<polyline clip-path="url(#clip522)" style="stroke:#dd64b5; stroke-linecap:round; stroke-linejoin:round; stroke-width:4; stroke-opacity:1; fill:none" points="1189.93,723.125 1193.17,780.196 1196.41,858.044 1199.64,941.109 1202.88,1011.69 1206.12,1057.42 1209.36,1075.3 1212.59,1072.24 1215.83,1062.13 1219.07,1059.4 1222.3,1069.2 "></polyline>
<polyline clip-path="url(#clip522)" style="stroke:#6b9e32; stroke-linecap:round; stroke-linejoin:round; stroke-width:4; stroke-opacity:1; fill:none" points="1222.3,1069.28 1225.54,1062.36 1228.78,1059.97 1232.02,1060.95 1235.25,1062.37 1238.49,1061.88 1241.73,1059.01 1244.97,1055.54 1248.2,1054.97 1251.44,1060.95 1254.68,1074.79 "></polyline>
<polyline clip-path="url(#clip522)" style="stroke:#009af9; stroke-linecap:round; stroke-linejoin:round; stroke-width:4; stroke-opacity:1; fill:none" points="1254.68,1074.74 1257.91,1067.78 1261.15,1061.97 1264.39,1060.68 1267.63,1062.04 1270.86,1062.83 1274.1,1061.12 1277.34,1057.53 1280.58,1055.34 1283.81,1059.22 1287.05,1072.76 "></polyline>
<polyline clip-path="url(#clip522)" style="stroke:#e26f46; stroke-linecap:round; stroke-linejoin:round; stroke-width:4; stroke-opacity:1; fill:none" points="1287.05,1072.81 1290.29,1066.61 1293.52,1061.31 1296.76,1060.5 1300,1062.35 1303.24,1063.59 1306.47,1062.07 1309.71,1058.23 1312.95,1055.3 1316.19,1058.33 1319.42,1071.92 "></polyline>
<polyline clip-path="url(#clip522)" style="stroke:#3da44d; stroke-linecap:round; stroke-linejoin:round; stroke-width:4; stroke-opacity:1; fill:none" points="1319.42,1071.94 1322.66,1066.85 1325.9,1061.2 1329.13,1059.97 1332.37,1061.88 1335.61,1063.59 1338.85,1062.57 1342.08,1058.88 1345.32,1055.55 1348.56,1057.88 1351.79,1071.37 "></polyline>
<polyline clip-path="url(#clip522)" style="stroke:#c271d2; stroke-linecap:round; stroke-linejoin:round; stroke-width:4; stroke-opacity:1; fill:none" points="1351.79,1071.27 1355.03,1067.63 1358.27,1061.54 1361.51,1059.74 1364.74,1061.56 1367.98,1063.57 1371.22,1062.9 1374.46,1059.26 1377.69,1055.54 1380.93,1057.19 1384.17,1070.23 "></polyline>
<polyline clip-path="url(#clip522)" style="stroke:#ac8d18; stroke-linecap:round; stroke-linejoin:round; stroke-width:4; stroke-opacity:1; fill:none" points="1384.17,1069.85 1387.4,1068.36 1390.64,1062.08 1393.88,1059.58 1397.12,1061.13 1400.35,1063.49 1403.59,1063.42 1406.83,1059.96 1410.07,1055.64 1413.3,1056.26 1416.54,1069.71 "></polyline>
<polyline clip-path="url(#clip522)" style="stroke:#00a9ad; stroke-linecap:round; stroke-linejoin:round; stroke-width:4; stroke-opacity:1; fill:none" points="1416.54,1070.14 1419.78,1068.38 1423.01,1062.5 1426.25,1059.82 1429.49,1060.85 1432.73,1062.99 1435.96,1063.31 1439.2,1060.58 1442.44,1056.52 1445.68,1056.15 1448.91,1067.47 "></polyline>
<polyline clip-path="url(#clip522)" style="stroke:#ed5d92; stroke-linecap:round; stroke-linejoin:round; stroke-width:4; stroke-opacity:1; fill:none" points="1448.91,1067.49 1452.15,1068.61 1455.39,1063.18 1458.62,1059.97 1461.86,1060.62 1465.1,1062.93 1468.34,1063.68 1471.57,1060.95 1474.81,1056.07 1478.05,1054.93 1481.29,1068.95 "></polyline>
<polyline clip-path="url(#clip522)" style="stroke:#c68125; stroke-linecap:round; stroke-linejoin:round; stroke-width:4; stroke-opacity:1; fill:none" points="1481.29,1074.12 1484.52,1067.97 1487.76,1060.17 1491,1060.27 1494.23,1064.09 1497.47,1065.1 1500.71,1061 1503.95,1055.58 1507.18,1055.91 1510.42,1064.71 1513.66,1068.06 "></polyline>
<polyline clip-path="url(#clip522)" style="stroke:#00a98d; stroke-linecap:round; stroke-linejoin:round; stroke-width:4; stroke-opacity:1; fill:none" points="1513.66,1077.6 1516.9,1069.9 1520.13,1025.19 1523.37,1077.31 1526.61,1205.38 1529.84,1333.39 1533.08,1398.57 1536.32,1388.55 1539.56,1347.28 1542.79,1349.8 1546.03,1445.72 "></polyline>
<polyline clip-path="url(#clip522)" style="stroke:#8e971d; stroke-linecap:round; stroke-linejoin:round; stroke-width:4; stroke-opacity:1; fill:none" points="1546.03,1437.67 1549.27,1366.24 1552.51,1368.48 1555.74,1380.04 1558.98,1382.01 1562.22,1377.31 1565.45,1374.01 1568.69,1375.7 1571.93,1379.01 1575.17,1378 1578.4,1375.78 "></polyline>
<polyline clip-path="url(#clip522)" style="stroke:#00a8cb; stroke-linecap:round; stroke-linejoin:round; stroke-width:4; stroke-opacity:1; fill:none" points="1578.4,1376.84 1581.64,1377.32 1584.88,1377.19 1588.11,1377.08 1591.35,1377.09 1594.59,1377.16 1597.83,1377.18 1601.06,1377.15 1604.3,1377.11 1607.54,1377.14 1610.78,1377.15 "></polyline>
<polyline clip-path="url(#clip522)" style="stroke:#9b7fe8; stroke-linecap:round; stroke-linejoin:round; stroke-width:4; stroke-opacity:1; fill:none" points="1610.78,1377.13 1614.01,1377.14 1617.25,1377.14 1620.49,1377.14 1623.72,1377.14 1626.96,1377.14 1630.2,1377.14 1633.44,1377.14 1636.67,1377.14 1639.91,1377.14 1643.15,1377.14 "></polyline>
<polyline clip-path="url(#clip522)" style="stroke:#608cf6; stroke-linecap:round; stroke-linejoin:round; stroke-width:4; stroke-opacity:1; fill:none" points="1643.15,1377.14 1646.39,1377.14 1649.62,1377.14 1652.86,1377.14 1656.1,1377.14 1659.33,1377.14 1662.57,1377.14 1665.81,1377.14 1669.05,1377.14 1672.28,1377.14 1675.52,1377.14 "></polyline>
<polyline clip-path="url(#clip522)" style="stroke:#f05f73; stroke-linecap:round; stroke-linejoin:round; stroke-width:4; stroke-opacity:1; fill:none" points="1675.52,1377.14 1678.76,1377.14 1682,1377.14 1685.23,1377.14 1688.47,1377.14 1691.71,1377.14 1694.94,1377.14 1698.18,1377.14 1701.42,1377.14 1704.66,1377.14 1707.89,1377.14 "></polyline>
<polyline clip-path="url(#clip522)" style="stroke:#dd64b5; stroke-linecap:round; stroke-linejoin:round; stroke-width:4; stroke-opacity:1; fill:none" points="1707.89,1377.14 1711.13,1377.14 1714.37,1377.14 1717.61,1377.14 1720.84,1377.14 1724.08,1377.14 1727.32,1377.14 1730.55,1377.14 1733.79,1377.14 1737.03,1377.14 1740.27,1377.14 "></polyline>
<polyline clip-path="url(#clip522)" style="stroke:#6b9e32; stroke-linecap:round; stroke-linejoin:round; stroke-width:4; stroke-opacity:1; fill:none" points="1740.27,1377.14 1743.5,1377.14 1746.74,1377.14 1749.98,1377.14 1753.22,1377.14 1756.45,1377.14 1759.69,1377.14 1762.93,1377.14 1766.16,1377.14 1769.4,1377.14 1772.64,1377.14 "></polyline>
<polyline clip-path="url(#clip522)" style="stroke:#009af9; stroke-linecap:round; stroke-linejoin:round; stroke-width:4; stroke-opacity:1; fill:none" points="1772.64,1377.14 1775.88,1377.14 1779.11,1377.14 1782.35,1377.14 1785.59,1377.14 1788.83,1377.14 1792.06,1377.14 1795.3,1377.14 1798.54,1377.14 1801.77,1377.14 1805.01,1377.14 "></polyline>
<polyline clip-path="url(#clip522)" style="stroke:#e26f46; stroke-linecap:round; stroke-linejoin:round; stroke-width:4; stroke-opacity:1; fill:none" points="1805.01,1377.14 1808.25,1377.14 1811.49,1377.14 1814.72,1377.14 1817.96,1377.14 1821.2,1377.14 1824.43,1377.14 1827.67,1377.14 1830.91,1377.14 1834.15,1377.14 1837.38,1377.14 "></polyline>
<polyline clip-path="url(#clip522)" style="stroke:#3da44d; stroke-linecap:round; stroke-linejoin:round; stroke-width:4; stroke-opacity:1; fill:none" points="1837.38,1377.14 1840.62,1377.14 1843.86,1377.14 1847.1,1377.14 1850.33,1377.14 1853.57,1377.14 1856.81,1377.14 1860.04,1377.14 1863.28,1377.14 1866.52,1377.14 1869.76,1377.14 "></polyline>
<polyline clip-path="url(#clip522)" style="stroke:#c271d2; stroke-linecap:round; stroke-linejoin:round; stroke-width:4; stroke-opacity:1; fill:none" points="1869.76,1377.14 1872.99,1377.14 1876.23,1377.14 1879.47,1377.14 1882.71,1377.14 1885.94,1377.14 1889.18,1377.14 1892.42,1377.14 1895.65,1377.14 1898.89,1377.14 1902.13,1377.14 "></polyline>
<polyline clip-path="url(#clip522)" style="stroke:#ac8d18; stroke-linecap:round; stroke-linejoin:round; stroke-width:4; stroke-opacity:1; fill:none" points="1902.13,1377.14 1905.37,1377.14 1908.6,1377.14 1911.84,1377.14 1915.08,1377.14 1918.32,1377.14 1921.55,1377.14 1924.79,1377.14 1928.03,1377.14 1931.26,1377.14 1934.5,1377.14 "></polyline>
<polyline clip-path="url(#clip522)" style="stroke:#00a9ad; stroke-linecap:round; stroke-linejoin:round; stroke-width:4; stroke-opacity:1; fill:none" points="1934.5,1377.14 1937.74,1377.14 1940.98,1377.14 1944.21,1377.14 1947.45,1377.14 1950.69,1377.14 1953.93,1377.14 1957.16,1377.14 1960.4,1377.14 1963.64,1377.14 1966.87,1377.14 "></polyline>
<polyline clip-path="url(#clip522)" style="stroke:#ed5d92; stroke-linecap:round; stroke-linejoin:round; stroke-width:4; stroke-opacity:1; fill:none" points="1966.87,1377.14 1970.11,1377.14 1973.35,1377.14 1976.59,1377.14 1979.82,1377.14 1983.06,1377.14 1986.3,1377.14 1989.54,1377.14 1992.77,1377.14 1996.01,1377.14 1999.25,1377.14 "></polyline>
<polyline clip-path="url(#clip522)" style="stroke:#c68125; stroke-linecap:round; stroke-linejoin:round; stroke-width:4; stroke-opacity:1; fill:none" points="1999.25,1377.14 2002.48,1377.14 2005.72,1377.14 2008.96,1377.14 2012.2,1377.14 2015.43,1377.14 2018.67,1377.14 2021.91,1377.14 2025.15,1377.14 2028.38,1377.14 2031.62,1377.14 "></polyline>
<polyline clip-path="url(#clip522)" style="stroke:#00a98d; stroke-linecap:round; stroke-linejoin:round; stroke-width:4; stroke-opacity:1; fill:none" points="2031.62,1377.14 2034.86,1377.14 2038.09,1377.14 2041.33,1377.14 2044.57,1377.14 2047.81,1377.14 2051.04,1377.14 2054.28,1377.14 2057.52,1377.14 2060.75,1377.14 2063.99,1377.14 "></polyline>
<polyline clip-path="url(#clip522)" style="stroke:#8e971d; stroke-linecap:round; stroke-linejoin:round; stroke-width:4; stroke-opacity:1; fill:none" points="2063.99,1377.14 2067.23,1377.14 2070.47,1377.14 2073.7,1377.14 2076.94,1377.14 2080.18,1377.14 2083.42,1377.14 2086.65,1377.14 2089.89,1377.14 2093.13,1377.14 2096.36,1377.14 "></polyline>
<polyline clip-path="url(#clip522)" style="stroke:#00a8cb; stroke-linecap:round; stroke-linejoin:round; stroke-width:4; stroke-opacity:1; fill:none" points="2096.36,1377.14 2099.6,1377.14 2102.84,1377.14 2106.08,1377.14 2109.31,1377.14 2112.55,1377.14 2115.79,1377.14 2119.03,1377.14 2122.26,1377.14 2125.5,1377.14 2128.74,1377.14 "></polyline>
<polyline clip-path="url(#clip522)" style="stroke:#9b7fe8; stroke-linecap:round; stroke-linejoin:round; stroke-width:4; stroke-opacity:1; fill:none" points="2128.74,1377.14 2131.97,1377.14 2135.21,1377.14 2138.45,1377.14 2141.69,1377.14 2144.92,1377.14 2148.16,1377.14 2151.4,1377.14 2154.64,1377.14 2157.87,1377.14 2161.11,1377.14 "></polyline>
<polyline clip-path="url(#clip522)" style="stroke:#608cf6; stroke-linecap:round; stroke-linejoin:round; stroke-width:4; stroke-opacity:1; fill:none" points="2161.11,1377.14 2164.35,1377.14 2167.58,1377.14 2170.82,1377.14 2174.06,1377.14 2177.3,1377.14 2180.53,1377.14 2183.77,1377.14 2187.01,1377.14 2190.25,1377.14 2193.48,1377.14 "></polyline>
<polyline clip-path="url(#clip522)" style="stroke:#f05f73; stroke-linecap:round; stroke-linejoin:round; stroke-width:4; stroke-opacity:1; fill:none" points="2193.48,1377.14 2196.72,1377.14 2199.96,1377.14 2203.19,1377.14 2206.43,1377.14 2209.67,1377.14 2212.91,1377.14 2216.14,1377.14 2219.38,1377.14 2222.62,1377.14 2225.86,1377.14 "></polyline>
<polyline clip-path="url(#clip522)" style="stroke:#dd64b5; stroke-linecap:round; stroke-linejoin:round; stroke-width:4; stroke-opacity:1; fill:none" points="2225.86,1377.14 2229.09,1377.14 2232.33,1377.14 2235.57,1377.14 2238.8,1377.14 2242.04,1377.14 2245.28,1377.14 2248.52,1377.14 2251.75,1377.14 2254.99,1377.14 2258.23,1377.14 "></polyline>
<polyline clip-path="url(#clip522)" style="stroke:#6b9e32; stroke-linecap:round; stroke-linejoin:round; stroke-width:4; stroke-opacity:1; fill:none" points="2258.23,1377.14 2261.47,1377.14 2264.7,1377.14 2267.94,1377.14 2271.18,1377.14 2274.41,1377.14 2277.65,1377.14 2280.89,1377.14 2284.13,1377.14 2287.36,1377.14 2290.6,1377.14 "></polyline>
</svg>