<svg xmlns="http://www.w3.org/2000/svg" xmlns:xlink="http://www.w3.org/1999/xlink" width="600" height="400" viewBox="0 0 2400 1600">
<defs>
  <clipPath id="clip480">
    <rect x="0" y="0" width="2400" height="1600"></rect>
  </clipPath>
</defs>
<path clip-path="url(#clip480)" d="M0 1600 L2400 1600 L2400 0 L0 0  Z" fill="#ffffff" fill-rule="evenodd" fill-opacity="1"></path>
<defs>
  <clipPath id="clip481">
    <rect x="480" y="0" width="1681" height="1600"></rect>
  </clipPath>
</defs>
<path clip-path="url(#clip480)" d="M156.598 1486.45 L2352.76 1486.45 L2352.76 47.2441 L156.598 47.2441  Z" fill="#ffffff" fill-rule="evenodd" fill-opacity="1"></path>
<defs>
  <clipPath id="clip482">
    <rect x="156" y="47" width="2197" height="1440"></rect>
  </clipPath>
</defs>
<polyline clip-path="url(#clip482)" style="stroke:#000000; stroke-linecap:round; stroke-linejoin:round; stroke-width:2; stroke-opacity:0.1; fill:none" points="218.754,1486.45 218.754,47.2441 "></polyline>
<polyline clip-path="url(#clip482)" style="stroke:#000000; stroke-linecap:round; stroke-linejoin:round; stroke-width:2; stroke-opacity:0.1; fill:none" points="736.715,1486.45 736.715,47.2441 "></polyline>
<polyline clip-path="url(#clip482)" style="stroke:#000000; stroke-linecap:round; stroke-linejoin:round; stroke-width:2; stroke-opacity:0.1; fill:none" points="1254.68,1486.45 1254.68,47.2441 "></polyline>
<polyline clip-path="url(#clip482)" style="stroke:#000000; stroke-linecap:round; stroke-linejoin:round; stroke-width:2; stroke-opacity:0.1; fill:none" points="1772.64,1486.45 1772.64,47.2441 "></polyline>
<polyline clip-path="url(#clip482)" style="stroke:#000000; stroke-linecap:round; stroke-linejoin:round; stroke-width:2; stroke-opacity:0.1; fill:none" points="2290.6,1486.45 2290.6,47.2441 "></polyline>
<polyline clip-path="url(#clip480)" style="stroke:#000000; stroke-linecap:round; stroke-linejoin:round; stroke-width:4; stroke-opacity:1; fill:none" points="156.598,1486.45 2352.76,1486.45 "></polyline>
<polyline clip-path="url(#clip480)" style="stroke:#000000; stroke-linecap:round; stroke-linejoin:round; stroke-width:4; stroke-opacity:1; fill:none" points="218.754,1486.45 218.754,1467.55 "></polyline>
<polyline clip-path="url(#clip480)" style="stroke:#000000; stroke-linecap:round; stroke-linejoin:round; stroke-width:4; stroke-opacity:1; fill:none" points="736.715,1486.45 736.715,1467.55 "></polyline>
<polyline clip-path="url(#clip480)" style="stroke:#000000; stroke-linecap:round; stroke-linejoin:round; stroke-width:4; stroke-opacity:1; fill:none" points="1254.68,1486.45 1254.68,1467.55 "></polyline>
<polyline clip-path="url(#clip480)" style="stroke:#000000; stroke-linecap:round; stroke-linejoin:round; stroke-width:4; stroke-opacity:1; fill:none" points="1772.64,1486.45 1772.64,1467.55 "></polyline>
<polyline clip-path="url(#clip480)" style="stroke:#000000; stroke-linecap:round; stroke-linejoin:round; stroke-width:4; stroke-opacity:1; fill:none" points="2290.6,1486.45 2290.6,1467.55 "></polyline>
<path clip-path="url(#clip480)" d="M181.057 1517.37 Q177.446 1517.37 175.617 1520.93 Q173.812 1524.47 173.812 1531.6 Q173.812 1538.71 175.617 1542.27 Q177.446 1545.82 181.057 1545.82 Q184.691 1545.82 186.497 1542.27 Q188.326 1538.71 188.326 1531.6 Q188.326 1524.47 186.497 1520.93 Q184.691 1517.37 181.057 1517.37 M181.057 1513.66 Q186.867 1513.66 189.923 1518.27 Q193.001 1522.85 193.001 1531.6 Q193.001 1540.33 189.923 1544.94 Q186.867 1549.52 181.057 1549.52 Q175.247 1549.52 172.168 1544.94 Q169.113 1540.33 169.113 1531.6 Q169.113 1522.85 172.168 1518.27 Q175.247 1513.66 181.057 1513.66 Z" fill="#000000" fill-rule="nonzero" fill-opacity="1"></path><path clip-path="url(#clip480)" d="M201.219 1542.97 L206.103 1542.97 L206.103 1548.85 L201.219 1548.85 L201.219 1542.97 Z" fill="#000000" fill-rule="nonzero" fill-opacity="1"></path><path clip-path="url(#clip480)" d="M226.288 1517.37 Q222.677 1517.37 220.849 1520.93 Q219.043 1524.47 219.043 1531.6 Q219.043 1538.71 220.849 1542.27 Q222.677 1545.82 226.288 1545.82 Q229.923 1545.82 231.728 1542.27 Q233.557 1538.71 233.557 1531.6 Q233.557 1524.47 231.728 1520.93 Q229.923 1517.37 226.288 1517.37 M226.288 1513.66 Q232.098 1513.66 235.154 1518.27 Q238.233 1522.85 238.233 1531.6 Q238.233 1540.33 235.154 1544.94 Q232.098 1549.52 226.288 1549.52 Q220.478 1549.52 217.399 1544.94 Q214.344 1540.33 214.344 1531.6 Q214.344 1522.85 217.399 1518.27 Q220.478 1513.66 226.288 1513.66 Z" fill="#000000" fill-rule="nonzero" fill-opacity="1"></path><path clip-path="url(#clip480)" d="M256.45 1517.37 Q252.839 1517.37 251.01 1520.93 Q249.205 1524.47 249.205 1531.6 Q249.205 1538.71 251.01 1542.27 Q252.839 1545.82 256.45 1545.82 Q260.084 1545.82 261.89 1542.27 Q263.719 1538.71 263.719 1531.6 Q263.719 1524.47 261.89 1520.93 Q260.084 1517.37 256.45 1517.37 M256.45 1513.66 Q262.26 1513.66 265.316 1518.27 Q268.395 1522.85 268.395 1531.6 Q268.395 1540.33 265.316 1544.94 Q262.26 1549.52 256.45 1549.52 Q250.64 1549.52 247.561 1544.94 Q244.506 1540.33 244.506 1531.6 Q244.506 1522.85 247.561 1518.27 Q250.64 1513.66 256.45 1513.66 Z" fill="#000000" fill-rule="nonzero" fill-opacity="1"></path><path clip-path="url(#clip480)" d="M699.516 1517.37 Q695.905 1517.37 694.077 1520.93 Q692.271 1524.47 692.271 1531.6 Q692.271 1538.71 694.077 1542.27 Q695.905 1545.82 699.516 1545.82 Q703.151 1545.82 704.956 1542.27 Q706.785 1538.71 706.785 1531.6 Q706.785 1524.47 704.956 1520.93 Q703.151 1517.37 699.516 1517.37 M699.516 1513.66 Q705.327 1513.66 708.382 1518.27 Q711.461 1522.85 711.461 1531.6 Q711.461 1540.33 708.382 1544.94 Q705.327 1549.52 699.516 1549.52 Q693.706 1549.52 690.628 1544.94 Q687.572 1540.33 687.572 1531.6 Q687.572 1522.85 690.628 1518.27 Q693.706 1513.66 699.516 1513.66 Z" fill="#000000" fill-rule="nonzero" fill-opacity="1"></path><path clip-path="url(#clip480)" d="M719.678 1542.97 L724.563 1542.97 L724.563 1548.85 L719.678 1548.85 L719.678 1542.97 Z" fill="#000000" fill-rule="nonzero" fill-opacity="1"></path><path clip-path="url(#clip480)" d="M738.776 1544.91 L755.095 1544.91 L755.095 1548.85 L733.151 1548.85 L733.151 1544.91 Q735.813 1542.16 740.396 1537.53 Q745.002 1532.88 746.183 1531.53 Q748.428 1529.01 749.308 1527.27 Q750.211 1525.51 750.211 1523.82 Q750.211 1521.07 748.266 1519.33 Q746.345 1517.6 743.243 1517.6 Q741.044 1517.6 738.59 1518.36 Q736.16 1519.13 733.382 1520.68 L733.382 1515.95 Q736.206 1514.82 738.66 1514.24 Q741.113 1513.66 743.151 1513.66 Q748.521 1513.66 751.715 1516.35 Q754.91 1519.03 754.91 1523.52 Q754.91 1525.65 754.1 1527.57 Q753.312 1529.47 751.206 1532.07 Q750.627 1532.74 747.525 1535.95 Q744.424 1539.15 738.776 1544.91 Z" fill="#000000" fill-rule="nonzero" fill-opacity="1"></path><path clip-path="url(#clip480)" d="M764.956 1514.29 L783.312 1514.29 L783.312 1518.22 L769.238 1518.22 L769.238 1526.7 Q770.257 1526.35 771.275 1526.19 Q772.294 1526 773.312 1526 Q779.099 1526 782.479 1529.17 Q785.859 1532.34 785.859 1537.76 Q785.859 1543.34 782.386 1546.44 Q778.914 1549.52 772.595 1549.52 Q770.419 1549.52 768.15 1549.15 Q765.905 1548.78 763.498 1548.04 L763.498 1543.34 Q765.581 1544.47 767.803 1545.03 Q770.025 1545.58 772.502 1545.58 Q776.507 1545.58 778.845 1543.48 Q781.183 1541.37 781.183 1537.76 Q781.183 1534.15 778.845 1532.04 Q776.507 1529.94 772.502 1529.94 Q770.627 1529.94 768.752 1530.35 Q766.9 1530.77 764.956 1531.65 L764.956 1514.29 Z" fill="#000000" fill-rule="nonzero" fill-opacity="1"></path><path clip-path="url(#clip480)" d="M1216.98 1517.37 Q1213.37 1517.37 1211.54 1520.93 Q1209.74 1524.47 1209.74 1531.6 Q1209.74 1538.71 1211.54 1542.27 Q1213.37 1545.82 1216.98 1545.82 Q1220.61 1545.82 1222.42 1542.27 Q1224.25 1538.71 1224.25 1531.6 Q1224.25 1524.47 1222.42 1520.93 Q1220.61 1517.37 1216.98 1517.37 M1216.98 1513.66 Q1222.79 1513.66 1225.85 1518.27 Q1228.92 1522.85 1228.92 1531.6 Q1228.92 1540.33 1225.85 1544.94 Q1222.79 1549.52 1216.98 1549.52 Q1211.17 1549.52 1208.09 1544.94 Q1205.04 1540.33 1205.04 1531.6 Q1205.04 1522.85 1208.09 1518.27 Q1211.17 1513.66 1216.98 1513.66 Z" fill="#000000" fill-rule="nonzero" fill-opacity="1"></path><path clip-path="url(#clip480)" d="M1237.14 1542.97 L1242.03 1542.97 L1242.03 1548.85 L1237.14 1548.85 L1237.14 1542.97 Z" fill="#000000" fill-rule="nonzero" fill-opacity="1"></path><path clip-path="url(#clip480)" d="M1252.26 1514.29 L1270.61 1514.29 L1270.61 1518.22 L1256.54 1518.22 L1256.54 1526.7 Q1257.56 1526.35 1258.58 1526.19 Q1259.6 1526 1260.61 1526 Q1266.4 1526 1269.78 1529.17 Q1273.16 1532.34 1273.16 1537.76 Q1273.16 1543.34 1269.69 1546.44 Q1266.22 1549.52 1259.9 1549.52 Q1257.72 1549.52 1255.45 1549.15 Q1253.21 1548.78 1250.8 1548.04 L1250.8 1543.34 Q1252.88 1544.47 1255.11 1545.03 Q1257.33 1545.58 1259.8 1545.58 Q1263.81 1545.58 1266.15 1543.48 Q1268.48 1541.37 1268.48 1537.76 Q1268.48 1534.15 1266.15 1532.04 Q1263.81 1529.94 1259.8 1529.94 Q1257.93 1529.94 1256.05 1530.35 Q1254.2 1530.77 1252.26 1531.65 L1252.26 1514.29 Z" fill="#000000" fill-rule="nonzero" fill-opacity="1"></path><path clip-path="url(#clip480)" d="M1292.37 1517.37 Q1288.76 1517.37 1286.93 1520.93 Q1285.13 1524.47 1285.13 1531.6 Q1285.13 1538.71 1286.93 1542.27 Q1288.76 1545.82 1292.37 1545.82 Q1296.01 1545.82 1297.81 1542.27 Q1299.64 1538.71 1299.64 1531.6 Q1299.64 1524.47 1297.81 1520.93 Q1296.01 1517.37 1292.37 1517.37 M1292.37 1513.66 Q1298.18 1513.66 1301.24 1518.27 Q1304.32 1522.85 1304.32 1531.6 Q1304.32 1540.33 1301.24 1544.94 Q1298.18 1549.52 1292.37 1549.52 Q1286.56 1549.52 1283.48 1544.94 Q1280.43 1540.33 1280.43 1531.6 Q1280.43 1522.85 1283.48 1518.27 Q1286.56 1513.66 1292.37 1513.66 Z" fill="#000000" fill-rule="nonzero" fill-opacity="1"></path><path clip-path="url(#clip480)" d="M1735.44 1517.37 Q1731.83 1517.37 1730 1520.93 Q1728.19 1524.47 1728.19 1531.6 Q1728.19 1538.71 1730 1542.27 Q1731.83 1545.82 1735.44 1545.82 Q1739.07 1545.82 1740.88 1542.27 Q1742.71 1538.71 1742.71 1531.6 Q1742.71 1524.47 1740.88 1520.93 Q1739.07 1517.37 1735.44 1517.37 M1735.44 1513.66 Q1741.25 1513.66 1744.31 1518.27 Q1747.38 1522.85 1747.38 1531.6 Q1747.38 1540.33 1744.31 1544.94 Q1741.25 1549.52 1735.44 1549.52 Q1729.63 1549.52 1726.55 1544.94 Q1723.5 1540.33 1723.5 1531.6 Q1723.5 1522.85 1726.55 1518.27 Q1729.63 1513.66 1735.44 1513.66 Z" fill="#000000" fill-rule="nonzero" fill-opacity="1"></path><path clip-path="url(#clip480)" d="M1755.6 1542.97 L1760.49 1542.97 L1760.49 1548.85 L1755.6 1548.85 L1755.6 1542.97 Z" fill="#000000" fill-rule="nonzero" fill-opacity="1"></path><path clip-path="url(#clip480)" d="M1769.49 1514.29 L1791.71 1514.29 L1791.71 1516.28 L1779.17 1548.85 L1774.28 1548.85 L1786.09 1518.22 L1769.49 1518.22 L1769.49 1514.29 Z" fill="#000000" fill-rule="nonzero" fill-opacity="1"></path><path clip-path="url(#clip480)" d="M1800.88 1514.29 L1819.24 1514.29 L1819.24 1518.22 L1805.16 1518.22 L1805.16 1526.7 Q1806.18 1526.35 1807.2 1526.19 Q1808.22 1526 1809.24 1526 Q1815.02 1526 1818.4 1529.17 Q1821.78 1532.34 1821.78 1537.76 Q1821.78 1543.34 1818.31 1546.44 Q1814.84 1549.52 1808.52 1549.52 Q1806.34 1549.52 1804.07 1549.15 Q1801.83 1548.78 1799.42 1548.04 L1799.42 1543.34 Q1801.5 1544.47 1803.73 1545.03 Q1805.95 1545.58 1808.43 1545.58 Q1812.43 1545.58 1814.77 1543.48 Q1817.11 1541.37 1817.11 1537.76 Q1817.11 1534.15 1814.77 1532.04 Q1812.43 1529.94 1808.43 1529.94 Q1806.55 1529.94 1804.68 1530.35 Q1802.82 1530.77 1800.88 1531.65 L1800.88 1514.29 Z" fill="#000000" fill-rule="nonzero" fill-opacity="1"></path><path clip-path="url(#clip480)" d="M2242.67 1544.91 L2250.31 1544.91 L2250.31 1518.55 L2242 1520.21 L2242 1515.95 L2250.27 1514.29 L2254.94 1514.29 L2254.94 1544.91 L2262.58 1544.91 L2262.58 1548.85 L2242.67 1548.85 L2242.67 1544.91 Z" fill="#000000" fill-rule="nonzero" fill-opacity="1"></path><path clip-path="url(#clip480)" d="M2272.02 1542.97 L2276.91 1542.97 L2276.91 1548.85 L2272.02 1548.85 L2272.02 1542.97 Z" fill="#000000" fill-rule="nonzero" fill-opacity="1"></path><path clip-path="url(#clip480)" d="M2297.09 1517.37 Q2293.48 1517.37 2291.65 1520.93 Q2289.85 1524.47 2289.85 1531.6 Q2289.85 1538.71 2291.65 1542.27 Q2293.48 1545.82 2297.09 1545.82 Q2300.73 1545.82 2302.53 1542.27 Q2304.36 1538.71 2304.36 1531.6 Q2304.36 1524.47 2302.53 1520.93 Q2300.73 1517.37 2297.09 1517.37 M2297.09 1513.66 Q2302.9 1513.66 2305.96 1518.27 Q2309.04 1522.85 2309.04 1531.6 Q2309.04 1540.33 2305.96 1544.94 Q2302.9 1549.52 2297.09 1549.52 Q2291.28 1549.52 2288.2 1544.94 Q2285.15 1540.33 2285.15 1531.6 Q2285.15 1522.85 2288.2 1518.27 Q2291.28 1513.66 2297.09 1513.66 Z" fill="#000000" fill-rule="nonzero" fill-opacity="1"></path><path clip-path="url(#clip480)" d="M2327.26 1517.37 Q2323.64 1517.37 2321.82 1520.93 Q2320.01 1524.47 2320.01 1531.6 Q2320.01 1538.71 2321.82 1542.27 Q2323.64 1545.82 2327.26 1545.82 Q2330.89 1545.82 2332.7 1542.27 Q2334.52 1538.71 2334.52 1531.6 Q2334.52 1524.47 2332.7 1520.93 Q2330.89 1517.37 2327.26 1517.37 M2327.26 1513.66 Q2333.07 1513.66 2336.12 1518.27 Q2339.2 1522.85 2339.2 1531.6 Q2339.2 1540.33 2336.12 1544.94 Q2333.07 1549.52 2327.26 1549.52 Q2321.45 1549.52 2318.37 1544.94 Q2315.31 1540.33 2315.31 1531.6 Q2315.31 1522.85 2318.37 1518.27 Q2321.45 1513.66 2327.26 1513.66 Z" fill="#000000" fill-rule="nonzero" fill-opacity="1"></path><polyline clip-path="url(#clip482)" style="stroke:#000000; stroke-linecap:round; stroke-linejoin:round; stroke-width:2; stroke-opacity:0.1; fill:none" points="156.598,1263.51 2352.76,1263.51 "></polyline>
<polyline clip-path="url(#clip482)" style="stroke:#000000; stroke-linecap:round; stroke-linejoin:round; stroke-width:2; stroke-opacity:0.1; fill:none" points="156.598,970.773 2352.76,970.773 "></polyline>
<polyline clip-path="url(#clip482)" style="stroke:#000000; stroke-linecap:round; stroke-linejoin:round; stroke-width:2; stroke-opacity:0.1; fill:none" points="156.598,678.035 2352.76,678.035 "></polyline>
<polyline clip-path="url(#clip482)" style="stroke:#000000; stroke-linecap:round; stroke-linejoin:round; stroke-width:2; stroke-opacity:0.1; fill:none" points="156.598,385.297 2352.76,385.297 "></polyline>
<polyline clip-path="url(#clip482)" style="stroke:#000000; stroke-linecap:round; stroke-linejoin:round; stroke-width:2; stroke-opacity:0.1; fill:none" points="156.598,92.5588 2352.76,92.5588 "></polyline>
<polyline clip-path="url(#clip480)" style="stroke:#000000; stroke-linecap:round; stroke-linejoin:round; stroke-width:4; stroke-opacity:1; fill:none" points="156.598,1486.45 156.598,47.2441 "></polyline>
<polyline clip-path="url(#clip480)" style="stroke:#000000; stroke-linecap:round; stroke-linejoin:round; stroke-width:4; stroke-opacity:1; fill:none" points="156.598,1263.51 175.496,1263.51 "></polyline>
<polyline clip-path="url(#clip480)" style="stroke:#000000; stroke-linecap:round; stroke-linejoin:round; stroke-width:4; stroke-opacity:1; fill:none" points="156.598,970.773 175.496,970.773 "></polyline>
<polyline clip-path="url(#clip480)" style="stroke:#000000; stroke-linecap:round; stroke-linejoin:round; stroke-width:4; stroke-opacity:1; fill:none" points="156.598,678.035 175.496,678.035 "></polyline>
<polyline clip-path="url(#clip480)" style="stroke:#000000; stroke-linecap:round; stroke-linejoin:round; stroke-width:4; stroke-opacity:1; fill:none" points="156.598,385.297 175.496,385.297 "></polyline>
<polyline clip-path="url(#clip480)" style="stroke:#000000; stroke-linecap:round; stroke-linejoin:round; stroke-width:4; stroke-opacity:1; fill:none" points="156.598,92.5588 175.496,92.5588 "></polyline>
<path clip-path="url(#clip480)" d="M65.0198 1249.31 Q61.4087 1249.31 59.58 1252.87 Q57.7745 1256.42 57.7745 1263.55 Q57.7745 1270.65 59.58 1274.22 Q61.4087 1277.76 65.0198 1277.76 Q68.6541 1277.76 70.4596 1274.22 Q72.2883 1270.65 72.2883 1263.55 Q72.2883 1256.42 70.4596 1252.87 Q68.6541 1249.31 65.0198 1249.31 M65.0198 1245.61 Q70.83 1245.61 73.8855 1250.21 Q76.9642 1254.8 76.9642 1263.55 Q76.9642 1272.27 73.8855 1276.88 Q70.83 1281.46 65.0198 1281.46 Q59.2097 1281.46 56.131 1276.88 Q53.0754 1272.27 53.0754 1263.55 Q53.0754 1254.8 56.131 1250.21 Q59.2097 1245.61 65.0198 1245.61 Z" fill="#000000" fill-rule="nonzero" fill-opacity="1"></path><path clip-path="url(#clip480)" d="M85.1818 1274.91 L90.066 1274.91 L90.066 1280.79 L85.1818 1280.79 L85.1818 1274.91 Z" fill="#000000" fill-rule="nonzero" fill-opacity="1"></path><path clip-path="url(#clip480)" d="M104.279 1276.86 L120.598 1276.86 L120.598 1280.79 L98.6539 1280.79 L98.6539 1276.86 Q101.316 1274.1 105.899 1269.47 Q110.506 1264.82 111.686 1263.48 Q113.932 1260.95 114.811 1259.22 Q115.714 1257.46 115.714 1255.77 Q115.714 1253.01 113.77 1251.28 Q111.848 1249.54 108.746 1249.54 Q106.547 1249.54 104.094 1250.3 Q101.663 1251.07 98.8854 1252.62 L98.8854 1247.9 Q101.709 1246.76 104.163 1246.18 Q106.617 1245.61 108.654 1245.61 Q114.024 1245.61 117.219 1248.29 Q120.413 1250.98 120.413 1255.47 Q120.413 1257.6 119.603 1259.52 Q118.816 1261.42 116.709 1264.01 Q116.131 1264.68 113.029 1267.9 Q109.927 1271.09 104.279 1276.86 Z" fill="#000000" fill-rule="nonzero" fill-opacity="1"></path><path clip-path="url(#clip480)" d="M62.9365 956.572 Q59.3254 956.572 57.4967 960.136 Q55.6912 963.678 55.6912 970.808 Q55.6912 977.914 57.4967 981.479 Q59.3254 985.021 62.9365 985.021 Q66.5707 985.021 68.3763 981.479 Q70.205 977.914 70.205 970.808 Q70.205 963.678 68.3763 960.136 Q66.5707 956.572 62.9365 956.572 M62.9365 952.868 Q68.7467 952.868 71.8022 957.474 Q74.8809 962.058 74.8809 970.808 Q74.8809 979.534 71.8022 984.141 Q68.7467 988.724 62.9365 988.724 Q57.1264 988.724 54.0477 984.141 Q50.9921 979.534 50.9921 970.808 Q50.9921 962.058 54.0477 957.474 Q57.1264 952.868 62.9365 952.868 Z" fill="#000000" fill-rule="nonzero" fill-opacity="1"></path><path clip-path="url(#clip480)" d="M83.0984 982.173 L87.9827 982.173 L87.9827 988.053 L83.0984 988.053 L83.0984 982.173 Z" fill="#000000" fill-rule="nonzero" fill-opacity="1"></path><path clip-path="url(#clip480)" d="M111.015 957.567 L99.2095 976.016 L111.015 976.016 L111.015 957.567 M109.788 953.493 L115.668 953.493 L115.668 976.016 L120.598 976.016 L120.598 979.905 L115.668 979.905 L115.668 988.053 L111.015 988.053 L111.015 979.905 L95.4132 979.905 L95.4132 975.391 L109.788 953.493 Z" fill="#000000" fill-rule="nonzero" fill-opacity="1"></path><path clip-path="url(#clip480)" d="M63.2606 663.834 Q59.6495 663.834 57.8208 667.398 Q56.0152 670.94 56.0152 678.07 Q56.0152 685.176 57.8208 688.741 Q59.6495 692.282 63.2606 692.282 Q66.8948 692.282 68.7004 688.741 Q70.5291 685.176 70.5291 678.07 Q70.5291 670.94 68.7004 667.398 Q66.8948 663.834 63.2606 663.834 M63.2606 660.13 Q69.0707 660.13 72.1263 664.736 Q75.205 669.32 75.205 678.07 Q75.205 686.796 72.1263 691.403 Q69.0707 695.986 63.2606 695.986 Q57.4504 695.986 54.3717 691.403 Q51.3162 686.796 51.3162 678.07 Q51.3162 669.32 54.3717 664.736 Q57.4504 660.13 63.2606 660.13 Z" fill="#000000" fill-rule="nonzero" fill-opacity="1"></path><path clip-path="url(#clip480)" d="M83.4225 689.435 L88.3067 689.435 L88.3067 695.315 L83.4225 695.315 L83.4225 689.435 Z" fill="#000000" fill-rule="nonzero" fill-opacity="1"></path><path clip-path="url(#clip480)" d="M109.071 676.171 Q105.922 676.171 104.071 678.324 Q102.242 680.477 102.242 684.227 Q102.242 687.954 104.071 690.13 Q105.922 692.282 109.071 692.282 Q112.219 692.282 114.047 690.13 Q115.899 687.954 115.899 684.227 Q115.899 680.477 114.047 678.324 Q112.219 676.171 109.071 676.171 M118.353 661.519 L118.353 665.778 Q116.594 664.945 114.788 664.505 Q113.006 664.065 111.246 664.065 Q106.617 664.065 104.163 667.19 Q101.733 670.315 101.385 676.634 Q102.751 674.621 104.811 673.556 Q106.871 672.468 109.348 672.468 Q114.557 672.468 117.566 675.639 Q120.598 678.787 120.598 684.227 Q120.598 689.551 117.45 692.769 Q114.302 695.986 109.071 695.986 Q103.075 695.986 99.9039 691.403 Q96.7326 686.796 96.7326 678.07 Q96.7326 669.875 100.621 665.014 Q104.51 660.13 111.061 660.13 Q112.82 660.13 114.603 660.477 Q116.408 660.824 118.353 661.519 Z" fill="#000000" fill-rule="nonzero" fill-opacity="1"></path><path clip-path="url(#clip480)" d="M63.5152 371.095 Q59.9041 371.095 58.0754 374.66 Q56.2699 378.202 56.2699 385.332 Q56.2699 392.438 58.0754 396.003 Q59.9041 399.544 63.5152 399.544 Q67.1494 399.544 68.955 396.003 Q70.7837 392.438 70.7837 385.332 Q70.7837 378.202 68.955 374.66 Q67.1494 371.095 63.5152 371.095 M63.5152 367.392 Q69.3254 367.392 72.3809 371.998 Q75.4596 376.582 75.4596 385.332 Q75.4596 394.058 72.3809 398.665 Q69.3254 403.248 63.5152 403.248 Q57.7051 403.248 54.6264 398.665 Q51.5708 394.058 51.5708 385.332 Q51.5708 376.582 54.6264 371.998 Q57.7051 367.392 63.5152 367.392 Z" fill="#000000" fill-rule="nonzero" fill-opacity="1"></path><path clip-path="url(#clip480)" d="M83.6771 396.697 L88.5614 396.697 L88.5614 402.577 L83.6771 402.577 L83.6771 396.697 Z" fill="#000000" fill-rule="nonzero" fill-opacity="1"></path><path clip-path="url(#clip480)" d="M108.746 386.165 Q105.413 386.165 103.492 387.947 Q101.594 389.73 101.594 392.855 Q101.594 395.98 103.492 397.762 Q105.413 399.544 108.746 399.544 Q112.08 399.544 114.001 397.762 Q115.922 395.956 115.922 392.855 Q115.922 389.73 114.001 387.947 Q112.103 386.165 108.746 386.165 M104.071 384.174 Q101.061 383.433 99.3715 381.373 Q97.7048 379.313 97.7048 376.35 Q97.7048 372.207 100.645 369.799 Q103.608 367.392 108.746 367.392 Q113.908 367.392 116.848 369.799 Q119.788 372.207 119.788 376.35 Q119.788 379.313 118.098 381.373 Q116.432 383.433 113.445 384.174 Q116.825 384.961 118.7 387.253 Q120.598 389.544 120.598 392.855 Q120.598 397.878 117.52 400.563 Q114.464 403.248 108.746 403.248 Q103.029 403.248 99.9502 400.563 Q96.8947 397.878 96.8947 392.855 Q96.8947 389.544 98.7928 387.253 Q100.691 384.961 104.071 384.174 M102.358 376.79 Q102.358 379.475 104.024 380.98 Q105.714 382.484 108.746 382.484 Q111.756 382.484 113.445 380.98 Q115.158 379.475 115.158 376.79 Q115.158 374.105 113.445 372.6 Q111.756 371.095 108.746 371.095 Q105.714 371.095 104.024 372.6 Q102.358 374.105 102.358 376.79 Z" fill="#000000" fill-rule="nonzero" fill-opacity="1"></path><path clip-path="url(#clip480)" d="M54.2328 105.904 L61.8717 105.904 L61.8717 79.538 L53.5616 81.2047 L53.5616 76.9454 L61.8254 75.2788 L66.5013 75.2788 L66.5013 105.904 L74.1402 105.904 L74.1402 109.839 L54.2328 109.839 L54.2328 105.904 Z" fill="#000000" fill-rule="nonzero" fill-opacity="1"></path><path clip-path="url(#clip480)" d="M83.5845 103.959 L88.4688 103.959 L88.4688 109.839 L83.5845 109.839 L83.5845 103.959 Z" fill="#000000" fill-rule="nonzero" fill-opacity="1"></path><path clip-path="url(#clip480)" d="M108.654 78.3575 Q105.043 78.3575 103.214 81.9223 Q101.409 85.4639 101.409 92.5935 Q101.409 99.6999 103.214 103.265 Q105.043 106.806 108.654 106.806 Q112.288 106.806 114.094 103.265 Q115.922 99.6999 115.922 92.5935 Q115.922 85.4639 114.094 81.9223 Q112.288 78.3575 108.654 78.3575 M108.654 74.6538 Q114.464 74.6538 117.52 79.2602 Q120.598 83.8435 120.598 92.5935 Q120.598 101.32 117.52 105.927 Q114.464 110.51 108.654 110.51 Q102.844 110.51 99.765 105.927 Q96.7095 101.32 96.7095 92.5935 Q96.7095 83.8435 99.765 79.2602 Q102.844 74.6538 108.654 74.6538 Z" fill="#000000" fill-rule="nonzero" fill-opacity="1"></path><polyline clip-path="url(#clip482)" style="stroke:#009af9; stroke-linecap:round; stroke-linejoin:round; stroke-width:4; stroke-opacity:1; fill:none" points="218.754,92.5588 221.991,92.5588 225.228,92.5587 228.465,92.5587 231.703,92.5588 234.94,92.5588 238.177,92.5588 241.414,92.5588 244.652,92.5587 247.889,92.5587 251.126,92.5588 "></polyline>
<polyline clip-path="url(#clip482)" style="stroke:#e26f46; stroke-linecap:round; stroke-linejoin:round; stroke-width:4; stroke-opacity:1; fill:none" points="251.126,92.5588 254.364,92.5588 257.601,92.5588 260.838,92.5587 264.075,92.5587 267.313,92.5588 270.55,92.5589 273.787,92.5588 277.024,92.5585 280.262,92.5586 283.499,92.5597 "></polyline>
<polyline clip-path="url(#clip482)" style="stroke:#3da44d; stroke-linecap:round; stroke-linejoin:round; stroke-width:4; stroke-opacity:1; fill:none" points="283.499,92.5597 286.736,92.5589 289.973,92.5583 293.211,92.5582 296.448,92.5588 299.685,92.5597 302.922,92.5598 306.16,92.5584 309.397,92.5561 312.634,92.5563 315.871,92.5674 "></polyline>
<polyline clip-path="url(#clip482)" style="stroke:#c271d2; stroke-linecap:round; stroke-linejoin:round; stroke-width:4; stroke-opacity:1; fill:none" points="315.871,92.5666 319.109,92.5621 322.346,92.5543 325.583,92.5516 328.821,92.5571 332.058,92.5666 335.295,92.5707 338.532,92.5604 341.77,92.5376 345.007,92.5293 348.244,92.6056 "></polyline>
<polyline clip-path="url(#clip482)" style="stroke:#ac8d18; stroke-linecap:round; stroke-linejoin:round; stroke-width:4; stroke-opacity:1; fill:none" points="348.244,92.5984 351.481,92.6031 354.719,92.5553 357.956,92.5075 361.193,92.5107 364.43,92.5708 367.668,92.6397 370.905,92.64 374.142,92.5248 377.379,92.3708 380.617,92.5062 "></polyline>
<polyline clip-path="url(#clip482)" style="stroke:#00a9ad; stroke-linecap:round; stroke-linejoin:round; stroke-width:4; stroke-opacity:1; fill:none" points="380.617,92.4974 383.854,92.7155 387.091,92.7395 390.328,92.6031 393.566,92.4216 396.803,92.3252 400.04,92.4019 403.278,92.6492 406.515,92.9349 409.752,92.9674 412.989,92.2747 "></polyline>
<polyline clip-path="url(#clip482)" style="stroke:#ed5d92; stroke-linecap:round; stroke-linejoin:round; stroke-width:4; stroke-opacity:1; fill:none" points="412.989,92.3656 416.227,92.1164 419.464,91.7618 422.701,92.0226 425.938,92.8094 429.176,93.5453 432.413,93.5183 435.65,92.2645 438.887,89.9823 442.125,87.9763 445.362,89.132 "></polyline>
<polyline clip-path="url(#clip482)" style="stroke:#c68125; stroke-linecap:round; stroke-linejoin:round; stroke-width:4; stroke-opacity:1; fill:none" points="445.362,88.9394 448.599,91.3252 451.836,96.5492 455.074,103.336 458.311,110.772 461.548,118.284 464.785,125.594 468.023,132.655 471.26,139.568 474.497,146.479 477.734,153.453 "></polyline>
<polyline clip-path="url(#clip482)" style="stroke:#00a98d; stroke-linecap:round; stroke-linejoin:round; stroke-width:4; stroke-opacity:1; fill:none" points="477.734,153.487 480.972,160.865 484.209,167.853 487.446,174.714 490.684,181.573 493.921,188.486 497.158,195.482 500.395,202.605 503.633,209.921 506.87,217.524 510.107,225.52 "></polyline>
<polyline clip-path="url(#clip482)" style="stroke:#8e971d; stroke-linecap:round; stroke-linejoin:round; stroke-width:4; stroke-opacity:1; fill:none" points="510.107,225.474 513.344,233.03 516.582,240.797 519.819,248.098 523.056,254.869 526.293,261.355 529.531,267.858 532.768,274.556 536.005,281.374 539.242,287.928 542.48,293.522 "></polyline>
<polyline clip-path="url(#clip482)" style="stroke:#00a8cb; stroke-linecap:round; stroke-linejoin:round; stroke-width:4; stroke-opacity:1; fill:none" points="542.48,293.621 545.717,300.963 548.954,307.548 552.191,314.676 555.429,322.485 558.666,330.437 561.903,337.786 565.141,344.022 568.378,349.305 571.615,354.877 574.852,363.458 "></polyline>
<polyline clip-path="url(#clip482)" style="stroke:#9b7fe8; stroke-linecap:round; stroke-linejoin:round; stroke-width:4; stroke-opacity:1; fill:none" points="574.852,363.303 578.09,367.577 581.327,374.599 584.564,382.506 587.801,389.795 591.039,395.827 594.276,400.952 597.513,406.259 600.75,412.944 603.988,421.304 607.225,429.35 "></polyline>
<polyline clip-path="url(#clip482)" style="stroke:#608cf6; stroke-linecap:round; stroke-linejoin:round; stroke-width:4; stroke-opacity:1; fill:none" points="607.225,429.291 610.462,431.619 613.699,436.895 616.937,446.717 620.174,454.678 623.411,456.709 626.648,455.725 629.886,460.59 633.123,479.382 636.36,506.965 639.598,506.874 "></polyline>
<polyline clip-path="url(#clip482)" style="stroke:#f05f73; stroke-linecap:round; stroke-linejoin:round; stroke-width:4; stroke-opacity:1; fill:none" points="639.598,506.774 642.835,516.688 646.072,519.406 649.309,523.241 652.547,529.077 655.784,535.426 659.021,541.406 662.258,547.671 665.496,555.276 668.733,562.483 671.97,559.502 "></polyline>
<polyline clip-path="url(#clip482)" style="stroke:#dd64b5; stroke-linecap:round; stroke-linejoin:round; stroke-width:4; stroke-opacity:1; fill:none" points="671.97,559.19 675.207,572.416 678.445,579.157 681.682,582.876 684.919,586.11 688.156,590.213 691.394,595.43 694.631,601.27 697.868,607.206 701.105,613.678 704.343,623.419 "></polyline>
<polyline clip-path="url(#clip482)" style="stroke:#6b9e32; stroke-linecap:round; stroke-linejoin:round; stroke-width:4; stroke-opacity:1; fill:none" points="704.343,623.797 707.58,620.891 710.817,625.034 714.055,632.11 717.292,639.77 720.529,646.884 723.766,653.06 727.004,658.243 730.241,662.378 733.478,665.15 736.715,665.791 "></polyline>
<polyline clip-path="url(#clip482)" style="stroke:#009af9; stroke-linecap:round; stroke-linejoin:round; stroke-width:4; stroke-opacity:1; fill:none" points="736.715,665.095 739.953,678.841 743.19,680.124 746.427,681.35 749.664,685.816 752.902,692.36 756.139,698.738 759.376,703.699 762.613,707.775 765.851,712.782 769.088,720.031 "></polyline>
<polyline clip-path="url(#clip482)" style="stroke:#e26f46; stroke-linecap:round; stroke-linejoin:round; stroke-width:4; stroke-opacity:1; fill:none" points="769.088,720.24 772.325,720.194 775.562,716.61 778.8,711.262 782.037,706.602 785.274,704.52 788.512,705.592 791.749,708.819 794.986,711.856 798.223,711.732 801.461,706.059 "></polyline>
<polyline clip-path="url(#clip482)" style="stroke:#3da44d; stroke-linecap:round; stroke-linejoin:round; stroke-width:4; stroke-opacity:1; fill:none" points="801.461,705.439 804.698,708.986 807.935,706.308 811.172,705.959 814.41,708.403 817.647,710.854 820.884,710.687 824.121,707.434 827.359,703.358 830.596,702.614 833.833,708.981 "></polyline>
<polyline clip-path="url(#clip482)" style="stroke:#c271d2; stroke-linecap:round; stroke-linejoin:round; stroke-width:4; stroke-opacity:1; fill:none" points="833.833,709.664 837.07,705.125 840.308,708.181 843.545,710.475 846.782,709.533 850.019,706.395 853.257,703.55 856.494,703.161 859.731,705.604 862.969,708.292 866.206,704.809 "></polyline>
<polyline clip-path="url(#clip482)" style="stroke:#ac8d18; stroke-linecap:round; stroke-linejoin:round; stroke-width:4; stroke-opacity:1; fill:none" points="866.206,703.81 869.443,714.179 872.68,710.912 875.918,706.245 879.155,704.234 882.392,704.773 885.629,706.455 888.867,708.273 892.104,710.149 895.341,712.308 898.578,713.482 "></polyline>
<polyline clip-path="url(#clip482)" style="stroke:#00a9ad; stroke-linecap:round; stroke-linejoin:round; stroke-width:4; stroke-opacity:1; fill:none" points="898.578,713.972 901.816,703.932 905.053,702.813 908.29,704.5 911.527,706.763 914.765,709.007 918.002,710.828 921.239,711.358 924.476,709.408 927.714,704.402 930.951,698.11 "></polyline>
<polyline clip-path="url(#clip482)" style="stroke:#ed5d92; stroke-linecap:round; stroke-linejoin:round; stroke-width:4; stroke-opacity:1; fill:none" points="930.951,697.327 934.188,707.029 937.426,707.277 940.663,708.707 943.9,711.237 947.137,711.697 950.375,708.567 953.612,703.843 956.849,702.01 960.086,706.137 963.324,711.089 "></polyline>
<polyline clip-path="url(#clip482)" style="stroke:#c68125; stroke-linecap:round; stroke-linejoin:round; stroke-width:4; stroke-opacity:1; fill:none" points="963.324,711.512 966.561,707.805 969.798,711.416 973.035,711.438 976.273,707.588 979.51,703.614 982.747,702.803 985.984,705.605 989.222,709.368 992.459,710.179 995.696,706.823 "></polyline>
<polyline clip-path="url(#clip482)" style="stroke:#00a98d; stroke-linecap:round; stroke-linejoin:round; stroke-width:4; stroke-opacity:1; fill:none" points="995.696,705.811 998.933,714.189 1002.17,705.882 1005.41,701.055 1008.65,702.678 1011.88,706.862 1015.12,709.643 1018.36,710.216 1021.59,710.626 1024.83,711.904 1028.07,706.652 "></polyline>
<polyline clip-path="url(#clip482)" style="stroke:#8e971d; stroke-linecap:round; stroke-linejoin:round; stroke-width:4; stroke-opacity:1; fill:none" points="1028.07,706.829 1031.31,699.588 1034.54,703.848 1037.78,708.396 1041.02,710.543 1044.26,710.987 1047.49,710.581 1050.73,709.012 1053.97,705.381 1057.2,700.702 1060.44,702.296 "></polyline>
<polyline clip-path="url(#clip482)" style="stroke:#00a8cb; stroke-linecap:round; stroke-linejoin:round; stroke-width:4; stroke-opacity:1; fill:none" points="1060.44,701.571 1063.68,712.364 1066.92,709.828 1070.15,709.138 1073.39,710.232 1076.63,709.187 1079.86,704.883 1083.1,700.952 1086.34,703.015 1089.58,711.202 1092.81,707.956 "></polyline>
<polyline clip-path="url(#clip482)" style="stroke:#9b7fe8; stroke-linecap:round; stroke-linejoin:round; stroke-width:4; stroke-opacity:1; fill:none" points="1092.81,708.289 1096.05,708.539 1099.29,713.16 1102.53,711.716 1105.76,706.191 1109,701.96 1112.24,702.212 1115.47,705.838 1118.71,708.778 1121.95,708.814 1125.19,713.835 "></polyline>
<polyline clip-path="url(#clip482)" style="stroke:#608cf6; stroke-linecap:round; stroke-linejoin:round; stroke-width:4; stroke-opacity:1; fill:none" points="1125.19,712.794 1128.42,715.188 1131.66,702.072 1134.9,697.295 1138.14,702.284 1141.37,710.213 1144.61,715.037 1147.85,715.408 1151.08,713.464 1154.32,708.492 1157.56,685.469 "></polyline>
<polyline clip-path="url(#clip482)" style="stroke:#f05f73; stroke-linecap:round; stroke-linejoin:round; stroke-width:4; stroke-opacity:1; fill:none" points="1157.56,685.591 1160.8,686.933 1164.03,703.618 1167.27,723.358 1170.51,735.622 1173.75,733.392 1176.98,714.807 1180.22,684.719 1183.46,656.139 1186.69,651.583 1189.93,704.314 "></polyline>
<polyline clip-path="url(#clip482)" style="stroke:#dd64b5; stroke-linecap:round; stroke-linejoin:round; stroke-width:4; stroke-opacity:1; fill:none" points="1189.93,708.84 1193.17,772.239 1196.41,856.456 1199.64,945.394 1202.88,1019.34 1206.12,1064.68 1209.36,1078.92 1212.59,1071.19 1215.83,1057.95 1219.07,1054.24 1222.3,1060.16 "></polyline>
<polyline clip-path="url(#clip482)" style="stroke:#6b9e32; stroke-linecap:round; stroke-linejoin:round; stroke-width:4; stroke-opacity:1; fill:none" points="1222.3,1060.19 1225.54,1059.56 1228.78,1056.99 1232.02,1057.83 1235.25,1059.92 1238.49,1059.78 1241.73,1056.3 1244.97,1051.95 1248.2,1051.53 1251.44,1058.42 1254.68,1068.37 "></polyline>
<polyline clip-path="url(#clip482)" style="stroke:#009af9; stroke-linecap:round; stroke-linejoin:round; stroke-width:4; stroke-opacity:1; fill:none" points="1254.68,1068.31 1257.91,1066.31 1261.15,1059.05 1264.39,1057.05 1267.63,1059.22 1270.86,1060.91 1274.1,1059.09 1277.34,1054.74 1280.58,1052.34 1283.81,1056.53 1287.05,1065.98 "></polyline>
<polyline clip-path="url(#clip482)" style="stroke:#e26f46; stroke-linecap:round; stroke-linejoin:round; stroke-width:4; stroke-opacity:1; fill:none" points="1287.05,1066.04 1290.29,1064.92 1293.52,1058.31 1296.76,1056.83 1300,1059.52 1303.24,1061.71 1306.47,1060.19 1309.71,1055.63 1312.95,1052.37 1316.19,1055.44 1319.42,1064.98 "></polyline>
<polyline clip-path="url(#clip482)" style="stroke:#3da44d; stroke-linecap:round; stroke-linejoin:round; stroke-width:4; stroke-opacity:1; fill:none" points="1319.42,1065.01 1322.66,1065.14 1325.9,1058.1 1329.13,1056.21 1332.37,1059.04 1335.61,1061.77 1338.85,1060.77 1342.08,1056.33 1345.32,1052.65 1348.56,1055.01 1351.79,1064.11 "></polyline>
<polyline clip-path="url(#clip482)" style="stroke:#c271d2; stroke-linecap:round; stroke-linejoin:round; stroke-width:4; stroke-opacity:1; fill:none" points="1351.79,1063.96 1355.03,1066.15 1358.27,1058.51 1361.51,1055.89 1364.74,1058.64 1367.98,1061.75 1371.22,1061.14 1374.46,1056.78 1377.69,1052.77 1380.93,1054.44 1384.17,1062.31 "></polyline>
<polyline clip-path="url(#clip482)" style="stroke:#ac8d18; stroke-linecap:round; stroke-linejoin:round; stroke-width:4; stroke-opacity:1; fill:none" points="1384.17,1061.84 1387.4,1067.17 1390.64,1059.17 1393.88,1055.55 1397.12,1057.96 1400.35,1061.56 1403.59,1061.7 1406.83,1057.57 1410.07,1052.85 1413.3,1053.42 1416.54,1062.08 "></polyline>
<polyline clip-path="url(#clip482)" style="stroke:#00a9ad; stroke-linecap:round; stroke-linejoin:round; stroke-width:4; stroke-opacity:1; fill:none" points="1416.54,1062.7 1419.78,1066.91 1423.01,1059.73 1426.25,1056.03 1429.49,1057.6 1432.73,1060.7 1435.96,1061.33 1439.2,1058.28 1442.44,1054.06 1445.68,1053.48 1448.91,1060.12 "></polyline>
<polyline clip-path="url(#clip482)" style="stroke:#ed5d92; stroke-linecap:round; stroke-linejoin:round; stroke-width:4; stroke-opacity:1; fill:none" points="1448.91,1060.68 1452.15,1066.94 1455.39,1060.05 1458.62,1056.16 1461.86,1057.63 1465.1,1060.83 1468.34,1061.58 1471.57,1058.48 1474.81,1053.96 1478.05,1053.06 1481.29,1060.06 "></polyline>
<polyline clip-path="url(#clip482)" style="stroke:#c68125; stroke-linecap:round; stroke-linejoin:round; stroke-width:4; stroke-opacity:1; fill:none" points="1481.29,1065.45 1484.52,1066.62 1487.76,1056.88 1491,1056.05 1494.23,1061.06 1497.47,1063.3 1500.71,1059 1503.95,1052.59 1507.18,1053.09 1510.42,1063.61 1513.66,1063.7 "></polyline>
<polyline clip-path="url(#clip482)" style="stroke:#00a98d; stroke-linecap:round; stroke-linejoin:round; stroke-width:4; stroke-opacity:1; fill:none" points="1513.66,1086.22 1516.9,1062.47 1520.13,1020.51 1523.37,1077.98 1526.61,1206.98 1529.84,1330.96 1533.08,1390.48 1536.32,1377.61 1539.56,1339.11 1542.79,1348.3 1546.03,1445.72 "></polyline>
<polyline clip-path="url(#clip482)" style="stroke:#8e971d; stroke-linecap:round; stroke-linejoin:round; stroke-width:4; stroke-opacity:1; fill:none" points="1546.03,1430.21 1549.27,1361.69 1552.51,1364.91 1555.74,1376.42 1558.98,1378.1 1562.22,1373.28 1565.45,1370.09 1568.69,1371.97 1571.93,1375.25 1575.17,1374.01 1578.4,1372.01 "></polyline>
<polyline clip-path="url(#clip482)" style="stroke:#00a8cb; stroke-linecap:round; stroke-linejoin:round; stroke-width:4; stroke-opacity:1; fill:none" points="1578.4,1373.27 1581.64,1373.46 1584.88,1373.31 1588.11,1373.22 1591.35,1373.25 1594.59,1373.31 1597.83,1373.33 1601.06,1373.29 1604.3,1373.26 1607.54,1373.29 1610.78,1373.3 "></polyline>
<polyline clip-path="url(#clip482)" style="stroke:#9b7fe8; stroke-linecap:round; stroke-linejoin:round; stroke-width:4; stroke-opacity:1; fill:none" points="1610.78,1373.27 1614.01,1373.28 1617.25,1373.29 1620.49,1373.29 1623.72,1373.29 1626.96,1373.29 1630.2,1373.29 1633.44,1373.29 1636.67,1373.29 1639.91,1373.29 1643.15,1373.29 "></polyline>
<polyline clip-path="url(#clip482)" style="stroke:#608cf6; stroke-linecap:round; stroke-linejoin:round; stroke-width:4; stroke-opacity:1; fill:none" points="1643.15,1373.29 1646.39,1373.29 1649.62,1373.29 1652.86,1373.29 1656.1,1373.29 1659.33,1373.29 1662.57,1373.29 1665.81,1373.29 1669.05,1373.29 1672.28,1373.29 1675.52,1373.29 "></polyline>
<polyline clip-path="url(#clip482)" style="stroke:#f05f73; stroke-linecap:round; stroke-linejoin:round; stroke-width:4; stroke-opacity:1; fill:none" points="1675.52,1373.29 1678.76,1373.29 1682,1373.29 1685.23,1373.29 1688.47,1373.29 1691.71,1373.29 1694.94,1373.29 1698.18,1373.29 1701.42,1373.29 1704.66,1373.29 1707.89,1373.29 "></polyline>
<polyline clip-path="url(#clip482)" style="stroke:#dd64b5; stroke-linecap:round; stroke-linejoin:round; stroke-width:4; stroke-opacity:1; fill:none" points="1707.89,1373.29 1711.13,1373.29 1714.37,1373.29 1717.61,1373.29 1720.84,1373.29 1724.08,1373.29 1727.32,1373.29 1730.55,1373.29 1733.79,1373.29 1737.03,1373.29 1740.27,1373.29 "></polyline>
<polyline clip-path="url(#clip482)" style="stroke:#6b9e32; stroke-linecap:round; stroke-linejoin:round; stroke-width:4; stroke-opacity:1; fill:none" points="1740.27,1373.29 1743.5,1373.29 1746.74,1373.29 1749.98,1373.29 1753.22,1373.29 1756.45,1373.29 1759.69,1373.29 1762.93,1373.29 1766.16,1373.29 1769.4,1373.29 1772.64,1373.29 "></polyline>
<polyline clip-path="url(#clip482)" style="stroke:#009af9; stroke-linecap:round; stroke-linejoin:round; stroke-width:4; stroke-opacity:1; fill:none" points="1772.64,1373.29 1775.88,1373.29 1779.11,1373.29 1782.35,1373.29 1785.59,1373.29 1788.83,1373.29 1792.06,1373.29 1795.3,1373.29 1798.54,1373.29 1801.77,1373.29 1805.01,1373.29 "></polyline>
<polyline clip-path="url(#clip482)" style="stroke:#e26f46; stroke-linecap:round; stroke-linejoin:round; stroke-width:4; stroke-opacity:1; fill:none" points="1805.01,1373.29 1808.25,1373.29 1811.49,1373.29 1814.72,1373.29 1817.96,1373.29 1821.2,1373.29 1824.43,1373.29 1827.67,1373.29 1830.91,1373.29 1834.15,1373.29 1837.38,1373.29 "></polyline>
<polyline clip-path="url(#clip482)" style="stroke:#3da44d; stroke-linecap:round; stroke-linejoin:round; stroke-width:4; stroke-opacity:1; fill:none" points="1837.38,1373.29 1840.62,1373.29 1843.86,1373.29 1847.1,1373.29 1850.33,1373.29 1853.57,1373.29 1856.81,1373.29 1860.04,1373.29 1863.28,1373.29 1866.52,1373.29 1869.76,1373.29 "></polyline>
<polyline clip-path="url(#clip482)" style="stroke:#c271d2; stroke-linecap:round; stroke-linejoin:round; stroke-width:4; stroke-opacity:1; fill:none" points="1869.76,1373.29 1872.99,1373.29 1876.23,1373.29 1879.47,1373.29 1882.71,1373.29 1885.94,1373.29 1889.18,1373.29 1892.42,1373.29 1895.65,1373.29 1898.89,1373.29 1902.13,1373.29 "></polyline>
<polyline clip-path="url(#clip482)" style="stroke:#ac8d18; stroke-linecap:round; stroke-linejoin:round; stroke-width:4; stroke-opacity:1; fill:none" points="1902.13,1373.29 1905.37,1373.29 1908.6,1373.29 1911.84,1373.29 1915.08,1373.29 1918.32,1373.29 1921.55,1373.29 1924.79,1373.29 1928.03,1373.29 1931.26,1373.29 1934.5,1373.29 "></polyline>
<polyline clip-path="url(#clip482)" style="stroke:#00a9ad; stroke-linecap:round; stroke-linejoin:round; stroke-width:4; stroke-opacity:1; fill:none" points="1934.5,1373.29 1937.74,1373.29 1940.98,1373.29 1944.21,1373.29 1947.45,1373.29 1950.69,1373.29 1953.93,1373.29 1957.16,1373.29 1960.4,1373.29 1963.64,1373.29 1966.87,1373.29 "></polyline>
<polyline clip-path="url(#clip482)" style="stroke:#ed5d92; stroke-linecap:round; stroke-linejoin:round; stroke-width:4; stroke-opacity:1; fill:none" points="1966.87,1373.29 1970.11,1373.29 1973.35,1373.29 1976.59,1373.29 1979.82,1373.29 1983.06,1373.29 1986.3,1373.29 1989.54,1373.29 1992.77,1373.29 1996.01,1373.29 1999.25,1373.29 "></polyline>
<polyline clip-path="url(#clip482)" style="stroke:#c68125; stroke-linecap:round; stroke-linejoin:round; stroke-width:4; stroke-opacity:1; fill:none" points="1999.25,1373.29 2002.48,1373.29 2005.72,1373.29 2008.96,1373.29 2012.2,1373.29 2015.43,1373.29 2018.67,1373.29 2021.91,1373.29 2025.15,1373.29 2028.38,1373.29 2031.62,1373.29 "></polyline>
<polyline clip-path="url(#clip482)" style="stroke:#00a98d; stroke-linecap:round; stroke-linejoin:round; stroke-width:4; stroke-opacity:1; fill:none" points="2031.62,1373.29 2034.86,1373.29 2038.09,1373.29 2041.33,1373.29 2044.57,1373.29 2047.81,1373.29 2051.04,1373.29 2054.28,1373.29 2057.52,1373.29 2060.75,1373.29 2063.99,1373.29 "></polyline>
<polyline clip-path="url(#clip482)" style="stroke:#8e971d; stroke-linecap:round; stroke-linejoin:round; stroke-width:4; stroke-opacity:1; fill:none" points="2063.99,1373.29 2067.23,1373.29 2070.47,1373.29 2073.7,1373.29 2076.94,1373.29 2080.18,1373.29 2083.42,1373.29 2086.65,1373.29 2089.89,1373.29 2093.13,1373.29 2096.36,1373.29 "></polyline>
<polyline clip-path="url(#clip482)" style="stroke:#00a8cb; stroke-linecap:round; stroke-linejoin:round; stroke-width:4; stroke-opacity:1; fill:none" points="2096.36,1373.29 2099.6,1373.29 2102.84,1373.29 2106.08,1373.29 2109.31,1373.29 2112.55,1373.29 2115.79,1373.29 2119.03,1373.29 2122.26,1373.29 2125.5,1373.29 2128.74,1373.29 "></polyline>
<polyline clip-path="url(#clip482)" style="stroke:#9b7fe8; stroke-linecap:round; stroke-linejoin:round; stroke-width:4; stroke-opacity:1; fill:none" points="2128.74,1373.29 2131.97,1373.29 2135.21,1373.29 2138.45,1373.29 2141.69,1373.29 2144.92,1373.29 2148.16,1373.29 2151.4,1373.29 2154.64,1373.29 2157.87,1373.29 2161.11,1373.29 "></polyline>
<polyline clip-path="url(#clip482)" style="stroke:#608cf6; stroke-linecap:round; stroke-linejoin:round; stroke-width:4; stroke-opacity:1; fill:none" points="2161.11,1373.29 2164.35,1373.29 2167.58,1373.29 2170.82,1373.29 2174.06,1373.29 2177.3,1373.29 2180.53,1373.29 2183.77,1373.29 2187.01,1373.29 2190.25,1373.29 2193.48,1373.29 "></polyline>
<polyline clip-path="url(#clip482)" style="stroke:#f05f73; stroke-linecap:round; stroke-linejoin:round; stroke-width:4; stroke-opacity:1; fill:none" points="2193.48,1373.29 2196.72,1373.29 2199.96,1373.29 2203.19,1373.29 2206.43,1373.29 2209.67,1373.29 2212.91,1373.29 2216.14,1373.29 2219.38,1373.29 2222.62,1373.29 2225.86,1373.29 "></polyline>
<polyline clip-path="url(#clip482)" style="stroke:#dd64b5; stroke-linecap:round; stroke-linejoin:round; stroke-width:4; stroke-opacity:1; fill:none" points="2225.86,1373.29 2229.09,1373.29 2232.33,1373.29 2235.57,1373.29 2238.8,1373.29 2242.04,1373.29 2245.28,1373.29 2248.52,1373.29 2251.75,1373.29 2254.99,1373.29 2258.23,1373.29 "></polyline>
<polyline clip-path="url(#clip482)" style="stroke:#6b9e32; stroke-linecap:round; stroke-linejoin:round; stroke-width:4; stroke-opacity:1; fill:none" points="2258.23,1373.29 2261.47,1373.29 2264.7,1373.29 2267.94,1373.29 2271.18,1373.29 2274.41,1373.29 2277.65,1373.29 2280.89,1373.29 2284.13,1373.29 2287.36,1373.29 2290.6,1373.29 "></polyline>
</svg>