<svg xmlns="http://www.w3.org/2000/svg" xmlns:xlink="http://www.w3.org/1999/xlink" width="600" height="400" viewBox="0 0 2400 1600">
<defs>
  <clipPath id="clip800">
    <rect x="0" y="0" width="2400" height="1600"></rect>
  </clipPath>
</defs>
<path clip-path="url(#clip800)" d="M0 1600 L2400 1600 L2400 0 L0 0  Z" fill="#ffffff" fill-rule="evenodd" fill-opacity="1"></path>
<defs>
  <clipPath id="clip801">
    <rect x="480" y="0" width="1681" height="1600"></rect>
  </clipPath>
</defs>
<path clip-path="url(#clip800)" d="M156.598 1486.45 L2352.76 1486.45 L2352.76 47.2441 L156.598 47.2441  Z" fill="#ffffff" fill-rule="evenodd" fill-opacity="1"></path>
<defs>
  <clipPath id="clip802">
    <rect x="156" y="47" width="2197" height="1440"></rect>
  </clipPath>
</defs>
<polyline clip-path="url(#clip802)" style="stroke:#000000; stroke-linecap:round; stroke-linejoin:round; stroke-width:2; stroke-opacity:0.1; fill:none" points="218.754,1486.45 218.754,47.2441 "></polyline>
<polyline clip-path="url(#clip802)" style="stroke:#000000; stroke-linecap:round; stroke-linejoin:round; stroke-width:2; stroke-opacity:0.1; fill:none" points="736.715,1486.45 736.715,47.2441 "></polyline>
<polyline clip-path="url(#clip802)" style="stroke:#000000; stroke-linecap:round; stroke-linejoin:round; stroke-width:2; stroke-opacity:0.1; fill:none" points="1254.68,1486.45 1254.68,47.2441 "></polyline>
<polyline clip-path="url(#clip802)" style="stroke:#000000; stroke-linecap:round; stroke-linejoin:round; stroke-width:2; stroke-opacity:0.1; fill:none" points="1772.64,1486.45 1772.64,47.2441 "></polyline>
<polyline clip-path="url(#clip802)" style="stroke:#000000; stroke-linecap:round; stroke-linejoin:round; stroke-width:2; stroke-opacity:0.1; fill:none" points="2290.6,1486.45 2290.6,47.2441 "></polyline>
<polyline clip-path="url(#clip800)" style="stroke:#000000; stroke-linecap:round; stroke-linejoin:round; stroke-width:4; stroke-opacity:1; fill:none" points="156.598,1486.45 2352.76,1486.45 "></polyline>
<polyline clip-path="url(#clip800)" style="stroke:#000000; stroke-linecap:round; stroke-linejoin:round; stroke-width:4; stroke-opacity:1; fill:none" points="218.754,1486.45 218.754,1467.55 "></polyline>
<polyline clip-path="url(#clip800)" style="stroke:#000000; stroke-linecap:round; stroke-linejoin:round; stroke-width:4; stroke-opacity:1; fill:none" points="736.715,1486.45 736.715,1467.55 "></polyline>
<polyline clip-path="url(#clip800)" style="stroke:#000000; stroke-linecap:round; stroke-linejoin:round; stroke-width:4; stroke-opacity:1; fill:none" points="1254.68,1486.45 1254.68,1467.55 "></polyline>
<polyline clip-path="url(#clip800)" style="stroke:#000000; stroke-linecap:round; stroke-linejoin:round; stroke-width:4; stroke-opacity:1; fill:none" points="1772.64,1486.45 1772.64,1467.55 "></polyline>
<polyline clip-path="url(#clip800)" style="stroke:#000000; stroke-linecap:round; stroke-linejoin:round; stroke-width:4; stroke-opacity:1; fill:none" points="2290.6,1486.45 2290.6,1467.55 "></polyline>
<path clip-path="url(#clip800)" d="M181.057 1517.37 Q177.446 1517.37 175.617 1520.93 Q173.812 1524.47 173.812 1531.6 Q173.812 1538.71 175.617 1542.27 Q177.446 1545.82 181.057 1545.82 Q184.691 1545.82 186.497 1542.27 Q188.326 1538.71 188.326 1531.6 Q188.326 1524.47 186.497 1520.93 Q184.691 1517.37 181.057 1517.37 M181.057 1513.66 Q186.867 1513.66 189.923 1518.27 Q193.001 1522.85 193.001 1531.6 Q193.001 1540.33 189.923 1544.94 Q186.867 1549.52 181.057 1549.52 Q175.247 1549.52 172.168 1544.94 Q169.113 1540.33 169.113 1531.6 Q169.113 1522.85 172.168 1518.27 Q175.247 1513.66 181.057 1513.66 Z" fill="#000000" fill-rule="nonzero" fill-opacity="1"></path><path clip-path="url(#clip800)" d="M201.219 1542.97 L206.103 1542.97 L206.103 1548.85 L201.219 1548.85 L201.219 1542.97 Z" fill="#000000" fill-rule="nonzero" fill-opacity="1"></path><path clip-path="url(#clip800)" d="M226.288 1517.37 Q222.677 1517.37 220.849 1520.93 Q219.043 1524.47 219.043 1531.6 Q219.043 1538.71 220.849 1542.27 Q222.677 1545.82 226.288 1545.82 Q229.923 1545.82 231.728 1542.27 Q233.557 1538.71 233.557 1531.6 Q233.557 1524.47 231.728 1520.93 Q229.923 1517.37 226.288 1517.37 M226.288 1513.66 Q232.098 1513.66 235.154 1518.27 Q238.233 1522.85 238.233 1531.6 Q238.233 1540.33 235.154 1544.94 Q232.098 1549.52 226.288 1549.52 Q220.478 1549.52 217.399 1544.94 Q214.344 1540.33 214.344 1531.6 Q214.344 1522.85 217.399 1518.27 Q220.478 1513.66 226.288 1513.66 Z" fill="#000000" fill-rule="nonzero" fill-opacity="1"></path><path clip-path="url(#clip800)" d="M256.45 1517.37 Q252.839 1517.37 251.01 1520.93 Q249.205 1524.47 249.205 1531.6 Q249.205 1538.71 251.01 1542.27 Q252.839 1545.82 256.45 1545.82 Q260.084 1545.82 261.89 1542.27 Q263.719 1538.71 263.719 1531.6 Q263.719 1524.47 261.89 1520.93 Q260.084 1517.37 256.45 1517.37 M256.45 1513.66 Q262.26 1513.66 265.316 1518.27 Q268.395 1522.85 268.395 1531.6 Q268.395 1540.33 265.316 1544.94 Q262.26 1549.52 256.45 1549.52 Q250.64 1549.52 247.561 1544.94 Q244.506 1540.33 244.506 1531.6 Q244.506 1522.85 247.561 1518.27 Q250.64 1513.66 256.45 1513.66 Z" fill="#000000" fill-rule="nonzero" fill-opacity="1"></path><path clip-path="url(#clip800)" d="M699.516 1517.37 Q695.905 1517.37 694.077 1520.93 Q692.271 1524.47 692.271 1531.6 Q692.271 1538.71 694.077 1542.27 Q695.905 1545.82 699.516 1545.82 Q703.151 1545.82 704.956 1542.27 Q706.785 1538.71 706.785 1531.6 Q706.785 1524.47 704.956 1520.93 Q703.151 1517.37 699.516 1517.37 M699.516 1513.66 Q705.327 1513.66 708.382 1518.27 Q711.461 1522.85 711.461 1531.6 Q711.461 1540.33 708.382 1544.94 Q705.327 1549.52 699.516 1549.52 Q693.706 1549.52 690.628 1544.94 Q687.572 1540.33 687.572 1531.6 Q687.572 1522.85 690.628 1518.27 Q693.706 1513.66 699.516 1513.66 Z" fill="#000000" fill-rule="nonzero" fill-opacity="1"></path><path clip-path="url(#clip800)" d="M719.678 1542.97 L724.563 1542.97 L724.563 1548.85 L719.678 1548.85 L719.678 1542.97 Z" fill="#000000" fill-rule="nonzero" fill-opacity="1"></path><path clip-path="url(#clip800)" d="M738.776 1544.91 L755.095 1544.91 L755.095 1548.85 L733.151 1548.85 L733.151 1544.91 Q735.813 1542.16 740.396 1537.53 Q745.002 1532.88 746.183 1531.53 Q748.428 1529.01 749.308 1527.27 Q750.211 1525.51 750.211 1523.82 Q750.211 1521.07 748.266 1519.33 Q746.345 1517.6 743.243 1517.6 Q741.044 1517.6 738.59 1518.36 Q736.16 1519.13 733.382 1520.68 L733.382 1515.95 Q736.206 1514.82 738.66 1514.24 Q741.113 1513.66 743.151 1513.66 Q748.521 1513.66 751.715 1516.35 Q754.91 1519.03 754.91 1523.52 Q754.91 1525.65 754.1 1527.57 Q753.312 1529.47 751.206 1532.07 Q750.627 1532.74 747.525 1535.95 Q744.424 1539.15 738.776 1544.91 Z" fill="#000000" fill-rule="nonzero" fill-opacity="1"></path><path clip-path="url(#clip800)" d="M764.956 1514.29 L783.312 1514.29 L783.312 1518.22 L769.238 1518.22 L769.238 1526.7 Q770.257 1526.35 771.275 1526.19 Q772.294 1526 773.312 1526 Q779.099 1526 782.479 1529.17 Q785.859 1532.34 785.859 1537.76 Q785.859 1543.34 782.386 1546.44 Q778.914 1549.52 772.595 1549.52 Q770.419 1549.52 768.15 1549.15 Q765.905 1548.78 763.498 1548.04 L763.498 1543.34 Q765.581 1544.47 767.803 1545.03 Q770.025 1545.58 772.502 1545.58 Q776.507 1545.58 778.845 1543.48 Q781.183 1541.37 781.183 1537.76 Q781.183 1534.15 778.845 1532.04 Q776.507 1529.94 772.502 1529.94 Q770.627 1529.94 768.752 1530.35 Q766.9 1530.77 764.956 1531.65 L764.956 1514.29 Z" fill="#000000" fill-rule="nonzero" fill-opacity="1"></path><path clip-path="url(#clip800)" d="M1216.98 1517.37 Q1213.37 1517.37 1211.54 1520.93 Q1209.74 1524.47 1209.74 1531.6 Q1209.74 1538.71 1211.54 1542.27 Q1213.37 1545.82 1216.98 1545.82 Q1220.61 1545.82 1222.42 1542.27 Q1224.25 1538.71 1224.25 1531.6 Q1224.25 1524.47 1222.42 1520.93 Q1220.61 1517.37 1216.98 1517.37 M1216.98 1513.66 Q1222.79 1513.66 1225.85 1518.27 Q1228.92 1522.85 1228.92 1531.6 Q1228.92 1540.33 1225.85 1544.94 Q1222.79 1549.52 1216.98 1549.52 Q1211.17 1549.52 1208.09 1544.94 Q1205.04 1540.33 1205.04 1531.6 Q1205.04 1522.85 1208.09 1518.27 Q1211.17 1513.66 1216.98 1513.66 Z" fill="#000000" fill-rule="nonzero" fill-opacity="1"></path><path clip-path="url(#clip800)" d="M1237.14 1542.97 L1242.03 1542.97 L1242.03 1548.85 L1237.14 1548.85 L1237.14 1542.97 Z" fill="#000000" fill-rule="nonzero" fill-opacity="1"></path><path clip-path="url(#clip800)" d="M1252.26 1514.29 L1270.61 1514.29 L1270.61 1518.22 L1256.54 1518.22 L1256.54 1526.7 Q1257.56 1526.35 1258.58 1526.19 Q1259.6 1526 1260.61 1526 Q1266.4 1526 1269.78 1529.17 Q1273.16 1532.34 1273.16 1537.76 Q1273.16 1543.34 1269.69 1546.44 Q1266.22 1549.52 1259.9 1549.52 Q1257.72 1549.52 1255.45 1549.15 Q1253.21 1548.78 1250.8 1548.04 L1250.8 1543.34 Q1252.88 1544.47 1255.11 1545.03 Q1257.33 1545.58 1259.8 1545.58 Q1263.81 1545.58 1266.15 1543.48 Q1268.48 1541.37 1268.48 1537.76 Q1268.48 1534.15 1266.15 1532.04 Q1263.81 1529.94 1259.8 1529.94 Q1257.93 1529.94 1256.05 1530.35 Q1254.2 1530.77 1252.26 1531.65 L1252.26 1514.29 Z" fill="#000000" fill-rule="nonzero" fill-opacity="1"></path><path clip-path="url(#clip800)" d="M1292.37 1517.37 Q1288.76 1517.37 1286.93 1520.93 Q1285.13 1524.47 1285.13 1531.6 Q1285.13 1538.71 1286.93 1542.27 Q1288.76 1545.82 1292.37 1545.82 Q1296.01 1545.82 1297.81 1542.27 Q1299.64 1538.71 1299.64 1531.6 Q1299.64 1524.47 1297.81 1520.93 Q1296.01 1517.37 1292.37 1517.37 M1292.37 1513.66 Q1298.18 1513.66 1301.24 1518.27 Q1304.32 1522.85 1304.32 1531.6 Q1304.32 1540.33 1301.24 1544.94 Q1298.18 1549.52 1292.37 1549.52 Q1286.56 1549.52 1283.48 1544.94 Q1280.43 1540.33 1280.43 1531.6 Q1280.43 1522.85 1283.48 1518.27 Q1286.56 1513.66 1292.37 1513.66 Z" fill="#000000" fill-rule="nonzero" fill-opacity="1"></path><path clip-path="url(#clip800)" d="M1735.44 1517.37 Q1731.83 1517.37 1730 1520.93 Q1728.19 1524.47 1728.19 1531.6 Q1728.19 1538.71 1730 1542.27 Q1731.83 1545.82 1735.44 1545.82 Q1739.07 1545.82 1740.88 1542.27 Q1742.71 1538.71 1742.71 1531.6 Q1742.71 1524.47 1740.88 1520.93 Q1739.07 1517.37 1735.44 1517.37 M1735.44 1513.66 Q1741.25 1513.66 1744.31 1518.27 Q1747.38 1522.85 1747.38 1531.6 Q1747.38 1540.33 1744.31 1544.94 Q1741.25 1549.52 1735.44 1549.52 Q1729.63 1549.52 1726.55 1544.94 Q1723.5 1540.33 1723.5 1531.6 Q1723.5 1522.85 1726.55 1518.27 Q1729.63 1513.66 1735.44 1513.66 Z" fill="#000000" fill-rule="nonzero" fill-opacity="1"></path><path clip-path="url(#clip800)" d="M1755.6 1542.97 L1760.49 1542.97 L1760.49 1548.85 L1755.6 1548.85 L1755.6 1542.97 Z" fill="#000000" fill-rule="nonzero" fill-opacity="1"></path><path clip-path="url(#clip800)" d="M1769.49 1514.29 L1791.71 1514.29 L1791.71 1516.28 L1779.17 1548.85 L1774.28 1548.85 L1786.09 1518.22 L1769.49 1518.22 L1769.49 1514.29 Z" fill="#000000" fill-rule="nonzero" fill-opacity="1"></path><path clip-path="url(#clip800)" d="M1800.88 1514.29 L1819.24 1514.29 L1819.24 1518.22 L1805.16 1518.22 L1805.16 1526.7 Q1806.18 1526.35 1807.2 1526.19 Q1808.22 1526 1809.24 1526 Q1815.02 1526 1818.4 1529.17 Q1821.78 1532.34 1821.78 1537.76 Q1821.78 1543.34 1818.31 1546.44 Q1814.84 1549.52 1808.52 1549.52 Q1806.34 1549.52 1804.07 1549.15 Q1801.83 1548.78 1799.42 1548.04 L1799.42 1543.34 Q1801.5 1544.47 1803.73 1545.03 Q1805.95 1545.58 1808.43 1545.58 Q1812.43 1545.58 1814.77 1543.48 Q1817.11 1541.37 1817.11 1537.76 Q1817.11 1534.15 1814.77 1532.04 Q1812.43 1529.94 1808.43 1529.94 Q1806.55 1529.94 1804.68 1530.35 Q1802.82 1530.77 1800.88 1531.65 L1800.88 1514.29 Z" fill="#000000" fill-rule="nonzero" fill-opacity="1"></path><path clip-path="url(#clip800)" d="M2242.67 1544.91 L2250.31 1544.91 L2250.31 1518.55 L2242 1520.21 L2242 1515.95 L2250.27 1514.29 L2254.94 1514.29 L2254.94 1544.91 L2262.58 1544.91 L2262.58 1548.85 L2242.67 1548.85 L2242.67 1544.91 Z" fill="#000000" fill-rule="nonzero" fill-opacity="1"></path><path clip-path="url(#clip800)" d="M2272.02 1542.97 L2276.91 1542.97 L2276.91 1548.85 L2272.02 1548.85 L2272.02 1542.97 Z" fill="#000000" fill-rule="nonzero" fill-opacity="1"></path><path clip-path="url(#clip800)" d="M2297.09 1517.37 Q2293.48 1517.37 2291.65 1520.93 Q2289.85 1524.47 2289.85 1531.6 Q2289.85 1538.71 2291.65 1542.27 Q2293.48 1545.82 2297.09 1545.82 Q2300.73 1545.82 2302.53 1542.27 Q2304.36 1538.71 2304.36 1531.6 Q2304.36 1524.47 2302.53 1520.93 Q2300.73 1517.37 2297.09 1517.37 M2297.09 1513.66 Q2302.9 1513.66 2305.96 1518.27 Q2309.04 1522.85 2309.04 1531.6 Q2309.04 1540.33 2305.96 1544.94 Q2302.9 1549.52 2297.09 1549.52 Q2291.28 1549.52 2288.2 1544.94 Q2285.15 1540.33 2285.15 1531.6 Q2285.15 1522.85 2288.2 1518.27 Q2291.28 1513.66 2297.09 1513.66 Z" fill="#000000" fill-rule="nonzero" fill-opacity="1"></path><path clip-path="url(#clip800)" d="M2327.26 1517.37 Q2323.64 1517.37 2321.82 1520.93 Q2320.01 1524.47 2320.01 1531.6 Q2320.01 1538.71 2321.82 1542.27 Q2323.64 1545.82 2327.26 1545.82 Q2330.89 1545.82 2332.7 1542.27 Q2334.52 1538.71 2334.52 1531.6 Q2334.52 1524.47 2332.7 1520.93 Q2330.89 1517.37 2327.26 1517.37 M2327.26 1513.66 Q2333.07 1513.66 2336.12 1518.27 Q2339.2 1522.85 2339.2 1531.6 Q2339.2 1540.33 2336.12 1544.94 Q2333.07 1549.52 2327.26 1549.52 Q2321.45 1549.52 2318.37 1544.94 Q2315.31 1540.33 2315.31 1531.6 Q2315.31 1522.85 2318.37 1518.27 Q2321.45 1513.66 2327.26 1513.66 Z" fill="#000000" fill-rule="nonzero" fill-opacity="1"></path><polyline clip-path="url(#clip802)" style="stroke:#000000; stroke-linecap:round; stroke-linejoin:round; stroke-width:2; stroke-opacity:0.1; fill:none" points="156.598,1277.51 2352.76,1277.51 "></polyline>
<polyline clip-path="url(#clip802)" style="stroke:#000000; stroke-linecap:round; stroke-linejoin:round; stroke-width:2; stroke-opacity:0.1; fill:none" points="156.598,981.59 2352.76,981.59 "></polyline>
<polyline clip-path="url(#clip802)" style="stroke:#000000; stroke-linecap:round; stroke-linejoin:round; stroke-width:2; stroke-opacity:0.1; fill:none" points="156.598,685.668 2352.76,685.668 "></polyline>
<polyline clip-path="url(#clip802)" style="stroke:#000000; stroke-linecap:round; stroke-linejoin:round; stroke-width:2; stroke-opacity:0.1; fill:none" points="156.598,389.747 2352.76,389.747 "></polyline>
<polyline clip-path="url(#clip802)" style="stroke:#000000; stroke-linecap:round; stroke-linejoin:round; stroke-width:2; stroke-opacity:0.1; fill:none" points="156.598,93.8259 2352.76,93.8259 "></polyline>
<polyline clip-path="url(#clip800)" style="stroke:#000000; stroke-linecap:round; stroke-linejoin:round; stroke-width:4; stroke-opacity:1; fill:none" points="156.598,1486.45 156.598,47.2441 "></polyline>
<polyline clip-path="url(#clip800)" style="stroke:#000000; stroke-linecap:round; stroke-linejoin:round; stroke-width:4; stroke-opacity:1; fill:none" points="156.598,1277.51 175.496,1277.51 "></polyline>
<polyline clip-path="url(#clip800)" style="stroke:#000000; stroke-linecap:round; stroke-linejoin:round; stroke-width:4; stroke-opacity:1; fill:none" points="156.598,981.59 175.496,981.59 "></polyline>
<polyline clip-path="url(#clip800)" style="stroke:#000000; stroke-linecap:round; stroke-linejoin:round; stroke-width:4; stroke-opacity:1; fill:none" points="156.598,685.668 175.496,685.668 "></polyline>
<polyline clip-path="url(#clip800)" style="stroke:#000000; stroke-linecap:round; stroke-linejoin:round; stroke-width:4; stroke-opacity:1; fill:none" points="156.598,389.747 175.496,389.747 "></polyline>
<polyline clip-path="url(#clip800)" style="stroke:#000000; stroke-linecap:round; stroke-linejoin:round; stroke-width:4; stroke-opacity:1; fill:none" points="156.598,93.8259 175.496,93.8259 "></polyline>
<path clip-path="url(#clip800)" d="M65.0198 1263.31 Q61.4087 1263.31 59.58 1266.87 Q57.7745 1270.42 57.7745 1277.55 Q57.7745 1284.65 59.58 1288.22 Q61.4087 1291.76 65.0198 1291.76 Q68.6541 1291.76 70.4596 1288.22 Q72.2883 1284.65 72.2883 1277.55 Q72.2883 1270.42 70.4596 1266.87 Q68.6541 1263.31 65.0198 1263.31 M65.0198 1259.61 Q70.83 1259.61 73.8855 1264.21 Q76.9642 1268.8 76.9642 1277.55 Q76.9642 1286.27 73.8855 1290.88 Q70.83 1295.46 65.0198 1295.46 Q59.2097 1295.46 56.131 1290.88 Q53.0754 1286.27 53.0754 1277.55 Q53.0754 1268.8 56.131 1264.21 Q59.2097 1259.61 65.0198 1259.61 Z" fill="#000000" fill-rule="nonzero" fill-opacity="1"></path><path clip-path="url(#clip800)" d="M85.1818 1288.91 L90.066 1288.91 L90.066 1294.79 L85.1818 1294.79 L85.1818 1288.91 Z" fill="#000000" fill-rule="nonzero" fill-opacity="1"></path><path clip-path="url(#clip800)" d="M104.279 1290.86 L120.598 1290.86 L120.598 1294.79 L98.6539 1294.79 L98.6539 1290.86 Q101.316 1288.1 105.899 1283.47 Q110.506 1278.82 111.686 1277.48 Q113.932 1274.95 114.811 1273.22 Q115.714 1271.46 115.714 1269.77 Q115.714 1267.01 113.77 1265.28 Q111.848 1263.54 108.746 1263.54 Q106.547 1263.54 104.094 1264.31 Q101.663 1265.07 98.8854 1266.62 L98.8854 1261.9 Q101.709 1260.76 104.163 1260.18 Q106.617 1259.61 108.654 1259.61 Q114.024 1259.61 117.219 1262.29 Q120.413 1264.98 120.413 1269.47 Q120.413 1271.6 119.603 1273.52 Q118.816 1275.42 116.709 1278.01 Q116.131 1278.68 113.029 1281.9 Q109.927 1285.09 104.279 1290.86 Z" fill="#000000" fill-rule="nonzero" fill-opacity="1"></path><path clip-path="url(#clip800)" d="M62.9365 967.388 Q59.3254 967.388 57.4967 970.953 Q55.6912 974.495 55.6912 981.624 Q55.6912 988.731 57.4967 992.296 Q59.3254 995.837 62.9365 995.837 Q66.5707 995.837 68.3763 992.296 Q70.205 988.731 70.205 981.624 Q70.205 974.495 68.3763 970.953 Q66.5707 967.388 62.9365 967.388 M62.9365 963.685 Q68.7467 963.685 71.8022 968.291 Q74.8809 972.875 74.8809 981.624 Q74.8809 990.351 71.8022 994.958 Q68.7467 999.541 62.9365 999.541 Q57.1264 999.541 54.0477 994.958 Q50.9921 990.351 50.9921 981.624 Q50.9921 972.875 54.0477 968.291 Q57.1264 963.685 62.9365 963.685 Z" fill="#000000" fill-rule="nonzero" fill-opacity="1"></path><path clip-path="url(#clip800)" d="M83.0984 992.99 L87.9827 992.99 L87.9827 998.87 L83.0984 998.87 L83.0984 992.99 Z" fill="#000000" fill-rule="nonzero" fill-opacity="1"></path><path clip-path="url(#clip800)" d="M111.015 968.384 L99.2095 986.833 L111.015 986.833 L111.015 968.384 M109.788 964.31 L115.668 964.31 L115.668 986.833 L120.598 986.833 L120.598 990.722 L115.668 990.722 L115.668 998.87 L111.015 998.87 L111.015 990.722 L95.4132 990.722 L95.4132 986.208 L109.788 964.31 Z" fill="#000000" fill-rule="nonzero" fill-opacity="1"></path><path clip-path="url(#clip800)" d="M63.2606 671.467 Q59.6495 671.467 57.8208 675.032 Q56.0152 678.574 56.0152 685.703 Q56.0152 692.81 57.8208 696.374 Q59.6495 699.916 63.2606 699.916 Q66.8948 699.916 68.7004 696.374 Q70.5291 692.81 70.5291 685.703 Q70.5291 678.574 68.7004 675.032 Q66.8948 671.467 63.2606 671.467 M63.2606 667.763 Q69.0707 667.763 72.1263 672.37 Q75.205 676.953 75.205 685.703 Q75.205 694.43 72.1263 699.036 Q69.0707 703.62 63.2606 703.62 Q57.4504 703.62 54.3717 699.036 Q51.3162 694.43 51.3162 685.703 Q51.3162 676.953 54.3717 672.37 Q57.4504 667.763 63.2606 667.763 Z" fill="#000000" fill-rule="nonzero" fill-opacity="1"></path><path clip-path="url(#clip800)" d="M83.4225 697.069 L88.3067 697.069 L88.3067 702.948 L83.4225 702.948 L83.4225 697.069 Z" fill="#000000" fill-rule="nonzero" fill-opacity="1"></path><path clip-path="url(#clip800)" d="M109.071 683.805 Q105.922 683.805 104.071 685.958 Q102.242 688.111 102.242 691.861 Q102.242 695.587 104.071 697.763 Q105.922 699.916 109.071 699.916 Q112.219 699.916 114.047 697.763 Q115.899 695.587 115.899 691.861 Q115.899 688.111 114.047 685.958 Q112.219 683.805 109.071 683.805 M118.353 669.152 L118.353 673.412 Q116.594 672.578 114.788 672.138 Q113.006 671.699 111.246 671.699 Q106.617 671.699 104.163 674.824 Q101.733 677.949 101.385 684.268 Q102.751 682.254 104.811 681.189 Q106.871 680.101 109.348 680.101 Q114.557 680.101 117.566 683.273 Q120.598 686.421 120.598 691.861 Q120.598 697.185 117.45 700.402 Q114.302 703.62 109.071 703.62 Q103.075 703.62 99.9039 699.036 Q96.7326 694.43 96.7326 685.703 Q96.7326 677.509 100.621 672.648 Q104.51 667.763 111.061 667.763 Q112.82 667.763 114.603 668.111 Q116.408 668.458 118.353 669.152 Z" fill="#000000" fill-rule="nonzero" fill-opacity="1"></path><path clip-path="url(#clip800)" d="M63.5152 375.546 Q59.9041 375.546 58.0754 379.111 Q56.2699 382.652 56.2699 389.782 Q56.2699 396.888 58.0754 400.453 Q59.9041 403.995 63.5152 403.995 Q67.1494 403.995 68.955 400.453 Q70.7837 396.888 70.7837 389.782 Q70.7837 382.652 68.955 379.111 Q67.1494 375.546 63.5152 375.546 M63.5152 371.842 Q69.3254 371.842 72.3809 376.449 Q75.4596 381.032 75.4596 389.782 Q75.4596 398.509 72.3809 403.115 Q69.3254 407.698 63.5152 407.698 Q57.7051 407.698 54.6264 403.115 Q51.5708 398.509 51.5708 389.782 Q51.5708 381.032 54.6264 376.449 Q57.7051 371.842 63.5152 371.842 Z" fill="#000000" fill-rule="nonzero" fill-opacity="1"></path><path clip-path="url(#clip800)" d="M83.6771 401.148 L88.5614 401.148 L88.5614 407.027 L83.6771 407.027 L83.6771 401.148 Z" fill="#000000" fill-rule="nonzero" fill-opacity="1"></path><path clip-path="url(#clip800)" d="M108.746 390.615 Q105.413 390.615 103.492 392.398 Q101.594 394.18 101.594 397.305 Q101.594 400.43 103.492 402.212 Q105.413 403.995 108.746 403.995 Q112.08 403.995 114.001 402.212 Q115.922 400.407 115.922 397.305 Q115.922 394.18 114.001 392.398 Q112.103 390.615 108.746 390.615 M104.071 388.624 Q101.061 387.884 99.3715 385.824 Q97.7048 383.763 97.7048 380.8 Q97.7048 376.657 100.645 374.25 Q103.608 371.842 108.746 371.842 Q113.908 371.842 116.848 374.25 Q119.788 376.657 119.788 380.8 Q119.788 383.763 118.098 385.824 Q116.432 387.884 113.445 388.624 Q116.825 389.412 118.7 391.703 Q120.598 393.995 120.598 397.305 Q120.598 402.328 117.52 405.013 Q114.464 407.698 108.746 407.698 Q103.029 407.698 99.9502 405.013 Q96.8947 402.328 96.8947 397.305 Q96.8947 393.995 98.7928 391.703 Q100.691 389.412 104.071 388.624 M102.358 381.24 Q102.358 383.925 104.024 385.43 Q105.714 386.935 108.746 386.935 Q111.756 386.935 113.445 385.43 Q115.158 383.925 115.158 381.24 Q115.158 378.555 113.445 377.05 Q111.756 375.546 108.746 375.546 Q105.714 375.546 104.024 377.05 Q102.358 378.555 102.358 381.24 Z" fill="#000000" fill-rule="nonzero" fill-opacity="1"></path><path clip-path="url(#clip800)" d="M54.2328 107.171 L61.8717 107.171 L61.8717 80.8051 L53.5616 82.4718 L53.5616 78.2125 L61.8254 76.5459 L66.5013 76.5459 L66.5013 107.171 L74.1402 107.171 L74.1402 111.106 L54.2328 111.106 L54.2328 107.171 Z" fill="#000000" fill-rule="nonzero" fill-opacity="1"></path><path clip-path="url(#clip800)" d="M83.5845 105.226 L88.4688 105.226 L88.4688 111.106 L83.5845 111.106 L83.5845 105.226 Z" fill="#000000" fill-rule="nonzero" fill-opacity="1"></path><path clip-path="url(#clip800)" d="M108.654 79.6246 Q105.043 79.6246 103.214 83.1894 Q101.409 86.731 101.409 93.8606 Q101.409 100.967 103.214 104.532 Q105.043 108.073 108.654 108.073 Q112.288 108.073 114.094 104.532 Q115.922 100.967 115.922 93.8606 Q115.922 86.731 114.094 83.1894 Q112.288 79.6246 108.654 79.6246 M108.654 75.9209 Q114.464 75.9209 117.52 80.5273 Q120.598 85.1106 120.598 93.8606 Q120.598 102.587 117.52 107.194 Q114.464 111.777 108.654 111.777 Q102.844 111.777 99.765 107.194 Q96.7095 102.587 96.7095 93.8606 Q96.7095 85.1106 99.765 80.5273 Q102.844 75.9209 108.654 75.9209 Z" fill="#000000" fill-rule="nonzero" fill-opacity="1"></path><polyline clip-path="url(#clip802)" style="stroke:#009af9; stroke-linecap:round; stroke-linejoin:round; stroke-width:4; stroke-opacity:1; fill:none" points="218.754,93.8259 221.991,93.8259 225.228,93.8258 228.465,93.8259 231.703,93.8259 234.94,93.8259 238.177,93.8259 241.414,93.8259 244.652,93.8259 247.889,93.8259 251.126,93.8259 "></polyline>
<polyline clip-path="url(#clip802)" style="stroke:#e26f46; stroke-linecap:round; stroke-linejoin:round; stroke-width:4; stroke-opacity:1; fill:none" points="251.126,93.8258 254.364,93.8259 257.601,93.8258 260.838,93.8259 264.075,93.8259 267.313,93.8259 270.55,93.8258 273.787,93.8259 277.024,93.826 280.262,93.8257 283.499,93.826 "></polyline>
<polyline clip-path="url(#clip802)" style="stroke:#3da44d; stroke-linecap:round; stroke-linejoin:round; stroke-width:4; stroke-opacity:1; fill:none" points="283.499,93.8261 286.736,93.826 289.973,93.8257 293.211,93.8257 296.448,93.8261 299.685,93.826 302.922,93.8255 306.16,93.8256 309.397,93.8265 312.634,93.8259 315.871,93.8255 "></polyline>
<polyline clip-path="url(#clip802)" style="stroke:#c271d2; stroke-linecap:round; stroke-linejoin:round; stroke-width:4; stroke-opacity:1; fill:none" points="315.871,93.8261 319.109,93.8261 322.346,93.8265 325.583,93.8256 328.821,93.8252 332.058,93.826 335.295,93.8269 338.532,93.8263 341.77,93.8243 345.007,93.8238 348.244,93.8294 "></polyline>
<polyline clip-path="url(#clip802)" style="stroke:#ac8d18; stroke-linecap:round; stroke-linejoin:round; stroke-width:4; stroke-opacity:1; fill:none" points="348.244,93.829 351.481,93.8296 354.719,93.8186 357.956,93.8219 361.193,93.834 364.43,93.8336 367.668,93.8171 370.905,93.8089 374.142,93.8339 377.379,93.8659 380.617,93.7914 "></polyline>
<polyline clip-path="url(#clip802)" style="stroke:#00a9ad; stroke-linecap:round; stroke-linejoin:round; stroke-width:4; stroke-opacity:1; fill:none" points="380.617,93.796 383.854,93.7632 387.091,93.8406 390.328,93.9175 393.566,93.8367 396.803,93.6961 400.04,93.7345 403.278,93.9949 406.515,94.0974 409.752,93.5836 412.989,93.4341 "></polyline>
<polyline clip-path="url(#clip802)" style="stroke:#ed5d92; stroke-linecap:round; stroke-linejoin:round; stroke-width:4; stroke-opacity:1; fill:none" points="412.989,93.3922 416.227,94.0319 419.464,94.7036 422.701,93.7551 425.938,92.3877 429.176,92.6336 432.413,94.5783 435.65,95.725 438.887,93.322 442.125,88.4008 445.362,88.2012 "></polyline>
<polyline clip-path="url(#clip802)" style="stroke:#c68125; stroke-linecap:round; stroke-linejoin:round; stroke-width:4; stroke-opacity:1; fill:none" points="445.362,87.9763 448.599,92.2863 451.836,100.176 455.074,107.962 458.311,115.415 461.548,122.736 464.785,130.165 468.023,137.925 471.26,145.771 474.497,152.95 477.734,160.985 "></polyline>
<polyline clip-path="url(#clip802)" style="stroke:#00a98d; stroke-linecap:round; stroke-linejoin:round; stroke-width:4; stroke-opacity:1; fill:none" points="477.734,160.843 480.972,168.305 484.209,176.093 487.446,183.334 490.684,190.678 493.921,198.131 497.158,205.254 500.395,211.989 503.633,218.948 506.87,226.552 510.107,233.001 "></polyline>
<polyline clip-path="url(#clip802)" style="stroke:#8e971d; stroke-linecap:round; stroke-linejoin:round; stroke-width:4; stroke-opacity:1; fill:none" points="510.107,233.096 513.344,239.642 516.582,246.616 519.819,255 523.056,263.335 526.293,270.79 529.531,277.513 532.768,284.084 536.005,291.025 539.242,298.476 542.48,305.35 "></polyline>
<polyline clip-path="url(#clip802)" style="stroke:#00a8cb; stroke-linecap:round; stroke-linejoin:round; stroke-width:4; stroke-opacity:1; fill:none" points="542.48,305.374 545.717,312.756 548.954,320.129 552.191,327.13 555.429,333.598 558.666,339.737 561.903,346.056 565.141,352.951 568.378,360.167 571.615,366.831 574.852,373.156 "></polyline>
<polyline clip-path="url(#clip802)" style="stroke:#9b7fe8; stroke-linecap:round; stroke-linejoin:round; stroke-width:4; stroke-opacity:1; fill:none" points="574.852,373.143 578.09,379.304 581.327,385.641 584.564,392.592 587.801,399.638 591.039,406.043 594.276,411.984 597.513,418.348 600.75,425.217 603.988,430.87 607.225,434.868 "></polyline>
<polyline clip-path="url(#clip802)" style="stroke:#608cf6; stroke-linecap:round; stroke-linejoin:round; stroke-width:4; stroke-opacity:1; fill:none" points="607.225,434.917 610.462,444.475 613.699,449.138 616.937,455.499 620.174,462.722 623.411,467.714 626.648,472.524 629.886,482.875 633.123,498.774 636.36,510.181 639.598,522.721 "></polyline>
<polyline clip-path="url(#clip802)" style="stroke:#f05f73; stroke-linecap:round; stroke-linejoin:round; stroke-width:4; stroke-opacity:1; fill:none" points="639.598,522.782 642.835,518.839 646.072,527.228 649.309,537.048 652.547,541.485 655.784,543.839 659.021,548.983 662.258,556.412 665.496,562.181 668.733,568.198 671.97,588.495 "></polyline>
<polyline clip-path="url(#clip802)" style="stroke:#dd64b5; stroke-linecap:round; stroke-linejoin:round; stroke-width:4; stroke-opacity:1; fill:none" points="671.97,589.118 675.207,576.7 678.445,586.732 681.682,589.195 684.919,590.589 688.156,596.928 691.394,605.674 694.631,611.983 697.868,616.508 701.105,623.872 704.343,622.784 "></polyline>
<polyline clip-path="url(#clip802)" style="stroke:#6b9e32; stroke-linecap:round; stroke-linejoin:round; stroke-width:4; stroke-opacity:1; fill:none" points="704.343,622.383 707.58,633.093 710.817,638.711 714.055,643.84 717.292,648.843 720.529,654.351 723.766,660.415 727.004,665.273 730.241,666.708 733.478,667.055 736.715,680.908 "></polyline>
<polyline clip-path="url(#clip802)" style="stroke:#009af9; stroke-linecap:round; stroke-linejoin:round; stroke-width:4; stroke-opacity:1; fill:none" points="736.715,681.56 739.953,681.613 743.19,679.607 746.427,683.944 749.664,700.496 752.902,717.63 756.139,723.178 759.376,719.433 762.613,720.014 765.851,730.316 769.088,731.077 "></polyline>
<polyline clip-path="url(#clip802)" style="stroke:#e26f46; stroke-linecap:round; stroke-linejoin:round; stroke-width:4; stroke-opacity:1; fill:none" points="769.088,729.854 772.325,726.294 775.562,714.657 778.8,715.54 782.037,709.89 785.274,702.597 788.512,708.792 791.749,726.767 794.986,734.159 798.223,716.817 801.461,712.508 "></polyline>
<polyline clip-path="url(#clip802)" style="stroke:#3da44d; stroke-linecap:round; stroke-linejoin:round; stroke-width:4; stroke-opacity:1; fill:none" points="801.461,713.62 804.698,711.582 807.935,707.257 811.172,704.347 814.41,716.351 817.647,729.895 820.884,727.553 824.121,712.394 827.359,705.047 830.596,712.628 833.833,697.416 "></polyline>
<polyline clip-path="url(#clip802)" style="stroke:#c271d2; stroke-linecap:round; stroke-linejoin:round; stroke-width:4; stroke-opacity:1; fill:none" points="833.833,695.29 837.07,708.822 840.308,716.561 843.545,732.156 846.782,729.135 850.019,714.582 853.257,706.732 856.494,707.415 859.731,707.722 862.969,712.746 866.206,718.716 "></polyline>
<polyline clip-path="url(#clip802)" style="stroke:#ac8d18; stroke-linecap:round; stroke-linejoin:round; stroke-width:4; stroke-opacity:1; fill:none" points="866.206,718.35 869.443,735.644 872.68,726.175 875.918,705.368 879.155,702.83 882.392,710.144 885.629,711.506 888.867,711.33 892.104,723.447 895.341,737.056 898.578,725.068 "></polyline>
<polyline clip-path="url(#clip802)" style="stroke:#00a9ad; stroke-linecap:round; stroke-linejoin:round; stroke-width:4; stroke-opacity:1; fill:none" points="898.578,725.596 901.816,700.229 905.053,706.238 908.29,710.872 911.527,709.156 914.765,715.429 918.002,730.502 921.239,734.677 924.476,715.632 927.714,698.894 930.951,707.364 "></polyline>
<polyline clip-path="url(#clip802)" style="stroke:#ed5d92; stroke-linecap:round; stroke-linejoin:round; stroke-width:4; stroke-opacity:1; fill:none" points="930.951,707.367 934.188,709.941 937.426,711.184 940.663,719.997 943.9,732.699 947.137,730.653 950.375,712.495 953.612,699.723 956.849,705.665 960.086,709.173 963.324,725.672 "></polyline>
<polyline clip-path="url(#clip802)" style="stroke:#c68125; stroke-linecap:round; stroke-linejoin:round; stroke-width:4; stroke-opacity:1; fill:none" points="963.324,727.861 966.561,720.168 969.798,732.817 973.035,728.813 976.273,709.894 979.51,698.124 982.747,703.404 985.984,714.408 989.222,718.378 992.459,723.232 995.696,723.374 "></polyline>
<polyline clip-path="url(#clip802)" style="stroke:#00a98d; stroke-linecap:round; stroke-linejoin:round; stroke-width:4; stroke-opacity:1; fill:none" points="995.696,720.926 998.933,730.328 1002.17,699.757 1005.41,697.344 1008.65,708.612 1011.88,715.069 1015.12,718.088 1018.36,727.021 1021.59,736.349 1024.83,722.539 1028.07,697.113 "></polyline>
<polyline clip-path="url(#clip802)" style="stroke:#8e971d; stroke-linecap:round; stroke-linejoin:round; stroke-width:4; stroke-opacity:1; fill:none" points="1028.07,697.769 1031.31,698.996 1034.54,710.015 1037.78,714.714 1041.02,721.958 1044.26,732.239 1047.49,732.969 1050.73,715.532 1053.97,695.009 1057.2,701.354 1060.44,698.607 "></polyline>
<polyline clip-path="url(#clip802)" style="stroke:#00a8cb; stroke-linecap:round; stroke-linejoin:round; stroke-width:4; stroke-opacity:1; fill:none" points="1060.44,696.39 1063.68,719.462 1066.92,725.27 1070.15,732.001 1073.39,727.551 1076.63,712.1 1079.86,698.958 1083.1,699.358 1086.34,710.654 1089.58,721.145 1092.81,738.553 "></polyline>
<polyline clip-path="url(#clip802)" style="stroke:#9b7fe8; stroke-linecap:round; stroke-linejoin:round; stroke-width:4; stroke-opacity:1; fill:none" points="1092.81,740.682 1096.05,725.978 1099.29,730.837 1102.53,709.202 1105.76,694.162 1109,700.414 1112.24,716.187 1115.47,725.836 1118.71,726.871 1121.95,727.706 1125.19,734.961 "></polyline>
<polyline clip-path="url(#clip802)" style="stroke:#608cf6; stroke-linecap:round; stroke-linejoin:round; stroke-width:4; stroke-opacity:1; fill:none" points="1125.19,736.01 1128.42,696.16 1131.66,692.755 1134.9,709.095 1138.14,721.621 1141.37,724.146 1144.61,724.704 1147.85,728.448 1151.08,724.579 1154.32,699.892 1157.56,706.063 "></polyline>
<polyline clip-path="url(#clip802)" style="stroke:#f05f73; stroke-linecap:round; stroke-linejoin:round; stroke-width:4; stroke-opacity:1; fill:none" points="1157.56,710.472 1160.8,705.431 1164.03,710.821 1167.27,718.361 1170.51,735.158 1173.75,746.246 1176.98,732.434 1180.22,695.781 1183.46,664.506 1186.69,668.727 1189.93,697.916 "></polyline>
<polyline clip-path="url(#clip802)" style="stroke:#dd64b5; stroke-linecap:round; stroke-linejoin:round; stroke-width:4; stroke-opacity:1; fill:none" points="1189.93,693.946 1193.17,829.253 1196.41,939.139 1199.64,1045.71 1202.88,1099.65 1206.12,1091.89 1209.36,1060.23 1212.59,1047.89 1215.83,1062.13 1219.07,1072.2 1222.3,1077.32 "></polyline>
<polyline clip-path="url(#clip802)" style="stroke:#6b9e32; stroke-linecap:round; stroke-linejoin:round; stroke-width:4; stroke-opacity:1; fill:none" points="1222.3,1076.58 1225.54,1080.53 1228.78,1067.72 1232.02,1073.81 1235.25,1080.8 1238.49,1074.59 1241.73,1061.35 1244.97,1056.39 1248.2,1063.6 1251.44,1068.64 1254.68,1073.17 "></polyline>
<polyline clip-path="url(#clip802)" style="stroke:#009af9; stroke-linecap:round; stroke-linejoin:round; stroke-width:4; stroke-opacity:1; fill:none" points="1254.68,1073.01 1257.91,1083.74 1261.15,1072.78 1264.39,1074.78 1267.63,1077.92 1270.86,1071.8 1274.1,1061.06 1277.34,1057.27 1280.58,1063.65 1283.81,1069.25 1287.05,1071.26 "></polyline>
<polyline clip-path="url(#clip802)" style="stroke:#e26f46; stroke-linecap:round; stroke-linejoin:round; stroke-width:4; stroke-opacity:1; fill:none" points="1287.05,1071.33 1290.29,1084.14 1293.52,1073.03 1296.76,1073.9 1300,1077.54 1303.24,1073.15 1306.47,1062.81 1309.71,1056.81 1312.95,1061.1 1316.19,1068.93 1319.42,1070.37 "></polyline>
<polyline clip-path="url(#clip802)" style="stroke:#3da44d; stroke-linecap:round; stroke-linejoin:round; stroke-width:4; stroke-opacity:1; fill:none" points="1319.42,1070.14 1322.66,1084.12 1325.9,1072.96 1329.13,1074.08 1332.37,1077.91 1335.61,1074.18 1338.85,1064.52 1342.08,1057.7 1345.32,1059.7 1348.56,1067.17 1351.79,1069.06 "></polyline>
<polyline clip-path="url(#clip802)" style="stroke:#c271d2; stroke-linecap:round; stroke-linejoin:round; stroke-width:4; stroke-opacity:1; fill:none" points="1351.79,1069.39 1355.03,1084.41 1358.27,1073.63 1361.51,1072.85 1364.74,1077.14 1367.98,1075.92 1371.22,1067.14 1374.46,1057.94 1377.69,1057.53 1380.93,1066.89 1384.17,1068.88 "></polyline>
<polyline clip-path="url(#clip802)" style="stroke:#ac8d18; stroke-linecap:round; stroke-linejoin:round; stroke-width:4; stroke-opacity:1; fill:none" points="1384.17,1068.17 1387.4,1082.72 1390.64,1072.26 1393.88,1074.15 1397.12,1077.85 1400.35,1075.16 1403.59,1067.65 1406.83,1060.53 1410.07,1058.2 1413.3,1063.35 1416.54,1067.5 "></polyline>
<polyline clip-path="url(#clip802)" style="stroke:#00a9ad; stroke-linecap:round; stroke-linejoin:round; stroke-width:4; stroke-opacity:1; fill:none" points="1416.54,1068.36 1419.78,1085.27 1423.01,1074.58 1426.25,1071.41 1429.49,1075.94 1432.73,1077.85 1435.96,1070.93 1439.2,1059.25 1442.44,1054.84 1445.68,1065.16 1448.91,1067.17 "></polyline>
<polyline clip-path="url(#clip802)" style="stroke:#ed5d92; stroke-linecap:round; stroke-linejoin:round; stroke-width:4; stroke-opacity:1; fill:none" points="1448.91,1065.03 1452.15,1081.21 1455.39,1071.22 1458.62,1076.57 1461.86,1078.89 1465.1,1073.69 1468.34,1068.36 1471.57,1065.25 1474.81,1060.19 1478.05,1056.34 1481.29,1063.11 "></polyline>
<polyline clip-path="url(#clip802)" style="stroke:#c68125; stroke-linecap:round; stroke-linejoin:round; stroke-width:4; stroke-opacity:1; fill:none" points="1481.29,1069.28 1484.52,1088.49 1487.76,1077.69 1491,1067.51 1494.23,1072.21 1497.47,1082.17 1500.71,1079.47 1503.95,1060.08 1507.18,1045.28 1510.42,1064.24 1513.66,1088.66 "></polyline>
<polyline clip-path="url(#clip802)" style="stroke:#00a98d; stroke-linecap:round; stroke-linejoin:round; stroke-width:4; stroke-opacity:1; fill:none" points="1513.66,1019.7 1516.9,1062.63 1520.13,1020.1 1523.37,1209.46 1526.61,1360.05 1529.84,1370.1 1533.08,1343.62 1536.32,1378.36 1539.56,1423.33 1542.79,1371.54 1546.03,1401.06 "></polyline>
<polyline clip-path="url(#clip802)" style="stroke:#8e971d; stroke-linecap:round; stroke-linejoin:round; stroke-width:4; stroke-opacity:1; fill:none" points="1546.03,1445.72 1549.27,1387.99 1552.51,1384.84 1555.74,1389.62 1558.98,1389.54 1562.22,1387.69 1565.45,1387.94 1568.69,1389.14 1571.93,1388.6 1575.17,1387.98 1578.4,1388.22 "></polyline>
<polyline clip-path="url(#clip802)" style="stroke:#00a8cb; stroke-linecap:round; stroke-linejoin:round; stroke-width:4; stroke-opacity:1; fill:none" points="1578.4,1388.42 1581.64,1388.55 1584.88,1388.4 1588.11,1388.48 1591.35,1388.52 1594.59,1388.48 1597.83,1388.45 1601.06,1388.49 1604.3,1388.5 1607.54,1388.46 1610.78,1388.5 "></polyline>
<polyline clip-path="url(#clip802)" style="stroke:#9b7fe8; stroke-linecap:round; stroke-linejoin:round; stroke-width:4; stroke-opacity:1; fill:none" points="1610.78,1388.52 1614.01,1388.48 1617.25,1388.48 1620.49,1388.48 1623.72,1388.48 1626.96,1388.48 1630.2,1388.48 1633.44,1388.48 1636.67,1388.48 1639.91,1388.48 1643.15,1388.48 "></polyline>
<polyline clip-path="url(#clip802)" style="stroke:#608cf6; stroke-linecap:round; stroke-linejoin:round; stroke-width:4; stroke-opacity:1; fill:none" points="1643.15,1388.48 1646.39,1388.48 1649.62,1388.48 1652.86,1388.48 1656.1,1388.48 1659.33,1388.48 1662.57,1388.48 1665.81,1388.48 1669.05,1388.48 1672.28,1388.48 1675.52,1388.48 "></polyline>
<polyline clip-path="url(#clip802)" style="stroke:#f05f73; stroke-linecap:round; stroke-linejoin:round; stroke-width:4; stroke-opacity:1; fill:none" points="1675.52,1388.48 1678.76,1388.48 1682,1388.48 1685.23,1388.48 1688.47,1388.48 1691.71,1388.48 1694.94,1388.48 1698.18,1388.48 1701.42,1388.48 1704.66,1388.48 1707.89,1388.48 "></polyline>
<polyline clip-path="url(#clip802)" style="stroke:#dd64b5; stroke-linecap:round; stroke-linejoin:round; stroke-width:4; stroke-opacity:1; fill:none" points="1707.89,1388.48 1711.13,1388.48 1714.37,1388.48 1717.61,1388.48 1720.84,1388.48 1724.08,1388.48 1727.32,1388.48 1730.55,1388.48 1733.79,1388.48 1737.03,1388.48 1740.27,1388.48 "></polyline>
<polyline clip-path="url(#clip802)" style="stroke:#6b9e32; stroke-linecap:round; stroke-linejoin:round; stroke-width:4; stroke-opacity:1; fill:none" points="1740.27,1388.48 1743.5,1388.48 1746.74,1388.48 1749.98,1388.48 1753.22,1388.48 1756.45,1388.48 1759.69,1388.48 1762.93,1388.48 1766.16,1388.48 1769.4,1388.48 1772.64,1388.48 "></polyline>
<polyline clip-path="url(#clip802)" style="stroke:#009af9; stroke-linecap:round; stroke-linejoin:round; stroke-width:4; stroke-opacity:1; fill:none" points="1772.64,1388.48 1775.88,1388.48 1779.11,1388.48 1782.35,1388.48 1785.59,1388.48 1788.83,1388.48 1792.06,1388.48 1795.3,1388.48 1798.54,1388.48 1801.77,1388.48 1805.01,1388.48 "></polyline>
<polyline clip-path="url(#clip802)" style="stroke:#e26f46; stroke-linecap:round; stroke-linejoin:round; stroke-width:4; stroke-opacity:1; fill:none" points="1805.01,1388.48 1808.25,1388.48 1811.49,1388.48 1814.72,1388.48 1817.96,1388.48 1821.2,1388.48 1824.43,1388.48 1827.67,1388.48 1830.91,1388.48 1834.15,1388.48 1837.38,1388.48 "></polyline>
<polyline clip-path="url(#clip802)" style="stroke:#3da44d; stroke-linecap:round; stroke-linejoin:round; stroke-width:4; stroke-opacity:1; fill:none" points="1837.38,1388.48 1840.62,1388.48 1843.86,1388.48 1847.1,1388.48 1850.33,1388.48 1853.57,1388.48 1856.81,1388.48 1860.04,1388.48 1863.28,1388.48 1866.52,1388.48 1869.76,1388.48 "></polyline>
<polyline clip-path="url(#clip802)" style="stroke:#c271d2; stroke-linecap:round; stroke-linejoin:round; stroke-width:4; stroke-opacity:1; fill:none" points="1869.76,1388.48 1872.99,1388.48 1876.23,1388.48 1879.47,1388.48 1882.71,1388.48 1885.94,1388.48 1889.18,1388.48 1892.42,1388.48 1895.65,1388.48 1898.89,1388.48 1902.13,1388.48 "></polyline>
<polyline clip-path="url(#clip802)" style="stroke:#ac8d18; stroke-linecap:round; stroke-linejoin:round; stroke-width:4; stroke-opacity:1; fill:none" points="1902.13,1388.48 1905.37,1388.48 1908.6,1388.48 1911.84,1388.48 1915.08,1388.48 1918.32,1388.48 1921.55,1388.48 1924.79,1388.48 1928.03,1388.48 1931.26,1388.48 1934.5,1388.48 "></polyline>
<polyline clip-path="url(#clip802)" style="stroke:#00a9ad; stroke-linecap:round; stroke-linejoin:round; stroke-width:4; stroke-opacity:1; fill:none" points="1934.5,1388.48 1937.74,1388.48 1940.98,1388.48 1944.21,1388.48 1947.45,1388.48 1950.69,1388.48 1953.93,1388.48 1957.16,1388.48 1960.4,1388.48 1963.64,1388.48 1966.87,1388.48 "></polyline>
<polyline clip-path="url(#clip802)" style="stroke:#ed5d92; stroke-linecap:round; stroke-linejoin:round; stroke-width:4; stroke-opacity:1; fill:none" points="1966.87,1388.48 1970.11,1388.48 1973.35,1388.48 1976.59,1388.48 1979.82,1388.48 1983.06,1388.48 1986.3,1388.48 1989.54,1388.48 1992.77,1388.48 1996.01,1388.48 1999.25,1388.48 "></polyline>
<polyline clip-path="url(#clip802)" style="stroke:#c68125; stroke-linecap:round; stroke-linejoin:round; stroke-width:4; stroke-opacity:1; fill:none" points="1999.25,1388.48 2002.48,1388.48 2005.72,1388.48 2008.96,1388.48 2012.2,1388.48 2015.43,1388.48 2018.67,1388.48 2021.91,1388.48 2025.15,1388.48 2028.38,1388.48 2031.62,1388.48 "></polyline>
<polyline clip-path="url(#clip802)" style="stroke:#00a98d; stroke-linecap:round; stroke-linejoin:round; stroke-width:4; stroke-opacity:1; fill:none" points="2031.62,1388.48 2034.86,1388.48 2038.09,1388.48 2041.33,1388.48 2044.57,1388.48 2047.81,1388.48 2051.04,1388.48 2054.28,1388.48 2057.52,1388.48 2060.75,1388.48 2063.99,1388.48 "></polyline>
<polyline clip-path="url(#clip802)" style="stroke:#8e971d; stroke-linecap:round; stroke-linejoin:round; stroke-width:4; stroke-opacity:1; fill:none" points="2063.99,1388.48 2067.23,1388.48 2070.47,1388.48 2073.7,1388.48 2076.94,1388.48 2080.18,1388.48 2083.42,1388.48 2086.65,1388.48 2089.89,1388.48 2093.13,1388.48 2096.36,1388.48 "></polyline>
<polyline clip-path="url(#clip802)" style="stroke:#00a8cb; stroke-linecap:round; stroke-linejoin:round; stroke-width:4; stroke-opacity:1; fill:none" points="2096.36,1388.48 2099.6,1388.48 2102.84,1388.48 2106.08,1388.48 2109.31,1388.48 2112.55,1388.48 2115.79,1388.48 2119.03,1388.48 2122.26,1388.48 2125.5,1388.48 2128.74,1388.48 "></polyline>
<polyline clip-path="url(#clip802)" style="stroke:#9b7fe8; stroke-linecap:round; stroke-linejoin:round; stroke-width:4; stroke-opacity:1; fill:none" points="2128.74,1388.48 2131.97,1388.48 2135.21,1388.48 2138.45,1388.48 2141.69,1388.48 2144.92,1388.48 2148.16,1388.48 2151.4,1388.48 2154.64,1388.48 2157.87,1388.48 2161.11,1388.48 "></polyline>
<polyline clip-path="url(#clip802)" style="stroke:#608cf6; stroke-linecap:round; stroke-linejoin:round; stroke-width:4; stroke-opacity:1; fill:none" points="2161.11,1388.48 2164.35,1388.48 2167.58,1388.48 2170.82,1388.48 2174.06,1388.48 2177.3,1388.48 2180.53,1388.48 2183.77,1388.48 2187.01,1388.48 2190.25,1388.48 2193.48,1388.48 "></polyline>
<polyline clip-path="url(#clip802)" style="stroke:#f05f73; stroke-linecap:round; stroke-linejoin:round; stroke-width:4; stroke-opacity:1; fill:none" points="2193.48,1388.48 2196.72,1388.48 2199.96,1388.48 2203.19,1388.48 2206.43,1388.48 2209.67,1388.48 2212.91,1388.48 2216.14,1388.48 2219.38,1388.48 2222.62,1388.48 2225.86,1388.48 "></polyline>
<polyline clip-path="url(#clip802)" style="stroke:#dd64b5; stroke-linecap:round; stroke-linejoin:round; stroke-width:4; stroke-opacity:1; fill:none" points="2225.86,1388.48 2229.09,1388.48 2232.33,1388.48 2235.57,1388.48 2238.8,1388.48 2242.04,1388.48 2245.28,1388.48 2248.52,1388.48 2251.75,1388.48 2254.99,1388.48 2258.23,1388.48 "></polyline>
<polyline clip-path="url(#clip802)" style="stroke:#6b9e32; stroke-linecap:round; stroke-linejoin:round; stroke-width:4; stroke-opacity:1; fill:none" points="2258.23,1388.48 2261.47,1388.48 2264.7,1388.48 2267.94,1388.48 2271.18,1388.48 2274.41,1388.48 2277.65,1388.48 2280.89,1388.48 2284.13,1388.48 2287.36,1388.48 2290.6,1388.48 "></polyline>
</svg>