<svg xmlns="http://www.w3.org/2000/svg" xmlns:xlink="http://www.w3.org/1999/xlink" width="600" height="400" viewBox="0 0 2400 1600">
<defs>
  <clipPath id="clip840">
    <rect x="0" y="0" width="2400" height="1600"></rect>
  </clipPath>
</defs>
<path clip-path="url(#clip840)" d="M0 1600 L2400 1600 L2400 0 L0 0  Z" fill="#ffffff" fill-rule="evenodd" fill-opacity="1"></path>
<defs>
  <clipPath id="clip841">
    <rect x="480" y="0" width="1681" height="1600"></rect>
  </clipPath>
</defs>
<path clip-path="url(#clip840)" d="M156.598 1486.45 L2352.76 1486.45 L2352.76 47.2441 L156.598 47.2441  Z" fill="#ffffff" fill-rule="evenodd" fill-opacity="1"></path>
<defs>
  <clipPath id="clip842">
    <rect x="156" y="47" width="2197" height="1440"></rect>
  </clipPath>
</defs>
<polyline clip-path="url(#clip842)" style="stroke:#000000; stroke-linecap:round; stroke-linejoin:round; stroke-width:2; stroke-opacity:0.1; fill:none" points="218.754,1486.45 218.754,47.2441 "></polyline>
<polyline clip-path="url(#clip842)" style="stroke:#000000; stroke-linecap:round; stroke-linejoin:round; stroke-width:2; stroke-opacity:0.1; fill:none" points="736.715,1486.45 736.715,47.2441 "></polyline>
<polyline clip-path="url(#clip842)" style="stroke:#000000; stroke-linecap:round; stroke-linejoin:round; stroke-width:2; stroke-opacity:0.1; fill:none" points="1254.68,1486.45 1254.68,47.2441 "></polyline>
<polyline clip-path="url(#clip842)" style="stroke:#000000; stroke-linecap:round; stroke-linejoin:round; stroke-width:2; stroke-opacity:0.1; fill:none" points="1772.64,1486.45 1772.64,47.2441 "></polyline>
<polyline clip-path="url(#clip842)" style="stroke:#000000; stroke-linecap:round; stroke-linejoin:round; stroke-width:2; stroke-opacity:0.1; fill:none" points="2290.6,1486.45 2290.6,47.2441 "></polyline>
<polyline clip-path="url(#clip840)" style="stroke:#000000; stroke-linecap:round; stroke-linejoin:round; stroke-width:4; stroke-opacity:1; fill:none" points="156.598,1486.45 2352.76,1486.45 "></polyline>
<polyline clip-path="url(#clip840)" style="stroke:#000000; stroke-linecap:round; stroke-linejoin:round; stroke-width:4; stroke-opacity:1; fill:none" points="218.754,1486.45 218.754,1467.55 "></polyline>
<polyline clip-path="url(#clip840)" style="stroke:#000000; stroke-linecap:round; stroke-linejoin:round; stroke-width:4; stroke-opacity:1; fill:none" points="736.715,1486.45 736.715,1467.55 "></polyline>
<polyline clip-path="url(#clip840)" style="stroke:#000000; stroke-linecap:round; stroke-linejoin:round; stroke-width:4; stroke-opacity:1; fill:none" points="1254.68,1486.45 1254.68,1467.55 "></polyline>
<polyline clip-path="url(#clip840)" style="stroke:#000000; stroke-linecap:round; stroke-linejoin:round; stroke-width:4; stroke-opacity:1; fill:none" points="1772.64,1486.45 1772.64,1467.55 "></polyline>
<polyline clip-path="url(#clip840)" style="stroke:#000000; stroke-linecap:round; stroke-linejoin:round; stroke-width:4; stroke-opacity:1; fill:none" points="2290.6,1486.45 2290.6,1467.55 "></polyline>
<path clip-path="url(#clip840)" d="M181.057 1517.37 Q177.446 1517.37 175.617 1520.93 Q173.812 1524.47 173.812 1531.6 Q173.812 1538.71 175.617 1542.27 Q177.446 1545.82 181.057 1545.82 Q184.691 1545.82 186.497 1542.27 Q188.326 1538.71 188.326 1531.6 Q188.326 1524.47 186.497 1520.93 Q184.691 1517.37 181.057 1517.37 M181.057 1513.66 Q186.867 1513.66 189.923 1518.27 Q193.001 1522.85 193.001 1531.6 Q193.001 1540.33 189.923 1544.94 Q186.867 1549.52 181.057 1549.52 Q175.247 1549.52 172.168 1544.94 Q169.113 1540.33 169.113 1531.6 Q169.113 1522.85 172.168 1518.27 Q175.247 1513.66 181.057 1513.66 Z" fill="#000000" fill-rule="nonzero" fill-opacity="1"></path><path clip-path="url(#clip840)" d="M201.219 1542.97 L206.103 1542.97 L206.103 1548.85 L201.219 1548.85 L201.219 1542.97 Z" fill="#000000" fill-rule="nonzero" fill-opacity="1"></path><path clip-path="url(#clip840)" d="M226.288 1517.37 Q222.677 1517.37 220.849 1520.93 Q219.043 1524.47 219.043 1531.6 Q219.043 1538.71 220.849 1542.27 Q222.677 1545.82 226.288 1545.82 Q229.923 1545.82 231.728 1542.27 Q233.557 1538.71 233.557 1531.6 Q233.557 1524.47 231.728 1520.93 Q229.923 1517.37 226.288 1517.37 M226.288 1513.66 Q232.098 1513.66 235.154 1518.27 Q238.233 1522.85 238.233 1531.6 Q238.233 1540.33 235.154 1544.94 Q232.098 1549.52 226.288 1549.52 Q220.478 1549.52 217.399 1544.94 Q214.344 1540.33 214.344 1531.6 Q214.344 1522.85 217.399 1518.27 Q220.478 1513.66 226.288 1513.66 Z" fill="#000000" fill-rule="nonzero" fill-opacity="1"></path><path clip-path="url(#clip840)" d="M256.45 1517.37 Q252.839 1517.37 251.01 1520.93 Q249.205 1524.47 249.205 1531.6 Q249.205 1538.71 251.01 1542.27 Q252.839 1545.82 256.45 1545.82 Q260.084 1545.82 261.89 1542.27 Q263.719 1538.71 263.719 1531.6 Q263.719 1524.47 261.89 1520.93 Q260.084 1517.37 256.45 1517.37 M256.45 1513.66 Q262.26 1513.66 265.316 1518.27 Q268.395 1522.85 268.395 1531.6 Q268.395 1540.33 265.316 1544.94 Q262.26 1549.52 256.45 1549.52 Q250.64 1549.52 247.561 1544.94 Q244.506 1540.33 244.506 1531.6 Q244.506 1522.85 247.561 1518.27 Q250.64 1513.66 256.45 1513.66 Z" fill="#000000" fill-rule="nonzero" fill-opacity="1"></path><path clip-path="url(#clip840)" d="M699.516 1517.37 Q695.905 1517.37 694.077 1520.93 Q692.271 1524.47 692.271 1531.6 Q692.271 1538.71 694.077 1542.27 Q695.905 1545.82 699.516 1545.82 Q703.151 1545.82 704.956 1542.27 Q706.785 1538.71 706.785 1531.6 Q706.785 1524.47 704.956 1520.93 Q703.151 1517.37 699.516 1517.37 M699.516 1513.66 Q705.327 1513.66 708.382 1518.27 Q711.461 1522.85 711.461 1531.6 Q711.461 1540.33 708.382 1544.94 Q705.327 1549.52 699.516 1549.52 Q693.706 1549.52 690.628 1544.94 Q687.572 1540.33 687.572 1531.6 Q687.572 1522.85 690.628 1518.27 Q693.706 1513.66 699.516 1513.66 Z" fill="#000000" fill-rule="nonzero" fill-opacity="1"></path><path clip-path="url(#clip840)" d="M719.678 1542.97 L724.563 1542.97 L724.563 1548.85 L719.678 1548.85 L719.678 1542.97 Z" fill="#000000" fill-rule="nonzero" fill-opacity="1"></path><path clip-path="url(#clip840)" d="M738.776 1544.91 L755.095 1544.91 L755.095 1548.85 L733.151 1548.85 L733.151 1544.91 Q735.813 1542.16 740.396 1537.53 Q745.002 1532.88 746.183 1531.53 Q748.428 1529.01 749.308 1527.27 Q750.211 1525.51 750.211 1523.82 Q750.211 1521.07 748.266 1519.33 Q746.345 1517.6 743.243 1517.6 Q741.044 1517.6 738.59 1518.36 Q736.16 1519.13 733.382 1520.68 L733.382 1515.95 Q736.206 1514.82 738.66 1514.24 Q741.113 1513.66 743.151 1513.66 Q748.521 1513.66 751.715 1516.35 Q754.91 1519.03 754.91 1523.52 Q754.91 1525.65 754.1 1527.57 Q753.312 1529.47 751.206 1532.07 Q750.627 1532.74 747.525 1535.95 Q744.424 1539.15 738.776 1544.91 Z" fill="#000000" fill-rule="nonzero" fill-opacity="1"></path><path clip-path="url(#clip840)" d="M764.956 1514.29 L783.312 1514.29 L783.312 1518.22 L769.238 1518.22 L769.238 1526.7 Q770.257 1526.35 771.275 1526.19 Q772.294 1526 773.312 1526 Q779.099 1526 782.479 1529.17 Q785.859 1532.34 785.859 1537.76 Q785.859 1543.34 782.386 1546.44 Q778.914 1549.52 772.595 1549.52 Q770.419 1549.52 768.15 1549.15 Q765.905 1548.78 763.498 1548.04 L763.498 1543.34 Q765.581 1544.47 767.803 1545.03 Q770.025 1545.58 772.502 1545.58 Q776.507 1545.58 778.845 1543.48 Q781.183 1541.37 781.183 1537.76 Q781.183 1534.15 778.845 1532.04 Q776.507 1529.94 772.502 1529.94 Q770.627 1529.94 768.752 1530.35 Q766.9 1530.77 764.956 1531.65 L764.956 1514.29 Z" fill="#000000" fill-rule="nonzero" fill-opacity="1"></path><path clip-path="url(#clip840)" d="M1216.98 1517.37 Q1213.37 1517.37 1211.54 1520.93 Q1209.74 1524.47 1209.74 1531.6 Q1209.74 1538.71 1211.54 1542.27 Q1213.37 1545.82 1216.98 1545.82 Q1220.61 1545.82 1222.42 1542.27 Q1224.25 1538.71 1224.25 1531.6 Q1224.25 1524.47 1222.42 1520.93 Q1220.61 1517.37 1216.98 1517.37 M1216.98 1513.66 Q1222.79 1513.66 1225.85 1518.27 Q1228.92 1522.85 1228.92 1531.6 Q1228.92 1540.33 1225.85 1544.94 Q1222.79 1549.52 1216.98 1549.52 Q1211.17 1549.52 1208.09 1544.94 Q1205.04 1540.33 1205.04 1531.6 Q1205.04 1522.85 1208.09 1518.27 Q1211.17 1513.66 1216.98 1513.66 Z" fill="#000000" fill-rule="nonzero" fill-opacity="1"></path><path clip-path="url(#clip840)" d="M1237.14 1542.97 L1242.03 1542.97 L1242.03 1548.85 L1237.14 1548.85 L1237.14 1542.97 Z" fill="#000000" fill-rule="nonzero" fill-opacity="1"></path><path clip-path="url(#clip840)" d="M1252.26 1514.29 L1270.61 1514.29 L1270.61 1518.22 L1256.54 1518.22 L1256.54 1526.7 Q1257.56 1526.35 1258.58 1526.19 Q1259.6 1526 1260.61 1526 Q1266.4 1526 1269.78 1529.17 Q1273.16 1532.34 1273.16 1537.76 Q1273.16 1543.34 1269.69 1546.44 Q1266.22 1549.52 1259.9 1549.52 Q1257.72 1549.52 1255.45 1549.15 Q1253.21 1548.78 1250.8 1548.04 L1250.8 1543.34 Q1252.88 1544.47 1255.11 1545.03 Q1257.33 1545.58 1259.8 1545.58 Q1263.81 1545.58 1266.15 1543.48 Q1268.48 1541.37 1268.48 1537.76 Q1268.48 1534.15 1266.15 1532.04 Q1263.81 1529.94 1259.8 1529.94 Q1257.93 1529.94 1256.05 1530.35 Q1254.2 1530.77 1252.26 1531.65 L1252.26 1514.29 Z" fill="#000000" fill-rule="nonzero" fill-opacity="1"></path><path clip-path="url(#clip840)" d="M1292.37 1517.37 Q1288.76 1517.37 1286.93 1520.93 Q1285.13 1524.47 1285.13 1531.6 Q1285.13 1538.71 1286.93 1542.27 Q1288.76 1545.82 1292.37 1545.82 Q1296.01 1545.82 1297.81 1542.27 Q1299.64 1538.71 1299.64 1531.6 Q1299.64 1524.47 1297.81 1520.93 Q1296.01 1517.37 1292.37 1517.37 M1292.37 1513.66 Q1298.18 1513.66 1301.24 1518.27 Q1304.32 1522.85 1304.32 1531.6 Q1304.32 1540.33 1301.24 1544.94 Q1298.18 1549.52 1292.37 1549.52 Q1286.56 1549.52 1283.48 1544.94 Q1280.43 1540.33 1280.43 1531.6 Q1280.43 1522.85 1283.48 1518.27 Q1286.56 1513.66 1292.37 1513.66 Z" fill="#000000" fill-rule="nonzero" fill-opacity="1"></path><path clip-path="url(#clip840)" d="M1735.44 1517.37 Q1731.83 1517.37 1730 1520.93 Q1728.19 1524.47 1728.19 1531.6 Q1728.19 1538.71 1730 1542.27 Q1731.83 1545.82 1735.44 1545.82 Q1739.07 1545.82 1740.88 1542.27 Q1742.71 1538.71 1742.71 1531.6 Q1742.71 1524.47 1740.88 1520.93 Q1739.07 1517.37 1735.44 1517.37 M1735.44 1513.66 Q1741.25 1513.66 1744.31 1518.27 Q1747.38 1522.85 1747.38 1531.6 Q1747.38 1540.33 1744.31 1544.94 Q1741.25 1549.52 1735.44 1549.52 Q1729.63 1549.52 1726.55 1544.94 Q1723.5 1540.33 1723.5 1531.6 Q1723.5 1522.85 1726.55 1518.27 Q1729.63 1513.66 1735.44 1513.66 Z" fill="#000000" fill-rule="nonzero" fill-opacity="1"></path><path clip-path="url(#clip840)" d="M1755.6 1542.97 L1760.49 1542.97 L1760.49 1548.85 L1755.6 1548.85 L1755.6 1542.97 Z" fill="#000000" fill-rule="nonzero" fill-opacity="1"></path><path clip-path="url(#clip840)" d="M1769.49 1514.29 L1791.71 1514.29 L1791.71 1516.28 L1779.17 1548.85 L1774.28 1548.85 L1786.09 1518.22 L1769.49 1518.22 L1769.49 1514.29 Z" fill="#000000" fill-rule="nonzero" fill-opacity="1"></path><path clip-path="url(#clip840)" d="M1800.88 1514.29 L1819.24 1514.29 L1819.24 1518.22 L1805.16 1518.22 L1805.16 1526.7 Q1806.18 1526.35 1807.2 1526.19 Q1808.22 1526 1809.24 1526 Q1815.02 1526 1818.4 1529.17 Q1821.78 1532.34 1821.78 1537.76 Q1821.78 1543.34 1818.31 1546.44 Q1814.84 1549.52 1808.52 1549.52 Q1806.34 1549.52 1804.07 1549.15 Q1801.83 1548.78 1799.42 1548.04 L1799.42 1543.34 Q1801.5 1544.47 1803.73 1545.03 Q1805.95 1545.58 1808.43 1545.58 Q1812.43 1545.58 1814.77 1543.48 Q1817.11 1541.37 1817.11 1537.76 Q1817.11 1534.15 1814.77 1532.04 Q1812.43 1529.94 1808.43 1529.94 Q1806.55 1529.94 1804.68 1530.35 Q1802.82 1530.77 1800.88 1531.65 L1800.88 1514.29 Z" fill="#000000" fill-rule="nonzero" fill-opacity="1"></path><path clip-path="url(#clip840)" d="M2242.67 1544.91 L2250.31 1544.91 L2250.31 1518.55 L2242 1520.21 L2242 1515.95 L2250.27 1514.29 L2254.94 1514.29 L2254.94 1544.91 L2262.58 1544.91 L2262.58 1548.85 L2242.67 1548.85 L2242.67 1544.91 Z" fill="#000000" fill-rule="nonzero" fill-opacity="1"></path><path clip-path="url(#clip840)" d="M2272.02 1542.97 L2276.91 1542.97 L2276.91 1548.85 L2272.02 1548.85 L2272.02 1542.97 Z" fill="#000000" fill-rule="nonzero" fill-opacity="1"></path><path clip-path="url(#clip840)" d="M2297.09 1517.37 Q2293.48 1517.37 2291.65 1520.93 Q2289.85 1524.47 2289.85 1531.6 Q2289.85 1538.71 2291.65 1542.27 Q2293.48 1545.82 2297.09 1545.82 Q2300.73 1545.82 2302.53 1542.27 Q2304.36 1538.71 2304.36 1531.6 Q2304.36 1524.47 2302.53 1520.93 Q2300.73 1517.37 2297.09 1517.37 M2297.09 1513.66 Q2302.9 1513.66 2305.96 1518.27 Q2309.04 1522.85 2309.04 1531.6 Q2309.04 1540.33 2305.96 1544.94 Q2302.9 1549.52 2297.09 1549.52 Q2291.28 1549.52 2288.2 1544.94 Q2285.15 1540.33 2285.15 1531.6 Q2285.15 1522.85 2288.2 1518.27 Q2291.28 1513.66 2297.09 1513.66 Z" fill="#000000" fill-rule="nonzero" fill-opacity="1"></path><path clip-path="url(#clip840)" d="M2327.26 1517.37 Q2323.64 1517.37 2321.82 1520.93 Q2320.01 1524.47 2320.01 1531.6 Q2320.01 1538.71 2321.82 1542.27 Q2323.64 1545.82 2327.26 1545.82 Q2330.89 1545.82 2332.7 1542.27 Q2334.52 1538.71 2334.52 1531.6 Q2334.52 1524.47 2332.7 1520.93 Q2330.89 1517.37 2327.26 1517.37 M2327.26 1513.66 Q2333.07 1513.66 2336.12 1518.27 Q2339.2 1522.85 2339.2 1531.6 Q2339.2 1540.33 2336.12 1544.94 Q2333.07 1549.52 2327.26 1549.52 Q2321.45 1549.52 2318.37 1544.94 Q2315.31 1540.33 2315.31 1531.6 Q2315.31 1522.85 2318.37 1518.27 Q2321.45 1513.66 2327.26 1513.66 Z" fill="#000000" fill-rule="nonzero" fill-opacity="1"></path><polyline clip-path="url(#clip842)" style="stroke:#000000; stroke-linecap:round; stroke-linejoin:round; stroke-width:2; stroke-opacity:0.1; fill:none" points="156.598,1294.24 2352.76,1294.24 "></polyline>
<polyline clip-path="url(#clip842)" style="stroke:#000000; stroke-linecap:round; stroke-linejoin:round; stroke-width:2; stroke-opacity:0.1; fill:none" points="156.598,993.81 2352.76,993.81 "></polyline>
<polyline clip-path="url(#clip842)" style="stroke:#000000; stroke-linecap:round; stroke-linejoin:round; stroke-width:2; stroke-opacity:0.1; fill:none" points="156.598,693.382 2352.76,693.382 "></polyline>
<polyline clip-path="url(#clip842)" style="stroke:#000000; stroke-linecap:round; stroke-linejoin:round; stroke-width:2; stroke-opacity:0.1; fill:none" points="156.598,392.954 2352.76,392.954 "></polyline>
<polyline clip-path="url(#clip842)" style="stroke:#000000; stroke-linecap:round; stroke-linejoin:round; stroke-width:2; stroke-opacity:0.1; fill:none" points="156.598,92.5265 2352.76,92.5265 "></polyline>
<polyline clip-path="url(#clip840)" style="stroke:#000000; stroke-linecap:round; stroke-linejoin:round; stroke-width:4; stroke-opacity:1; fill:none" points="156.598,1486.45 156.598,47.2441 "></polyline>
<polyline clip-path="url(#clip840)" style="stroke:#000000; stroke-linecap:round; stroke-linejoin:round; stroke-width:4; stroke-opacity:1; fill:none" points="156.598,1294.24 175.496,1294.24 "></polyline>
<polyline clip-path="url(#clip840)" style="stroke:#000000; stroke-linecap:round; stroke-linejoin:round; stroke-width:4; stroke-opacity:1; fill:none" points="156.598,993.81 175.496,993.81 "></polyline>
<polyline clip-path="url(#clip840)" style="stroke:#000000; stroke-linecap:round; stroke-linejoin:round; stroke-width:4; stroke-opacity:1; fill:none" points="156.598,693.382 175.496,693.382 "></polyline>
<polyline clip-path="url(#clip840)" style="stroke:#000000; stroke-linecap:round; stroke-linejoin:round; stroke-width:4; stroke-opacity:1; fill:none" points="156.598,392.954 175.496,392.954 "></polyline>
<polyline clip-path="url(#clip840)" style="stroke:#000000; stroke-linecap:round; stroke-linejoin:round; stroke-width:4; stroke-opacity:1; fill:none" points="156.598,92.5265 175.496,92.5265 "></polyline>
<path clip-path="url(#clip840)" d="M65.0198 1280.04 Q61.4087 1280.04 59.58 1283.6 Q57.7745 1287.14 57.7745 1294.27 Q57.7745 1301.38 59.58 1304.94 Q61.4087 1308.49 65.0198 1308.49 Q68.6541 1308.49 70.4596 1304.94 Q72.2883 1301.38 72.2883 1294.27 Q72.2883 1287.14 70.4596 1283.6 Q68.6541 1280.04 65.0198 1280.04 M65.0198 1276.33 Q70.83 1276.33 73.8855 1280.94 Q76.9642 1285.52 76.9642 1294.27 Q76.9642 1303 73.8855 1307.61 Q70.83 1312.19 65.0198 1312.19 Q59.2097 1312.19 56.131 1307.61 Q53.0754 1303 53.0754 1294.27 Q53.0754 1285.52 56.131 1280.94 Q59.2097 1276.33 65.0198 1276.33 Z" fill="#000000" fill-rule="nonzero" fill-opacity="1"></path><path clip-path="url(#clip840)" d="M85.1818 1305.64 L90.066 1305.64 L90.066 1311.52 L85.1818 1311.52 L85.1818 1305.64 Z" fill="#000000" fill-rule="nonzero" fill-opacity="1"></path><path clip-path="url(#clip840)" d="M104.279 1307.58 L120.598 1307.58 L120.598 1311.52 L98.6539 1311.52 L98.6539 1307.58 Q101.316 1304.83 105.899 1300.2 Q110.506 1295.55 111.686 1294.2 Q113.932 1291.68 114.811 1289.94 Q115.714 1288.19 115.714 1286.5 Q115.714 1283.74 113.77 1282 Q111.848 1280.27 108.746 1280.27 Q106.547 1280.27 104.094 1281.03 Q101.663 1281.8 98.8854 1283.35 L98.8854 1278.62 Q101.709 1277.49 104.163 1276.91 Q106.617 1276.33 108.654 1276.33 Q114.024 1276.33 117.219 1279.02 Q120.413 1281.7 120.413 1286.19 Q120.413 1288.32 119.603 1290.25 Q118.816 1292.14 116.709 1294.74 Q116.131 1295.41 113.029 1298.62 Q109.927 1301.82 104.279 1307.58 Z" fill="#000000" fill-rule="nonzero" fill-opacity="1"></path><path clip-path="url(#clip840)" d="M62.9365 979.609 Q59.3254 979.609 57.4967 983.174 Q55.6912 986.715 55.6912 993.845 Q55.6912 1000.95 57.4967 1004.52 Q59.3254 1008.06 62.9365 1008.06 Q66.5707 1008.06 68.3763 1004.52 Q70.205 1000.95 70.205 993.845 Q70.205 986.715 68.3763 983.174 Q66.5707 979.609 62.9365 979.609 M62.9365 975.905 Q68.7467 975.905 71.8022 980.512 Q74.8809 985.095 74.8809 993.845 Q74.8809 1002.57 71.8022 1007.18 Q68.7467 1011.76 62.9365 1011.76 Q57.1264 1011.76 54.0477 1007.18 Q50.9921 1002.57 50.9921 993.845 Q50.9921 985.095 54.0477 980.512 Q57.1264 975.905 62.9365 975.905 Z" fill="#000000" fill-rule="nonzero" fill-opacity="1"></path><path clip-path="url(#clip840)" d="M83.0984 1005.21 L87.9827 1005.21 L87.9827 1011.09 L83.0984 1011.09 L83.0984 1005.21 Z" fill="#000000" fill-rule="nonzero" fill-opacity="1"></path><path clip-path="url(#clip840)" d="M111.015 980.604 L99.2095 999.053 L111.015 999.053 L111.015 980.604 M109.788 976.53 L115.668 976.53 L115.668 999.053 L120.598 999.053 L120.598 1002.94 L115.668 1002.94 L115.668 1011.09 L111.015 1011.09 L111.015 1002.94 L95.4132 1002.94 L95.4132 998.428 L109.788 976.53 Z" fill="#000000" fill-rule="nonzero" fill-opacity="1"></path><path clip-path="url(#clip840)" d="M63.2606 679.181 Q59.6495 679.181 57.8208 682.746 Q56.0152 686.288 56.0152 693.417 Q56.0152 700.524 57.8208 704.088 Q59.6495 707.63 63.2606 707.63 Q66.8948 707.63 68.7004 704.088 Q70.5291 700.524 70.5291 693.417 Q70.5291 686.288 68.7004 682.746 Q66.8948 679.181 63.2606 679.181 M63.2606 675.477 Q69.0707 675.477 72.1263 680.084 Q75.205 684.667 75.205 693.417 Q75.205 702.144 72.1263 706.75 Q69.0707 711.334 63.2606 711.334 Q57.4504 711.334 54.3717 706.75 Q51.3162 702.144 51.3162 693.417 Q51.3162 684.667 54.3717 680.084 Q57.4504 675.477 63.2606 675.477 Z" fill="#000000" fill-rule="nonzero" fill-opacity="1"></path><path clip-path="url(#clip840)" d="M83.4225 704.783 L88.3067 704.783 L88.3067 710.662 L83.4225 710.662 L83.4225 704.783 Z" fill="#000000" fill-rule="nonzero" fill-opacity="1"></path><path clip-path="url(#clip840)" d="M109.071 691.519 Q105.922 691.519 104.071 693.672 Q102.242 695.824 102.242 699.574 Q102.242 703.301 104.071 705.477 Q105.922 707.63 109.071 707.63 Q112.219 707.63 114.047 705.477 Q115.899 703.301 115.899 699.574 Q115.899 695.824 114.047 693.672 Q112.219 691.519 109.071 691.519 M118.353 676.866 L118.353 681.126 Q116.594 680.292 114.788 679.852 Q113.006 679.413 111.246 679.413 Q106.617 679.413 104.163 682.538 Q101.733 685.663 101.385 691.982 Q102.751 689.968 104.811 688.903 Q106.871 687.815 109.348 687.815 Q114.557 687.815 117.566 690.987 Q120.598 694.135 120.598 699.574 Q120.598 704.899 117.45 708.116 Q114.302 711.334 109.071 711.334 Q103.075 711.334 99.9039 706.75 Q96.7326 702.144 96.7326 693.417 Q96.7326 685.223 100.621 680.362 Q104.51 675.477 111.061 675.477 Q112.82 675.477 114.603 675.825 Q116.408 676.172 118.353 676.866 Z" fill="#000000" fill-rule="nonzero" fill-opacity="1"></path><path clip-path="url(#clip840)" d="M63.5152 378.753 Q59.9041 378.753 58.0754 382.318 Q56.2699 385.86 56.2699 392.989 Q56.2699 400.096 58.0754 403.66 Q59.9041 407.202 63.5152 407.202 Q67.1494 407.202 68.955 403.66 Q70.7837 400.096 70.7837 392.989 Q70.7837 385.86 68.955 382.318 Q67.1494 378.753 63.5152 378.753 M63.5152 375.049 Q69.3254 375.049 72.3809 379.656 Q75.4596 384.239 75.4596 392.989 Q75.4596 401.716 72.3809 406.322 Q69.3254 410.906 63.5152 410.906 Q57.7051 410.906 54.6264 406.322 Q51.5708 401.716 51.5708 392.989 Q51.5708 384.239 54.6264 379.656 Q57.7051 375.049 63.5152 375.049 Z" fill="#000000" fill-rule="nonzero" fill-opacity="1"></path><path clip-path="url(#clip840)" d="M83.6771 404.355 L88.5614 404.355 L88.5614 410.234 L83.6771 410.234 L83.6771 404.355 Z" fill="#000000" fill-rule="nonzero" fill-opacity="1"></path><path clip-path="url(#clip840)" d="M108.746 393.822 Q105.413 393.822 103.492 395.605 Q101.594 397.387 101.594 400.512 Q101.594 403.637 103.492 405.42 Q105.413 407.202 108.746 407.202 Q112.08 407.202 114.001 405.42 Q115.922 403.614 115.922 400.512 Q115.922 397.387 114.001 395.605 Q112.103 393.822 108.746 393.822 M104.071 391.832 Q101.061 391.091 99.3715 389.031 Q97.7048 386.971 97.7048 384.008 Q97.7048 379.864 100.645 377.457 Q103.608 375.049 108.746 375.049 Q113.908 375.049 116.848 377.457 Q119.788 379.864 119.788 384.008 Q119.788 386.971 118.098 389.031 Q116.432 391.091 113.445 391.832 Q116.825 392.619 118.7 394.91 Q120.598 397.202 120.598 400.512 Q120.598 405.535 117.52 408.221 Q114.464 410.906 108.746 410.906 Q103.029 410.906 99.9502 408.221 Q96.8947 405.535 96.8947 400.512 Q96.8947 397.202 98.7928 394.91 Q100.691 392.619 104.071 391.832 M102.358 384.448 Q102.358 387.133 104.024 388.637 Q105.714 390.142 108.746 390.142 Q111.756 390.142 113.445 388.637 Q115.158 387.133 115.158 384.448 Q115.158 381.762 113.445 380.258 Q111.756 378.753 108.746 378.753 Q105.714 378.753 104.024 380.258 Q102.358 381.762 102.358 384.448 Z" fill="#000000" fill-rule="nonzero" fill-opacity="1"></path><path clip-path="url(#clip840)" d="M54.2328 105.871 L61.8717 105.871 L61.8717 79.5057 L53.5616 81.1724 L53.5616 76.9132 L61.8254 75.2465 L66.5013 75.2465 L66.5013 105.871 L74.1402 105.871 L74.1402 109.807 L54.2328 109.807 L54.2328 105.871 Z" fill="#000000" fill-rule="nonzero" fill-opacity="1"></path><path clip-path="url(#clip840)" d="M83.5845 103.927 L88.4688 103.927 L88.4688 109.807 L83.5845 109.807 L83.5845 103.927 Z" fill="#000000" fill-rule="nonzero" fill-opacity="1"></path><path clip-path="url(#clip840)" d="M108.654 78.3252 Q105.043 78.3252 103.214 81.89 Q101.409 85.4316 101.409 92.5612 Q101.409 99.6677 103.214 103.232 Q105.043 106.774 108.654 106.774 Q112.288 106.774 114.094 103.232 Q115.922 99.6677 115.922 92.5612 Q115.922 85.4316 114.094 81.89 Q112.288 78.3252 108.654 78.3252 M108.654 74.6215 Q114.464 74.6215 117.52 79.228 Q120.598 83.8113 120.598 92.5612 Q120.598 101.288 117.52 105.894 Q114.464 110.478 108.654 110.478 Q102.844 110.478 99.765 105.894 Q96.7095 101.288 96.7095 92.5612 Q96.7095 83.8113 99.765 79.228 Q102.844 74.6215 108.654 74.6215 Z" fill="#000000" fill-rule="nonzero" fill-opacity="1"></path><polyline clip-path="url(#clip842)" style="stroke:#009af9; stroke-linecap:round; stroke-linejoin:round; stroke-width:4; stroke-opacity:1; fill:none" points="218.754,92.5265 221.991,92.5265 225.228,92.5265 228.465,92.5265 231.703,92.5265 234.94,92.5265 238.177,92.5265 241.414,92.5265 244.652,92.5265 247.889,92.5265 251.126,92.5265 "></polyline>
<polyline clip-path="url(#clip842)" style="stroke:#e26f46; stroke-linecap:round; stroke-linejoin:round; stroke-width:4; stroke-opacity:1; fill:none" points="251.126,92.5264 254.364,92.5265 257.601,92.5264 260.838,92.5265 264.075,92.5266 267.313,92.5265 270.55,92.5264 273.787,92.5265 277.024,92.5266 280.262,92.5264 283.499,92.5266 "></polyline>
<polyline clip-path="url(#clip842)" style="stroke:#3da44d; stroke-linecap:round; stroke-linejoin:round; stroke-width:4; stroke-opacity:1; fill:none" points="283.499,92.5267 286.736,92.5266 289.973,92.5264 293.211,92.5264 296.448,92.5267 299.685,92.5266 302.922,92.5262 306.16,92.5263 309.397,92.527 312.634,92.5265 315.871,92.5262 "></polyline>
<polyline clip-path="url(#clip842)" style="stroke:#c271d2; stroke-linecap:round; stroke-linejoin:round; stroke-width:4; stroke-opacity:1; fill:none" points="315.871,92.5267 319.109,92.5267 322.346,92.527 325.583,92.5262 328.821,92.5258 332.058,92.5266 335.295,92.5275 338.532,92.5269 341.77,92.525 345.007,92.5246 348.244,92.53 "></polyline>
<polyline clip-path="url(#clip842)" style="stroke:#ac8d18; stroke-linecap:round; stroke-linejoin:round; stroke-width:4; stroke-opacity:1; fill:none" points="348.244,92.5297 351.481,92.5297 354.719,92.5196 357.956,92.5232 361.193,92.5345 364.43,92.5332 367.668,92.5175 370.905,92.5112 374.142,92.5357 377.379,92.5627 380.617,92.4932 "></polyline>
<polyline clip-path="url(#clip842)" style="stroke:#00a9ad; stroke-linecap:round; stroke-linejoin:round; stroke-width:4; stroke-opacity:1; fill:none" points="380.617,92.4974 383.854,92.4695 387.091,92.5444 390.328,92.61 393.566,92.5306 396.803,92.4064 400.04,92.4507 403.278,92.687 406.515,92.7641 409.752,92.2909 412.989,92.1872 "></polyline>
<polyline clip-path="url(#clip842)" style="stroke:#ed5d92; stroke-linecap:round; stroke-linejoin:round; stroke-width:4; stroke-opacity:1; fill:none" points="412.989,92.147 416.227,92.7362 419.464,93.3127 422.701,92.4408 425.938,91.2393 429.176,91.4966 432.413,93.2354 435.65,94.2313 438.887,92.1359 442.125,88.0037 445.362,88.1647 "></polyline>
<polyline clip-path="url(#clip842)" style="stroke:#c68125; stroke-linecap:round; stroke-linejoin:round; stroke-width:4; stroke-opacity:1; fill:none" points="445.362,87.9763 448.599,92.3211 451.836,99.9519 455.074,107.652 458.311,115.157 461.548,122.571 464.785,130.073 468.023,137.872 471.26,145.766 474.497,153.081 477.734,161.169 "></polyline>
<polyline clip-path="url(#clip842)" style="stroke:#00a98d; stroke-linecap:round; stroke-linejoin:round; stroke-width:4; stroke-opacity:1; fill:none" points="477.734,161.04 480.972,168.604 484.209,176.468 487.446,183.843 490.684,191.304 493.921,198.847 497.158,206.077 500.395,212.949 503.633,220.017 506.87,227.658 510.107,234.256 "></polyline>
<polyline clip-path="url(#clip842)" style="stroke:#8e971d; stroke-linecap:round; stroke-linejoin:round; stroke-width:4; stroke-opacity:1; fill:none" points="510.107,234.342 513.344,241.029 516.582,248.104 519.819,256.466 523.056,264.789 526.293,272.299 529.531,279.123 532.768,285.798 536.005,292.809 539.242,300.288 542.48,307.25 "></polyline>
<polyline clip-path="url(#clip842)" style="stroke:#00a8cb; stroke-linecap:round; stroke-linejoin:round; stroke-width:4; stroke-opacity:1; fill:none" points="542.48,307.272 545.717,314.692 548.954,322.1 552.191,329.169 555.429,335.762 558.666,342.083 561.903,348.603 565.141,355.664 568.378,363.001 571.615,369.812 574.852,376.291 "></polyline>
<polyline clip-path="url(#clip842)" style="stroke:#9b7fe8; stroke-linecap:round; stroke-linejoin:round; stroke-width:4; stroke-opacity:1; fill:none" points="574.852,376.278 578.09,382.529 581.327,388.947 584.564,395.872 587.801,402.834 591.039,409.198 594.276,415.195 597.513,421.652 600.75,428.53 603.988,434.122 607.225,438.573 "></polyline>
<polyline clip-path="url(#clip842)" style="stroke:#608cf6; stroke-linecap:round; stroke-linejoin:round; stroke-width:4; stroke-opacity:1; fill:none" points="607.225,438.612 610.462,447.912 613.699,451.85 616.937,458.31 620.174,466.462 623.411,470.793 626.648,473.805 629.886,485.073 633.123,505.733 636.36,518.815 639.598,527.196 "></polyline>
<polyline clip-path="url(#clip842)" style="stroke:#f05f73; stroke-linecap:round; stroke-linejoin:round; stroke-width:4; stroke-opacity:1; fill:none" points="639.598,527.229 642.835,526.849 646.072,533.751 649.309,542.539 652.547,547.633 655.784,551.085 659.021,556.401 662.258,563.108 665.496,568.452 668.733,574.384 671.97,589.61 "></polyline>
<polyline clip-path="url(#clip842)" style="stroke:#dd64b5; stroke-linecap:round; stroke-linejoin:round; stroke-width:4; stroke-opacity:1; fill:none" points="671.97,590.034 675.207,582.309 678.445,591.456 681.682,594.946 684.919,597.855 688.156,604.358 691.394,612.299 694.631,618.24 697.868,622.947 701.105,629.722 704.343,630.505 "></polyline>
<polyline clip-path="url(#clip842)" style="stroke:#6b9e32; stroke-linecap:round; stroke-linejoin:round; stroke-width:4; stroke-opacity:1; fill:none" points="704.343,630.214 707.58,640.15 710.817,645.659 714.055,650.202 717.292,654.697 720.529,659.922 723.766,665.784 727.004,670.787 730.241,673.439 733.478,675.746 736.715,687.338 "></polyline>
<polyline clip-path="url(#clip842)" style="stroke:#009af9; stroke-linecap:round; stroke-linejoin:round; stroke-width:4; stroke-opacity:1; fill:none" points="736.715,687.742 739.953,690.451 743.19,690.463 746.427,694.622 749.664,707.905 752.902,721.987 756.139,726.983 759.376,723.761 762.613,723.991 765.851,734.913 769.088,735.617 "></polyline>
<polyline clip-path="url(#clip842)" style="stroke:#e26f46; stroke-linecap:round; stroke-linejoin:round; stroke-width:4; stroke-opacity:1; fill:none" points="769.088,734.465 772.325,731.425 775.562,720.144 778.8,720.811 782.037,719.907 785.274,717.597 788.512,722.247 791.749,733.475 794.986,738.173 798.223,727.054 801.461,722.348 "></polyline>
<polyline clip-path="url(#clip842)" style="stroke:#3da44d; stroke-linecap:round; stroke-linejoin:round; stroke-width:4; stroke-opacity:1; fill:none" points="801.461,723.263 804.698,718.719 807.935,718.284 811.172,716.671 814.41,724.55 817.647,734.012 820.884,732.401 824.121,720.776 827.359,713.921 830.596,719.442 833.833,714.176 "></polyline>
<polyline clip-path="url(#clip842)" style="stroke:#c271d2; stroke-linecap:round; stroke-linejoin:round; stroke-width:4; stroke-opacity:1; fill:none" points="833.833,712.956 837.07,718.985 840.308,724.93 843.545,736.666 846.782,734.555 850.019,723.246 853.257,716.748 856.494,717.852 859.731,719.113 862.969,720.732 866.206,728.793 "></polyline>
<polyline clip-path="url(#clip842)" style="stroke:#ac8d18; stroke-linecap:round; stroke-linejoin:round; stroke-width:4; stroke-opacity:1; fill:none" points="866.206,728.991 869.443,737.745 872.68,730.588 875.918,715.967 879.155,713.893 882.392,719.114 885.629,720.907 888.867,721.623 892.104,729.915 895.341,738.346 898.578,728.872 "></polyline>
<polyline clip-path="url(#clip842)" style="stroke:#00a9ad; stroke-linecap:round; stroke-linejoin:round; stroke-width:4; stroke-opacity:1; fill:none" points="898.578,728.853 901.816,713.763 905.053,714.834 908.29,720.167 911.527,720.66 914.765,724.097 918.002,733.401 921.239,736.938 924.476,724.936 927.714,712.253 930.951,713.897 "></polyline>
<polyline clip-path="url(#clip842)" style="stroke:#ed5d92; stroke-linecap:round; stroke-linejoin:round; stroke-width:4; stroke-opacity:1; fill:none" points="930.951,713.677 934.188,721.208 937.426,721.986 940.663,726.053 943.9,734.829 947.137,734.916 950.375,722.45 953.612,711.467 956.849,714.831 960.086,721.471 963.324,728.773 "></polyline>
<polyline clip-path="url(#clip842)" style="stroke:#c68125; stroke-linecap:round; stroke-linejoin:round; stroke-width:4; stroke-opacity:1; fill:none" points="963.324,729.755 966.561,725.953 969.798,736.128 973.035,733.826 976.273,719.286 979.51,710.272 982.747,715.073 985.984,723.87 989.222,725.596 992.459,728.345 995.696,732.303 "></polyline>
<polyline clip-path="url(#clip842)" style="stroke:#00a98d; stroke-linecap:round; stroke-linejoin:round; stroke-width:4; stroke-opacity:1; fill:none" points="995.696,731.262 998.933,733.081 1002.17,714.003 1005.41,709.694 1008.65,717.73 1011.88,724.573 1015.12,726.777 1018.36,730.954 1021.59,736.924 1024.83,728.478 1028.07,716.056 "></polyline>
<polyline clip-path="url(#clip842)" style="stroke:#8e971d; stroke-linecap:round; stroke-linejoin:round; stroke-width:4; stroke-opacity:1; fill:none" points="1028.07,717.02 1031.31,708.67 1034.54,719.424 1037.78,725.922 1041.02,728.821 1044.26,733.058 1047.49,734.661 1050.73,725.626 1053.97,710.489 1057.2,710.356 1060.44,712.256 "></polyline>
<polyline clip-path="url(#clip842)" style="stroke:#00a8cb; stroke-linecap:round; stroke-linejoin:round; stroke-width:4; stroke-opacity:1; fill:none" points="1060.44,710.602 1063.68,730.251 1066.92,728.276 1070.15,732.798 1073.39,733.363 1076.63,723.138 1079.86,710.79 1083.1,710.231 1086.34,722.532 1089.58,730.474 1092.81,732.367 "></polyline>
<polyline clip-path="url(#clip842)" style="stroke:#9b7fe8; stroke-linecap:round; stroke-linejoin:round; stroke-width:4; stroke-opacity:1; fill:none" points="1092.81,733.123 1096.05,731.333 1099.29,734.137 1102.53,719.821 1105.76,708.324 1109,712.626 1112.24,725.465 1115.47,731.748 1118.71,729.233 1121.95,732.291 1125.19,725.789 "></polyline>
<polyline clip-path="url(#clip842)" style="stroke:#608cf6; stroke-linecap:round; stroke-linejoin:round; stroke-width:4; stroke-opacity:1; fill:none" points="1125.19,724.565 1128.42,715.229 1131.66,707.788 1134.9,717.9 1138.14,728.961 1141.37,730.752 1144.61,728.195 1147.85,729.577 1151.08,730.627 1154.32,717.861 1157.56,721.66 "></polyline>
<polyline clip-path="url(#clip842)" style="stroke:#f05f73; stroke-linecap:round; stroke-linejoin:round; stroke-width:4; stroke-opacity:1; fill:none" points="1157.56,726.289 1160.8,710.707 1164.03,724.115 1167.27,726.012 1170.51,733.903 1173.75,745.634 1176.98,741.3 1180.22,712.229 1183.46,680.117 1186.69,684.996 1189.93,736.272 "></polyline>
<polyline clip-path="url(#clip842)" style="stroke:#dd64b5; stroke-linecap:round; stroke-linejoin:round; stroke-width:4; stroke-opacity:1; fill:none" points="1189.93,734.817 1193.17,835.912 1196.41,943.673 1199.64,1044.64 1202.88,1097.02 1206.12,1098.51 1209.36,1079.39 1212.59,1070.33 1215.83,1078.56 1219.07,1088.99 1222.3,1091.34 "></polyline>
<polyline clip-path="url(#clip842)" style="stroke:#6b9e32; stroke-linecap:round; stroke-linejoin:round; stroke-width:4; stroke-opacity:1; fill:none" points="1222.3,1090.88 1225.54,1086.88 1228.78,1079.27 1232.02,1085.74 1235.25,1091.79 1238.49,1088.57 1241.73,1079.81 1244.97,1074.41 1248.2,1077.01 1251.44,1084.1 1254.68,1089.07 "></polyline>
<polyline clip-path="url(#clip842)" style="stroke:#009af9; stroke-linecap:round; stroke-linejoin:round; stroke-width:4; stroke-opacity:1; fill:none" points="1254.68,1089.02 1257.91,1090.58 1261.15,1084.45 1264.39,1086.93 1267.63,1089.22 1270.86,1085.71 1274.1,1078.98 1277.34,1074.99 1280.58,1077.2 1283.81,1083.97 1287.05,1089.2 "></polyline>
<polyline clip-path="url(#clip842)" style="stroke:#e26f46; stroke-linecap:round; stroke-linejoin:round; stroke-width:4; stroke-opacity:1; fill:none" points="1287.05,1089.23 1290.29,1091.22 1293.52,1084.8 1296.76,1086.34 1300,1088.75 1303.24,1086.26 1306.47,1080.04 1309.71,1075.19 1312.95,1076.13 1316.19,1083.12 1319.42,1089.25 "></polyline>
<polyline clip-path="url(#clip842)" style="stroke:#3da44d; stroke-linecap:round; stroke-linejoin:round; stroke-width:4; stroke-opacity:1; fill:none" points="1319.42,1089.19 1322.66,1091.41 1325.9,1084.9 1329.13,1086.3 1332.37,1088.77 1335.61,1086.8 1338.85,1081.11 1342.08,1075.95 1345.32,1075.5 1348.56,1081.55 1351.79,1089.11 "></polyline>
<polyline clip-path="url(#clip842)" style="stroke:#c271d2; stroke-linecap:round; stroke-linejoin:round; stroke-width:4; stroke-opacity:1; fill:none" points="1351.79,1089.18 1355.03,1091.71 1358.27,1085.08 1361.51,1085.71 1364.74,1088.47 1367.98,1087.54 1371.22,1082.29 1374.46,1076.4 1377.69,1074.85 1380.93,1080.6 1384.17,1089.46 "></polyline>
<polyline clip-path="url(#clip842)" style="stroke:#ac8d18; stroke-linecap:round; stroke-linejoin:round; stroke-width:4; stroke-opacity:1; fill:none" points="1384.17,1089.26 1387.4,1091.25 1390.64,1084.86 1393.88,1086.16 1397.12,1088.53 1400.35,1087.25 1403.59,1082.85 1406.83,1077.9 1410.07,1075.17 1413.3,1078.3 1416.54,1089.53 "></polyline>
<polyline clip-path="url(#clip842)" style="stroke:#00a9ad; stroke-linecap:round; stroke-linejoin:round; stroke-width:4; stroke-opacity:1; fill:none" points="1416.54,1089.75 1419.78,1092.41 1423.01,1085.53 1426.25,1085.07 1429.49,1087.96 1432.73,1088.33 1435.96,1084.08 1439.2,1077.73 1442.44,1074.37 1445.68,1078.36 1448.91,1089.31 "></polyline>
<polyline clip-path="url(#clip842)" style="stroke:#ed5d92; stroke-linecap:round; stroke-linejoin:round; stroke-width:4; stroke-opacity:1; fill:none" points="1448.91,1088.33 1452.15,1090.9 1455.39,1084.81 1458.62,1087.1 1461.86,1088.74 1465.1,1086.6 1468.34,1083.51 1471.57,1080.77 1474.81,1076.6 1478.05,1073.65 1481.29,1087.91 "></polyline>
<polyline clip-path="url(#clip842)" style="stroke:#c68125; stroke-linecap:round; stroke-linejoin:round; stroke-width:4; stroke-opacity:1; fill:none" points="1481.29,1091.34 1484.52,1093.32 1487.76,1086.71 1491,1084.09 1494.23,1085.62 1497.47,1089.81 1500.71,1090.11 1503.95,1079.91 1507.18,1066.86 1510.42,1076.23 1513.66,1101.48 "></polyline>
<polyline clip-path="url(#clip842)" style="stroke:#00a98d; stroke-linecap:round; stroke-linejoin:round; stroke-width:4; stroke-opacity:1; fill:none" points="1513.66,1034.21 1516.9,1086.55 1520.13,1041.82 1523.37,1207.84 1526.61,1367.72 1529.84,1403.54 1533.08,1378.79 1536.32,1391.19 1539.56,1430.78 1542.79,1402.73 1546.03,1397.88 "></polyline>
<polyline clip-path="url(#clip842)" style="stroke:#8e971d; stroke-linecap:round; stroke-linejoin:round; stroke-width:4; stroke-opacity:1; fill:none" points="1546.03,1445.72 1549.27,1408.09 1552.51,1403.74 1555.74,1407.65 1558.98,1407.98 1562.22,1406.26 1565.45,1406.32 1568.69,1407.49 1571.93,1407.03 1575.17,1406.47 1578.4,1406.54 "></polyline>
<polyline clip-path="url(#clip842)" style="stroke:#00a8cb; stroke-linecap:round; stroke-linejoin:round; stroke-width:4; stroke-opacity:1; fill:none" points="1578.4,1406.46 1581.64,1407 1584.88,1406.85 1588.11,1406.88 1591.35,1406.93 1594.59,1406.9 1597.83,1406.88 1601.06,1406.9 1604.3,1406.92 1607.54,1406.88 1610.78,1406.91 "></polyline>
<polyline clip-path="url(#clip842)" style="stroke:#9b7fe8; stroke-linecap:round; stroke-linejoin:round; stroke-width:4; stroke-opacity:1; fill:none" points="1610.78,1406.93 1614.01,1406.9 1617.25,1406.9 1620.49,1406.9 1623.72,1406.9 1626.96,1406.9 1630.2,1406.9 1633.44,1406.9 1636.67,1406.9 1639.91,1406.9 1643.15,1406.9 "></polyline>
<polyline clip-path="url(#clip842)" style="stroke:#608cf6; stroke-linecap:round; stroke-linejoin:round; stroke-width:4; stroke-opacity:1; fill:none" points="1643.15,1406.9 1646.39,1406.9 1649.62,1406.9 1652.86,1406.9 1656.1,1406.9 1659.33,1406.9 1662.57,1406.9 1665.81,1406.9 1669.05,1406.9 1672.28,1406.9 1675.52,1406.9 "></polyline>
<polyline clip-path="url(#clip842)" style="stroke:#f05f73; stroke-linecap:round; stroke-linejoin:round; stroke-width:4; stroke-opacity:1; fill:none" points="1675.52,1406.9 1678.76,1406.9 1682,1406.9 1685.23,1406.9 1688.47,1406.9 1691.71,1406.9 1694.94,1406.9 1698.18,1406.9 1701.42,1406.9 1704.66,1406.9 1707.89,1406.9 "></polyline>
<polyline clip-path="url(#clip842)" style="stroke:#dd64b5; stroke-linecap:round; stroke-linejoin:round; stroke-width:4; stroke-opacity:1; fill:none" points="1707.89,1406.9 1711.13,1406.9 1714.37,1406.9 1717.61,1406.9 1720.84,1406.9 1724.08,1406.9 1727.32,1406.9 1730.55,1406.9 1733.79,1406.9 1737.03,1406.9 1740.27,1406.9 "></polyline>
<polyline clip-path="url(#clip842)" style="stroke:#6b9e32; stroke-linecap:round; stroke-linejoin:round; stroke-width:4; stroke-opacity:1; fill:none" points="1740.27,1406.9 1743.5,1406.9 1746.74,1406.9 1749.98,1406.9 1753.22,1406.9 1756.45,1406.9 1759.69,1406.9 1762.93,1406.9 1766.16,1406.9 1769.4,1406.9 1772.64,1406.9 "></polyline>
<polyline clip-path="url(#clip842)" style="stroke:#009af9; stroke-linecap:round; stroke-linejoin:round; stroke-width:4; stroke-opacity:1; fill:none" points="1772.64,1406.9 1775.88,1406.9 1779.11,1406.9 1782.35,1406.9 1785.59,1406.9 1788.83,1406.9 1792.06,1406.9 1795.3,1406.9 1798.54,1406.9 1801.77,1406.9 1805.01,1406.9 "></polyline>
<polyline clip-path="url(#clip842)" style="stroke:#e26f46; stroke-linecap:round; stroke-linejoin:round; stroke-width:4; stroke-opacity:1; fill:none" points="1805.01,1406.9 1808.25,1406.9 1811.49,1406.9 1814.72,1406.9 1817.96,1406.9 1821.2,1406.9 1824.43,1406.9 1827.67,1406.9 1830.91,1406.9 1834.15,1406.9 1837.38,1406.9 "></polyline>
<polyline clip-path="url(#clip842)" style="stroke:#3da44d; stroke-linecap:round; stroke-linejoin:round; stroke-width:4; stroke-opacity:1; fill:none" points="1837.38,1406.9 1840.62,1406.9 1843.86,1406.9 1847.1,1406.9 1850.33,1406.9 1853.57,1406.9 1856.81,1406.9 1860.04,1406.9 1863.28,1406.9 1866.52,1406.9 1869.76,1406.9 "></polyline>
<polyline clip-path="url(#clip842)" style="stroke:#c271d2; stroke-linecap:round; stroke-linejoin:round; stroke-width:4; stroke-opacity:1; fill:none" points="1869.76,1406.9 1872.99,1406.9 1876.23,1406.9 1879.47,1406.9 1882.71,1406.9 1885.94,1406.9 1889.18,1406.9 1892.42,1406.9 1895.65,1406.9 1898.89,1406.9 1902.13,1406.9 "></polyline>
<polyline clip-path="url(#clip842)" style="stroke:#ac8d18; stroke-linecap:round; stroke-linejoin:round; stroke-width:4; stroke-opacity:1; fill:none" points="1902.13,1406.9 1905.37,1406.9 1908.6,1406.9 1911.84,1406.9 1915.08,1406.9 1918.32,1406.9 1921.55,1406.9 1924.79,1406.9 1928.03,1406.9 1931.26,1406.9 1934.5,1406.9 "></polyline>
<polyline clip-path="url(#clip842)" style="stroke:#00a9ad; stroke-linecap:round; stroke-linejoin:round; stroke-width:4; stroke-opacity:1; fill:none" points="1934.5,1406.9 1937.74,1406.9 1940.98,1406.9 1944.21,1406.9 1947.45,1406.9 1950.69,1406.9 1953.93,1406.9 1957.16,1406.9 1960.4,1406.9 1963.64,1406.9 1966.87,1406.9 "></polyline>
<polyline clip-path="url(#clip842)" style="stroke:#ed5d92; stroke-linecap:round; stroke-linejoin:round; stroke-width:4; stroke-opacity:1; fill:none" points="1966.87,1406.9 1970.11,1406.9 1973.35,1406.9 1976.59,1406.9 1979.82,1406.9 1983.06,1406.9 1986.3,1406.9 1989.54,1406.9 1992.77,1406.9 1996.01,1406.9 1999.25,1406.9 "></polyline>
<polyline clip-path="url(#clip842)" style="stroke:#c68125; stroke-linecap:round; stroke-linejoin:round; stroke-width:4; stroke-opacity:1; fill:none" points="1999.25,1406.9 2002.48,1406.9 2005.72,1406.9 2008.96,1406.9 2012.2,1406.9 2015.43,1406.9 2018.67,1406.9 2021.91,1406.9 2025.15,1406.9 2028.38,1406.9 2031.62,1406.9 "></polyline>
<polyline clip-path="url(#clip842)" style="stroke:#00a98d; stroke-linecap:round; stroke-linejoin:round; stroke-width:4; stroke-opacity:1; fill:none" points="2031.62,1406.9 2034.86,1406.9 2038.09,1406.9 2041.33,1406.9 2044.57,1406.9 2047.81,1406.9 2051.04,1406.9 2054.28,1406.9 2057.52,1406.9 2060.75,1406.9 2063.99,1406.9 "></polyline>
<polyline clip-path="url(#clip842)" style="stroke:#8e971d; stroke-linecap:round; stroke-linejoin:round; stroke-width:4; stroke-opacity:1; fill:none" points="2063.99,1406.9 2067.23,1406.9 2070.47,1406.9 2073.7,1406.9 2076.94,1406.9 2080.18,1406.9 2083.42,1406.9 2086.65,1406.9 2089.89,1406.9 2093.13,1406.9 2096.36,1406.9 "></polyline>
<polyline clip-path="url(#clip842)" style="stroke:#00a8cb; stroke-linecap:round; stroke-linejoin:round; stroke-width:4; stroke-opacity:1; fill:none" points="2096.36,1406.9 2099.6,1406.9 2102.84,1406.9 2106.08,1406.9 2109.31,1406.9 2112.55,1406.9 2115.79,1406.9 2119.03,1406.9 2122.26,1406.9 2125.5,1406.9 2128.74,1406.9 "></polyline>
<polyline clip-path="url(#clip842)" style="stroke:#9b7fe8; stroke-linecap:round; stroke-linejoin:round; stroke-width:4; stroke-opacity:1; fill:none" points="2128.74,1406.9 2131.97,1406.9 2135.21,1406.9 2138.45,1406.9 2141.69,1406.9 2144.92,1406.9 2148.16,1406.9 2151.4,1406.9 2154.64,1406.9 2157.87,1406.9 2161.11,1406.9 "></polyline>
<polyline clip-path="url(#clip842)" style="stroke:#608cf6; stroke-linecap:round; stroke-linejoin:round; stroke-width:4; stroke-opacity:1; fill:none" points="2161.11,1406.9 2164.35,1406.9 2167.58,1406.9 2170.82,1406.9 2174.06,1406.9 2177.3,1406.9 2180.53,1406.9 2183.77,1406.9 2187.01,1406.9 2190.25,1406.9 2193.48,1406.9 "></polyline>
<polyline clip-path="url(#clip842)" style="stroke:#f05f73; stroke-linecap:round; stroke-linejoin:round; stroke-width:4; stroke-opacity:1; fill:none" points="2193.48,1406.9 2196.72,1406.9 2199.96,1406.9 2203.19,1406.9 2206.43,1406.9 2209.67,1406.9 2212.91,1406.9 2216.14,1406.9 2219.38,1406.9 2222.62,1406.9 2225.86,1406.9 "></polyline>
<polyline clip-path="url(#clip842)" style="stroke:#dd64b5; stroke-linecap:round; stroke-linejoin:round; stroke-width:4; stroke-opacity:1; fill:none" points="2225.86,1406.9 2229.09,1406.9 2232.33,1406.9 2235.57,1406.9 2238.8,1406.9 2242.04,1406.9 2245.28,1406.9 2248.52,1406.9 2251.75,1406.9 2254.99,1406.9 2258.23,1406.9 "></polyline>
<polyline clip-path="url(#clip842)" style="stroke:#6b9e32; stroke-linecap:round; stroke-linejoin:round; stroke-width:4; stroke-opacity:1; fill:none" points="2258.23,1406.9 2261.47,1406.9 2264.7,1406.9 2267.94,1406.9 2271.18,1406.9 2274.41,1406.9 2277.65,1406.9 2280.89,1406.9 2284.13,1406.9 2287.36,1406.9 2290.6,1406.9 "></polyline>
</svg>